/* XPM */
static char *_9c22a959f5b410a97c16fb1c2388bc2EFtD3TVVUyb2tp4J[] = {
/* columns rows colors chars-per-pixel */
"80 80 255 2 ",
"   c #1A1012",
".  c #3D0102",
"X  c #3B0108",
"o  c #2A170C",
"O  c #291815",
"+  c #331D15",
"@  c #371F16",
"#  c #3A2216",
"$  c #3C2319",
"%  c #382D32",
"&  c #430201",
"*  c #4B0803",
"=  c #550B03",
"-  c #5C1305",
";  c #591507",
":  c #5D1409",
">  c #561710",
",  c #621402",
"<  c #691600",
"1  c #641A01",
"2  c #6B1C01",
"3  c #61150B",
"4  c #621A0C",
"5  c #691D0C",
"6  c #651C11",
"7  c #6A1C13",
"8  c #46271B",
"9  c #4C2B1D",
"0  c #532A10",
"q  c #552C1B",
"w  c #58321E",
"e  c #692203",
"r  c #772806",
"t  c #7E2B0C",
"y  c #743213",
"u  c #78361A",
"i  c #432A21",
"p  c #4C2D21",
"a  c #542E20",
"s  c #48362D",
"d  c #543222",
"f  c #5B3523",
"g  c #5D3826",
"h  c #44373C",
"j  c #653523",
"k  c #643A26",
"l  c #6A3D26",
"z  c #653C29",
"x  c #6A3E29",
"c  c #763A22",
"v  c #56453B",
"b  c #6C4026",
"n  c #6D412A",
"m  c #73442B",
"M  c #78472C",
"N  c #7B492E",
"B  c #674C39",
"V  c #744D37",
"C  c #7C4C32",
"Z  c #78523B",
"A  c #463B45",
"S  c #4B3D45",
"D  c #4D4249",
"F  c #54444B",
"G  c #594748",
"H  c #594D51",
"J  c #6E5547",
"K  c #69554B",
"L  c #6B5854",
"P  c #735C56",
"I  c #6E6057",
"U  c #796459",
"Y  c #796A66",
"T  c #802C0E",
"R  c #883908",
"E  c #8D3D0A",
"W  c #913F0B",
"Q  c #843315",
"!  c #8B3717",
"~  c #873917",
"^  c #8C3C15",
"/  c #85351A",
"(  c #89361A",
")  c #8B3B1C",
"_  c #8B3C22",
"`  c #893924",
"'  c #913E25",
"]  c #8A4606",
"[  c #984904",
"{  c #91410B",
"}  c #9C5503",
"|  c #9C550D",
" . c #87461A",
".. c #994A19",
"X. c #9C5314",
"o. c #A3540B",
"O. c #A65A0B",
"+. c #A14E17",
"@. c #A95B13",
"#. c #B36E08",
"$. c #B7671B",
"%. c #894727",
"&. c #924324",
"*. c #9A4A24",
"=. c #97482A",
"-. c #9A4A2B",
";. c #974731",
":. c #9B4A32",
">. c #855435",
",. c #8D5331",
"<. c #A45728",
"1. c #A15334",
"2. c #93662A",
"3. c #BB6624",
"4. c #B96A22",
"5. c #B86826",
"6. c #BC7428",
"7. c #AC683B",
"8. c #B96B35",
"9. c #B87838",
"0. c #C1671B",
"q. c #C67A1A",
"w. c #C16A28",
"e. c #C87927",
"r. c #D07C24",
"t. c #C26E33",
"y. c #C67B37",
"u. c #895B44",
"i. c #925F41",
"p. c #89654A",
"a. c #98714B",
"s. c #826A5D",
"d. c #AD6942",
"f. c #B46D44",
"g. c #B66E48",
"h. c #B77546",
"j. c #BB7346",
"k. c #BC7549",
"l. c #BE794A",
"z. c #A67751",
"x. c #B67A54",
"c. c #897566",
"v. c #86736A",
"b. c #947B69",
"n. c #A47F71",
"m. c #C27846",
"M. c #C37D4C",
"N. c #C37E51",
"B. c #B88927",
"V. c #DB8606",
"C. c #DD850C",
"Z. c #DA8618",
"A. c #DD951E",
"S. c #E18809",
"D. c #EC9D0E",
"F. c #E2861A",
"G. c #E99A1C",
"H. c #EBAB19",
"J. c #FBBB17",
"K. c #C9862B",
"L. c #D98727",
"P. c #CC962A",
"I. c #D89528",
"U. c #DE932D",
"Y. c #C98638",
"T. c #D58433",
"R. c #D98837",
"E. c #CC973C",
"W. c #DC9233",
"Q. c #D49839",
"!. c #E28623",
"~. c #E49825",
"^. c #EC9A22",
"/. c #E2942C",
"(. c #E49A2C",
"). c #E49834",
"_. c #F39D31",
"`. c #D6A63A",
"'. c #E8A22B",
"]. c #F5A92B",
"[. c #F5B52A",
"{. c #EBA539",
"}. c #F4AD34",
"|. c #F5A738",
" X c #F5AC3B",
".X c #F9AD3B",
"XX c #F8B136",
"oX c #F7C719",
"OX c #F7D12E",
"+X c #F5E23E",
"@X c #A68E56",
"#X c #B58A52",
"$X c #958777",
"%X c #968778",
"&X c #9C8C7C",
"*X c #B3906B",
"=X c #A48B79",
"-X c #A3917E",
";X c #AB957C",
":X c #C5824D",
">X c #C9834E",
",X c #C98848",
"<X c #D28941",
"1X c #CA9845",
"2X c #D29944",
"3X c #C68352",
"4X c #CA8551",
"5X c #CD8B53",
"6X c #C88959",
"7X c #D18D55",
"8X c #C99757",
"9X c #D4955A",
"0X c #E39C4A",
"qX c #D3A751",
"wX c #EBA748",
"eX c #F3AC46",
"rX c #F7B146",
"tX c #E8AB52",
"yX c #EEB255",
"uX c #CC9665",
"iX c #CC9467",
"pX c #D59B66",
"aX c #CEAF6F",
"sX c #D7A669",
"dX c #D9A875",
"fX c #E2B36D",
"gX c #F6D74D",
"hX c #E8D351",
"jX c #998C82",
"kX c #9D9283",
"lX c #A49482",
"zX c #AA9681",
"xX c #AD9A83",
"cX c #A89A89",
"vX c #B29D84",
"bX c #B59D89",
"nX c #B7A387",
"mX c #BAA58A",
"MX c #BDA98C",
"NX c #B3AA93",
"BX c #BBAB95",
"VX c #B7AEA2",
"CX c #C2AB8C",
"ZX c #D9BB87",
"AX c #D3B48E",
"SX c #C4AB96",
"DX c #C6B598",
"FX c #DFB494",
"GX c #CDB7A5",
"HX c #D6C195",
"JX c #E5C68C",
"KX c #E5C893",
"LX c #D6CBB1",
"PX c #E8D2B6",
"IX c #E6E1C9",
/* pixels */
"# 8 p x l f J P U S h A + $ K L P &Xb.H F F F F D O $ + U DXCXvXvXvXvXvXnXvXvXxXzXxXH $ g m m m x k w j _ 9Xm.M.M.>X4X4Xm.:X4X>X:XM.M.l.l.l.x.g m C N x f a 8 $ ",
"n N N m m f 9 G H h O + B p.p.U -X-X-XY L G F S h + 8 # U HXmXxXxXxXxX=XvXvXvXxXxXF D O p g >.>.>.>.N m f ;.:X3X6XuXuX9X6X5X3X5X3X3Xl.3Xu j 9 x N >.C N M M m m ",
">.>.m z v cX8 q d 9 d p.aXaXqXfXaXaXaXCXCXSXBXSXSXSXCXbXSXGXLXGXGXGXGXDXSXSXSXSX%Xb.v.U c.b.=Xn.=X=X*X;X;X=XAXdXdXsXfXfXyXyXyXfXfXfX#XV a n m >.>.N N N N N g M ",
">.M n 9 LXxXzXY q f Z 8XhX+X+X+XgXgXB.| ,.>.u.u.>.>.>.>.>.u.u.u.u.u.u.p.p.p.p.p.Z Z Z V C >.C p.u.u.>.>.>.>.>.2.2.B.gXgXgX+X+X+XhXhXqX@XZ M l b k w q d f f f N ",
">.m f $XBXvXxXlXlX+ a.qXgXOXOXOXOXOX#.]  .%.%.c %. . . . . .%.%. . . . . . . . . . . . . . . . . . . . . . . .] ] B.gXOXoXoXoXoXoXOX`.8XZ 6X>X>X5XM.M.M.l.k.c m ",
"m x # G mXBXxXzXlXcXa.qXOXoXoXoXoXH.#.} | X.<.<.X.| } } } | X.X.| | | | | | | | X.| X.| X.| X.| | | | X.X.X.| } } #.[.oXoXJ.J.oXoXoX}.fXpX4X4X4X4X>XM.m.k.k.,.l ",
"m f VXb.b.$XP K v.cX@X`.[.J.J.J.J.[.G.~.).).W.).)./././.(.(.(.(.(.(.(.(.(.(.(.(.(.(.(.(.(.(.(.(.(.(.(.).).).).(.~.'.[.J.J.J.J.J.J.J.XXtXpXZXM.>X4X:XM.M.k.j.1.k ",
"x 8 c.c.PXDXmXvXlXcX@X`.'.D.D.D.D.G.G.G.G.^.^.^.^.^.^.G.^.^.^.^.^.G.G.G.G.G.^.G.^.G.^.G.^.G.^.G.G.G.G.^.^.^.^.^.G.G.D.D.D.D.D.D.D.D.~.2XZX#X%.l.:XM.m.k.k.f.,.f ",
"k K s.s.c.vXDXBXNXNX*XK.V.S.S.V.C.C.C.C.S.S.S.C.C.C.C.C.C.C.C.C.C.C.Z.G._.]._._.].^.F.C.C.S.S.C.S.V.C.C.C.C.S.S.S.S.S.V.V.V.C.C.V.C.Z.<XdX5X5X3XM.m.l.k.j.f.%.8 ",
"k s.G c.s.U U U v.F $XB.Z.C.Z.L.L.L.L.F.F.F.F.F.F.F.!.!.Z.Z.Z.Z.L.Z.L./._._._._._._./.!.!.!.!.Z.F.F.F.!.!.F.F.F.F.F.F.F.!.L.L.L.!.L.L.7XsX4X4XM.m.k.j.k.3Xc 0 l ",
"l 9 s U U K U U Y D b.B.L.q.$.3.5.5.5.w.w.w.w.w.w.w.w.w.w.w.w.w.w.3.3.5.5.3.3.3.5.5.5.3.3.3.3.3.3.3.3.w.w.w.0.0.0.0.0.3.3.5.5.3.$.L.T.pXpX:XM.M.l.k.h.c 9 m m m ",
"q f f $ G G P P P S J 9.e.[ = = = = = - , , , < < < < < < < < < 2 < < < < , < < , , < < < < < < < < < < < < < < < < < - = * * = 2 $.y.pXuX4Xg.m.M.m.c f M m k q ",
"lX+ d f f 8 + s G O J x.Y.+.= & & & & = 3 4 1 1 1 1 1 1 1 1 1 1 1 1 1 1 1 1 1 1 1 1 e 2 2 2 2 2 2 2 5 5 5 5 2 2 2 1 : = & . & & 2 y.,XdX6XM.l.l.%.q g n l d kXnX",
"-X-XU p f z x f g g u.x.m.<.= & . . . * > 6 6 3 3 3 4 4 4 4 4 4 5 5 4 4 4 4 4 4 4 4 4 4 4 : : : 4 : 4 : 3 : : 4 : : > & . . . & e y.h.@Xz u u ,.c k n f # nXnXbX",
"-X-X&X%X+ d k x x m >.x.9.8.= . . . . * = : ; - - : : : : - - - - - - - 3 3 - - - - - - - - - - - - - : : : - - : ; * & . . . & y ,X#X@Xm m n n m n p LXMXnXnXvX",
"-X-X-X&X&X$X8 k x b >.z.9.y.= . . . . * = ; - - - - : : : : : : 3 3 - - - 3 - - 3 : - - : : - - - - - : : : : - : ; * & . . . & ] ,X8Xz.g b m C m d DXMXMX$Xs.bX",
"zX-X&XkXD S S a m C >.z.9.y., & . . . & * : - - - - - - - - : : - - - - - - - : : : : - - - - - - - ; - : : - - - ; & . . . & * X.,XuXsXk.8 m m k cXLXSXmXmXmXnX",
"xXzXlXh S A # d m C >.a.9.y.e & . . . & * : - - - - - - - - - : - - - - : : : : : : : : - - - - : - - ; - : : - - ; . . X . . * @.,XuXuXl.>.m m f b.s.PXSXCXmXnX",
"nXcXv.A A + p g m M >.i.l.<Xy & . . . & * : : - - - - - - - - : : : : : : : : : : : : : : : : : - - ; ; - : : - - = . . X X . = 5.,XdX6Xk.g.f m l L U G L mXSXMX",
"G D A % + 9 n m x x M >.#X,X%.& . . . & * : 3 3 3 : 4 4 4 4 4 6 6 6 6 6 4 4 3 3 6 6 6 6 3 3 3 3 4 3 4 : 3 6 3 3 4 ; . . X X & - 8.,XdX6Xl.k.w m m d + D K Y H G ",
"A h O 8 g l f 0 5X:Xf C #X:X=.* . . . . * : : : : 4 4 : 4 3 6 6 3 3 3 3 4 4 4 4 4 4 4 4 4 4 4 4 3 4 : : : : 3 3 : = . . X . . 1 y.,XsX4Xl.k.f.x N m l d 8 O F D ",
"d f f w > uX:X:X4X:X:X6Xa.9.1.* . . . . & ; : : - - ; - - - - : - - - - - - - - - - - - - - - - - - = ; ; ; - - - * . . X . . e y.8XdX3Xk.k.f.8 M N m x k d q q ",
"3X4XM.M.>X:X:X3X>X:X:X:XpX,X7.= . . . . & ; : - ; ; ; ; - - - : - - - - - - - - - - - - - - - - - - - - ; ; : : ; * . . X . & y :XpXsX:XM.j.g.k N m w i.9X>XM.M.",
"M.:X5X:X:X:X4X5X4X:X>X>XpX,Xf.- . . & . * > : : - ; ; ; - - - - - - - ; - - - - - - - - - - - - - - - ; ; ; ; ; : * & . . . * u :XsXuXl.j.g.f.m N q 7X4X>X>XM.m.",
"N.5X5X5X5X5X5X7XpXl.M.4XuX8Xl.e & . . & * > : : ; ; ; ; - - - - - - - - - - - - - - - - - - - - - - - - ; - - - : * . . . & * %.:XdXuXk.g.g.d.m M %.5X5X5X5X3XM.",
">X4X5X:X3X4X9X9X9X9X9X9Xd.8X#Xe & . & . & = : : ; - - - - - - : - - - - - - - - - - - - - - - - 3 - ; - ; ; : : : * . . . & * 1.3XdXd.f.g.f.d.m m pX7X5X5X5X5X4X",
":X>X4X7X7X7X7X9X9X9X9X9X7XsX:Xy & . & & * : : 4 : : : : : 3 3 3 3 3 3 3 3 3 3 3 3 3 3 3 4 4 4 4 4 4 4 : : : 4 4 3 > & . . . = 7.6X*Xa.l.k.g.1.m n pX5XfX5X5X5X5X",
"9X:X5Xl.dXi.9X9X9X9X9X9X7XsX,X .& . & & = 6 6 6 6 6 4 4 6 7 7 7 6 6 6 6 6 6 6 6 4 4 4 4 4 6 6 6 7 7 e e 4 6 7 7 6 > & . . . - h.8XdXN.N.l.l.k.x l 9X5Xh.3X4X5X4X",
"N.4X5Xd.x.5X9X5X7X5X7X5X7XdX4X..* . & & = : : : = = - - - - - - - - - - - - - - - - - : : : : 3 : - - - - - - - : > & . . & e l.uXdXM.l.M.l.j.k x 9X4X4X4X4X5X4X",
"M.5X4X5X5X5X5X5X5X5X5X5X5XpX4X<.* . & * = : - - - - - - - - - - - - - - - - - : - - - - - - - : 3 3 - - - - - : : > * & & & r 3XpXpXM.l.k.k.f.d l 5X>X4X4X4X:XM.",
"M.M.>X3XM.3X4X:X4X4X3X:XN.uX5X7.= & * = : : : : - - - - - - 3 - - - - - - : : : : : : : : : : 3 3 3 - - - - : : : : > * & & t 3XdXuXk.j.j.k.g.a n f.:Xm.M.M.M.m.",
"=.g.:X:X3XN.:Xj.M.3X:XM.M.6X7X8.= * * - - - - , - - - - , , , , , - , , , , , , , , , , , - , , , , , , , , , , - - : = * * { 5XpX3Xj.j.g.f.g.d m j M.M.M.N.=.7.",
"g d 9 j j <.M.m.:XM.M.M.l.l.8Xe.e 1 1 2 e e 2 2 2 2 2 2 2 2 2 2 < < 2 2 2 < < 2 2 2 2 2 2 2 2 2 2 2 2 2 2 2 2 2 2 < 2 e 1 , +.5X*Xg q l u d.d.q m w &.l w k f d ",
"n k x m x q %.<.m.M.M.l.,.M 9XK.6.8.8.8.8.8.6.6.t.t.t.t.t.t.t.t.t.8.t.t.t.t.t.t.t.8.t.t.t.t.t.t.t.t.t.t.t.t.t.t.8.8.t.t.6.4.y.,XCX8 d g k f >.k N m m N m n g q ",
"9 + p f m M z 0 *.m.M.M.M.:XsXR.R.R.R.R.R.R.R.R.T.T.T.R.R.R.R.R.R.R.R.R.R.R.R.R.T.T.T.T.T.T.T.T.T.T.T.T.T.T.T.T.R.R.T.T.T.L.L.2XHXnXxXkX$ 9 k N >.>.N m k # LXBX",
"BXvXlX+ 9 n N m g ` 7.M.M.uXuXy.5.4.4.4.4.$.$.$.$.$.4.4.3.3.3.3.3.4.$.$.$.$.3.3.4.4.$.$.$.$.$.4.4.4.4.4.3.3.3.3.3.3.4.4.$.$.$.2XdXDX%XVXkXjX9 x m C m w LXDXmXnX",
"nXxXxXkXI 8 g n N n 0 <.6XsX6X ., < < < < 1 < < < < < , , , , , , , , , , , , , , , , , , , , , , , , , , , , , < , , , - 1 r l.uXAXbXc.v.%XH p x n m cXHXSXmXmX",
"xXxXzXlXkXjX# f m M m k x.#X7.e - - 3 - - , , - , , 3 3 3 3 3 3 - ; ; - - - - - - - - - - - - - 3 3 3 3 3 3 , , 3 - 1 1 , - , *.8XaXDXlX&XD D + d n f NX%XnXMXMX",
"xXxXb.$XlX&XjX+ f n C u.#X9.] ; - - 3 - , 3 3 3 - - - - - - - - 3 3 - : - - - - - - - - - - 3 , 3 3 3 3 , , , , 3 3 3 - , - 1 R 9.8XFXI D S A # d n # b.b.$XHXMX",
"vXvXzX-XcXkXjXO p g V z.#X6.e ; , , , , , , , - , , , , , , , , < < < , , , , , , , 1 1 1 1 < < 1 1 1 1 1 1 1 1 , 1 2 , 1 , e r } E.*Xv.S S O 9 N f &Xc.s.$XGXSX",
"vXvXcXDXF A S O i g p.#XK.q.O.} O.@.@.O.O.O.@.@.O.O.@.@.@.@.O.@.@.@.@.@.o.[ [ [ [ [ [ [ O.@.@.@.@.@.@.@.@.@.O.O.O.@.@.@.O.O.O.#.#.P.#X=XH O p C C g + s.P $Xb.LX",
"vXBXH F S F % # d V *XY.U.(.U.)./././././.).(.).U.U.U.U.U.U.U./.).)././.L.q.r.r.K.q.q.U.).)././././././.U.U.U.U.U.U.U./././.~.~.~.(.B.@XJ p x >.N x 9 U L c.c.s.",
"cXF F S % O # p p B *X1X X.X.X X X X X X.X.X.X.X.X.X.X.X.X.X.X.X|..X X X X XrXeXrXeX|.}.}.}.}..X X X X}.}.}. X X.X X X.X.XXX}.].]. XwX#Xb.n C N g z f 9 o U s.c.",
"G F D h + # PXSXnXNX@X1XrX.X.X.X}.}.XX}.}.XXXX}.XX}.}.}.}.}.XXXX.X.X}.}.XX XrXeXeXrXXXXX}.}.XX.X}.XXXX}.}.}.}.XX}.}.}.XXXX].].].XXrXtX#X@Xm m LXxXlX9 f f o U U ",
"F D % # 8 IXCXmXxXkXp.8XwX}..X}.}.}.}.}.}.XXXXXXXXXX}.}.}.}.XXXX.X|.].].}.}.eXrXrXeX.XXX[.].}.}.}.}.}.}.}.}.}.XX}.}.}.}.}.].].].]. X2X#X@XM d DXnXxXY # g k 9 H ",
"F % 8 9 # MXMXmXNX%XG @XE.I.(.(.'.'.'.(.'.'.'.'.'.'.~.~.G.G.G.G.~.(.'.].}.rXwXK.R.wXrX}.G.'.'.{.(.'.'.'.'.'.'.'.'.~.A.I.~.~.^.^.^.).2XdXV m i U L P L + a z n l ",
"+ 9 g 8 BXMXmXmXmX% D J E.{. X XeXeX{.{.{. X{.{.).)./.~.!.F.!.~.).{.}.}.|.eXY.r r e.rX}.~.(.{.{.eXeX{.{. X X|.{.(./.L.U./.(.|.|.].W.qXpXw x s L L L H + p x n C ",
"k z d BXmXMXmXBXF D   Z #XwX X).W.R.R.R.R.R.T.T.r.e.e.q.q.r.L.T.W.T.U.|.eXwX6.e e 4.eX|.A.Z.R.R.R.R.R.R.R.R.T.T.e.e.e.e.r.L./.|.'.I.9XuXg z f + s h O 9 g n >.C ",
"n >.9 BXDXCXDXF D h o DXfXtXeXq.} | X.X.....X...X.X.+.+.+.+.+.+.X.| } W.rXeXwX[ [ wXeXeXq.} | X.....+.X.X.X.X.X.....W E W [ [ L.~.P.sXZ n n k q f f k N N m m n ",
"x n f U I DXF S A + bXDXfXwX{.q.| ..*.-.-.-.*.*.....*.*.*.*.*.*.*...o.Q.rXrXyX6.$.yXrXeX6.[ ..*.*.*.*...*.*.*.......^ ^ ^ { [ L.I.K.*Xu.M >.N N N N N x k d f f ",
"z z k 9 L L F A % + U DXaXE.U.6.| ..*.-.-.-.-.*.*.*.*.-.-.-.-.-.=.*.<.R.eXeXwXT.e.wXeXrXe...&.-.-.*.*.*.*.-.*...^ ^ ( ^ ^ { [ L.I.E.*XC M N n l f q $ s DXBX%X+ ",
"9 g k d 9 G G O # @ U Y *XE.W.e.| ..*.-.;.=.=.*.*.*.-.-.-.-.-.-.:.-.*.8.0XyXyXyXtXyXeX0X5.*.=.:.-.-.*.*.*.*.&.) ) ) ) ) ^ W o.W.W.1X*X>.x 8 c.LXDXmXnXnXK zX$Xh ",
"lXb.9 f f f f g k q G U *X8XeXW.X.*.-.:.:.:.-.-.*.*.-.-.-.:.-.-.:.-.&.X.5.y.y.y.<XY.e.4.....;.:.:.-.-.-.=.&.&.( ) _ _ _ ^ E @.0X`.1X*Xn 8 DXDXMXc.v GXzX-X-XH % ",
"lXlXlXNX8 f k n n l 8 G $X8XyXQ.{ .._ ' ' ' _ &.&.&.&.&.' ' _ ) ) &...{ { { R R E E { { ^ &.&.&._ &.&. .) ` ( / / / ` ( ! R 4.tX2X8X*Xd IXMXnXvXxXzXlXlX-XD h v ",
"lXlX-X-XkXY 9 f x l l w p.#XyXQ.{ ^ / ( ` ` / ( ~ ~ ( / / Q T T t T T T R Q Q ^ ! Q ^ R Q ^ ^ Q ( ` ~ Q Q Q / / / / / / ! R 5.yXqX8Xz.+ LXmXnXbXzXzXlXxX% % IXnX",
"zXlXlX-X&X&Xv.$ d f m N a.#XyXwX@.*.-.:.:.:.:.-.-.-.-.:.:.-.=.*.*.*.&.-.1.-.=.-.-.=.=.-.-.-.<.-.-.;.&.) ( ` _ _ ` ( _ ( ) E 6.yXtX8Xp.xXDXmX;XbXvXxXzXA   LXmXnX",
"v BXlXcXv %X$XY 9 z m m p.#XtXwX5...<.-.;.=.=.:.-.-.-.-.-.-.-.-.-.-.-.-.:.-.-.*.-.-.-.-.-.-.-.-.=.&.) ) ) _ ` ` ` ` _ ) ^ { y.yXqXaXB c.c.c.DXnXbXv.S %   mXnXvX",
";X&X&X&X&X&X%XY O d n x Z sXtXwX5...-.-.:.;.;.-.-.-.-.-.-.-.-.-.-.;.-.-.;.-.-.*.*.-.:.:.:.-.;.=.' _ ) ) _ _ _ _ _ ) _ ) ^ { T.yXqXaXi c.K U v s.D S O @ LXnXvXxX",
"-X-XlXcXY D S h S p n n z.sXtXeX4...*.*.-.:.-.-.-.-.-.-.-.-.-.-.:.:.-.-.:.-.-.*.*.*.-.:.;.&._ ` _ ) ) ) ) ) ( ( ) ( ) ) E ] R.tXqXaXz + L P P U S A + O nXvXvXxX",
"L F S S A A A % + q z 0 :XdXtXeXe.....*.;.-.-.-.-.-.-.-.-.-.-.-.;.;.=.=.=.=.*.*.*.-.-.-.&.' ` ` ( ( ) ) ) ) ( ) ) ( ) ) { [ ).wXqXaXC l + G L P h + $ v.nXbXvXxX",
"A S h % O + 8 p g g i.:X5XdXwXwX6.{ ^ ^ ( ( ( ( ( ( ( / / / / Q / / Q Q / ( ~ Q ~ / / t t t t r r t t t Q Q Q Q Q t Q T R E W.W.1X*Xm m n k 9 + 8 p p # G &XF h ",
"$ 9 p d d z z x w fX5X>X4XsXQ.U.y.....*.=.&.&.&.&.&.&.&.' _ _ _ ( ~ ~ ~ ( ` ( / / / / Q T Q Q / / Q / ~ ( ( / ( ( Q ^ ^ R [ W.W.qX*XC C N m n n n n n z f 9 $ + ",
"m m N m m l q #X5X5X5X>X3XpXE.L.Y.....-.-.-.-.-.-.-.-.-.;.;.-.-.:.;.*.*.=.;.=.&._ _ _ ) ^ ) _ _ _ _ ) ) ( ` ` ) ) ^ ^ ^ E o.U.I.qX*Xm M m N M m n l k k j k k g ",
"m N M k 0 pX4X4X7X>X:Xl.4X8X2X).R.+...-.-.;.:.-.-.-.-.-.:.:.-.-.;.;.=.*.&._ _ ) _ _ _ ) ^ ) ( ` _ ` ) ( ` ` _ ) ) ^ ) ^ E @.L.I.8XPXb.f n m f M.j.h.k.g.f.h.q d ",
"l m a 7X5X4X5X7X5X5X4X4X4X9XtXeX0X@...-.:.;.-.-.*.*.=.=.;.=.=.=.&.&.) ) ) ) ) ) ( ( ) ) ) ) ) ( ` _ _ _ ) ) ) ) ( ( ' ^ W $.I.P.aXHXNXcX9 k l q 1.1.f.f.f.1.7.7.",
"x f sX7X4X5X5X7X7X7X5X5X9XpXqX(.W.o...-.:.:.-.-.*.*.=.&.&.&..... .) ) ( ( ( ( ( ( ( ( ( ( ( ( ( ( ( ( ( ( ) ) ) ( ( ( R E $.I.I.aX-XxXb.-Xo f k 9 :.f.f.f.7.7.c ",
"k sX>X>X4X5X4X7X4X5X5X4X5X6X2XI.L.o.{ ^ ` ` ^ ^ ^ Q Q Q t y t t T T T T T T T t t t t t t T T T T t t t t t t t T t T r R $.A.P.aXMXvXvXzXlXkXd f %.f.f.f.d.d.d ",
"0 :X>X:X>X>X>X>X4X6XpX6X>X3XqXQ.).O.R Q / / Q Q ^ Q / / / / Q Q Q Q Q Q ( ( ( ( ( ( ( ( ( ( ( ( ( ( ( ( ( ( ( ( / ( ( R ] e.~.P.ZXnXvXxXzXzX%XH p a 7.g.g.f.8 n ",
"d u 5XM.m.M.:X>X4X>X4X4X:X:XsXtXtX$.E ^ ' _ ( ) ( ( ` _ ` ` ` _ ) ) ) ) _ _ _ _ _ _ _ _ _ _ _ _ ) ) ) _ _ ` ` ` ` _ ^ E [ e.I.E.AXvXvXxXzX&Xv.S @ p g f f k m m ",
"p f q 1.7.7.M.7X5X4X4X:X3X:XsXtXyX6.E E ^ ) ^ ) ^ ) ) _ _ _ ) )  . .) ) ) ) ) ) ) ) ) ~ ~ ~ ~ ~ ^ ^ ^ ^ ) ( ( ( ) ) ^ { [ K.U.2XAXvXvXxXs.s.jXD O p z k n l x f ",
"+ 9 g z z x z q 9X4X:XM.M.M.sXqXwXq.[ ] R E E { E E E E ^ E E R W E E E W E E E W { W W W W W { { { { { { { { { E E E ] [ K.I.2XAXbXxXzXzXcXD A O p k V f f o MX",
"U &X8 Z b.m m m *.>XM.M.M.l.sX1XW.q.o.o.[ o.o.o.o.o.o.o.o.o.o.o.o.o.o.o.o.O.o.O.o.o.o.o.o.o.o.o.o.o.o.o.o.o.o.o.o.o.o.o.O.I.I.qXvXbXvXxXxXF A O i d n g # DXCXCX",
"xX-X$X$ 9 f x m k *.l.l.j.k.sX1XI.I.U.W.).W.W.W.W.W.W.W.W.W.U.U.W.W.W.W.W.W.W.W.W.W.W.W.W.W.W.W.W.W.W.W.U.U.U.U.U.W.U.U./.Z.L.qXzXBXBX%XF A % $ p n g cXCXCXmXCX",
"zXzX-X&XkXkXp z m w k.k.g.y b.aXE.Q.Q.2X2X2X2XQ.Q.Q.Q.Q.Q.Q.Q.Q.Q.2XQ.E.2X2X2X2X2X2X2X2XE.E.E.2X2X2XE.Q.Q.Q.Q.Q.Q.Q.E.Q.Q.E.1XuX$XL L G F A # p n n # SXMXMXMXMX",
"zXzX-X&X&XjX+ g m m l x x n p.;XaXaXZXZXZXZXZXZXJXJXJXJXJXJXJXJXKXJXJXJXJXJXJXJXJXZXZXZXJXJXJXKXKXKXKXKXKXJXJXJXZXJXZXaXAXCXMX-XG G G H h + p n m q cXMXmXnXnXMX",
"-XzX-X&X&XS O p N N N N m m p NXkX%X8 f x N >.V 1.7.6X6X6X6X6X5X4X4X3X6X6X3Xl.l.k.k.g.j.j.j z sXM.M.5XM.M.M.j.3X3Xf V V m g w 9 $ + # $ 9 x N N m @ c.LXMXc.nXnX",
"b.-X&X&XD A + 9 M m m m m l $XDXxX-XkX%X9 f x M N x f g g k k f u ..m.M.M.l.m.k.k.k.k.j.u w j 4X>Xm.M.M.m.m.m.m.k.k.3Xa b m n z z k k j j l m N m q I U mXnXbXbX",
"-X-XlXlXA   8 g k w n f k 9 GXmX%XlXlX&X&X%X$ f l N N m n f f k Z Z q f f u _ j.:Xj.4Xj f q M.M.M.M.M.M.M.m.M.M.m.k.k.x.:Xq mXU 0 uXl.m.j.l.M.n M l 9 v MXnXnXvX",
"BXG F S % $ d IXMXbX-X# 9 # s.U s.c.$XzXkXlX%X%X$ k M n IXmXxXlX9 k z n m N m l k j 9 l n <.M.m.M.M.:XM.M.M.4XPX6XFXl.x.FXl.FXAXm.x.x.m.PXx.FXGXu.J z # U s.LXvX",
"G D h % + 8 B b.c.I cXlX$ # P P U P s.Y DX&X%X%X$X# z d PXnXbX;X-XkXkX# d z M m m m m m m w %.<.M.m.M.M.M.m.M.M.M.M.M.M.M.M.m.m.m.m.m.m.m.7.=.f M N M j P K K K "
};
