/* XPM */
static char *_7e94033891a431eb9f3b55e8a348771kyd54E40Nm5bPRpW[] = {
/* columns rows colors chars-per-pixel */
"80 80 256 2 ",
"   c #190F11",
".  c #2A180C",
"X  c #271715",
"o  c #2C1A14",
"O  c #331D15",
"+  c #381F16",
"@  c #3A2217",
"#  c #3C2319",
"$  c #36282A",
"%  c #3C323A",
"&  c #5F1D04",
"*  c #52290E",
"=  c #43261B",
"-  c #4B2518",
";  c #46291D",
":  c #4B2B1D",
">  c #532D1D",
",  c #582B19",
"<  c #57321E",
"1  c #762707",
"2  c #7B2C0D",
"3  c #77300B",
"4  c #7D2D12",
"5  c #68331B",
"6  c #7B3316",
"7  c #442921",
"8  c #4C2D21",
"9  c #522E21",
"0  c #5B2E22",
"q  c #49352B",
"w  c #543122",
"e  c #5B3523",
"r  c #5E3825",
"t  c #5A3829",
"y  c #45373B",
"u  c #633524",
"i  c #643A26",
"p  c #6A3D26",
"a  c #653C29",
"s  c #6A3E29",
"d  c #753923",
"f  c #784D14",
"g  c #57463B",
"h  c #6A4027",
"j  c #6D412A",
"k  c #73442C",
"l  c #78472C",
"z  c #7B4A2E",
"x  c #7C4B31",
"c  c #794836",
"v  c #714F39",
"b  c #453A44",
"n  c #4B3D45",
"m  c #483D48",
"M  c #4E4149",
"N  c #574646",
"B  c #54444B",
"V  c #5D4A4B",
"C  c #5A4F52",
"Z  c #624D4A",
"A  c #69554C",
"S  c #75554A",
"D  c #6A5753",
"F  c #725C56",
"G  c #746450",
"H  c #796459",
"J  c #776864",
"K  c #7D7677",
"L  c #833507",
"P  c #8D3C03",
"I  c #8C3808",
"U  c #8D3D0B",
"Y  c #812E14",
"T  c #833415",
"R  c #873817",
"E  c #8C3C15",
"W  c #85351A",
"Q  c #89361B",
"!  c #8B3C1D",
"~  c #903C1A",
"^  c #8D3D21",
"/  c #903E23",
"(  c #8D4307",
")  c #954805",
"_  c #994D00",
"`  c #995302",
"'  c #8D4219",
"]  c #984917",
"[  c #9C4A14",
"{  c #92421B",
"}  c #965214",
"|  c #A85A08",
" . c #AA5A11",
".. c #A75A18",
"X. c #B06B11",
"o. c #B5681A",
"O. c #894828",
"+. c #934325",
"@. c #974824",
"#. c #9C4A24",
"$. c #96462A",
"%. c #99462C",
"&. c #954A2C",
"*. c #9A4A2C",
"=. c #975326",
"-. c #834D32",
";. c #974731",
":. c #934A32",
">. c #9A4A31",
",. c #845133",
"<. c #885738",
"1. c #965635",
"2. c #A4542D",
"3. c #936B3B",
"4. c #B36932",
"5. c #C37A16",
"6. c #C06E22",
"7. c #C47729",
"8. c #C47632",
"9. c #865A44",
"0. c #935E43",
"q. c #8A6349",
"w. c #97694A",
"e. c #836A5B",
"r. c #977251",
"t. c #AC6A45",
"y. c #B46D44",
"u. c #A6774B",
"i. c #B77447",
"p. c #BB7346",
"a. c #BC7549",
"s. c #BE794A",
"d. c #B87953",
"f. c #856D64",
"g. c #897566",
"h. c #957B6A",
"j. c #897E74",
"k. c #C27747",
"l. c #C37C4C",
"z. c #C47E51",
"x. c #B98A34",
"c. c #B88937",
"v. c #CD8A1A",
"b. c #D99419",
"n. c #E29F1B",
"m. c #EAAD1D",
"M. c #FBBC1A",
"N. c #D08A2D",
"B. c #D89525",
"V. c #DB922C",
"C. c #CD8636",
"Z. c #CA9636",
"A. c #D89634",
"S. c #D29C3C",
"D. c #E69F25",
"F. c #E39A29",
"G. c #E59A36",
"H. c #D5A53B",
"J. c #EAA425",
"K. c #E8A427",
"L. c #EBA42B",
"P. c #F3AA29",
"I. c #F4AD2D",
"U. c #F6B12D",
"Y. c #FAB52C",
"T. c #FAB828",
"R. c #EBA535",
"E. c #EAA937",
"W. c #ECA43A",
"Q. c #F4AD33",
"!. c #F5AD39",
"~. c #EAB537",
"^. c #F6B134",
"/. c #F9B433",
"(. c #F8B637",
"). c #F9B239",
"_. c #F5C517",
"`. c #F1C914",
"'. c #FDE715",
"]. c #F9C628",
"[. c #FEDA29",
"{. c #F2C631",
"}. c #FDD934",
"|. c #FDE427",
" X c #FFE23B",
".X c #B78A48",
"XX c #B38B53",
"oX c #948574",
"OX c #968777",
"+X c #9C8C7C",
"@X c #B0926C",
"#X c #B69C68",
"$X c #A38C7A",
"%X c #A3927E",
"&X c #AB967F",
"*X c #C5814D",
"=X c #C9834E",
"-X c #CE894F",
";X c #C99749",
":X c #D49C44",
">X c #C68452",
",X c #CA8551",
"<X c #CD8B53",
"1X c #C6895B",
"2X c #D28D55",
"3X c #CB9458",
"4X c #D4955A",
"5X c #E89B45",
"6X c #D6AC54",
"7X c #E9A948",
"8X c #F4AB44",
"9X c #F3AA4B",
"0X c #E7BA47",
"qX c #F2AC52",
"wX c #F0B153",
"eX c #CA9565",
"rX c #D69B64",
"tX c #E19F62",
"yX c #D9A567",
"uX c #D3B06C",
"iX c #C9A97A",
"pX c #E2B272",
"aX c #F3D34F",
"sX c #F0D84A",
"dX c #E8C972",
"fX c #998C82",
"gX c #9D9184",
"hX c #A49482",
"jX c #AA9681",
"kX c #AD9A83",
"lX c #A89A89",
"zX c #AD988A",
"xX c #B29D84",
"cX c #B29E8A",
"vX c #B6A185",
"bX c #BAA386",
"nX c #B4A28A",
"mX c #BBA58A",
"MX c #B7A98E",
"NX c #BDA98C",
"BX c #B3AA92",
"VX c #BBAB94",
"CX c #C3AC8C",
"ZX c #D1B38A",
"AX c #C2AD92",
"SX c #D5AC94",
"DX c #C6B497",
"FX c #E4BB8E",
"GX c #C8B9A3",
"HX c #D6C59B",
"JX c #EBCF95",
"KX c #D6C5A8",
"LX c #D7CEB4",
"PX c #F1D8A0",
"IX c #EAD3B2",
"UX c #E5E0C8",
/* pixels */
"@ = 8 s p e A F H n y b O # Z D F +Xh.V B B B B M X # o H AXCXxXxXxXxXxXvXxXxXkXjXjXC # r k l k s a < 5 ^ 4Xk.l.l.=X,X,Xk.*X,X,X*Xl.l.k.s.l.d.r k x z s e 9 ; # ",
"j z z k k e : N V y o O ; w 9 o N Z H V V N M n y O = # G HXNXkX&XkX&X$XxXxXkXkXkXB M X 8 r ,.,.-.-.z l e &.l.k.l.z.=Xl.l.l.l.l.s.l.a.>X6 u - s z -.x z z l k k ",
",.,.k a g cX: > w : w k -.l l a > + V n y y $ o # 8 9 : G nXAXkXjXkXxXxXkXxXkXkXZ B m X 7 w j e e e j l j e 4.a.l.i.l.l.k.k.a.k.l.k.5 > 9 j k -.x z z z z z r l ",
"<.l j ; LXkXkXJ > e j k k -.,.l k a > # . LXlX# e j k a # e.KXNXnXvXxXxXnXnXBXlXB m % + 8 h : LXVXVXnXlX; i -.rX<X4.k.l.a.a.a.a.z.- u j k l s h a < , w e e e z ",
",.k e OXVXxXkXhXhXO i j k k -.z a ; UXDXAXNXkXhXfX: i s w g.f.OXD A Z Z V V N D B m o = ; > UXmXxXxXjXhXOX9 w 4.k.k.k.a.p.i.i.1.9 i e k r 1X=X=X<X*Xl.l.s.a.d k ",
"l s # Z mXVXkXjXhXgX= a j k -.u cXDXDXAXNXbXvXZ hXC : r a O A A Z Z N V V Z V V n m @ 8 r LXmXvXxXxXjXhXgX# 9 :.<Xk.a.a.a.i.:.w e KXh.3X,X,X,X,X,X=Xl.k.a.a.1.s ",
"k e VXh.h.OXF Z j.gXo w k ,.k : g.g.LXAXCX%XVXkXhXC # e a > F Z V Z V V N N N n b o ; w @ vXbXxXxXkXxX%XgXX 8 w 2.a.a.a.i.a.e j a S w.,X*XFXl.=X,X*Xl.l.a.i.1.a ",
"s - g.g.LXAXmXxXhX+X  ; j z -.+ g.Z f.g GXNXnXnXVXm o w a j < + $ y y y y $ X O ; 8 8 : KXmXbXbXLXnXVXhX%XC = 8 , ,Xp.p.s.O.s s p 5 <Xy.rXXX-.d.*Xl.l.a.a.y.&.e ",
"u A e.e.g.xXDXVXMXlXC = i k z > F V H q e.DXMXGXm b X 9 a x a s r r r r e e e r s a s H LXDXCXxXhXDXkXhX%XfX+ 8 i &.s.O., r k e 3.<X<X2X<X<X<X>Xl.k.a.a.i.y.O.; ",
"i f.V g.f.H H H f.M M # j k c q.r.H %XOXOXg.f.V C M # t s x k j l ,.,.-.z l l l l j > +Xe.AXxXAXmXnXcXcXhXgXq g S q.q.g.h.@XOXdXyXrX<X<X<X,X,Xl.k.a.i.i.,Xd * s ",
"p ; q H H A H H J M n = k a S #X6X6X#X@X@X$X$Xg.f.F S S q.q.q.w.w.w.w.w.w.r.w.r.r.q.hX$X$XKXDXhXAXAXAXVXmXzXH h.$X&X@X@XeXuXdXdXdXpX4X<X,X*Xl.l.s.i.i.d : k k k ",
"> e e # g V F F F m X w k j pXaXsXaXaXc.f z x l k k c c c c c c x x x z z c c l k l l c ,.9.q.0.0.9.9.9.c c c c c c -.=.4.aXaXsXaXdXpX,X*X>Xi.k.l.k.d e l k a > ",
"hXO w e e = O y V X 8 k l 3.aX X}.}.aXX.} =.&.>.&.&.:.:.:.:.:.:.:.&.:.&.:.&.:.:.:.&.:.&.&.O.O.O.O.O.&.:.:.:.:.:.1.:.@.} | ~.}.}. XsXuXrX*Xl.s.s.O., r j p w gXnX",
"%X%XH 8 e a s u r r l z <.uX X|.|.}.J.` ( E T W ! ! ! ! ! ^ ^ ^ W W W W T T T T T T W W T T 4 2 T T T T T W W W W Q R P ` b.].[.[.{.6XXXa 5 6 &.d i j e @ nXvXxX",
"%X%X+XOXO w i s j l z ,.r.aX|.'.'.[.b.` } &.;.>.$.$.@.@.$.$.$.$.*.*.*.*.%.$.$.$.$.%.%.%.*.%.%.$.&.&.;.%.&.%.%.%.%.*.+.] ` v.Y.].`.`.0XuX9.k j j l j 8 KXNXvXvXxX",
"%X%X$X+X+XOX; i a h ,.,.XXsX|.'.|.}.v.` { >.>.;.>.*.%.%.*.*.*.*.%.*.>.*.>.*.>.*.>.*.>.*.*.*.>.>.:.:.;.>.*.%.%.%.*.>.*.#.} X.~.M.`.`.{.uXq.h k x k w GXNXmXOXf.xX",
"jX%X+XgXM m n 9 k z ,.<..XsX|.|.|.].X.} @.&.>.*.*.%.%.%.*.*.&.&.*.*.*.*.*.*.*.%.*.%.*.%.*.*.*.*.*.*.>.>.*.%.%.%.>.%.*.@.} | J.].`.`.}.aXpX9 k k a cXLXAXmXmXmXbX",
"kXjXhXy n b + w l x ,.<.;X}.|.[.}.{.X.} { +.&.$.%.%.@.@.$.+.+.+.+.+.+.+.+.@.@.@.$.$.@.@.+.+.+.+.+.+.$.$.@.@.@.$.*.%.*.@.] ` J.].[.[. XaXJX0.k l e h.e.UXAXAXmXbX",
"nXcXj.b b o 8 r k l ,.w.6X}.|.[.[.m.| ( E Q ! Q ! ! ! Q Q W 6 6 T T T T W Q Q Q Q Q Q Q Q Q Q Q ! ! ! ! ! Q ! ! ! Q ! T L ( b.}.[.|.}.aXJX1Xe k a D H N D NXAXNX",
"V M m % + ; j k s s l w.H.].`.`.].n.` } #.*.*.%.>.*.*.*.>.*.&.&.%.*.*.*.*.*.*.*.*.*.*.*.*.>.>.>.*.*.>.*.%.*.*.*.*.$.@.{ U ) v.}.[.[.[.aXdX1X< l k w o M A J Z V ",
"b y X = r a e * <X*Xe w.H._.`.`.M.v.` } #.@.*.%.%.*.%.%.*.&.*.*.*.*.*.%.*.%.%.%.%.%.%.&.%.%.%.%.%.*.*.*.&.@.$.@.+.! ! E U ( 5.].].[._.{.dXeXy.s z l s w = X N M ",
"w e e < - eX*X*X,X*X*XyXH._.`._.T.v.) ] #.@.*.*.*.*.*.%.*.*.*.*.%.%.%.%.%.%.%.%.&.&.&.&.%.%.%.%.*.*.*.%.@.+.^ ! ! Q Q E ' ( X.T._._.M.{.pXrXy.- k z k s i w > > ",
"1X,Xl.l.=X*X*X>X*X*X>X4X~._.`._.Y.v.P U { +.*.>.>.>.*.*.>.>.>.>.>.>.>.>.>.>.;.;.;.:.:.:.;.;.;.;.$.$.$.+.^ ! W W ^ +.! ! E P X.U.M._._.{.dXpXi.a z k < 3.4X-Xl.l.",
"l.*X<X*X*X*X,X<X,X*X>X6X}.[.[.}.aXv.3 L T Y W Q Q Q W W W W W W W W W T W T T T T T T 4 4 4 4 4 4 4 4 4 2 2 4 4 2 T 2 2 2 L | Q.M.M.M.T.0XpXy.k z , 2X,X=X=Xl.k.",
"z.<X<X<X<X<X<X2XrXs.l.6XsX[.|.}.aXX.P U U R E ! ! ! ! ! / / +.+.+.+.+.+.+.+.^ ^ ! ! Q W W W W W T T W T R R T T ! T E U U P | R.T.M.M.].0XJXy.k l O.-X<X<X<X>Xl.",
"=X,X<X*X>X,X4X4X4X4X4XwX}.[.|.}.(.X.P ( ( ( ( U U U U U U U U U U ( U U U ( U U U U U U U U U U U ( ( ( ( ( U U U P ( U P P | L.T.M.M.T.0XdXt.l k rX2X<X<X<X<X,X",
"*X=X,X2X2X2X2X4X4X4X4X0X]._._.].Y.5.` _ _ _ _ ) _ _ _ _ _ _ _ _ _ _ _ _ _ _ _ _ _ _ _ _ _ _ ` ` _ _ _ ` ` _ _ _ _ _ ` ` _ ` | n.T.M.M.Y.0XdXt.k j tX<XpX<X<X<X<X",
"4X*X<Xs.pXw.4X4X4X4X4X0X]._._.M.T.J.F.R.R.R.E.W.W.W.R.R.R.W.W.W.R.R.R.W.W.W.W.R.W.W.W.R.R.W.W.W.W.W.W.R.R.R.W.W.W.R.R.R.W.R.P.{.T.T.T.Y.0XdXz.s p 4X<Xi.>X,X<X,X",
"z.,X<Xt.d.<X4X<X2X<X4X6X{.].].].T.T.(.(.Y.Y././.).)./.Y././././././././././././././././././././././././.Y./.).).(./.Y.Y.(./.P.T.T.T.T.Y.0XdX1Xu s 4X,X,X,X,X<X,X",
"l.<X,X<X<X<X<X<X<X<X4X6X(.T.Y.Y.T.T.U.U.P.T.Y./././.Y.T.Y.Y.Y.Y.Y.Y.Y.Y.Y.Y.Y.Y.Y.Y.Y.Y.Y.Y.Y.Y.Y.Y.Y.Y.Y.Y./././.Y.T.Y././.T.T.Y.T.T.Y.0XpXXXw s <X,X,X,X,X*X*X",
"l.l.*X>Xl.>X,X*X,X>X3X7X^.I.Q.Q.U.U././.U.Y.U.I.^.^.U.U.U.U.I.I.U.I.I.U.U.U.U.I.I.I.I.U.U.U.U.U./././.U.U.U./.).Q.U.U.U.^.Q.U.Y.U.T.P.U.~.uX1X9 j t.*Xs.l.l.l.k.",
"$.i.*X*X>Xz.*Xp.>X>X3X7X).U.Q.).U./.).^.I.U././.^.^.U.U.U./.^.^././././././.U.I././././.U.U.Q.Q.^.^.Q.Q.I.Q.Q.!.^./.U./.).!./.I.U.U.P.U.~.6X1Xw k 5 l.l.l.z.&.1.",
"r w - u u 2.l.k.>Xl.3X7XQ./.^././.Q.^.Q.^./././.^./././.U./.Q.Q.Q.).)./.U.P./.I./.).Q.U./.P.).Q.^.^.^.^.^.^.^.^.^.^.Q.Q.Q.Q.Q.Q.Q.^.Q.(.E.6Xd., l < +.d , a e w ",
"j a s k s > O.2.s.l.3X7XQ.I.U.I.Q.U.^.^.Q.Q.Q.Q././././././.).).).Q.Q././.I.U./.Q.Q.Q.Q./.P./.Q.Q.^.^.^.Q.Q.Q././.^.^./.)./.).^.Q.Q.Q.).E.6Xr.a x k l z k s r > ",
": O 8 e k l a - @.z.3X7X)./.^.^.Q.Q.Q.Q.Q.Q.Q.Q.P.I.I.P.P.Q.P.Q.^.Q.Q.I.I./.P.Q.Q.).Q.Q.^.Q.Q.Q.Q.Q.Q.I.I.I.I.I.Q.I.I.I.Q.Q.Q.Q.^.^.Q.Q.E.6X9.z ,.-.z k u # LXVX",
"VXxXhXO : j z l r -..X:XE.J.L.J.L.L.L.L.L.L.L.L.L.L.J.J.L.L.L.L.D.J.J.n.J.P.J.L.L.R.D.L.L.L.L.L.L.L.L.L.J.J.J.J.J.J.J.J.J.J.L.L.L.J.J.L.E.yXv a k x l < LXDXmXbX",
"nXkXkXgXF = r j z j l :X8XQ.).^.Q.Q.Q.Q.Q.Q.Q.Q.Q.Q.Q.Q.Q./.^./././.(.U.I.U.Q.^.!.!.!.Q.Q.).).^.Q.Q.Q.Q.Q.Q.I.I.I.I.Q.Q.Q.Q././.^.Q./.!.7XuXJ ; s j k lXKXAXbXbX",
"kXkXjXhXgXgX@ e k l x .XH.E.Q.I.Q.Q.Q.Q.Q.Q.Q.Q.P.I.Q.I.I.P.L.L.P.J.P.I./.L.).!.W.W.8X).^.I.Q.Q.Q.Q.Q.Q.Q.Q.I.I.Q.Q.Q.Q.P.P.P.P.Q.L.Q.E.6XiXC O w j e nXOXbXNXNX",
"kXkXh.OXhX+XfXo e j x u.Z.L.J.D.J.J.J.J.D.D.D.J.J.J.n.n.b.b.b.b.b.b.n.L.8XW.wXA.o.o.G.8XQ.b.D.L.D.D.D.D.D.D.D.D.D.D.b.b.b.b.b.b.J.D.L.B.6XOXb @ w j @ h.h.OXKXNX",
"xXxXjX%XlXgXfXX 8 t j w..X~.Q.!.!.!.!.!.8X8X!.8XW.R.F.F.B.B.F.F.L.R.W.8XwX8XqXo.& 1 7.W.^.b.G.8X8X8X8X8X8X8X8X8XW.G.G.V.V.V.G.W.).^.Q.Z.eXJ o ; z e +Xg.f.OXGXAX",
"xXxXcXDXB m m X 7 t a q..X~.).B.5.7.7.7.8.7.8.7.o.o.o.o.o.o.6.7.7.7.o.C.wX8X7Xo.& 1 7.8X).v.6.8.8.8.8.8.8.8.8.8.4.4.o.o.o.o.o.o.5.).B.c.@X# 8 x x r O e.F OXh.KX",
"xXVXV B m B % @ w r w.<.u.7XE.v._ ] [ [ [ ] ] ] [ [ [ [ [ [ [ [ [ [ )  .9X7XwX7X[ ..5X8X!.v.[ [ ] ] ] ] ] ] ] ] ] ] ( U U U U ( | F.B.c.r.8 a x z s ; H D f.g.f.",
"lXB B n % X @ 8 8 > s 9.u.H.R.5.] #.#.#.#.#.@.@.@.#.#.#.#.#.#.] #.] ] ..wX9X9XqX..8.wX9X!.v.) #.#.#.#.#.#.#.#.#.#.] { E E E E P | B.B.c.r.j x z r a e : . H f.f.",
"V B M y O @ LXAXnXhXw 9.3.Z.B.5.] #.*.*.*.*.*.*.%.%.%.@.#.#.#.#.@.@.#...qXwX9XqXC.C.9X8X8XN.[ #.#.#.#.#.#.*.*.#.{ ~ E E E E E U X.A.V..Xr.k l LXkXhX; e e o H H ",
"B M $ @ = UXCXmXkXj.@ v 3.c.G.N.[ @.*.*.%.%.;.>.*.%.%.%.%.%.*.*.*.*.@.[ 8.7X7X9XwXqXqXqX:Xo.] @.@.*.*.*.*.*.%.@.! ! ! ! ! ' ! U o.G.A.XXr.l w GXnXkXJ # r a ; Z ",
"B $ = : @ NXNXmXBXOX$ g r.c.8X5X[ @.*.*.*.%.;.>.*.*.%.%.*.%.%.%.%.%.#.] ..8.C.A.N.A.:X-X4.] ] #.*.*.*.*.*.*.@.+.! ! ! ! ! ! E U o.G.7XyXv k 7 H D F D o 9 a j s ",
"o ; r = VXNXmXNXnX% n q r.c.8X5X[ { { +.+./ / +.+.+.@.@.+.+.+./ / %.+.{ E ( ( ( ) ) ( { { ! { { +.+.+.+.+.+.! W Q Q E R R R R U C.9X7XyXv s q D D D C o 8 s j x ",
"i a w VXNXNXNXVXB M   w r..X9X5XP L L Y Y 2 2 2 2 2 2 2 2 2 2 2 1 1 1 1 2 1 1 3 3 1 1 2 Y Y 1 L Y Y Y 4 2 2 2 1 2 4 T T 4 Y T P A.qX6XyXv a e + y y X ; r j ,.x ",
"j <.: VXDXAXDXB M y . AXDXuX7X9X..] #.%.%.@.%.@.$.%.&.&.&.@.@.+.$.$.+.@.@.@.@.@.@.@.@.*.*.*.%.%.%.*.%.+.^ ! ! ! ! { ~ ^ ! ! ' ( 5X9X6XXXc s i > e e i z x k k j ",
"s j e H G DXB n b $ cXNXDXiX7X9Xo.[ #.%.*.%.*.@.%.*.>.>.*.*.*.*.*.*.*.*.*.*.*.*.%.$.$.$.&.&.&.%.%.$.+.! ! ! ^ ! ~ ~ ! ^ ^ ! E ( 5X9X3XXXl ,.z x z z z s i w e e ",
"a s i ; D D N b % o H DXDXiX6X9X4.] @.%.*.%.%.@.$.%.:.*.&.$.$.$.*.*.*.*.*.*.*.*.*.*.%.*.*.*.*.*.%.+.! Q ! ^ ^ ! { { ^ ^ ^ ! E ) 7X7X3XXXl x j a e > # q DXVXOXo ",
"; r i e ; N V o # + H F g.@X;X9X8.[ @.*.>.*.*.@.*.>.>.>.*.*.*.*.*.*.*.*.*.*.*.*.&.$.$.*.*.&.$.@.^ ^ ! ! ^ ^ ! Q ! ! ! ^ ^ Q U [ 9X7X.XXXa = g.LXDXmXnXnXA jXOXy ",
"hXj.; e e e e r i 8 V F g.@X;X8XC.[ @.%.*.%.@.@.$.%.%.*.*.%.*.*.%.&.&.&.%.%.%.%.*.%.*.*.*.@.+.^ ! ! ! ! ^ ^ ! ! ' ! ^ ^ ^ E ( ..8XS..Xr.; AXAXNXg.g GXjX%X$XC % ",
"hXhXhXVX= e i j j a - N F OX.X8XC.[ { ^ ^ ^ ! { +.+.+.+.+.+.+.+.+.+.+.+.+.+.+.+.+.^ ^ +.! W T 4 4 4 T T T T W W R T ! W W Y P o.W.Z..Xv UXNXvXxXkXjXhXhX%XM y g ",
"hXhX%X%XgXJ ; e j a a e t v c.R.C.) { ^ ! ^ ! ! Q W W T T T T T 4 4 4 4 4 4 4 4 T 4 2 2 2 1 1 1 4 2 2 2 4 4 4 4 T 2 T Y T 2 L X.F.N..Xt KXmXvXxXjXjXhXkX% $ UXbX",
"jXjXhX%X+X+Xj.# w e k z x w.c.B.C.[ #.*.%.*.@.@.*.*.*.*.%.%.*.*.*.*.%.%.&.&.$.$.+.^ ! ! ! ! ^ ^ ^ ! ! ! ^ ^ ! ! { Q ^ ^ ^ U P o.B.N.u.nXDXmX&XxXxXkXlXb   LXbXvX",
"g VXhXlXg OXOXK ; a k l x q.c.V.A.} #.%.*.>.&.*.*.*.*.*.*.*.*.*.*.*.%.&.&.$.+.^ ! ! ! ! ! ! ! ! ^ ^ ! ! ! ! ! ! ! ! ^ ^ ~ E ( 5.B.N.r.h.g.g.DXnXxXg.n $   mXbXxX",
"&X+X+X+X+X+XOXK X w j s j pX:X7X7X .] +.&.>.%.*.$.%.*.*.*.*.*.>.>.%.$.+.+.^ ! W ! ! ! ! ! ! ! ! ^ ^ ! ! ! ! ! ! ! ! ^ ^ ! U ) 7.B.N.q.g.A H g e.M n X + LXvXxXkX",
"%X%XhXlXJ M n y n 8 j j u.1X;X7X7X .] @.*.>.%.%.*.>.*.*.*.%.%.%.+.+.^ ! ^ ^ ^ ! ! ! ! ! ! ! ! ! ^ ^ ! ! ! ! ! ! ! ! ! ! E U ) N.B.C.w.@ D F F H n b O X nXxXxXkX",
"D B n n b b b % + > a * *X3X;XZ.A. .[ @.%.$.@.@.$.+.+.+.! ! ^ Q ! Q Q W T W T T T W W T T T W W W W T T T T W W Q W W Q E I _ V.b.Z.u.s @ N D H y + # j.vXxXxXkX",
"y n y $ X o = 8 e r 3.*X,XrX;XZ.N.| L L 4 4 4 T 2 2 2 2 2 1 1 1 1 1 1 1 1 2 2 2 2 2 2 2 2 2 2 2 4 4 2 2 2 2 2 2 Y Y Y Y L L ) N.v.c.r.l j u : O = 8 8 @ V +XN n ",
"# ; 8 w w a a s < yX<X=X,X3X4X:X7Xo.P T W W Q T W W Q Q R W W W T T T Q ! ! ! ^ ! ! ! ! ! ! ! ! / / ! ! ! ! ^ ^ ! ^ ^ ~ E P | G.v.c.u.x z l j j j j j a e ; # + ",
"k l z k k s > XX<X<X,X=X>X<XrX:XqX7.P E ^ ^ ^ ! ^ ^ ! ! ! ! ^ ^ ^ ^ ^ ! ! ! ! ! ! ! ! ! ! ! ! ! ^ ^ ! ! ! ! ! ! ! ^ ^ Q E U | F.B.c.r.l l z l k j s a i u a i r ",
"k z l a * rX,X,X3X>X*Xs.,Xl.rX6XqX7.P U E E ! ! E E E E E E ! ! Q E E E E E ! ! E E E ! E E E E ! E E E E E E E E ~ E E U ) | G.B.uXkXe j k e l.p.i.i.p.y.i.* w ",
"a k 9 2X<X,X<X<X<X<X,X,X,X>XyX:X7XC.( ( P P U P U U U P U U U U U U U U U U U U U U U U U U U U U U U U U U U U U U P ) P P X.A.Z.uXDXkX; i p , 1.1.y.y.t.2.4.4.",
"j e yX2X,X<X<X2X2X2X<X<X4X2XyX;XA.7.| | |  . . . . . . . . . . . . . . . . . . . . . . . . . . . . . . . . . . .| | | | | | 5.A.Z.iXVXh.%X. e i ; 1.t.y.t.4.4.d ",
"a yX=X=X,X<X,X<X,X<X<X,X<X<XyX;XA.B.B.B.V.V.V.V.V.V.V.V.V.V.V.V.V.V.V.V.V.V.V.V.V.V.V.V.V.V.V.V.V.V.V.V.V.V.V.V.A.V.V.B.b.b.B.A..XZXNXxXjXhXgXw e :.y.t.t.t.t.w ",
"* *X=X*X=X=X,X=X,X1XrX1X=X>XyX3XZ.Z.H.Z.S.S.S.:X:X:X:XS.S.S.S.S.S.S.S.S.S.S.S.S.S.S.S.S.S.S.S.S.S.S.S.S.S.S.S.S.S.S.Z.Z.S.S.A.Z.uXDXnXkXjXjXOXC 8 9 4.y.i.y.- j ",
"w 5 -Xl.k.l.*X=X,X=X,X,X,X*X3XeXyXyXuXiXiX@XeXFXFXJXFXJXJXJXJXPXPXPXPXPXPXPXPXPXPXPXPXJXJXJXZXZXZXiXiXiXiXiXiXiXbXiXiXiXiXPXJXHXDXDXxXkXjX+Xf.m + 8 r e e i k l ",
"8 e > 2.4.4.l.2X-X,X,X*X>X*Xl.a.O.t.d.d.z j yX4X3X2XpXd.9.3XrXrXrX<XyXyXyXyXeXd.>X>X>X>Xs.a.s.1Xj x ,.x ,.,.,.,.k k a lXGXmXmXbXvXxXxXkXe.e.fXM X 8 a i j s s e ",
"+ ; r a a s a , 4X,X*Xl.l.l.4.rX2Xt.i.y.- e <X<X=X' 1.<.<X<X2X2X4XyXyXyXrXrXyXt.l.l.l.l.s.s.i.i.9 k x l z z x z k p g.nXDXvXxXbXvXxXkXjXjXlXM b o 8 i v e e . NX",
"H +X; v h.k l k *.=Xl.l.l.s.i.i.y.y.i.y.9 * =X=X<X<X<X<X<X2X<X<X4X4X4X4XrXyXc l.l.l.s.i.s.a.i.l p k z s i , j l k w g.Z e.mXAX&Xg.xXxXkXkXB b X 7 w j r @ DXCXCX",
"kX%XOX$ : e s k i @.s.s.p.i.i.a.i.t.6 5 s 1.-X=X=X=X=X<X<X2X*X<X2X4X<Xl.1.0 s.l.l.l.i.k.a.p.i.- j k 9 yX*Xl.1.h p ; f.V F F A H f.VXVXOXB b % # 8 s e lXCXCXmXCX",
"jXjX%X+XhXgX8 a k , i.i.i.5 0 > > r p k z r >.2X=X=X=X=X=X,X,X<X,X,X<X>X>Xl.*Xl.s.s.1.p.p.p., s a 4X*Xl.>X2.s.-.s e D y D F F F D D A V B b @ 8 j j @ AXNXmXmXmX",
"jXhX%X%X+XfX+ r l l p s s j i ; 9 a k l z -.p 2.2Xl.l.l.*X,X=X=X*Xl.l.l.p.l.l.l.s.1.<.1.i.p.a s * ,Xl.l.l.l.s.a.5 a e ; q N Z V V V V V b + 8 j k > jXNXmXbXbXmX",
"$XjX%X+X+Xm X 8 z z z z l k 8 MX+XOX; e s z x j >.2.,Xz.l.z.z.*Xl.l.k.,Xl.k.k.s.a.i.i.i.p.5 u yXl.l.<Xk.k.l.p.a.p.* s s a e w ; # O @ = : s z z k + g.KXNXg.bXbX",
"h.%X+X+XM b O : l k k l l a OXAXkX+XgXOX; e s l z s e r r i a e 6 { k.l.l.s.k.a.a.a.a.i.6 < 5 ,X=Xk.l.l.k.k.k.k.a.a.>X0 h k j a a a a u u p s z k > F H mXvXxXxX",
"%X%XhXhXb   = r i < j e i ; GXmXOXhXhX+X+XOX# e s z z l j e e a v v , e e 5 ^ i.l.i.,Xu e , l.l.l.l.l.l.l.k.l.l.k.a.k.d.*X, bXH * eXs.k.p.s.l.j l s : g NXvXbXxX",
"DXV B n $ # w UXNXcX%X@ : @ f.H e.g.OXjXgXhXOXOX# i l j UXmXkXhX; i s j l z k p i 5 - s j 2.l.k.l.l.l.l.l.l.,XIX1XFXs.d.SXs.FXSXk.d.d.k.IXd.FXGX9.S a @ H e.LXxX",
"V M y % + : g h.g.G lXhX# + F F H F e.J DX+XOXOXOX# a w IXbXxX&X&XhXgX# w a l k k k k k k < O.2.l.k.l.l.l.k.l.l.l.l.l.l.l.l.k.k.k.k.k.k.k.4.&.e l z l u F A A A "
};
