/* XPM */
static char *_1e060fc95874ac08e217a0616106272[] = {
/* columns rows colors chars-per-pixel */
"80 80 246 2 ",
"   c #14151B",
".  c #341E18",
"X  c #2C1C19",
"o  c #3C231A",
"O  c #36221B",
"+  c #1C1C24",
"@  c #191B26",
"#  c #241E26",
"$  c #25232A",
"%  c #372727",
"&  c #292B35",
"*  c #3C2E33",
"=  c #37343C",
"-  c #2F3337",
";  c #1D212D",
":  c #42261C",
">  c #45291D",
",  c #4C2B1E",
"<  c #462418",
"1  c #542C1B",
"2  c #58321F",
"3  c #4F230D",
"4  c #68351B",
"5  c #733D1E",
"6  c #602B19",
"7  c #4C2D22",
"8  c #452B24",
"9  c #522E22",
"0  c #5B2E24",
"q  c #4A3329",
"w  c #543222",
"e  c #5B3423",
"r  c #5E3925",
"t  c #57372A",
"y  c #473738",
"u  c #563A37",
"i  c #402F35",
"p  c #623523",
"a  c #643A25",
"s  c #6B3C26",
"d  c #653C29",
"f  c #6A3E29",
"g  c #6A3523",
"h  c #733C24",
"j  c #7B3D24",
"k  c #61372A",
"l  c #421D0B",
"z  c #5B4339",
"x  c #6D412A",
"c  c #694129",
"v  c #73442C",
"b  c #7A452B",
"n  c #7B4A2E",
"m  c #7A4426",
"M  c #684636",
"N  c #7C4B31",
"B  c #744834",
"V  c #77513C",
"C  c #77411F",
"Z  c #3B3A43",
"A  c #393945",
"S  c #433B43",
"D  c #4B3D45",
"F  c #473E49",
"G  c #533E43",
"H  c #3C4248",
"J  c #4C424B",
"K  c #46434B",
"L  c #53444B",
"P  c #5C4B4C",
"I  c #594746",
"U  c #4B4653",
"Y  c #4C4B5A",
"T  c #494854",
"R  c #524D5B",
"E  c #574C54",
"W  c #5B525B",
"Q  c #56535A",
"!  c #4D5359",
"~  c #654C47",
"^  c #754E45",
"/  c #69544A",
"(  c #775648",
")  c #695757",
"_  c #735B55",
"`  c #775A56",
"'  c #654E55",
"]  c #7B645A",
"[  c #786558",
"{  c #6B615D",
"}  c #545364",
"|  c #5B5564",
" . c #5C5A64",
".. c #5C5A6C",
"X. c #565769",
"o. c #5D5D71",
"O. c #575173",
"+. c #4F5062",
"@. c #625C6B",
"#. c #665A64",
"$. c #615E72",
"%. c #725E65",
"&. c #5A6568",
"*. c #5F6374",
"=. c #66656C",
"-. c #786966",
";. c #636275",
":. c #676977",
">. c #697578",
",. c #73787D",
"<. c #777073",
"1. c #833F24",
"2. c #834224",
"3. c #834B2D",
"4. c #874829",
"5. c #93522D",
"6. c #834E32",
"7. c #8B4E33",
"8. c #895436",
"9. c #945432",
"0. c #9D5D3B",
"q. c #975A37",
"w. c #8F4E2C",
"e. c #A25D38",
"r. c #9A633D",
"t. c #A3633D",
"y. c #AB653C",
"u. c #AB693D",
"i. c #B36A3E",
"p. c #B6713D",
"a. c #89411D",
"s. c #865A47",
"d. c #975D42",
"f. c #835E56",
"g. c #986347",
"h. c #85675A",
"j. c #956855",
"k. c #8B6853",
"l. c #A36542",
"z. c #AC6B43",
"x. c #A86A47",
"c. c #B46D43",
"v. c #B86E45",
"b. c #AA7347",
"n. c #B57145",
"m. c #BB7245",
"M. c #B5734A",
"N. c #BC754A",
"B. c #BD794B",
"V. c #B87B4A",
"C. c #A87557",
"Z. c #BB7853",
"A. c #A96D52",
"S. c #856E62",
"D. c #897768",
"F. c #93796A",
"G. c #887B74",
"H. c #8F7A73",
"J. c #A27F6B",
"K. c #C1764C",
"L. c #C37C4C",
"P. c #C47A47",
"I. c #C47B52",
"U. c #C37852",
"Y. c #BA8456",
"T. c #948474",
"R. c #9D8C7C",
"E. c #978777",
"W. c #938574",
"Q. c #A28D79",
"!. c #A4927E",
"~. c #AA957E",
"^. c #B78B6B",
"/. c #C6824E",
"(. c #C9834E",
"). c #C7894E",
"_. c #C58352",
"`. c #CA8551",
"'. c #CC8A53",
"]. c #C6875A",
"[. c #D18E55",
"{. c #CE915A",
"}. c #D4955A",
"|. c #C79369",
" X c #CE9771",
".X c #D9A162",
"XX c #757A85",
"oX c #6E7480",
"OX c #887882",
"+X c #798688",
"@X c #7C8F90",
"#X c #85898A",
"$X c #978D84",
"%X c #9B9184",
"&X c #858E92",
"*X c #8C9A9D",
"=X c #869597",
"-X c #939A9C",
";X c #908B91",
":X c #A49382",
">X c #AA9581",
",X c #AD9A83",
"<X c #A99C8A",
"1X c #B29D84",
"2X c #B49E88",
"3X c #A49A92",
"4X c #B4A38B",
"5X c #BAA58A",
"6X c #BDA98C",
"7X c #B8A286",
"8X c #B9AA92",
"9X c #ADA698",
"0X c #8C9DA1",
"qX c #939EA2",
"wX c #948FA6",
"eX c #8EA1A2",
"rX c #93A3A5",
"tX c #95A6A9",
"yX c #9AA6AA",
"uX c #9BABAD",
"iX c #98A6A7",
"pX c #9DAEB1",
"aX c #9EB1B3",
"sX c #A2ABAC",
"dX c #A9AAA6",
"fX c #A2AFB2",
"gX c #AAAFB2",
"hX c #A4B2B5",
"jX c #A6B6B9",
"kX c #A9B6BA",
"lX c #ABBABD",
"zX c #A8B6B8",
"xX c #B2B4B1",
"cX c #9CA09F",
"vX c #C4B496",
"bX c #C5AB8C",
"nX c #CDC2A6",
"mX c #ADBEC1",
"MX c #B2BEC2",
"NX c #B3C2C5",
"BX c #B9C8CB",
"VX c #B0C3C5",
"CX c #C2CED2",
"ZX c #C7D5D8",
"AX c #C0CBCF",
"SX c #D2DEE3",
/* pixels */
"o : 9 a s e M [ [ L S y . o ~ ) _ F.F.) L L L L J % o t F.vXbX7X1X1X1X,X7X1X1X,X,X>XW o r v b v x s a h w.m.N.L./.`.`.L.L.L./././.L.L.L.K.B.7.e v b b f e 7 > : ",
"d v b v x e , u I * % O > e , 8 u / S.P I I D D * . > o [ vX6X,X~.,X,X~.1X1X,X,X>X) L % 7 d N n 6.N n x e 2.L.P.L./.L.L.L.L.L.L.L.K.L.z.4.0 2 f n n n b b b v x ",
"6.6.v d S.S.t , , , e f b b x a 1 : u y y * % o > w w , z ,XbX1X>X,X,X1X1X1X,X,X-.L F % > e c e r r a x c p y.m.L.N.L.L.K.B.B.K.K.m.3.e e a v n n b b b b b f n ",
"7.n f M nX1X>X[ w r c v N 6.n v v p 7 o / W.E.z e f x a 7 h.4X8X5X7X4X4X,X!.E.G.L L * . 7 r t 9X8X8X2XE.t e m L.B.B.L.B.K.N.N.N.t.p e f v v d x n n x x s p p b ",
"3.v e D.vX1X,X>XE.z r x v b 3.b a / E.vXbX6X2X:X) 7 r d 2 ( h.T.-.-._ ) ~ P P ' L D . : 7 w ,X5X1X1X>X:X) , e p.L.L.L.N.N.m.N.8.e a B s b r.B._.`./.L.L.L.B.6.v ",
"b d t R.8X8X,X>X>XG.: d x b b r ] nXvXbX6X5X,XT.T.P , r a t ] _ ' ' P P P P P P J * O > w T.5X7X1X1X>X!.W.o 9 4.P.L.N.N.N.m.7.e B 1XS.r.'.(./.`._././.L.L.m.3.s ",
"v e S.Q.T.T.R.R.T.G.% w v 3.v w D.D.4XvXbXQ.>X,X:X{ O w a 1 z / P ) -.=.;XrXiX-XrX-X#X<.G.8X7X7X1X,X,X:X%X* 8 2 y.L.N.N.m.t.e f f ^ r.`._.|.B./._./.L.K.K.m.7.p ",
"f w T.h.E.8X6X1X!.T.y > f n b t S.[ h.W.>X6X4X4X%XL O 9 d f 2 z #XyXhX*X*XCXZXNXCXCXCXBXhX+X$X6X5X~.Q.>X:XP : w s p.N.B.N.3.a v s 8.'.M.Y.Z.M.M./.L.K.K.N.n.9.0 ",
"p / ] ] S.R.4X6X<XW.J : d v b 1 I / ] [ F.1X6X:XL F O 7 M ( { sXpXyXtXaXlXiXZXBXZXZXSXBX=XfXlXgX$X<X,X>X!.<.. 7 r 4.u.9.h p f r r.'.'.'./.'.`.(.L.K.N.N.m.n.4.> ",
"r / / D.h.] h.S.S.J S o f v v d , 8 / / ] ] ] G J S 8 -.sXMX+XhXtXtX*XrXBXzXuX*XyXuXlXfXNXlXlXkX+XzXgX3X%XE.O 7 r f s r a d v V.'.'.'.'.`.`.`./.K.N.m.N.z.3.p a ",
"a 7 z ] ] ) ] [ ) J * : x s b x e w : y / _ ) J W =.+XBXZXZXiX=XlXaXuXrXNXMXlXrXfXaXhXlXkXlXCX=XqXmXmXlXsX;Xy > e f x b V h /.'.`.`.'.`.(././.N.N.N.0.g p f v x ",
"2 e 2 q u I ) _ ' D % w v n [._.V.c p 2 : q u =.yXhXrX&XuXtX&XXXlXlXjXfXlXhX&X=.&XfXlXMXBXCXZX,.kXlXjXjXlXjXrX) t r x v b a 2.e.N.`.(./././.B.L.L.M.b e v v a d ",
"E.~ w e w > 8 y y % , x v 8.(./.L.n.p B c [ ,.! qX=XpXlXaXlXmX@XfXlXhXrX=.-   +   - =.yXMXCXzX&XlXjXuXiXuXuXyX .+X[ f v b v d a g 2.e.v.L.L.L.K.t.a e f a r D.4X",
"!.:X[ 7 e a a p e r b n x r.`./.L.L.0.f.dXhXzX&.:.qX=X&XrXuXlX=X>.,.H +   @ $ $ $ @ @ + T XX&.rXlXuXeX=X*XpX&.&.lXhXG.f v 8.r.x d s p p 4 j w.9.v a f w ] 6X7X1X",
"!.!.R.G.z 9 a x x v 3.3.s b.`./.K.L.Z.$XzXjXlXhX>.uXeX&XeXuXyXT     + $ A T R } R Y A & +     } sXzXtX=XtXuX:.zXZXVXhX:X|./._./.u.n a f x x f f x f z ,X6X5X1X1X",
"!.!.R.R.E.) > r f b 6.6.a ).`.m.B.].dXhXpXpXjXlXrX+XhXtXiX:.& + & F Q W U Y Y R Y Y Y u U Z & @ & :.sXhXzXXXfXZXZXBXuXzX9XY.Y.q.L.L.n.8.f c v n v w 4XbX5XQ.T.1X",
">X>X:XR.) J * e v N 6.n x [.`.L._.9XuXtXtXeXtXtXuXqX&X>.& + - Y  .] j.v u T R R } T L 1 M ` E U - @ & +X+X&XrXyXtX*XNXlXlXcXZ.B.L.Y.B.L.N.f v v a ] vXvX6X7X1X7X",
",X>X:X) F i O w v b 6.n m P././.~.hXuXuXVXtX=X@XrXqXK   & T  .-.V d.c.j y Y } R } T L 1 h 8.M ] W K &   ! zXZXZX&XtXjXlXlXzX~./.L.L.L.B.N.6.x b e D.h.:XvXbX5X5X",
"R.E.-.S * . > d v B 6.6.b s j j -.,.+X0XtXlXlXiX=XK + A R ) k.x.v V z.j y ..} R } ;.J 1 5 9.b x.8._ R - @ ! sX*X=X0XrXuXpXjX>X'.'.`.L.B.N.z.a v r ~ ] / [ ~.~.~.",
"I L S % . 7 f x s s b 3.7.6.b V K @XzXlXlXlXlXyX! + =  .-.B l.d.@.G.d.j u } X.R ..X.E 2 g s.W s.3.x.h.Q - + T >.aX*XrXpXfX&XH Y.'.`.L.B.N.m.v v v w 7 y I / ' ' ",
"i * O : e a a 8.b.n.v v 6.6.S.sXqX&.,.fXzXlXyXY $ F  .` x.9.M.l.G.H.l.j u } ..Y o.X.E 2 s s.;XH.3.v.c.` Q Z ; K rXuXuXuX>.&.iXxX|.`./.L.N.m.q.d b n d 1 o % y y ",
"w w 2 a n l._././././.r.v k.gXlXlXjX+X>.yXqXH + K #./ b n.y.N.m.3.r.v.m u X.o.Y o.X.E p 5 x.j.x.w.n.m.t.u Q Z ; A qXiX&.>.yXNXNX#X|.'._.L.N.c.a b N v s a 2 , > ",
"r.z.V./.L./././././._./.].cXlXlXMXmXlX=X&.A @ S | k.8.b v.m.N.N.7.x.m.1.u +.o.Y $.+.E d 5 m.B.N.9.n.N.y.g s.E A + Z ! rXtX+X>.+XhX9X`./.K.m.c.s n v b r.u.b.n.V.",
"L./.'././._.`.'.`././._.^.hXlXuXmXjXNXkX .+ A W h.M.9.3.v.N.N.Z.5.z.K.j u ;.$.Y $.:.R d h N.N.N.q.m.N.l.4 n.g.E = + >.uXtXaXmXlXlXfX^.B.N.M.0.f b n [.(././.L.K.",
"V.`.'.'.'.'.{.[.{.'._./.2XlXjXjXjXkXlXuX& & Y / z.n.9.3.m.N.K.K.5.z.N.j G ..;.Y ;.o.W d h Z.N.K.q.N.K.z.4 n.u.s.L & = pXtX=X*XtXjXlX~.N.M.n.q.v b r.[.'.'.`./.L.",
"/.`./.`.`.'.[.}.}.}.}.{.dXfXlXjXtX*XuXoX+ K ' B z.M.9.3.N.N.K.I.7.c.N.1.u o.;.T ;.o.W d h K.N.Z.q.m.Z.z.4 n.i.c.I A @ *XuX*X0X0XhXhX3Xy.z.c.9.v v b.[.'.'.'.`.`.",
"/././.[.'.'.[.}.}.}.}.{.dXfXyX*X@X@XiX! - E s.3.p.n.8.3.K.N.K.I.4.c.Z.2.u o.;.T ;.o.W d m K.K.I.e.N.I.z.4 N.x.c.f J & &.pX0XtX0XtXhX3Xz.N.n.9.x s b.'.{.`.'.'.'.",
"`./.'.].|.g._.}.}.}.}.}.dXlXuX@X+X*X*X& K ' x.4.g.8.h 3.L.Z.K.I.m M.U.2.u X.$.T $...R g b K.I.I.0.N.I.y.4 z.c.v.g ~ A - tXuXtXrXlXlX9XL.M.N.0.a s b.'.m.B.`.'.`.",
"L.`.`.M.x.V.{.}.[.{.[.{.iXhXrX@X=XtX=.& Y ^ z.M ) | E V I.B.I.I.5 n.U.2.u o.;.T $.:.R p b K.I.I.t.c.K.d.q ' ( g.g s.K $ >.hXuXuXjXlXdXB.N.B.y.e s z.`.'.`.`.`./.",
"L.`.`.'.'.'.'.'.`.'.`.].rXaXeX*XiXyXZ A E 6.g.#.W ) ;._ Z.K.I.I.4 M.Z.2.u o.;.K $.o.| 0 b I.K.I.e.x.Z.( .. .| ) t g.P & A uXhXuXaXlXdXB.B.N.c.e s t.`.`.`././.L.",
"L.L./._._./././.`.`.`.].cXuXuXuXuX+X; H _ 8._ W s.l.%.f.N.I.I.I.4 M.K.2.u ..;.K $.o.W 0 4.K.K.Z.t.l.Z.` #.s./ W ' g.( A + @XuXpXpXsX3XN.N.N.n.2 s q./.L.L.L.L.L.",
"q.y.B././.L.L.L./._._._.$X>.>.&.>.- $ K k.s.=.u x.n.s.8.K.K.K.I.6 M.Z.2.u } $.K @.X.Q 1 3.I.U.m.e.e.N.j./ A.z.( =.j.g.Z @ $ :.>.>.>.Q.m.m.c.n.a x 3.L.I.N.y.q.e.",
"e e p g h e.P./.L.L.L.Y.lXCXAX+XkX} # K ` ]  .t g.x.g.B A.A.A.C.2 M.K.2.u ;.$.K ..oXR 1 4.I.K.M.0.e.N.l.B Z.m.l.' h.g.Z @ T kXlXlXlX-Xh 4.t.z.s b h 9.b g g e 2 ",
"d a f x f p 4.y.P.L.L.Z.BXZXZXhXhX&.$ T }  .;.:.=.=.=.=.#.@.#.@.:.j.Z.2.u } $.F ..o.R < 3.C.k.` ) _ ` ` / f.f.[ @.@.W Z + ! MXBXNXlXsXr e e a s b v v b v s e M ",
"t / , e x b s g w.v.L.^.MXCXZXBXhX=.; +.@.} *.;.=.@.@.@.#.@.#. .:.f.M.2.u X.;.S ..o.Q < N h.>.o.$...$.;.:.:.:.oX:.o.O.T @ ! tXBXBXpXhXG.~ , r v 3.6.n v e / !.vX",
"4X2XT.q , f N v p j y.^.yXlXBXpXhX=.; T h.-.| w t.x.s.6.A.A.x.C.p x.N.1.u X.$.S ..o.| 1 6.A.k.` ^ s.` ( ~ h.f.` #.#.` K @  .jXNXmXuXhX$X%X[ > f v b b c ,XvX6X5X",
"1X,X,X%X/ > r v b s h g.*X@XlXlXjX:.+ J x.j.@.u r.A.( s.B.N.K.Z.h x.N.1.u +.$.S  .X.R p 4.I.Z.Z.0.Z.v.0.B A.n.g.#.h.j.D +  .lXtXuX0XhXR.D.W.y > f x d W.vXbX5X7X",
"1X,X>X:X%X<.8 e v b v ( *X+XtXaXuX>.+ L z.z.] | ^ s.%.` K.K.c.N.b l.N.2.t o.$.S | :.R d 4.K.K.I.d.U.N.s.) j.8.~ #.x.u.u + &.lX+XpX0XhX3XH.E J O w f w :XR.5X6X6X",
",X,XE.T.R.%XG.q e x b h.tX@X&XpXlX>.+ J z.n.g. .Q #.o.` N.Z.t.N.3.r.m.2.t } $.S ..o.R f 4.K.K.Z.q.P.K.` ..) P  ._ z.y.y + &.lX>.tXrXhXG.J D = O e d / F.F.F.bX7X",
"1X1X!.:X:XG.-.i 7 r x h.uX=X=XuXlX>.@ D l.n.n.d _ ) I s.m.Z.9.Z.6.q.m.2.t } ;.K @.o.R v 4.K.I.N.q.I.I.s. .| .._ 8.z.y.S + &.uX*.qX0XhX<.F y . 7 b 2 / D.h.h.4XvX",
"1X1X2XR.) S D O 8 r c ( hXuXuXhXkX,.+ D t.m.n.5 z.g.6.t.N.K.9.M.6.q.m.2.t } *.J ..o.R f b K.I.M.9.K.L.l.w s.g.x.t.v.u.S + =.=X&.uXuXsX=.i O 7 n n e z h.` h.D.,X",
"1X<X-.L D * % o w x j.B &.&.>.+X+X- + D t.m.n.C n.N.q.t.m.N.6.k.] s.N.a.t Y ..U ..X.Y f h m.l.h.h.C.I.i.m Z.m.n.u.v.u.S + & &.&.>.&.&.Q o 7 f N N f > z / [ S.] ",
"T.P L D * X q / V M f h.NX+X=XpXrXA + F r.n.v.C n.m.q.l.m.c.^ ,.XXF.Z.2.t ..o.Y ..;.W g s z.^ oXXXF.Z.c.m Z.m.p.i.c.z.y + - rXuXhXjXjX-.e c N b M r e > % / S.S.",
"' L J * . : 8X8X4X%Xt T.ZXmXiXNXlXXX+ S r.n.v.m M.m.q.t.N.v.( :.;.F.Z.2.w +.o.+...X.R p g z.^ ;.oXF.Z.n.m N.m.c.M.c.z.S + >.mXNXNXlXlXW.v b v T.4XT.z e 2 q [ ] ",
"P D % O : R.vX4X,XW.q G.CXqXMXBXNX+X+ S r.n.v.5 N.v.q.y.m.m.8.#.;.( N.2.0 R o.} ..X.E 0 h c.V #.:.j.m.c.m n.N.c.m.i.x.y + ,.mXBXBXNXlXG.x b d 4X4X<X-.o e r 7 z ",
"L % o , [ vX6X5X:XG.i <.uXtXpXjXmX&X+ S g.n.c.5 N.p.q.y.n.0./ '  .I j.2.0 Y ..} $.X.Y 1 h 8./ ' #.~ g.v.m c.N.c.m.y.z.S + XXrXmXNXlXlXQ.s x M ] S.D.W % 7 d f s ",
"O > 2 M vX6X5X6X4XE * <.=XtX@X*X*X+X+ S g.n.t.m N.i.9.z.l.( ` g.V q ' v 0 } ....;.o.E 9 a _ ` g.N B ) x.m c.N.n.m.y.x.S + +XaXlXjXpXhX>Xs a u ) ) ) L O , f v n ",
"r a w 8X6X6X6X4X) D % { pX*X0XuXaX&X+ S g.v.t.5 m.c.3.z.q._ j.N.t.6 L M 0 R ..o.;.X.R : r ) A.N.q.7.~ A.m c.m.m.m.y.x.S + &XVXNXtXeXaXE.p c d 7 q q % > r b 6.N ",
"c c , >XvXvX8X) J y I 9XhXtXtXhXjX=X+ S g.i.z.h m.c.m x.r.` f.n.g.8 P b 0 Y ..o.;.} Y < s ) f.m.8.B / x.m c.m.n.m.u.x.S + &XmXhX0XuXhXD.x x f d r r a v n b v c ",
"f f w ~ H.,X) J S $ D.dXlXzXhXjXjX=X+ Z g.c.c.m m.v.3.t.u.8.^ ^ M G k.m 0 Y ..o.;.} U < 7.s./ ^ u ~ j.c.m c.m.c.m.i.l.S + =XjXhXpXzXjXG.b N N n b n v x r t w w ",
"d f a , ~ _ P S % X S.4XqX-X*X-X-X:.  = g.i.c.2.m.v.q.q.n.c.r.s.s.B M.2.0 U X.o.;.} T : q.c.g.s.^ x.Z.c.m c.m.i.N.i.x.Z + =.-X-X*X*X=Xh.b b v d e t V ] W.<XG.q ",
"w e r e 7 u D % o o ] -.+X+X&.+X*X>.@ = s.v.n.2.A.d.q.9.v.m.m.m.N.4.n.2.0 ..X.o.;... .> 9.m.N.N.9.v.K.c.m y.N.i.m.p.g.= + :.=X&X+X+X,.k.s ( S.E.4XvX4X~.:X:XG.E ",
":X[ t w e w w w e , I ;XzXjXoXBXZXqX+ = s.p.c.v _ ' I N m.m.m.m.N.w.n.2.e U X.o.;.} U < 9.m.N.K.9.c.K.l.1 M s.l.N.c.g.Z + *XfXmXmXmXkX$Xh.vX6X1X>X!.R.,X>X!.W * ",
":X:X:XD.z 2 p c x a , #XtXpX+XmXZXqX@ Z s.v.t.) | W ..` x.N.m.m.N.9.v.1.e U } o.*.} U > w.v.N.N.9.c.N.( #. . ._ x.c.g.A + *XjXVXVXlXkX;X8X6X5X7X,X~.>X:X!.) * [ ",
"~.:X!.!.R./ , r c c f ;X=XtXqXuXBXqX@ Z s.z.`  ./ V -._ c.m.m.m.N.0.v.2.e U } o.*.+.J 7 4.v.N.N.5.z.V.) @.( E  .` z.d.A + *XhX&XrXzXlXsXnX5X7X1X~.>X>XE.E * E.5X",
">X>X:X:XR.E.<.8 w f x -X@X*XjX*XlXqX@ Z s.l.%.u 0.l.` B n.m.m.n.N.e.c.2.p Y ;.o.*.:.T w b v.N.m.9.z.B.s._ g.d.' #.g.q.A + >.&.eXBXlXlXsX4XbX1X1X,X,XT.S $ R.5X7X",
"T.T.T.H.T.G.G.) > a B iX@X=XtXrXuX&X  A _ h.| M d.t.A.b l.z.x.A.C.0.c.2.p U } o.o.} U a m v.N.n.9.c.m.x.B C.p.g.#.k.s.A + ! *XlXlXyXzXsXS.T.4X5X1XS.S $ y 6X7X1X",
"~.Q.R.R.R.R.W.) % w M cXuXuXpXhXjX=X  Z }  .@.=.-.#.-.#.#.%.#.#.-.s.c.2.0 T } o.o.} U s m A.j.h./ f.s.( ~ h.( ` #.%.' Z # +XlXlXlXhXuXiX] [ ~ D.) F % . D.7X1X1X",
"!.:XR.G.-.) L S * 7 f ;XuXuXfXuXqX,.@ U $.X.:.,.:.oX:.;.;.$.:.X.,.` x.a.p T } o.o.} U x b h.,.....@.$.:.:.:.:.,.:.o.O.K ; ,.qXyXpXuXiX&X) _ _ ] J * . q 4X1X1X,X",
"-.' L J D S * % o w a S.*XqX=X&XiX+X+ Z -.` | ~ s.s.g.M s.g.g.g.s.8.z.2.4 T X.o.o.X.T v b g.] _ ~ ) _ ` ' _ ` ` @.#.%.H $ +X0X@X&X&.+X-.8 u / ) i . o [ 1X1X1X,X",
"S y i * % O o 7 e e r.5XZXBXZXZXSXkX$ = ( j.#.z q.l.f.x u.v.m.n.0.9.c.2.p U X.......Y v 4.c.m.u.9.t.p.n.6.q.u.r.#.h.f.Z & lXBXNXlX>.zXW.x e > 8 : 7 w q / -.) P ",
": : , w e r d f d V.'.2XCXZXZXZXZXzX& = ( x.` E M 8.%.z z.n.m.m.0.w.c.2.a J +.....} U v 2.z.n.i.5.t.n.g./ b q.~ #.g.s.Z - lXBXVXhX+XkXT.n b x f c x x a w > o o ",
"x v b v x a v r.'.'.'. XCXZXZXCXtXjX& = ( u.g.#.E ' $.P u.v.v.p.0.d s.m 4 K Y ....+.U B j ^ ` g.5.u.n._ X.u P | ' r.8.A - kXVXNXmX&XmXD.b b v x s d a a p a p e ",
"x b b x 8.V.'.'.'././.^.CXCXBXaXlXjX& = ^ y.z.` W | W t t.v.c.u.6.$.OXf g F Y X. .Y F M a %.wXs.4.t.z.( @.| } #.c e.( A A fXlXBXlXiXhX( s x a t.u.z.z.z.0.8.v e ",
"s v x {.`.'.'.'.'./.`.|.kX=XyX=XuXzX- - M 5.5.a u M x 4 w.9.9.9.b #.-.e 1 J :.} | :.R p 2 V ` 6.4 7.9.n z L ~ ^ 4 4.M A Z hXpXiXlXyXrX%Xt r a h q.q.v.c.c.t.y.9.",
"s a Y.'.(.'.[.[.[.[.'.^.:.hXiX+XtXhX- - u h s 3 1 4 5 3 4 h 5 h 4 l a 3 : F Y } R R K 7 3 h h h 3 s h 5 h 1 2 s 3 4 u A A hXaXrXaXjXhX%XE.M e r 1 w.c.c.c.i.y.m ",
"p b.(.(.`.'.'.'.`.'._.C.=XlX*X+XeXzX= A i 7 7 o : 7 , : 7 9 9 , > . 7 o . J Y R R +.U * o w 9 7 : 7 9 1 0 : > 9 : > i F A zXhXtXuXlXzX4X>X>X] w e 4.c.c.c.z.9.e ",
"b (.L././.`.`.(.`.M.Y.^.lXlXtX*XtXkXA Z U U U Y Y U R Y R R Q Q W } W W Q } } .. ....... .#.@.....@.@.@.@. ...#. .W R T T zXhXpXfXMXkX4X,X~.T.P 7 p 9.q.0.q.e f ",
"9 3.P.L.L./././.`.`._.|.kXNXlXhXjXjXH A +.Y U U U ;.U Y U ..R } } +.X.} X.} ;.} ....} ....*.o.;...@.@.=. .;..... .+.;.K Y jXlXjXjXlXzX4X>XE.D.E O 7 e e e p s x ",
"7 w a q.e.e.y.m.'.].].|.yXsXfXfXfXiX! ! } Q Q } } } } X.X.#.) ) _ { -.{ { { { ' ) ) ) ) ) ) ) ) E W W W W W W W E E J  .=.iXfXhXsXfXsX,XE.F.<.K % 7 r c x s s e ",
"8 > r r a a a h _.].].^.Y.Y.C.^.^.j.C.Z.( f. X|. XC.j.C.|.{.{.[.}..X.X.X.X.XY.q.L.L.L.B.B.V.N.t.e b b b n b N N v a ] T.8X4X1X4X4X4X2X>X>XT.J S % 7 a x e e h.5X",
"D._ 7 M B v b x 4./.L.B.B.m.n.l.0.l.n.y.e 8.`.`.'.`.).'.'.[.`.`.}.}.}.}..X{.B n.L.L.B.N.B.N.m.3.a v b s s 6.x b v r D./ T.~.5X,XR.1X1X,XR.E F % : w f e ( 4XbXbX",
"~.Q.D./ t w s v s y.B.B.m.m.N.v.t.q.4.g a w.P./.`.(./.`.'.[.n./.[.'._.b.x.8.l.L.L.K.B.L.m.m.y.2 x s n b./.L.9.s f M ] / h.` [ D.T.Q.!.G.L F * o 7 a e D.vXbX6XbX",
">X>X!.R.R.) , f v h e.e.0.4.g p e e a f b s 4.P./.(.(.(.(.`.`.`.`.`._./.L.L.L.L.B.N.Z.n.m.m.h a a b./.B.m.v.B.8.d e z P ) ) _ _ ) ' ' P L i O 7 f s z vX6X5X5X5X",
">X>X!.:XR.<.. e v b s a f c f ] M a f v b n s w.L./.L./.L./.`././.L.L.L.m.L.L.L.B.Z.g.r.m.c.e a 8.`.L.B.L.L.B.N.3.a e 7 q u I ~ P P I L i O w c v w E.bX7X~.5X5X",
"Q.!.:XR.T.J % 7 b N n n n x [ 8XR.] t e f b b x 4.y.v.u.u.y.y.v.L.L.L.L.L.L.K.N.N.N.n.m.m.b e u./.L.L.L.L.L.K.N.m.b d s a e 9 7 > 8 8 : > k b b v z D.>X7XQ.7X7X",
"T.!.R.R.) = . w b v b v v p T.vX>X:X$X[ t w f b b s s a a a p a j q.c.c.m.L.K.N.N.N.N.m.4.0 q./.L.L.L.L.L.L.L.L.N.N.u.b s x f a a a p e p a x b b w / [ !.7X1X1X",
"!.!.:XD.S X > M d f B r a > R.!.1X,X:XR.R.[ u e s b b b c M r a x e g g s j 9.y.v.N.c.m e n /.L.L.L.L.L.L.L._.].].].].].n.g.( S.8.b._._._.Z.q.B s.B 7 z 4X6X6X1X",
"T.-.P D % o z vX8X~.D.z , 8 D.] S.T.>X:X%XR.E.-.z a b s <X6X>Xh.M e a f v b x s s h 4 a f 9.L.L.L.L./.L.L.L.{. XbXbX X X XbX X X X X X X X X^.h.T.j.s.S.$X9X8X4X",
"I D y % . > ( F.T.T.E.G.o O [ ` [ ] h.[ >XR.E.W.G.8 a r 4X7X1X!.>XT.] / c a b v v v v v x p j y.L.L.L.L.L.L.L.I._.L.L.L.L.I.K.K.K.K.K.K.N.n.6.t B N N f ~ / ) _ "
};
