/* XPM */
static char *_fbfa8296d8a4a3ca5d7c6206245a706[] = {
/* columns rows colors chars-per-pixel */
"80 80 243 2 ",
"   c #0E0D13",
".  c #0F0D18",
"X  c #100F15",
"o  c #100E19",
"O  c #121116",
"+  c #15141B",
"@  c #18171E",
"#  c #17181D",
"$  c #19191F",
"%  c #0C0B0F",
"&  c #351D18",
"*  c #2C1D1A",
"=  c #3C231B",
"-  c #36221B",
";  c #1C1B23",
":  c #171721",
">  c #201F26",
",  c #211F29",
"<  c #1F2129",
"1  c #222127",
"2  c #22222A",
"3  c #2C2429",
"4  c #372625",
"5  c #2B2B35",
"6  c #2D2D39",
"7  c #252732",
"8  c #372E36",
"9  c #33323E",
"0  c #3A343A",
"q  c #2E3239",
"w  c #4C2B1C",
"e  c #46261A",
"r  c #542A1B",
"t  c #59321E",
"y  c #69351A",
"u  c #723C1C",
"i  c #4C2D21",
"p  c #442A23",
"a  c #542F21",
"s  c #4A3229",
"d  c #543323",
"f  c #5B3422",
"g  c #5E3925",
"h  c #58392B",
"j  c #473738",
"k  c #5B3D3B",
"l  c #563C36",
"z  c #402F35",
"x  c #623523",
"c  c #643A26",
"v  c #6B3C26",
"b  c #643C2A",
"n  c #6B3E29",
"m  c #6B3622",
"M  c #753E25",
"N  c #673B2D",
"B  c #78411E",
"V  c #5C423D",
"C  c #5C4436",
"Z  c #6D412A",
"A  c #6A4029",
"S  c #73442C",
"D  c #7A452C",
"F  c #7B4A2E",
"G  c #794528",
"H  c #694838",
"J  c #7C4C31",
"K  c #754A36",
"L  c #79513A",
"P  c #353542",
"I  c #3B3B46",
"U  c #3D3C4A",
"Y  c #383744",
"T  c #443C44",
"R  c #413E4B",
"E  c #4B3E47",
"W  c #5B3E40",
"Q  c #3D424B",
"!  c #43414C",
"~  c #4D424B",
"^  c #4A4448",
"/  c #52444B",
"(  c #5C4B4B",
")  c #584748",
"_  c #464553",
"`  c #4A4A55",
"'  c #4C4C5B",
"]  c #484656",
"[  c #5B4D54",
"{  c #534B57",
"}  c #5C525B",
"|  c #56525B",
" . c #4D5258",
".. c #674C48",
"X. c #69534A",
"o. c #785547",
"O. c #685657",
"+. c #755A56",
"@. c #684D4D",
"#. c #7B645A",
"$. c #786557",
"%. c #6A615E",
"&. c #4D4E61",
"*. c #4E5263",
"=. c #4B566A",
"-. c #535364",
";. c #5A5563",
":. c #555669",
">. c #5C5B6C",
",. c #585868",
"<. c #5D5D71",
"1. c #504E64",
"2. c #655B66",
"3. c #615E73",
"4. c #725F65",
"5. c #5C646D",
"6. c #69646B",
"7. c #786867",
"8. c #64657A",
"9. c #686776",
"0. c #736876",
"q. c #6A7579",
"w. c #7A7576",
"e. c #844C2D",
"r. c #8A4C2C",
"t. c #844628",
"y. c #8B522D",
"u. c #93532D",
"i. c #864E31",
"p. c #8B5333",
"a. c #885639",
"s. c #945433",
"d. c #9A5535",
"f. c #9A5934",
"g. c #9C5C3A",
"h. c #97593A",
"j. c #924C2D",
"k. c #A15C38",
"l. c #99633C",
"z. c #A4623D",
"x. c #AB643C",
"c. c #AB693C",
"v. c #B56B3E",
"b. c #B5703F",
"n. c #885A46",
"m. c #935D43",
"M. c #845E53",
"N. c #986448",
"B. c #856759",
"V. c #966754",
"C. c #8F6C56",
"Z. c #A46542",
"A. c #AC6B43",
"S. c #AC6C4A",
"D. c #A66846",
"F. c #B46D43",
"G. c #B66E47",
"H. c #AB7249",
"J. c #B57145",
"K. c #BB7345",
"L. c #B4724A",
"P. c #BC744A",
"I. c #BD794B",
"U. c #B97B4B",
"Y. c #A56D53",
"T. c #AA7255",
"R. c #B87853",
"E. c #856B63",
"W. c #897768",
"Q. c #8D7B71",
"!. c #A27F6B",
"~. c #C2764B",
"^. c #C37C4C",
"/. c #C37648",
"(. c #C47B52",
"). c #C97A53",
"_. c #B7895A",
"`. c #96826D",
"'. c #988878",
"]. c #918678",
"[. c #A4927D",
"{. c #AA967E",
"}. c #AD8C71",
"|. c #C6824E",
" X c #C9834E",
".X c #C7894E",
"XX c #C58451",
"oX c #CA8551",
"OX c #CD8A53",
"+X c #C6865A",
"@X c #D29359",
"#X c #CD9872",
"$X c #6B6C82",
"%X c #757C83",
"&X c #6F7482",
"*X c #8A7C86",
"=X c #7A8589",
"-X c #7A8B8F",
";X c #838D93",
":X c #889699",
">X c #95918E",
",X c #A49482",
"<X c #AA9581",
"1X c #AD9A83",
"2X c #A99B88",
"3X c #B39D84",
"4X c #B09E88",
"5X c #A19185",
"6X c #B5A48B",
"7X c #BAA58A",
"8X c #BDA98C",
"9X c #B9A286",
"0X c #A8A49B",
"qX c #B9AA94",
"wX c #B6AA94",
"eX c #929DA2",
"rX c #8D9EA0",
"tX c #8EA1A3",
"yX c #93A3A5",
"uX c #9BABAD",
"iX c #98A6A9",
"pX c #9CADB1",
"aX c #9EB2B3",
"sX c #A5AAA8",
"dX c #A2AEB1",
"fX c #A3B2B5",
"gX c #A5B5B8",
"hX c #AAB6B9",
"jX c #ABBABD",
"kX c #A8B6B8",
"lX c #B3BABE",
"zX c #8CA09F",
"xX c #C1AC8D",
"cX c #C1AE91",
"vX c #C5B497",
"bX c #D5A281",
"nX c #CDC2A5",
"mX c #ACBDC1",
"MX c #B1BEC2",
"NX c #AEC1C3",
"BX c #B6C5C8",
"VX c #BFCDD0",
"CX c #C6D3D6",
/* pixels */
"= e a c v f H $.$./ T j & = ..O.+.W.Q.O./ / / / ~ 4 = h Q.vXxX9X3X3X3X1X9X3X3X1X1X<X} = g S S S Z n c m j.K.~.^.|.oXoX^.^.^.oX|.|.^.^.~.~.I.p.f S D D n f i e e ",
"v S G S A g w l ) 8 4 - w f w p l X.E.( ) ) E E 8 & e = $.vX8X1X{.1X1X{.3X3X1X1X<XO./ 4 i b J J e.J F S f t.~.~.^.|.^.^.^.^.^.^.~.~.~.A.e.t t n F F F D D S S Z ",
"i.i.S v E.W.h w w w f n D D Z c r e l j j 8 4 = e a d w C <XcX4X1X1X3X3X3X3X1X1X7.) E 4 p f n f g g c Z A f x.K.^.P.^.^.~.I.I.~.~.K.e.f f n S F F D D D D D n F ",
"p.F n H nX4X<X$.d f A S J i.F S S x i = X.].'.C f v Z c s B.6X8X7X6X6X6X1X[.'.Q.) / 0 & p g h 6XqXwX4X'.h g G ^.I.I.~.I.P.P.P.P.z.x f n S S v A G F A A v x x D ",
"e.S f W.qX4X1X<X'.C g Z Z S e.S c ..'.vXcX8X4X,XO.i g A r +.B.Q.7.7.$.O.@.( ( @./ E * e a d 2X7X3X4X<X,XO.w f v.^.^.~.K.P.K.P.p.f c K v D l.U.XXOX|.^.^.~.I.i.S ",
"S v h [.qX8X1X<X<XQ.e b Z D D g $.nXvXcX8X7X1X].].( w g c h #.+.@.@.( @.O.O.O.O.} E p s d '.7X9X3X3X<X[.].= r t.^.~.P.P.P.K.p.f H 3XC.l.OX X XoXXX|.|.^.~.K.e.v ",
"S f E.[.`.`.'.'.'.Q.4 d S e.S d W.W.6XvXxX[.<X1X,X%.- d c r V X.@.6.w.q.;XdXhXdXdXfXiX>X>XwX4X3X3X1X1X<X5Xz i t x.^.P.P.K.z.f n n o.l.OXXX@XU.|.XX|.^.^.~.K.j.x ",
"n d `.B.'.qX8X4X[.].j e n F G h W.$.B.`.<X8X6X6X5X/ - a b n d ( ;XdXdXuX;XfXCXVXCXCXCXCXjX-X;XwX7X<X[.<X,X( e d v K.K.I.P.r.c S v a.OXL._.R.L.L.|.^.^.~.P.J.s.a ",
"c X.#.#.E.'.6X8X2X].~ e b S S r ) X.#.$.Q.4X8X,X/ E - a H W.6.;XgXyXtXeXBXuXfXjXBXCXCXNX:XmXjXjXq.0X4X<X,Xw.& i g t.c.s.v x n g l.OXOXOX|.OXOX X^.~.P.P.K.J.r.w ",
"g X.X.W.B.#.B.E.E.~ T = v S S v w p X.X.#.#.#.E ~ T z Q.hXCXhX;XfXuXtX:XNXgXgXyXiXuXgXjXVXjXjXjX;XjXkXsX2X].- i b n v f c v S U.OXOXOXOXOXoXoX|.~.P.K.P.A.r.x c ",
"c i C #.#.X.#.#.O.~ 8 e Z v S Z f d e j X.+.O.E / q.q.uXCXCXVX%XdXfXaXyXgXNXmXiXuXfXaXfXjXhXCX:XeXmXmXmXhXiX( p f n Z S L S |.OXoXoXOXOX X X|.P.P.P.g.m x n S S ",
"d h h s l ) O.+.O.T - d S F OXXXI.v x t e s j j :XfXaX:X:XrX:X%XyXjXgXfXhXhXeXq.=XiXfXMXBXVXCX-XjXmXgXgXjXgXdX%.h g n S S c t.k.K.oX X|.|.|.I.^.^.L.D f S S c b ",
"w.' _ ^ l i p j j 4 w Z S p.oX|.^.J.x K A X.>X6.q.:XtXuXfXgXjXhX-XfXdX:X6.I 2 2 1 5 ` %XuXBXhX;XjXfXiXtXiXuXyX .;XW.H S D S v c m t.k.F.~.^.~.~.z.c f n c g W.6X",
"$X' ] ] ' ` ) b f c S F n l.oX|.|.~.g.M.qXdXhXdX .:XrX-X:XyXfXjX5.6.Q 7 5 U ' ;.;.' I 3 6 ` 6.:XmXpXtX;X:XpX9.=XBXhX>XK S p.l.Z v v x x y M r.s.S c n d #.8X9X3X",
"$X*.' ' ;.,.-.' ( K e.e.v H.oX|.~.^.I.Q.dXgXgXjXyX&XuX:XrXuXiXq.9 7 U { ,.,.-._ ' ;.>.} ] Y 5 ` ;XgXuX:XiXiXq.BXCXBXfXeX#X X|.|.c.F c n Z Z n n Z n C 1X8X6X3X3X",
"$X*.] O.#.6.6.8.>.-.O.L c .XoXJ.I.^.<XdXdXuXuXgXfX:X:XpXiX%Xq 6 _ ,.3.` 9 2 1 1 U ] ( ..O.2.*.R 5 _ eXhXhX=XdXVXVXmXuXjXsX_._.h.^.^.J.a.n A S D S d 6XxX7X'.`.3X",
"$X*.9.l h.Y.E.0.8.9.>.| H @XoX^.^.}.dXuXiXtXzXyXiXdX:X:X_ 7 ! ,.3.! 7 2 1 1 1 > R ] ) r S n.O.2.*.Y q 9.:X-XyXiXyX:XBXmXjX0XU.I.^.I.I.^.I.v S S c $.vXvX8X9X3X9X",
"8.*.&.k u.b.F.Y.B.0.8.8.:.C.|.|.XXsXfXyXpXgXyX;X;XyX%X2 9 | 6._ 7 1 1 , 1 > ; ; U ] ) r M s.p.V.O.>.` 6 Y iXCXCX;XuXuXjXfXfX}.|.^.I.~.I.I.i.Z S f W.B.,XvXcX7X7X",
"8.-.:.) j.L.A.F.y.n.E.0.8.>.@.D S q.=X;XuXfXNXgX:X=X5 R >.| 6 1 1 ; > ; ; ; ; ; U 8.) r M a.H m.p.B.2.=.9 ! uX-X:X:XtXuXuXfX<XOXOXXX^.I.P.A.c S g ..#.X.#.{.{.{.",
"8.-.:.k s.D.X.Z.s.z.L.M.7.9.>.[ X.` :XhXjXjXjXfX-X6 ! >.! 2 1 1 > ; ; ; ; ; $ $ U -.( r M o.%XM.u.A.V.O.;.I Q q.uX:XyXuXdX%X! }.OXoX^.I.P.K.S S S d i j ) X.@.@.",
"8.:.:.k d.Y.>XN.s.z.K.x.a.7.8.>.>.:X| ;XfXjXfX=X7 Q ,.Y 2 1 ; > ; ; ; ; $ @ @ @ U ,.( a Z m.Q.n.s.v.K.N.@.=.I ` eXuXuXuXq.q.hXlX#XOX|.^.P.K.h.v D S v r = 4 j j ",
"8.:.<.l d.L.N.L.f.x./.F.f.D.+.9.:.5.iXq.-XuX%X5 R ;.9 2 1 > ; ; ; ; ; ; @ @ + @ U -.( f G L.L.F.f.F.L.Z.b O.-.P Q :XyXq.q.eXfXgX;X#XOXXX~.P.F.c D J S v c t w e ",
"8.:.<.k d.~./.I.g.x.P.L.v.c.y B.6.:.&XlX=X .2 I ;.9 1 1 , ; ; ; ; ; @ @ + + O O I 8./ x G P./.F.l.F.K.z.u Y.O.{ P q 5.iXfX:Xq.=XjX0XXX|.~.K.F.v F S D l.c.H.J.I.",
"8.:.<.k d.~.I./.g.Z.P.K.J.S.y N.C.6.*.yXuXq 6 | U 2 1 > ; ; ; ; @ @ @ @ + O O X U >.[ x S R./.S.z.K.P.Z.u L.N.} ` 5 5.fXyXaXjXjXmXfX_.I.P.L.g.n D F @X X X^.^.~.",
"8.:.<.k d.~.~.~.g.Z.~.P.P.F.y z.A.B.>.>.%X2 _ ` 2 1 > ; ; ; ; @ @ + + + O O O X U <.[ x G I.~.A.z.K.P.Z.M P.A.o.| U 9 pXiX:X:XiXfXhX{.P.L.L.f.S S l.OXOXOXOX X^.",
"8.:.<.k d.^.^.(.g.Z.~.~.P.L.y z.F.Y.+.-.P P | 6 2 1 ; ; ; ; @ @ + + + O O O O   U <.[ x D I.~.F.Z.K.~.Z.M P.v.a./ ` 6 =XuXrXtX:XfXfX5Xx.A.F.s.S S H.OXOXOXOXOXoX",
"<.:.-.V d.).).~.z.Z.(.~.K.G.y z.K.A.K ,.U ] ! 2 1 > ; ; ; @ @ + + O O O O X     I :.[ x D (.~.A.A.K.~.Z.u /.b.h.b { U ` uXtXyX:XiXdX5XA.K.J.s.Z v H.OX@XoXOXOXOX",
"<.:.8.k d.).^.^.z.Z.(.I.P.K.y A.F.F.J O.` ' 6 1 1 ; ; ; @ @ + + + O O O X .     P $X( x e.(.(.A.S.F.~.Z.t n.D.f.S X._ 6 eXuXiXyXhXjX0X(.K.P.g.c v H.OXK.I.oXOXoX",
"<.:.>.V d.).).^.Z.z.(.P.P.Z.w N.L.v.e.+.{ U 1 1 > ; ; ; @ @ + + O O O   X       I :.[ t r.~.).A.S.A.R.n./ } +.L S n.` 0 q.fXpXuXfXjXsXI.I.I.Z.f v A.oXOXoXoXoX|.",
"3.:.<.k d.(.^.^.Z.g.^.(.D...} O.V.c.p.M.-.P 2 1 ; ; ; ; @ @ O O O O X       %   Y <.[ r r.^.(.D.G.z.R.X.>.O.;.O.S N./ U _ uXfXuXpXjXsXI.I.I.F.f v z.oXoXoX|.|.^.",
"<.:.<.k g.).).).Z.s.^.(.M.>.} | 2.n.p.V.{ U 2 , ; ; ; ; @ @ O O O X X           Y <.[ r i.(.~.Z.G.k.R.+.4.V.o.} +.D.X.! 2 :XfXfXfXfX0XI.K.P.J.t v g.|.^.^.^.^.~.",
"<.:.:.V f.(.^.^.Z.p.)./.V.2.s o.} O.i.V.| ! 7 > ; ; ; @ + + O X X           %   P :.( w j.(.~.Z.L.g.~.V...R.A.+.6.D.n.! < q q.&Xq.%X,XK.K.F.J.x Z t.^.(.P.x.f.k.",
"<.:.>.k d.).).(.D.i.(.).R.B.n R.o.6.M.Y.' R 7 1 ; ; ; @ + O O X X               P 8.[ e j.(.T.m.N.n.D.m.K T.N.o.>.B.@._ 1 | hXjXjXjXeXM r.z.Z.v S v s.G m c f t ",
"<.:.3.V d.).).R.V.S T.L.L.Y.c T.N.} E.V.' R 2 > ; ; @ @ + O O O X X             Y <.[ e a.V.0.2.2.2.2.6.6.6.0.0.3.} ;._ < ,.MXBXNXhXsXg f f x v D S S D S v f H ",
"<.:.>.k d.(.T.7.2.;.4.+.2.7.2.6.7.3.2.| 1.U 2 > ; ; $ + + O X O X X             Y >.[ e a.B.9.;.2.2.9.3.9.9.9.9.8.| 8.] 1 5.uXBXBXpXfXQ...w g G e.e.F S f X.[.vX",
"<.:.>.V d.(.V.7.2.3.>.2.9.6.9.6.0.8.<.:.:.U 1 ; ; $ $ + + O O O O X X           Y >.[ r p.R.V.n.m.m.N.o.H V.m.+.2.B.#._ 2 5.fXNXmXuXfX].5X$.e n S D S A 2XvXxX7X",
">.:.>.V d.^.R.Y.n.K Y.D.D.Y.b V.n.} #.E.-.U 1 ; ; $ $ + + O O O O X X           Y *./ f s.(.R.x.S.L.~.h...L.x.+.7.H.N.^ 1 9.jXiXiXtXfX'.Q.].j e n Z v `.vXxX7X9X",
">.:.:.V d.).(.(.g.s.(.~.R.V.v R.a.6.B.S.[ I , ; ; $ $ + + + O O O X X   X       P $X) x s.^.~.x.F.P.R.o.2.m...;.+.F.N.^ 1 9.mX=XfX:XfX2XQ.[ ~ - d n d ,X'.6X8X8X",
">.:.-.k d.(.(.^.h.h.~.(.V.O.h o.O.2.Z S.[ I 1 ; ; $ $ @ + + O O O O X X O       Y >.[ v i.~.).Z.A.~.R.+.3.O.} O.a.J.l.! 2 9.jXq.iXyXfXw.~ E j - f n ..Q.W.W.cX9X",
">.:.9.k d.).(.^.p.l.F.I.B.,.( [ >.$.G S.[ I > ; ; $ $ @ + + + O O O O X X     X Y >.( v e.I.^.x.Z.~.^.n.{ ;.O.m.g.G.l.! 2 q.iX5.yXtXfX2.E T * i S f X.W.B.B.6XvX",
"<.:.:.k d.).^.~.r.Z.Z.F.Y.O.:.2.+.D.G L.[ U ; ; ; ; @ @ + O O O + O O O X   X X P :.[ c D I.~.z.l.~.^.N.c m.D.Z.z.F.h.! 2 q.;X5.iXuXfX[ j & w D D f l B.+.B.W.1X",
"<.:.:.k d.(.T.V.v z.Z.x.R.m.k V.T.F.G L.( I ; ; ; ; : @ + + + O O O O O X   X X P :./ x G L.m.E.C.R.~.F.e.P.P.c.x.F.h.R 2 | 9.,.-X%Xq.0 - i n J J n e V X.$.W.#.",
">.=.:.k d.R.Q.&X) g.x.k.R.~.G S.K.G.t.L.( Y 1 ; ; ; ; @ + + O + O O O O X o X O P 3./ f M Z.+.$X*XT.P.L.r.K.K.F.v.F.m.! 2 9 -X:X:XyXiXV f n F S H g f w 4 X.E.E.",
"<.:.' k d.R.7.$X( h.x.A.P./.t.A.J.L.t.L.( Y ; ; ; ; ; @ @ + + + O O O O O X X O P :./ a M D.o.$X0.Y.~.L.e.J.K.K.F.F.m.! 2 %XNXNXNXjXjX#.S S S `.6X'.C f t s $.#.",
"<.*.8.k d.(.B.0.p N.A.F.P.I.r.A.J.P.r.L.( Y 1 > ; ; ; @ @ + + + O O O O O X X O P :.( r D D.K 0.O.Y.P.L.r.F.K.P.F.c.m.R 2 =XNXVXBXNXhX$.Z S b 6X6X4X7.= f g i V ",
">.-.-.k s.V.} 0.l a.A.F.P.~.r.c.F.U.r.L.( P > ; ; ; ; @ @ @ + + + O O O O O X + P &./ w S a.@.6.) @.D.L.r.F.K.K.F.x.N.R 2 =XuXBXBXBXjX}.v Z H #.E.W.[ 4 d v n v ",
"2.-.-.k a.@.o.N.V +.z.K.P.I.r.A.F.U.y.S.( P ; > ; ; ; ; $ @ + + + + O O O O O O 9 8./ e n +.V.V.D H M.S.r.b.F.I.F.x.m.R 2 ;XyXjXgXfXfX_.v b l +.O.O./ - i n S D ",
"3.-.*.W n...Z.R.b O.h.I.~.P.p.S.F.L.r.L.( P 1 1 ; ; ; ; $ @ + + + + O O O O O + 0 *./ e n 2.T.S.i.D +.L.r.b.F.P.F.x.n.R 2 ;XNXNXfXyXaXY.x Z g s s s 4 e g S J J ",
">.-.-.k n.( k.K.v O.g.P./.K.u.A.v.K.e.S./ P 1 ; ; ; ; ; $ $ + + + + + + O O O + 9 -.~ e G O.B.A.D V M.F.r.J.F.K.v.v.n.U 2 :XNXjX:XiXfXo.Z Z n v g g c S D S S A ",
"<.*.-.k h.+.H o.( o.F.P.K.F.F N.S.P.u S.) 9 1 > > ; ; ; @ @ @ + + + + O O O O + 9 -.~ e p.n.@...k +.T.S.r.J.F.K.v.v.n.R 2 :XhXuXuXfXfXB.D J J F D D S Z g h d d ",
"<.*.>.k f.R.V.+.f D./.K.P.K ..o.N.R.m S.) 9 1 > ; ; ; ; $ + + + + + + O O O O + 9 *.E r g.F.Z.m.p.L.~.S.t.F.F.K.K.v.n.U 2 -XdXdXuXfXuXo.D D S v f h H $.`.4XW.s ",
">.*.*.k d.~.P.L.u P.P.P.Y.2.:.| 2.N.t.S.) 9 1 > ; ; ; ; $ @ @ @ + + + + + O O @ 9 3.` w d.K.P.K.u.K./.A.t.D.G.F.K.F.n.R 7 ,.=Xq.q.q.9.L v o.E.'.6XvX6X{.,X,XQ.[ ",
"<.*.*.k s.~.I.L.B I./.P.N.;.) V ,.+.r.S.) 9 1 > ; ; ; ; ; ; @ + @ + + + + + + : 9 *.~ e h.K.K.K.s.L./.l.h ..m.A.K.F.o.R 7 :XfXjXjXjXfX$.B.vX8X4X1X[.'.1X<X[.[ 8 ",
"<.*.*.k s.I.P.L.B I.I.P.T.+.l m.X.3.n.S./ 9 1 > ; ; ; ; ; ; @ $ $ $ @ @ + + + : 9 *.~ e s.K.K.P.u.J.L.o.>.;.O.M.A.F.o.U 7 eXiXBXNXjXfX7.wX8X7X3X1X<X,X,X[.O.8 $.",
"<.*.] k d.~./.S.i.R.L.K.K.T.S F.Z.O.B.D.~ 9 1 > ; ; ; ; ; ; ; ; @ @ @ @ + @ + ; 9 ' / r r.K.P.P.u.K.L.O.2.@.} 2.N.F.o.U 7 eXNXaXiXfXjX0XnX6X9X4X1X<X<X'.( 8 ].7X",
"<.*.9.l d.I.S.E.2.+.+.+.+.+.X.+.M.2.6.+._ 6 1 1 ; ; ; ; ; ; $ : @ @ @ @ @ @ + ; 6 9.E a t.J.~.P.y.F.K.+.+.N.a.O.+.D.o.U 7 -Xq.-XmXjXjX0X6XcX4X3X3X1X].T 3 [.7X9X",
">.' ' l d.P.V.7.<.>.2.2.8.9.9.8.0.8.2.1.&.6 1 1 > ; ; ; ; ; ; ; ; ; : : @ + @ ; 9 &.~ x e.F.P.R.y.F.P.Z.L S.S.+.2.Y.X.R 2  .=XfXMXfXjXeXE.`.6X7X4XE.T 3 j 8X9X4X",
">.*.' k d./.R.V.n.V.M.n.n.o...+.o.>.;.2.' 6 1 1 ; ; ; ; ; ; ; ; ; ; : $ @ @ @ ; 9 ' / v t.D.C.B.X.+.M.+.X.M.B.4.>.+.} U 7 q.gXjXgXpXuX>X$.$.X.W.O.T 4 & Q.9X4X3X",
"<.*.' l s.K.K.J.f.K.K.K.P.N.a.L.m.2.E.V.~ 6 1 1 1 ; ; ; ; ; ; ; ; ; ; ; ; : ; ; 9 ' ~ n D B.0.:.3.3.6.8.8.9.q.0.8.&.8.! 7 ;XfXfXgXfXuX;XO.+.+.#.~ 8 & s 6X4X3X1X",
">.' _ k s.P.P.J.f.K.K.L.V.X.a.l...2.N.S.E 6 1 1 1 > ; ; ; ; ; ; ; ; ; ; ; ; ; ; 6 &.E Z t.m.+.O.@.+.+.+.@.+.+.O.>.O.9.R 7 6.;Xq.=Xq.%Xo.p l X.O.z & = +.4X4X4X1X",
">.*.>.k s.K.K.G.d.K.K.K.n.,.H ( 2.O.l.D.T 6 2 1 1 > ; ; ; ; ; ; ; ; ; ; ; ; ; ; 6 8.~ S t.F.F.S.r.A.A.L.G Z.x.o.2.V.O.U q dXMXfXhXq.uXB.Z f w p e i d s X.E.O.( ",
"<.' ] k s.K.K.J.u.J.K.K.n.2.;.;.+.n.x.D.T 6 2 2 1 1 1 1 > ; ; ; ; ; ; ; ; ; ; ; 6 ' ~ S G F.J.F.y.A.G.N.X.n.p.X.6.Z...U 9 jXVXNXmX=XhXE.D S Z n A Z Z c d e = = ",
"<.' ` k d.K.P.J.u.K.G.G.S.H @.+.V.h.x.D.R 6 1 1 1 2 1 1 > > ; ; ; ; ; ; ; ; ; ; 6 ' ~ M G n.o.A.r.F.S.X.2.h ( 2.+.x...U Y jXBXMXfX;XjXC.D D S Z v v c c x c x f ",
"<.' ] l s.G.K.J.r.F.J.K.b.p.h.L.v.u.z.D.I 5 1 1 2 2 1 1 1 > ; ; ; ; ; > ; ; ; > 6 ] E M x 4.*XN.t.F.A.@.>.;.,.O.F z...I I fXNXBXjXrXjXX.v Z c z.c.A.S.A.g.a.S f ",
"<.` ] l s.G.F.v.t.A.J.J.v.u.f.K.v.y.z.D.I 6 1 1 1 2 1 1 1 1 , , 1 1 1 > , ; ; 1 6 $X! c t o.+.p.y d.f.D V [ ..J u r.V I I fXfXgXNXdXeX'.h g v M g.g.F.F.F.z.x.s.",
"3.' { k d.m.n.F.G c.J.F.J.a.f.J.F.e.c.h.U 5 2 1 1 2 1 1 1 1 1 , 1 1 < , 1 , > 1 6 ' ! i e v v v r u M y y r c m r y j U Q fXaX:XfXuXuX'.'.H f g r y.F.F.F.v.x.D ",
"3.' -.k s.E.Q.D.M c.v.v.b.y.f.J.F.t.S.m.U 5 2 2 1 1 1 1 1 1 1 1 1 1 1 1 , , 1 1 6 ` ! = & w w w & r w w r & e r & w z U ! fXfXyXuXjXkX1X<X<X7.d f t.F.F.F.A.s.a ",
"8.] _ k s.N.V.A.u A.F.v.b.p.f.F.b.t.T.o.T 5 2 2 2 1 1 1 2 1 1 1 1 1 1 1 1 1 1 1 6 ,.;.} | } } [ [ } } } O.[ } [ [ { { ' | hXuXyXuXjXhX1X<X<X].( i g s.f.g.d.f n ",
"8.] _ l u.F.L.x.u S.F.F.L.a.a.N.o.k V j U 5 2 2 2 2 2 1 1 2 1 1 1 1 1 2 1 1 1 1 5 >.-.>.<.<.>.>.<.<.3.8.:.>.>.>.:.&.:.] *.hXgXgXgXMXkX4X<X`.Q.{ - i g g f x v Z ",
"8.] _ l s.v.S.Z.v N.n.o.H ~ R I Q 3.U U U 5 2 2 2 2 2 2 2 2 1 2 2 1 2 2 2 2 2 2 5 | ,.| -.-.| >.-.-.:.:.*.>.-.| ' ' -.! -.fXjXhXhXjXhX1X`.Q.7.~ 4 i g A Z v v g ",
"8.] ' ^ ....../ R T _ &.U ] 1.R R / X.n.b Z R.U.U.l.L a.R.R.R.R._._._._._._.V.L Y.L.L.H.T.T.S.h.h H K L K L L L H b #.W.4X0XsXsXsX0X0X1X{.].~ T 4 i c A f f B.6X",
"8.] | U T :.U -.' U ! ] / X.n.N.N.Z.J.Z.t p.oXoXOXOX.XOXOX@XOXOX@X@X@X@X@X@XK L.^.^.I.P.I.P.K.e.c S S n v i.v S S g W.X.`.{.6X1X'.3X4X3X'.[ R 4 e d n f o.6XxX8X",
"9.] _ U I ' U ~ E o.V.H.P.K.P.F.z.d.e.m c r.^. XoX X|.oXOXOXJ. XOXOXXXH.D.a.Z.^.^.~.I.~.K.K.x.t n v G H. X^.s.v n H #.X.B.+.$.W.`.'.[.Q.) E 8 = i b f W.vXxX8X8X",
"0._ ` | 6.O.s A S M k.k.g.e.m x f f c n S v j.^.|. X X X XoXOXoXoXoXXX|.^.^.^.^.I.P.R.L.K.K.v b c H. XI.J.J.I.p.c f C ( O.O.+.+.+.O.O.( / z - i n v C vX8X7X7X7X",
",X'.'.5X'.7.& f S S v c v v n B.H c n S D F v j.^.|.^.^.^.|.oX|.|.^.^.^.K.~.^.^.I.R.N.l.K.F.f c p.OX^.I.^.^.^.I.e.c f i s l ( ..( ( ) ) z = d A S d '.cX9X{.9X7X",
"[.[.[.'.].~ 4 i S J F D D Z $.vX'.#.h f n G D Z r.x.F.A.c.x.x.F.^.^.^.~.~.~.~.I.P.P.J.K.K.D f c.|.^.^.^.^.^.^.I.K.D v v c f a i p p p e w x S D S C W.<X9X}.9X9X",
"`.[.'.'.O.0 & d S S D S S f ].vX<X5X5X$.h f n S S v v c c c x x M f.G.F.K.~.~.P.P.P.K.K.r.f h. X^.^.^.^.~.~.~.~.P.P.c.D v Z n b c c x f x c A D S d X.$.[.9X3X3X",
"[.[.,XW.T * w H b n K g x w '.[.4X1X,X'.'.#.l f v D D S A H g c Z f m m v M s.x.F.K.F.G f D |.^.^.^.^.^.^.^.XX+X+X+X+X+XL.N.o.C.a.H.XXXX(.R.h.K n.K i V 6X8X7X4X",
"'.7.[ E 4 = C vX8X{.W.C w p W.#.E.`.<X,X5X'.].7.C c S v 4X8X<XB.H f c n S S Z v v M y c n s.~.~.^.^.|.^.^.^.+X#XbXbX#X#X#XbX#X#X#X#X#X#X#X#X}.B.!.C.n.E.5XwXqX6X",
") E j 4 & w o.W.`.'.'.Q.= - $.+.$.#.B.$.<X'.'.].Q.p c g 6X9X4X[.<X`.#.X.A c D S S S S S Z x M x.~.^.^.^.^.^.^.(.XX^.^.^.^.(.~.~.I.I.~.I.P.F.i.h D J J b ..X.X.+."
};
