/* XPM */
static char *cc231addeccb4dceed463e190665409fKRLaBUXlNJdHbmiW[] = {
/* columns rows colors chars-per-pixel */
"80 80 256 2 ",
"   c #1C1716",
".  c #160F0C",
"X  c #231C1A",
"o  c #2A1D1C",
"O  c #291813",
"+  c #341D15",
"@  c #2B190D",
"#  c #2C221E",
"$  c #24211D",
"%  c #3C231A",
"&  c #392317",
"*  c #2D2422",
"=  c #2E2726",
"-  c #312422",
";  c #332925",
":  c #352C2A",
">  c #3A2E2C",
",  c #382B26",
"<  c #39312C",
"1  c #3D3433",
"2  c #3D3837",
"3  c #392E34",
"4  c #2B1F23",
"5  c #43261B",
"6  c #46291E",
"7  c #4B2B1D",
"8  c #4C2618",
"9  c #532D1D",
"0  c #572A18",
"q  c #58321E",
"w  c #55280C",
"e  c #6B321B",
"r  c #4B2D22",
"t  c #462D26",
"y  c #522E21",
"u  c #5A2F26",
"i  c #4B332C",
"p  c #47352B",
"a  c #543222",
"s  c #5B3523",
"d  c #5D3825",
"f  c #53352C",
"g  c #5C3A2B",
"h  c #55392D",
"j  c #433633",
"k  c #443A36",
"l  c #4C3B35",
"z  c #453C3A",
"x  c #4B3D3B",
"c  c #483635",
"v  c #533B34",
"b  c #5A3C34",
"n  c #533E39",
"m  c #5A3E3A",
"M  c #543732",
"N  c #643A25",
"B  c #6A3D26",
"V  c #643C29",
"C  c #6B3E29",
"Z  c #643524",
"A  c #743923",
"S  c #623D34",
"D  c #643E38",
"F  c #481F0D",
"G  c #4C413D",
"H  c #46413C",
"J  c #5D4236",
"K  c #54423C",
"L  c #5C433C",
"P  c #5A473B",
"I  c #6D412A",
"U  c #694129",
"Y  c #73442B",
"T  c #7B4A2E",
"R  c #78462C",
"E  c #644136",
"W  c #63443C",
"Q  c #6A453C",
"!  c #64493E",
"~  c #6B4A3E",
"^  c #6C4435",
"/  c #7C4B31",
"(  c #72493A",
")  c #78523A",
"_  c #4B3D44",
"`  c #463A45",
"'  c #4C4341",
"]  c #4B4747",
"[  c #534443",
"{  c #5C4642",
"}  c #544944",
"|  c #5C4A44",
" . c #544C4A",
".. c #5B4D4A",
"X. c #54444B",
"o. c #5D514B",
"O. c #57514A",
"+. c #545453",
"@. c #5C5452",
"#. c #5C5B5B",
"$. c #5C5856",
"%. c #574D52",
"&. c #634641",
"*. c #644B44",
"=. c #6C4C43",
"-. c #634E49",
";. c #6B4E49",
":. c #6A4740",
">. c #734D44",
",. c #774E46",
"<. c #6D5146",
"1. c #64534C",
"2. c #6C524B",
"3. c #68574A",
"4. c #745246",
"5. c #7A5246",
"6. c #74534B",
"7. c #7B554B",
"8. c #75594D",
"9. c #7C5A4E",
"0. c #7E5B45",
"q. c #635552",
"w. c #6B5651",
"e. c #655953",
"r. c #6C5A54",
"t. c #635D5B",
"y. c #6C5D5A",
"u. c #735B54",
"i. c #7C5B52",
"p. c #785A55",
"a. c #6D615B",
"s. c #65615D",
"d. c #74635C",
"f. c #7B645B",
"g. c #7A6558",
"h. c #6F604D",
"j. c #645F61",
"k. c #646464",
"l. c #6C6B6B",
"z. c #6A6765",
"x. c #726D6C",
"c. c #786964",
"v. c #73716E",
"b. c #7C726B",
"n. c #747473",
"m. c #7B7976",
"M. c #7C7C7B",
"N. c #787777",
"B. c #706F70",
"V. c #5F6061",
"C. c #3F3943",
"Z. c #893E25",
"A. c #88492B",
"S. c #844E31",
"D. c #865132",
"F. c #935030",
"G. c #A5562D",
"H. c #AF663B",
"J. c #93643A",
"K. c #82554B",
"L. c #835A4E",
"P. c #87594A",
"I. c #835C53",
"U. c #8B5D53",
"Y. c #845B56",
"T. c #925E55",
"R. c #9C6643",
"E. c #846155",
"W. c #84645B",
"Q. c #8C645B",
"!. c #87685B",
"~. c #93655A",
"^. c #93675A",
"/. c #956F53",
"(. c #A66944",
"). c #B46D43",
"_. c #BC7446",
"`. c #BD7549",
"'. c #BA7749",
"]. c #B67854",
"[. c #A87450",
"{. c #8B6A61",
"}. c #866A63",
"|. c #966C63",
" X c #887468",
".X c #977669",
"XX c #827D7B",
"oX c #847974",
"OX c #977B71",
"+X c #A4796C",
"@X c #C37C4B",
"#X c #C27848",
"$X c #C37E51",
"%X c #7E807F",
"&X c #BB865A",
"*X c #83817E",
"=X c #8C837C",
"-X c #9C8C7D",
";X c #978776",
":X c #9B8E78",
">X c #A48A79",
",X c #A3927E",
"<X c #AA967E",
"1X c #B59174",
"2X c #C6824D",
"3X c #C9834E",
"4X c #CC894F",
"5X c #CA8551",
"6X c #CD8A53",
"7X c #C68555",
"8X c #D08D55",
"9X c #D6945A",
"0X c #C99159",
"qX c #D09664",
"wX c #E4AA6E",
"eX c #D7A26E",
"rX c #7E7F81",
"tX c #817E80",
"yX c #7F8282",
"uX c #848383",
"iX c #8A8584",
"pX c #8C8B8B",
"aX c #898887",
"sX c #928C8B",
"dX c #988C82",
"fX c #9A9289",
"gX c #939393",
"hX c #9B9B9A",
"jX c #9A9796",
"kX c #8F8F90",
"lX c #A49382",
"zX c #AC9A83",
"xX c #A99887",
"cX c #B29D84",
"vX c #B79D8A",
"bX c #A39D97",
"nX c #AC9589",
"mX c #BAA386",
"MX c #BDA98B",
"NX c #B7A389",
"BX c #A9A29A",
"VX c #BAAA95",
"CX c #B4A991",
"ZX c #A3A4A3",
"AX c #AAAAA9",
"SX c #B4B3B2",
"DX c #B4B1A7",
"FX c #9EA1A1",
"GX c #C2AB8D",
"HX c #C5B497",
"JX c #C9AE92",
"KX c #C8B9A6",
"LX c #DFB495",
"PX c #D6CCB0",
"IX c #E2CFB4",
"UX c #E2DECA",
/* pixels */
"& 5 r C B s 3.r.d._ z ` + % -.w.u.:XOX..X.X.X.X.] O % + g.HXGXcXcXcXcXcXNXcXcXzXzXzX%.% d Y R Y C N q e Z.9X#X@X3X3X5X5X#X2X5X2X@X@X@X#X#X@X].d Y / T C s y 5 % ",
"U T T Y Y s 7 { ..z o + 7 a y @ | 1.g.} | [ X._ ` + 5 & g.KXMXzX<X<XzX>XcXcXzXzXzX} X.O r d D.S.S.S./ R s A.@X#X@X@X2X2X@X@X#X2X#X#X#X7XA Z 7 C T / / T T R R Y ",
"D.D.R V P cX7 9 a 7 a Y S.R R N 9 & | _ c x : @ % r y 7 h.NXGXzXzXcXNXzXlX-XlXdXl.j.#.j M a I s s s I Y I s H.`.@X).@X@X#X`.`.#X@X#Xe 9 y I Y S.T T R T R T Z R ",
"D.R I 6 PXzXzXc.y d I Y R S.S.R Y N 9 & @ IXxX% d C Y N % !.HXzX,X,XxXfX*XM.pXM.uXM.M.b.y.~ g PXVXCXCXxX6 N S.9X6XH.#X#X`.`.`.`.$X8 Z C Y R B U N q 0 a s s d T ",
"S.Y s ;XVXcXzXlXlX+ V I I Y S.T N 6 UXHXGXMXcXlXiX7 N I s  Xc.z.] z.l.z.z.N.pXl.z.s.l.M.uXx.jXBXNXcXzXlXXXa a H.#X#X#X#X_._.'.F.a N s Y d 0X3X3X6X2X@X@X`._.A Y ",
"R C % | MXVXzXzXlXfX5 N I R S.Z cXHXJXJXGXNXmXo.fX@.7 4.r.+.k.n.pXM.M.n.n.x.l.M.M.n.l.l.l.l.n.v.gXBXCXlXdX% y F.6X#X`.`.`._.D.a s PXOX0X4X5X5X5X5X3X@X@X_.`.F.B ",
"Y s DXOX.X;X8.-.oXfXO a Y D.Y 7  X XPXJXGX,XVXzXlXl.1.z.v.l.k.#.k.uXn.n.n.l.k.k.#.V.k.l.l.k.l.M.aXuXiX*X=X} r q G._.`.`._.`.s I B 7./.3X2XLX@X3X5X2X@X@X`._.F.N ",
"C 5  X XIXHXNXcXlX-X. 7 I R S.+  X;.}.P KXMXNXxXBXpXiXM.N.k.+.#.O.k.l.n.l.#.$.t.M.l.x.n.l.k.n.n.N.n.n.N.n.l.} &.d 5X_._.'.A.B B C e 6X).qX&XA.'.3X@X@X`.`.).F.s ",
"N 3.!.!.{.cXHXVXCXbX$.5 d Y / 9 r.| g.c }.xX=XiXM.gXpXpXuXk.$.n.+.O.l.x.s.#.k.t.l.z.uXpXN.z.N.N.l.+.k.n.l.z.t.t.u./.7XA.0 d I s J.6X6X8X6X6X6X3X$X#X`.`._.).A.5 ",
"V }.|  X}.g.g.f.}.X.X.% I Y Y N 9 O d.y.oXiXXXn.M.pXpXhXhXM.v.*XO.s.z.$.] O.t.] z O.z.m.N.v.XX*Xl.+.k.n.B.N.n.z.x.c.3.J V C a 9X6X6X6X6X6X5X5X@X@X`.'._.3XA 8 C ",
"B 7 p g.g.1.g.p.f.X._ 5 Y N s Z d s i n.pXZXAXjXuXhXZXAXAXhXuXz.H z.k.] 1 k k 1 2 2 < z #.z.N.s.#.l.*XM.n.uXuXn.z.k.z.d./.Z 8X3X5X5X5X5X5X2X@X@X`.'.'.A 7 Y Y Y ",
"9 s s % K | u.u.y._ O 9 Y 7 5X@X&XJ b.pXZXAXZXZXAXhXhXZXhXuX#.1 : 1 ' H ]  .] z ' ]  .] z 1 ; : = +.n.N.l.k.n.pXn.z.B.n.x.{.F.G.8X3X3X2X3X3X_.#X@X`.A s R Y N 9 ",
"lX+ a s s 5 + l ..O r Y Y w 3X2X7X1XgXM.uXn.aXgXuXZXsXpXiXs.] ' z * # ; 1 z x H z ' k : o   ; ] ] @.l.v.l.gXiXn.N.M.N.N.M.jXfX4.0 Z.F.5X2X@X'.`.A.0 d I B q ,XNX",
",X,Xd.r s V C Z s d T S.I J.7X/.c.b.l.B.uXkXhXkXtXjXsX$.+.] 1 j } < } e.o.[ [ ' x ' z ' } ' z H # : $.n.z.x.M.pXpXyXyXyXN.kXbX=XE.C Z 7 q A A F.A N I s & NXNXcX",
",X,X-X;X+ y N C C R S.D.I wX[.f.k.k.M.l.uXkXgXpXm.%.@.z k k k l | | ..1.1...O.O.....@.q.o...x l j j 1 k %.x.x.uXgXkXyXM.N.N.yXBXGXU C I I Y I I R I r PXMXNXcXcX",
",X,X-X-X-X*X6 N V I D.D.N &X Xx.l.l.M.l.n.M.pXuXt.1 * x ' ' ..w.| 3.-.| | ..q.e...1.e...[ | p l K k > < z x  .l.sXjXpXaXN.N.pXZXCX1X2XR d C Y / Y a HXMXMX;X{.vX",
"zX,X-XlX_ _ ` y Y / D./ b !.b.n.n.v.B.n.n.n.m.z.x z - } q.| 1.u.*.u.w.*.P -.a.e.} r.q.n n | i | K j k ' k O : } oXkXjXZXpXpXZXFXsX-X&X2X`.8 Y Y N vXIXGXmXNXmXmX",
"zXzXlXz _ ` + a R / D./ | t.l.n.l.l.l.v.iXM.@.z x x [ ..1.{ L =.6..Xu.*.P 1.c.o.1.y.| l n -.L f.&.v l K } l o > @.x.uXhXAXhXFXuXN.sXvX&X`.S.Y R s .X!.UXJXGXmXmX",
"NXvXoX` ` + r d Y R S./ } #.uXn.#.l.l.z.XXt.' x x | { -.*.*.<.7.9.OX6.W | *.| | q.K r.1.m *.=.Y.<.*.n l { l c > > > ' m.hXkX%XN.yXgXhXxX].).s Y N w.f.{ r.MXHXVX",
"| [ _ 2 + 7 I Y C C ( e.N.N.+.+.l.M.n.jX .x x K -.| n &.6.8.7.I.7..X=.*.;.-.r.e.| 1.1.2.*.b =.Y.>.! L L &.v i c j k ..m.SXn.n.yXM.k.k.t.].'.q R Y q @ ' w.c.-...",
"` z O 5 d B s w 8X&Xd.n.M.jXpXpXaXv.] O...G n L v M 2.8.6.6.9.Q.7.|.S h J *.1.} } 1.{ v M E >.Q.7.=.! &.&.L t i c > 1 t.hXaX%X#.+.B.uXgX X].'.B T R B q 5 O [ ' ",
"a s s q F qX2X@X0X1X-Xl.%XZXAXZXhXiXO.G < l *.&.b <.f.g.6.>.I.^.K.{.Q b L 3.r.1.K 1.*.L ! 8.7.^.7.~ =.;.=.;.M t i p , 1 t.@.uXrXuXjXhXjXn.;X[.8 R T Y C V a 9 9 ",
"7X5X@X@X3X2X2X3X&XxXsXk.aXjXgXpXjXgX] < < K *.*.*.W.!.E.6.>.L.^.K.U.>.J J *.r.e.K 1.*.&.<.i.I..X5.~ >.=.=.6.D f M v p ; 1 < uXFXZXZXhXjXpXXX[.N T Y q J.9X6X@X#X",
"@X2X6X2X@X2X5X0X1XfXpXk.M.M.n.n.pXsXz # l | L W 7.Q.{.W.6.~ 9.^.5.L.=.b J P e.1.} } 1.2.6.i.9.+X5.>.7.=.=.=.E W m n n j ; 1 n.jXhXhXhXZXhXN..X) R 0 8X5X3X3X@X`.",
"$X6X6X6X4X6X6XqXcXiXn.l.#.l.M.uXXXn.H > K { m &.i.{.{.Y.6.~ 7.^.5.^.>.W J P { o.| K f.f.8.W.E.+X7.9.I.>.E =.Q 8.*.m { { - 2 +.v.pXhXFXZXZXuX>XE.Y A.6X6X6X4X3X@X",
"3X5X6X3X3X5X9X1Xb.+.] k.k.uXkXjXN.<   j }.;.L 6.i.E.E.>.>.>.L.|.K.W.>.J h l K O.j K 1.w.p.W.^.+XL.L.i.>.E =.=.8.<.J ;.b., . = +.N.pXhXZXpXuXM.i.Y 9X8X6X6X6X6X5X",
"2X3X5X8X9X9X9X1XoX .] l.uXuXM.iXm. .j l r.u.6.4.Y..XOXE ~ 7.U.^.( Q.6.J v { r.e.x | r.u.u.W.!.^.>.9.E.6.~ E.D E.f.;.{ | l ; ] x.*XpXFXhXSXpX*Xg.I eX6XwX6X6X6X6X",
"9X3X6X'.wXR.9X1XjXN.+.k.jXpXaXz.z k x | K 2.6.4.E.{..XE ~ 5.7.~.^ ^.6.b v P 1.o...r.r.w.6.9.I.OXU.L.I.6.S >.E !.p.=.b t c , < s.N.N.pXjXhXAXgXg.C 9X6X'.2X6X6X5X",
"$X6X4X).].6X9X1XjXpXn.M.jXaXjXl.; * G 1.1.2.=.=.W.|.|.S ~ 5.L.^.( 5.6.*.n { d.d...y.w.2.u.i.I.+X5.5.E.7.g >.Q !.4.E J p c < X z t.n.uXpXgXZXbXc.Y 9X6X6X5X5X6X5X",
"@X6X5X6X6X6X6X>XiXM.N.pXpXuXhXv.< ; G *.2.;.W ! 7.|.|.E Q 6.E.^.( >.6.=.n -.oXy...c.r.2.u.i.I.>X5.4.Y.6.S 7.~ 6.W M M i K j X ; @.XXfXpXhXhXjXoX0.6X5X5X5X2X2X@X",
"@X2X3X5X@X3X5X.Xm.n.n.uXuXaXuXs.z < } | ;.W b h ~ {.Q.=.=.6.Y.Q.5.U.I.! v *.c.q...a.r.3.8.i.5.>XL.6.9.6.=.8.=.! f i i l K } : 1 $.XXbXkXhXgXgXsX.X[.2X'.@X@X@X#X",
"A.).2X2X2X$X@X.Xm.M.M.n.uXiXt.' x j -.L p.<.p t <.{.6.L ;.2.p.E.7..XQ.:.M l | e.} G 1.w.p.I.5.+X9.9.6.;.<.<.<.6.i t n v i y.1 z @.v.kXgXjXpXuXpX Xe @X@X@X$XF.H.",
"d a 8 Z Z G.#X!.z.n.N.uXuXx.z > j j c i Y.W.3.J =.!.W.i l -.6.5.U.+XI.! L 1.o.O.} G | 2.6.9.K.|.4.4.*.v v p.<.i.2.| { M i _ k 1 $.iXgXuXgXM.N.n.g.q A.A q N s a ",
"I N C Y B 9 A.|.iXuXuXtXhXjX@.> 1 K c r b J f f W ! <.*.l i b ( |.|.Q.:.v K o.e.G o.3.2.6.I.L.^.I.<.M i &.2.*.<.t t v t % 3 4 = <  .n.+. .n.sXoXP.Y R T Y C d 7 ",
"7 @ r a Y R V | x.uXgXjXn.x.' - < ..| M E =.P J J L W ;.*.L ! 5.5.K.L.=.J *.r.q.z G 1.w.6.Y.I.Q 9.p.6.2.2.P W ! L P -.W t [ _ : ' M.pXB.M.n.n.v.i.S.T R Z % PXVX",
"VXcXlX+ 9 U / d.l.uXZXhXn.M.@.> k d.*.f E J P ! =.p.;.;.v v =.7.U.K.I.>.J P q.o.z | r.w.6.I.Q.I.=.8.*.l | 2.4.i.2.-.*.L i x ' -  .aXpXaXgXuXN.n.d.T R q PXHXmXmX",
"NXzXzXfXa.5 d d.n.M.hXhXM.hXj.: k d.| b =.=.! ! =.{.p.;.v J =.4.|.P.U.>.J P 1...[ ..w.1.<.Y.Q.{.=.8.;.M L 2.g.8.*.*.*.J i x ' * ' N.uXuXuXn.N.uX}.I I xXPXGXmXmX",
"zXzXzXlXdXfX& e.n.M.uXjXM.bXt.; > { K E 6.<.P h ;.{.p.*.v L =.5.+XP.U.=.L { | | } } 1.-.6.{.Q.E.=.p.<.L *.=.!.~ h m *.L n [ _ * k x.uXn.M.N.uXpXoXI q CX:XmXMXMX",
"zXzXOX;XlX-XdX@.N.uXM.uXN.pXk.1 # j m S >.J r r =.{.p.=.t i W 5.>XP.U.>.m n K [ } [ w.2.;.{.{.9.=.p.;.L 8.6.^.5.h M L L K } z X 1 x.M.N.jXZXgXkXoXI & OX X;XPXMX",
"vXcXzX,XxXdXdXs.uXuXn.M.x.sXoXz - } -.E D E J W 6.{.{.p.&.W =.5..XU.Q.>.b n K x q.o.r.-.;.Y.Y.E.=.i.{.}.i.p.Q.9.=.&.! L M o.' o > s.iXM.pXhXpXpXOXs -X X!.;XKXGX",
"cXcXzXHX} ` _ $.uXpXN.N.hXsXiX} # K 2.b >.8.~ ! 9.I.{.W.;.! ! ~ ^.T.U.=.L | { o.y.1.r.2.;.i.Q.Y.W 8.!.W.W.I.^.^.7.>.6.! b | [ * > @.s.z.n.V.k.*XOXd @ !.u.;XOXPX",
"cXVX..X._ X.1 y.aXpXuXgXAXAXsX[ - K ;.E 7.i.4.4.I.U.{.9.6.=.~ >.U.K.U.=.L 1.d.d.y.d.w.| &.i.Q.6.! 8.W.Y.i.I.Q.|.L.,.6.Q b ..[ o z oXXXn.+.z.uXpXoXC 7 d.r.}. X}.",
"xXX.X._ 2 O & c.uXN.x.pXiXsXs.: - K m D 7.9.4.=.9.I.I.7.<.! E E 5.( L.>.m 1.b.r.q.a.| K ;.Q.Q.=.b =.7.7.I.L.^.|.U.7.>.Q b K x o z b.m.M.$.l.n.M.c.V s 7 @ d.}.}.",
"..X.] z + & IXbXpXM.n.uXn.XX .# , 1.M S 7.i.<.=.9.L.I.6.=.u.W.I.>X,.L.=.M K r.e.o.1.{ K ;.E.Y..X!  X{.6.Y.5.^.|.U.7.>.Q b x } - z b.N.n.x.n.N.pXbXlX6 d d @ f.f.",
"X._ 3 & 5 UXGXfXpXgXuXM.XXiX@.* < r.M S 7.9.=.~ 7.L.9.6.! W.OX.XvXK.9.:.v n { q...| | P *.i.i.>X6.>X.X>.i.>.U.|.U.5.>.=.J G @.- x oXXXn.aXN.uXjXBXzXx.% d N 6 -.",
"[ 3 5 r & MXMXfXjXhXgXM.iXbX$.* , K b D >.7.~ ^ ( L.>.6.8.<.=.=.9.>.7.=.{ { | o.o.| | | *.7.Y.4.W 6.i.p.6.>.U.|.U.>.>.~ L } z X 1 x.tXuXpXM.N.uXXXu.q.+ a V I C ",
"+ 6 d 5 VXMXNXVXbXpXuXuXM.hXt.* # K W E L.7.~ ^ E ( E Q !.<.6 r =.D ,.6.{ l K o.q.1.{ n b =.>.Q 6 h !.OX9.>.~.+XU.>.=.=.f [ H X X  .XXz.l.k.l.M.oXw.%.+ r C I / ",
"V V 9 VXMXMXMXBXaXuXpXN.M.n.t.< # P ;.D 7.9.~ E ~ 5.Q 5.W b b W E |.7.&.n l 1.a.} o.K n W 6.W.=.! ! ! =.=.E K.^.L.=.=.=.h } 2 X ] XXuXuXuXl.N.M.s.k O 6 d I S.T ",
"I D.7 VXHXGXHXN.uXn.l.n.M.M.t.< , { &.:.,.7.~ S ( L.Q 5.~ E E =.9..Xi.*.v K a.y.[ e.| v b ,.OX=.! =.=.<.~ S P.^.L.>.=.<.v l ] $  .pXM.n.hXM.M.M.r.s N T T Y R I ",
"C I s d.g.HX..l.uXN.l.uXrXM.$.: < q.L ~ >.9.=.g ^ U.>.4.Y.6.E =.6.8.6.=.n n q...[ ..} n b :.7.=.~ =.4.8.4.E U.^.L.>.=.~ i G ] # ] pXpXuXhXpXM.N.f.T R C N s s s ",
"V C N 6 r.r.| B.pXuXn.hXuXuXx.k ; | *.W 4.9.~ g ^ U.>.! 6.7.6.5.~ ~ W *.L n *.} x G [ b b Q :.! 6.6.8.9.6.Q ~.^.I.5.>.~ h G H # } *XuXuXgXjXuXN.d.9 % p HXVX;Xo ",
"7 d N s 6 [ ..l.hXpXn.gXjXpXXXH # G -.E 4.Q b S ^ L.~ g b =.7.5.E 4.E &.W L ..} z z K n b Q 7.! 8.9.9.9.5.~ T.^.U.5.>.=.h K H # ' m.l.uXpXjXgXpXjXCXNXNX3.zX=Xz ",
"lXOX7 s s a s  XBXjXM.uXAXkXc.k , | P ~ 7.f f E C K.=.E E E Q ~ S i.E =.&.m | } } k n L D W i.=.<.9.9.L.9.>.~.^.U.7.5.=.f K ' # z z.k.kXgXgXjXjXdXP KXzX,X>X%.1 ",
"lXlXlXVX6 a N  XjXhXpXpXuXjXt., ; | *.W 4.E b D ( K.>.W.6.! =.>.E i.~ 6.=.m | K @.K | &.D ,.Q.=.<.i.I.I.I.( ~.U.L.7.9.7.h x z * < #.N.rXuXM.n.pXbXzXlXlX,X' z G ",
",XlX,X,XdXc.7 1.V.+.] ] ' t.z o # { -.=.7.>.E S ^ P.>.Q.9.~ ~ ,.>.9.=.6.&.&.w.} 1.e.d.2.:.,.|.>.9.I.L.L.K.( T.U.K.7.9.9.f | ..; X H n.pXl.n.uXuXoXzXlXzX3 ; UXmX",
"zXzXlX,X-X-XXXO.n.yXpXgXaXpX .# % | 2.=.9.6.~ E 5.~.9..XY.~ ~ ,.U.E.8.6.&.;.f.q...b.b.w.:.,.{.4.7.9.I.I.7.>.T.T.K.,.7.4.h P G o X 2 +.+.] ] +.#.b.zXxX`   IXmXNX",
"J VXlXxXK ;X=X*XM.M.uXjXZXZX@.o > y.1.=.I.8.! E ,.^.9.|.I.>.>.5.7.U.6.6.W L w.1...a.f.6.Q >.|.7.5.7.I.Y.9.,.T.T.K.>.6.6.h l q.: j e.+.#.k.z.n.aXfX X_ = . NXmXcX",
"<X-X-X-X-X-X;XpXuXN.N.hXSXZXO.O > e.1.=.i.=.b b >.|.>.W.i.>.>.>.^ L.6.6.W v -.w.o.1.r.2.Q 7.|.5.5.7.I.I.9.>.~.~.>.Q =.7.h l q., n }.k.k.n.pXhXbXn._ X + PXNXcXcX",
",X,X,XnXc.[ _ N.pXuXgXZXSXgX .# ; ' | <.6.W M g >.{.=.&.6.4.>.5.^ U.i.7.! b 1.d.o.1.3.;.=.L.Q.5.5.9.i.i.6.>.Q.I.=.E :.>.f n [ o n  Xl.V.l.pXgXjXB.` + O NXcXcXzX",
"r.X._ _ ` ` _ B.pXhXAXZXSXaX@.; ; [ K ;.=.W b S 5.!.6.r L =.>.K.P.E.i.6.=.&.w.d.1.1.1.*.=.7.7.I.5.8.8.6.;.=.E.Q E &.*.W M K [ - n b.l.z.n.N.%XaXx.+ %  XNXcXcXcX",
"x _ 2 > O + 5 d.hXSXSXSXAXAXv.< *  .1.*.6.f t M 4.E.W J *.=.>.L.Q.E.Y.8.=.;.u.u.a.1.1.<.i.U.V 7.4.6.;.&.;.J i.=.b M W ~ h | e., z oXsXjXhXZXgXiXc.r a % { -X[ x ",
"& 6 r y a V V c.pXhXDXKXpXuXl.k ; H l L 6.&.n &.p.E.<.t M W 5.U.P.L.7.:.m &.d.oX..d.r.;.7.U.D >.=.<.2.| p | W.!.<.P &.=.J -.y., z oXjXkXgXAXjXdX XI C V s 6 % + ",
"Y R / Y Y B 9 >XjXhXBXSXhXBXz.1 * : j v L { L m J W *.v J W ~ 5.L.9.i.=.W *.3.1.o.1.1.;.9.^.Q >.E W L K P | 3.3.K p i M i } c - j c.=XM.bXpXuX*Xc.B B N Z N N d ",
"R T R N w eX6X>XpXuXuXZXgXsX$.< > x K v L *.*.L J J &.w.2.! ~ 5.) >.7.=.*.*.-.1...O.3.6.i.{.( g =.=.&.-.r.| *.! K K J f f ..K , > @.v.l.M.l.z.m.;X_._.).).].8 a ",
"B Y y 9X6X4X6X>X*XM.uXpXpXsX .- : [ } M ! ;.;.*.=.*.;.w.*.J =.I.7.6.6.=.&.&.*.o.| o.1.;.i.{.Q S 4.6.&.&.w.;.8.p.1.-.&.b b | [ : k s.v.z.l.V.#.l.|.G.).).).G.H.).",
"C q wX8X5X6X6X1X=XuXhXpXjXjXq.- - ' n M ;.-.| W =.6.u.*.L L 4.Q.Q.7.6.=.! &.-.| o.o.-.&.7.|.Q ~ =.8.=.m *.2.f.W.3.| L W J n k o } XXN.l.V.k.z.l.e.F.).).).H.H.A ",
"N eX3X3X3X6X6X<XpXuXhXjXAXsXx.c - [ l L 6.*.v v E 8.p.2.*.;.i.{.L.>.=.=.;.-.1.e.@.q.w.*.6.Q.>.S ~ 8.6.&.&.2.W.;.K v | <.L n G o G n.z.B.#.k.z.l.a.A.).).).).).a ",
"w 2X2X3X3X3XqXvXDXAXjXjXgXsXsX..- [ l L =.=.m v =.I.p.;.E =.I.Q.U.7.=.=.=.2.d.d...a.w.-.6.Y.7.~ Q 7.7.W L u.i.i.b v ;.=.J { c X ' v.#.l.l.k.l.n.y.y H.).).).8 I ",
"a e 4X@X#X@XeXnXpX*XuXuXsXsXsX..- l m W =.! S D ,.U.W.7.5.5.I.^.K.,.~ :.L 1. Xy.O.b.c.3.6.!.>.E E >.7.>.>.7.5.Y.=.E ! L v K } # } XX#.$.l.#.#.z.} r d s a N Y R ",
"r d 9 G.H.H.JXbXpXpXpXM.bXuXiX..< d.1.L 6.=.E ~ 7.I.Q.,.>.7.U.~.K.9.7.i.;.{ r.| | o.r.r.6.8.6.Q Q 5.9.7.6.9.>.I.>.E W *.J v y., ' m.z.s.z.z.z.l. .r V N I B I s ",
"+ 5 d V V B fXjXjXhXgXN.gXM.iX} : 1.*.L ;.6.=.>.I.i.I.>.>.>.I.Q.I.7.7.p.2.-.1.o...| 1.w.w.6.=.E E 6.7.4.4.7.=.Q.8.! *.;.L v ..; } n.t.l.N.l.n.l.' r V ( s s @ MX",
"g.-X5 ) .XY lXjXjXhXhXpXuXM.x.z o x K L ;.<.=.Q 7.7.p.=.=.=.i.E.i.=.<.2.*.| ..t.o...o.o.1.8.! b ! 6.6.;.! 6.! p.6.W W *.l c K # z l.#.n.uXl.n.l. .r I d % HXGXGX",
"zX,X;X, 7 s  XdXkXgXjXgXn.M.@.= o c n { &.W L &.2.;.6.;.! 2.W.!.6.=.&.{ P [ G @. .....[ { w.! J ! 2.2.&.&.6.*.;.;.*.{ P l x G X < t.z.v.uXl.n.N.y.U d xXGXGXMXMX",
"zXzX,X-XlXfXJ oXuXuXyXN.l.n.' X * z x 1.| v K *.*.*.w.-.{ u. Xf.2.| P K ..q.} G ' @...[ } 1.P 1.-.1.-.| 1.d.w.-.3.w.-.K ....1 X : +.z.z.N.l.n.M.}.I & JXMXmXmXmX",
"zXlX,X,X-XdX& d.XXM.n.l.XXV.1   ;  .x z...} K K | d.c...l 1.d.| f.K } x x ..q.1 k t...[ ' G G c. Xr.......c.c.} | } G [ e.H 1     2 +.#.+.pXn.m. X9 xXMXmXmXNXmX",
">XzX,X-X-X_ o | s.t.+.t.#.s.1   . X # o o ; , * o # # # * ; > , # * O X X # * X X * X X X * : # - : : * X * * # # * # # X $ . . $ 2 ' ] ] k.t.$.3.%  XPXMX{.mXNX",
"OX>X-X-XX.` + f ( ( ^ ( ( E b.:X X X Xb.t f S ^ I V s g g g g f Z R R.(.R.R.(.R.R.R.R.R.B f N [.(.(.(.(.R.R.(.R.R.R.[.y d V g a g g V g g ^ ^ ( Y 9 y.g.MXNXmXvX",
",X,XlXlXC.. 5 d N q I s N 7 KXMX:XlXlXdX-XdX5 N I / / / Y s s V 0.) 0 s Z A A._.2X_.6XZ s q 2X@X2X3X2X2X@X#X@X@X_.`.#X].3X0 mXg.w qX'._._.'.@XI Y B 7 K MXmXmXcX",
"VX| X._ = % a UXMXcXlX& 7 & !.g.!.{.;XxXdXlX=X=X% N R I UXNXzXlX7 N V C Y T Y C N Z 8 C I G.2X@X@X@X@X@X@X@X5XIX7XLX`.].LX'.LXLX#X].].#XIX].LXKXP.4.N & g.W.PXcX",
"| [ j 3 + 7 ! .X Xh.xXfX% + u.d.g.p.}.d.HX-X;X=X=X% V a IXmXvX<X<XlXdX% a V R Y Y Y Y Y Y q A.G.@X#X@X@X@X#X@X@X@X@X@X@X@X@X_.#X#X#X#X#X#X).F.d R / R N u.2.2.<."
};
