/* XPM */
static char *_283ddeb72624b8dd97ec7c2931c0e14vKr8giLoOwMk29GG[] = {
/* columns rows colors chars-per-pixel */
"80 80 254 2 ",
"   c #1A0E0C",
".  c #1C1213",
"X  c #23130C",
"o  c #2C170D",
"O  c #361B0C",
"+  c #231413",
"@  c #2A1613",
"#  c #2C1A14",
"$  c #281A1A",
"%  c #331C14",
"&  c #3A1F15",
"*  c #361F18",
"=  c #39200F",
"-  c #352616",
";  c #3C2216",
":  c #36221A",
">  c #3C231A",
",  c #2C1D20",
"<  c #2D2227",
"1  c #36282A",
"2  c #382D33",
"3  c #3D3239",
"4  c #4A1D0F",
"5  c #4D230C",
"6  c #57290D",
"7  c #482515",
"8  c #43261B",
"9  c #4B261A",
"0  c #46291D",
"q  c #4B2B1D",
"w  c #542513",
"e  c #552A15",
"r  c #5A2B15",
"t  c #532D1D",
"y  c #5B2D1C",
"u  c #5E3615",
"i  c #55311E",
"p  c #5A321E",
"a  c #642D1A",
"s  c #64341A",
"d  c #6C331C",
"f  c #76371D",
"g  c #442B24",
"h  c #4C2D21",
"j  c #522E21",
"k  c #5B2E21",
"l  c #483528",
"z  c #543122",
"x  c #5B3523",
"c  c #5E3825",
"v  c #5B3829",
"b  c #4A3636",
"n  c #42353C",
"m  c #47393B",
"M  c #622F21",
"N  c #623623",
"B  c #6B3422",
"V  c #633A26",
"C  c #6A3D26",
"Z  c #653C29",
"A  c #6A3E29",
"S  c #733B22",
"D  c #753A25",
"F  c #73421F",
"G  c #554639",
"H  c #57453A",
"J  c #6C4127",
"K  c #67402A",
"L  c #6D412A",
"P  c #764225",
"I  c #73442C",
"U  c #79472D",
"Y  c #76482E",
"T  c #7B4A2E",
"R  c #774A35",
"E  c #7C4B31",
"W  c #765439",
"Q  c #443944",
"!  c #453944",
"~  c #4B3D45",
"^  c #4B3E4A",
"/  c #513F47",
"(  c #4D4145",
")  c #4D414B",
"_  c #534245",
"`  c #594645",
"'  c #5D4A45",
"]  c #54444B",
"[  c #5A464A",
"{  c #55494C",
"}  c #5D4A4B",
"|  c #574A52",
" . c #5C5357",
".. c #624C45",
"X. c #614D4D",
"o. c #65514E",
"O. c #685749",
"+. c #6B544D",
"@. c #7A5344",
"#. c #604D51",
"$. c #645252",
"%. c #695552",
"&. c #6C5954",
"*. c #68595A",
"=. c #725C54",
"-. c #755E58",
";. c #6D6154",
":. c #756354",
">. c #7B6255",
",. c #75635B",
"<. c #7B645A",
"1. c #7C6A5C",
"2. c #675F66",
"3. c #796863",
"4. c #77706F",
"5. c #853E1F",
"6. c #873E25",
"7. c #8B441F",
"8. c #8A4729",
"9. c #824D2E",
"0. c #964A29",
"q. c #87512D",
"w. c #99562D",
"e. c #814E31",
"r. c #8C4C32",
"t. c #9C4E31",
"y. c #845132",
"u. c #895433",
"i. c #88563A",
"p. c #965735",
"a. c #A54D2D",
"s. c #A8562B",
"d. c #A35936",
"f. c #94643B",
"g. c #A8673A",
"h. c #AD643C",
"j. c #B5693C",
"k. c #B9723E",
"l. c #885A42",
"z. c #956949",
"x. c #83695B",
"c. c #826B5D",
"v. c #8D7158",
"b. c #AD6A42",
"n. c #A96844",
"m. c #B46D43",
"M. c #B76F47",
"N. c #AB7147",
"B. c #B67145",
"V. c #BA7346",
"C. c #BD7946",
"Z. c #B5734A",
"A. c #BC7549",
"S. c #B57B48",
"D. c #BE7A4B",
"F. c #A37856",
"G. c #B67954",
"H. c #846D61",
"J. c #876F63",
"K. c #8B7363",
"L. c #897767",
"P. c #947866",
"I. c #937C6B",
"U. c #877C75",
"Y. c #C27645",
"T. c #C17A46",
"R. c #C3784A",
"E. c #C27D4C",
"W. c #C47E51",
"Q. c #C87E50",
"!. c #BA8456",
"~. c #97826E",
"^. c #8B827A",
"/. c #948373",
"(. c #978878",
"). c #9C8C7C",
"_. c #9E907F",
"`. c #B6896D",
"'. c #A98A73",
"]. c #A28E7B",
"[. c #A4917E",
"{. c #AB957E",
"}. c #AD997F",
"|. c #C5824E",
" X c #C9834E",
".X c #CA894E",
"XX c #D2874E",
"oX c #C68351",
"OX c #CA8651",
"+X c #CD8B53",
"@X c #C88A58",
"#X c #D18D54",
"$X c #D18F59",
"%X c #CD9157",
"&X c #D29256",
"*X c #D39359",
"=X c #DA975A",
"-X c #D69A5C",
";X c #DA9C5C",
":X c #E19E5F",
">X c #DAA15C",
",X c #C99262",
"<X c #D89C64",
"1X c #DBA362",
"2X c #DAA469",
"3X c #D9A668",
"4X c #DEAB75",
"5X c #E2AA66",
"6X c #E5B279",
"7X c #988C82",
"8X c #9E9283",
"9X c #9B9389",
"0X c #A49482",
"qX c #AA9681",
"wX c #AD9A83",
"eX c #A59888",
"rX c #AB9C8A",
"tX c #B29C84",
"yX c #B59D86",
"uX c #A99D91",
"iX c #ABA28C",
"pX c #B6A186",
"aX c #B9A386",
"sX c #B4A28A",
"dX c #BBA58A",
"fX c #B6A98E",
"gX c #BDA98C",
"hX c #B7A995",
"jX c #BCAB92",
"kX c #BDB49A",
"lX c #BBB3A1",
"zX c #C0A78B",
"xX c #C1AC8D",
"cX c #C1AE92",
"vX c #CBAC94",
"bX c #D5AC94",
"nX c #C3B293",
"mX c #C4B59B",
"MX c #C8B89A",
"NX c #D1B092",
"BX c #E5B790",
"VX c #C8B8A2",
"CX c #CEC19F",
"ZX c #F2C48A",
"AX c #CEC6A9",
"SX c #D5C7AA",
"DX c #D5CFB0",
"FX c #D7CCB5",
"GX c #DAD3B9",
"HX c #EAD1B7",
"JX c #DCD8C2",
"KX c #E3DCC3",
"LX c #E4E3C8",
"PX c #F0E5CF",
/* pixels */
": 8 h A C x +.=.,.~ ! ! % > X.%.=.].I.} ] ] ] ] ) + > # >.nXxXtXtXtXtXtXpXtXtXqXqXqX| > x I I I A V p d 6.*XE.E.Q. XOXOXE.|.OX X|.E.E.E.D.E.G.x I E T A x j 8 > ",
"K T T I I x q ` } n $ % 0 z j # ' X.<.[ ' _ ( ~ n % 8 : >.CXgXqX}.qXqX].yXtXqXqXqX{ ) + h c y.y.e.e.T Y x r.E.E.E.E.|.E.E.E.E.E.D.E.A.oXf B 9 A T e.E T T U I I ",
"y.y.I Z H rXq t z q z I 9.Y I V t & ' ~ m m 1 # > h j q :.sXcXqXqXqXtXtXqXtXqXqX$.] ^ + 0 z L x x x L Y L x j.A.E.B.E.E.E.E.A.E.D.E.d y j A I e.e.T T T T T x U ",
"u.U L 0 DXwXwX3.j x L I I e.y.Y I V j ; o GXrX> x L I V ; x.AXgXsXpXyXtXsXsXiXuX] ^ 3 * h K q AXhXhXiXuX0 V r.<X+Xj.E.E.A.A.A.A.W.9 N A I U C J V p e z x x x T ",
"y.I x (.jXtXqX0X0X% V L I I e.T V 0 KXnXxXgXwX0X7Xq V A i L.H./.%.$.o.#.} } _ &.] ^ # 8 0 t KXdXyXtXqX0X^.t z j.E.E.E.R.V.V.V.u.j V x J c @X X X+X|.E.E.D.C.S I ",
"I A ; ..dXjXwXqX0X9X8 Z I I e.N iXMXnXnXzXaXpX..eX .q c Z % +.+.X.X.` ' } $.' } ~ ~ : h N GXdXpXtXtXqX0X8X; j w.+XE.A.A.A.V.r.z x SXI.%XOXOXOXOXOX XE.E.C.C.p.C ",
"I x lXI.P.~.=...L.9X# z I u.I q K.L.DXnXxX[.jXwX0X .> z V t =...' X.' ' ` ` _ / ! # 0 z - pXaXaXyXqXyX[.8X+ h z s.C.A.A.V.A.x L Z @.z.OX|.BXE. XOX|.E.E.A.V.p.V ",
"A 9 K.K.GXnXdXtX0X(.  0 L T e.& K...H.H VXgXsXsXkX^ # z Z L i % 1 n m n n < $ % 0 h h q SXdXaXaXFXsXhX{.[. .8 h t OXV.V.D.8.C C C s +XB.<X!.9.S.|.E.E.A.A.m.0.x ",
"V O.c.c.K.tXmXjXfXuX .8 V I T t =...<.b c.mXgXVX^ ! # j V E Z A x x x x x x x c L Z K 1.FXnXgXyX0XmX}.0X0X7X& h V 0.D.8.r x L x f.+X+X$X+X+X+XoXE.E.A.A.V.m.8.8 ",
"V H.' K.H.<.>.<.H.] ) > L I I V t @ ,.o.1.>.<.~ ) ! * z A E I L I u.y.9.T I I I I L q (.x.xX{.jXpXtXqXqX).).# h V A x z V A z ;X+X+X+X+X+XOXOXE.E.A.V.V.oXD w A ",
"C 0 l >.>.o.>.>.3.) ~ 8 I V p x N z & _ 3.-.=.~ ^ 3 8 v I I I y.u.y.q.q.9.e.T T U Z I.K.H.SXnXK.sXpXtXqX).U.  g z L L T z.w $X XOXOX+XOXOX|.E.E.D.A.Z.S q I I I ",
"t x x > _ ' =.=.&.^ # z I t OXE.E.t V x % H ` < % g z I Y Y y.y.e.T Y P I L C p t N H <.c.].MXcXgXgXfX(.2 ^ ) > z c A I I V 8.a.$X X X|. XoXB.E.E.E.D x Y I V y ",
"0X% z x x 8 % b } $ h I I w  XE.E.E.i V x z j z z x L T T e.y.C 7 !.5X>X&X+X.X XoXt 0 +.=.].H.$.} } #.} $.1 ) > j v K L U U J N e 6.0.OX|.E.D.D.8.y x L C z 8XsX",
"0X[.,.h x Z A N x V U 9.J f.OX|.|.A.B.i NXz V L I E E T T I s >X-X>X-X;X-X&XOX|.E.Z.t 8 # <.>.X.} } } [ [ } 2 8 h z Z V x r *Xy L A V t y f f 0.S V L x - sXpXtX",
"[.[.).(.% z V A A I 9.y.L 5X X|.V.E.E.4 =.c.c I E E E q.u.N &X&X-X;X;X;X;X*X*X+X XoXO j > &.=._ [ [ _ [ _ ) @ 0 z v 2X+XOXoXE.|.OXr A L L I L L I L q AXgXpXpXtX",
"[.[.].).(.^.0 V Z J y.y.V -X Xw.E.E.D.p.j V E T E V I u.9.r &X%X*X4X;X;XOXoX*X*X+X|.E.7 i 8 : _ ~ m $ + # : h i j 5X+XOX+XC.,XE E.E.E.Y x J I E I z mXgXdX~.H.yX",
"qX[.).8X( ^ ~ j I E y.E i #XOXE.E.E.m.P Z y.y.Y u .X6 T E t.*X%XZX<X+X1X>X;X-X*X&X+XoXS.q V x x z z z x Z A p !.+XE.V. X X|.E.E.E.@XE.E.A.9 I I V rXDXcXgXdXdXaX",
"wXqX0Xm ~ ! % z I E u.T r j.$XE.E.OXE.k T e.I 5 +X&X&X|.C x k.&X&X*X*X;X>X;X-X*X&X#Xg.|.<Xt L I I I T I x E &X+Xk.S.l.+X+XOX|.E.E.E.A.A.A.e.I I x I.c.KXnXxXgXdX",
"sXrXU.! ! # h x I U y.e.U x 8.f B y t Z T I q *X;X*X|.E.f.J w Y.+X&X*Xg.$X-X-X&X+X*X+XOXoXE.f C A I I p *X&X&X+X!.i.+X%X X<X<X;X<X|.|.D.A.B.x I Z &.<.` &.fXcXjX",
"[ _ ! 3 % 0 L I A A U e.u.u.T T Y U T T T c 1X$X&X+X+X|.E.p I p.=X+X+X*X|.*X&X+X+XOX+XOXOXoXE.|.r L L 4X#X$X&X$XC &X*X-X*X*X*X$X*XoXE.E.A.V.s I I z # ( +.3.X.' ",
"! m @ 8 c Z x 5 +X|.x E e.u.E y.e.E E E I y ;X$X+XD.oX|.D.c L I t.Y. XOX+X$X$X#XZXoXOX+XOXOX XE.V.V L 5 =X#X&X-X*X*X*X*X*X*X*X&X+Xg.j.OXD.V.m.A T I C z 8 + _ ( ",
"z x x i 4 ,X|.|.OX|.|.@Xx I I T e.y.T E E N +XOX+X&X&X+XE.T.N I I d 0.$X+X#X+X+Xi.!.OX*X$X+XOXE.B.N I S XX&X$X&X*X&X2X*X&X*X&X$X+X+X+XoXA.A.m.7 U T I A V z t t ",
"@XOX XE. X|.|.oX|.|.oX|.oX!.9 x A I I U T V ;X.X#X&X+X|.oX|.|.p I I x 0.0.=X+X+X#X&X*X&X+X+X+X XA.y I C 0.:X$X&X$X+X&X&X&X$X$X+X+XOXOX|.E.V.m.V T I y f.*XOXE.E.",
"E.|.%X|.|.|.OX+XOX|.OXOXOX+X+X+X+X+X!.x I V #X#X&X*X*X*X*X<X@XS.e V L I i d.*X+X&X*X*X%X+X+X+XC.A.C.x E C d.=XOX+X$X+X+X+X+X X2X|.oXE.D.V.B.m.I T r #XOX X XE.E.",
"W.+X+X+X+X+X+X&X<XC.E.oXoXOXOXOX Xw.|.j.V A a.+X$X*XS.F.*X*X$XoX+X Xq V I 8.#X$X&X&X*X$X+X+XoXA.A.A.|.V I L 0.OXOX X+X+XOX X X|.+X+XoXA.B.B.b.I Y 9.#X+X+X+XoXE.",
" XOX+X|.oXOX*X*X-X-X-X$Xg.oXD.|.|.|.|.C.q I x Y.&X*X;X*X*X$X+X+XE.D.V.s I d +X+X$X+X+X+X+X|.E.A.A.V.V.<X6 I S a.$XOXOXOXOXE.6X<X2XD.n.B.B.m.n.I I <X$X+X+X+X+XOX",
"|. XOX&X&X$X&X*X-X-X-X*X$X+X|.E.|.|.E.V.y I I 0.&X&X*X+X+X+X+XoXE.D.V.t I a +X+X+X+X+X+X|.|.E.V.<X<X+XOXD.e I Z a #XOXOXOX|.S.Z.u.S z.D.A.B.d.I L :X+X6X+X+X+X+X",
"*X|.+XD.4Xz.*X*X*X-X-X*X*X+XOX|.D.D.A.D.n.L Y y <X+X+X+X+XOXoXoXE.E.h.x L d g.+X|.OXOX+X|.*X*X*X%X+X+X|.E.V.z I L 0.g..XOX+XOX XoXoXQ.E.D.D.V.A C ;X+XZ.oXOX+XOX",
"W.OX+Xb.G.+X*X+X%X+X$X+X$X+XOXE.A.n.A.D.b.t E I s.OX+XOXoXOXOX*XE.E.m.V C u.+X.XOX XZ.OX%X*X*X&X$X+X+X XE.w.@XZ U V t 0. X X+XOXoX|.E.D.E.D.V.N A =XOXOXOXOX+XOX",
"E.+XOX+X+X+X+X+X+X+X+X+X+XoXE.D.E.E.A.D.f x E T r #XOXOX|.E.E.A.D.A.A.V L D +XOXE.|.|.OXoX+X+X$X+X+X+X+X+X|.E.oXV Z I A S  X|.D.k.E.E.D.A.A.m.z C +X XOXOXOX|.E.",
"E.E.|.oXE.oXOX|.OXOXoX|.W.D.D.E.E.D.+Xf h I T U V s.|.E.E.p.V.A.A.B.V.A I I z 8.w.+X|.|.oXoX X+X+X+X+X+XOX|.E.D.V.y C L K 9.h.j E.A.A.V.V.A.M.j L N.|.C.E.E.E.E.",
"0.B.|.|.oXW.|.V.E.oX|.E.E.D.E.E.D.D.a z V N.e t z t 0. Xd.D..XE.D.E.f k 9.u.e.T I V r 8.#XoXOXOX+XOXOX+XOXE.E.D.A.V.G.V I L T Z 8.A.V.V.B.m.M.z I d E.E.E.W.0.d.",
"x z 9 N B s.T.R.|.E.E.E.D.V.V.A.D.t A I k oXE.E.n.V C d h.Z.f B y N C e.u.u.u.u.q.e.E E I a k.|. XOX XOX.X<XD.D.A.A.V.D Z I T A N x t B f b.b.y I y 8.B y V x z ",
"L V A I A t 8.s.T.E.E.D.p.P C.A.a L T T C E.E.E.i.7 A x x Z I I I I 9.u.u.y.T L V V Z L I I V a. XE.|.OX XE.D.$XC.A.B x A V t GX1.8 z c V x i.V T I I T I C x t ",
"q % h x I U Z 9 0.E.E.E.E.D.D.V.z Y I Y T A 9 C I I W `.A C I T T I I C V V V q LXsXjX/.8 c I Z 0.g. X XE.E.E.E.Y.B Z L t LXcXgXsXtXwX8X> q V T y.e.T I N 8 DXkX",
"kXtX0X% q L T I x 6.h.E.E.D.D.V.j I L V A Y Y I L p Z L I e.V x 0 % hXSXwX: fXdXdXtXwXwX0X# x T I s  XE.E.E.E.A.y A I x lXxXgXdXaXpX(.lX9X7X0 Z I T I i FXmXgXaX",
"sXwXwX9X;.8 c L T L w s.E.E.A.p L x 1.sX> V L Z I T Y C t H KXnXgXdXsXwXtX0XAXVX;.I.qXqX0X8X% x Y I e Q.D.A.oXy L y.E 0 >.x.<.O.MXtXqXK.H.(. .0 A L I iXAXcXdXaX",
"wXwXqX0X8X9X: z I Y I V 8.s z V ; iXcXdXeX8 q `.t E I q AXnXgXzXaXaXaX'.yXtX(.gXtXtXqXVXH (.7X% c I I e 6.5.B A U u.E q H.-.xXdXsXtXqX0X(.) ) * z L x sX(.aXgXgX",
"wXqXI./.0X).7X# x L E I L A V ; JXxXzXdXpXX t L I I V (.GXxXxXzXzXaXyXyXtXyXtXyXtX].qXqX[.[.8X2.0 V Y I I A T T T u.E q 1.+.c.MXdXdXsX} ) ^ ! : z L ; I.P.(.AXgX",
"tXtXqX[.rX8X7X$ h v L I C t ;.nXxXgXgXpXpX^.% Z L I x I.~.DXxXxXzXzXgXyXyXtXyXtXtX{.{.{.0X0X*.^ > z I T T u.u.E Y y.T x o b 3.o./.] ] ) ^ ^ # 0 T x ).K.H.~.VXcX",
"tXtXrXVX[ ! ^ + g v V I z SXxXgXgXgX].{.pXrX2.8 V L p H.P.v.xXzXxXzXgXgXaXtXtXtXqX{.qXqXqXhX .^ : h L E u.y.T T I E E I x o &.` H./ ( ~ ! @ h E E x O c.=.(.I.AX",
"tXkX} [ ^ ] 3 : z x z.L q I.xXgXgX(.tXaXfX&.| X t V x =.P.P.SXxXxXgXsX3.H tXtXtX{.qXwXwX0X] ! ^ : h L y.T I x z x t C L A x & l ,.~ ! 3 * h Z E T A 0 ,.&.H.K.H.",
"eX[ ] ~ 3 # : h h i A L 8 K.(.xXgXdXgXmX[ [ | ] 0 vXz.% c.K.P.cXxXjXX.#.} qXtXtXtXpXpXH.] ] ! ! > z L I N oXN.n.+X XOXoXw i x z 8 # : 0 z L E T c Z x q o ,.H.H.",
"' [ ) n # : GXcXsX0Xz I 0 x.c.AXmXmX} } ] ] ! % j h '.q ' c.K.P./.#.} } [ &.' =.,.&.&._ ] ^ ! # g x I y S.i.i.x N.E.|.|.|.E.|.!.5 x V L I I I FXwX0X0 x x # <.1.",
"[ ( 2 : 8 LXxXdXwXU.: L q >.<.<.H.$.[ ] ~ n : z x V V V 8 =.c.K.X.' [ [ ] X.3.%.o.&.,.] ^ ! + 8 z C t &Xn.y.D y.%X$X+X+XE.E.A.D.E.E.F V I Y z VXsXwX4.; x V 0 X.",
"] 2 8 q = gXgXgXhX(.1 q x % =.>.1.[ ( ! + 0 ; LXhX# q V x % ,.H.` [ [ _ ] m X.o.o.$.[ ( 3 # h V V 6 &X&X|.;X&X+X*X$X$XOXE.E.D.D.E.D.D.E.t I g ,.&.=.$.# j V L C ",
"# 0 x 8 jXgXdXdXdX3 ~ 8 x i > o.3.( $ : 9 :.AXdXdXqX4.8 Z x ; &._ _ _ ~ ! . 2 m m ~ n @ 8 z L Z 5X#X$X X;X-X*X*X*X+X+X|.E.G.4X!.A.T.E.D.y A g &.&.&.| # h A I E ",
"V Z z kXgXgXgXjX] )   0 v H q i 0 8 0 ; GXMXxXgXpXwX| # h I I x 0 > > 8 0 q j j j t z x I T I d .XT.E.=X*X*X*X+X+X|.|.E.D.y i.<X9.E.A.A.x V x % b m @ 0 c L y.E ",
"L i.q jXnXxXmX[ ) n X xXgXaXfXU.z x H mXxXgXdXaXtXwX) . g Z T C L C L L L I T T T T T E T E C =X#X&X&X$X$X+X+XOXOXoXq.BXZ.D.A.B.N.B.Z.q L A V t x x V T T I I L ",
"A L x ,.:.mX[ ~ ! < yXgXxXsXqX| 0 0 (.MXcXdXyXtXwX0X) < g z L x 7 @X@Xr V I e.y.u.u.E T E y.T s.#X#X+X#X+X+X+XOXOX%X&X,X@XD.S.A.V.f z I I e.T T T T T A V z p x ",
"Z A V 0 &.&._ ! 3 # :.MXdXwXqX, 8 % ~.GX~.pXtXqXqX0X) ! 8 j ;XE.E.V.V.B.V.4 Z T T T E e.u.i.y.y =XD.&X+X$X&X+XOXC.+X X|.E.E.A.V.f x I I T T I Z x t > l mXhX(.$ ",
"0 x V x 0 _ [ $ ; & <.=.,.;.} X > o l dXyXpXtXsX%.( ^ < > h E.D.ZX2X2X2X2XZ p I F.L U I E e.y.T 6.k.+X$X$X+X+X+X+XOXE.D.D.A.B.B.j I I u.A 8 K.FXMXdXsXsXO.qX^.m ",
"0XI.0 x z x x x N h ' =.,.&.] % > l hXdXsXgXgXgXsX| ] + 8 x D.V.S !.G.f.R y m.Z A I I L V x Z I Y y s.+X+XT.OX+XOXoXoXE.D.A.V.a L I U I 0 nXnXgXL.H VXqX[.].| 3 ",
"0X0X0XhX8 x V L L Z 7 ` X.o.! : 8 x.qXcXjX` )./.$.] ^ + 0 V y w 0.R.D.A.A.B.B.d I V ; AXAXfXX z L Y y s. X X+X XOXoX|.E.D.B.m.R I I y.x JXgXpXyXqXqX0X0X[.( n H ",
"0X0X[.[.8X3.0 x A Z Z x q # : q x =.[.&.X.l ,.&.] ^ ! @ I I I A Z N e s.D.A.m.y j LXMXAXfXwX0XX t A I r  X|. XOX X|.E.D.V.V.A.x I E Y % AXdXpXyXqXqX0XwX2 < PXaX",
"qXqX0X].).).U.> z x I T I L L I V # ).&.X.l m %.~ ! + v I i.x t z x V Z r R.r.x LXVXv.tXqXqXqX0XX j V I t.|.|.|.E.E.E.E.D.m.b.x e.T t wXmXdX{.tXtXqXeX! . GXdXpX",
"H kX0XeXH (.^.4.0 Z I I I A y V A t ' } ' l n _ n # z L Z :.AXrXwX&.t V L I N 0 I.AXmXgXpXqX0X0XVX  q V N s.E.E.D.D.A.A.V.B.b.z I I 8 K.K.P.MXsXyXL.~ < . dXaXtX",
"{.).).).).(.(.4.@ z L A C ;XD.G.V Z x 8 % % : > 0 z L Z GXMXdXwXwXwX/.0 x T L 8 K.H.P.gXaXpXwXsX[.].*.0 N r.Y.V.V.V.B.B.m.m.h.w L I % K.+.>.H c._ ~ $ * FXpXtXqX",
"].].0XrX4._ ~ n ~ h K L N.V.B.V.A.x V x 8 - VXDXhXv C t VXnXtXwXqXqX3.X z L L ; c.c.K.P.dXpXwX0X[.0X*.# h V y C.m.m.m.m.b.8.d y I I x % &.=.-.<.~ ! % # sXtXtXqX",
"&.] / ~ ~ ! ! 3 % t Z 6 |.E.E.Z.Z.n.c DXnXjXaXyXyX9Xq & I.nXyXtXtXwX8X] 0 z I q <.<.c.K.VXpXtXqXL.] ] | 0 L I N p.f M t x x Z L I e.T Z : ` &.:.n % > L.pXpXtXwX",
"m ~ n 2 + # 8 h x c f.|.OXOXD.D.A.9.t fXgXgXdX~.pXwX% % I.&.cXdXtXqX1.2 : h I z o >.x.H.I.qXiX,.} _ ~ ( 0 Z E I I I T T T T e.y.y.T I I L N q % 8 h z : ' )._ m ",
"> 8 h z z V V A p 5X+X XoXoX|.D.Z.S 7 P.DXgXdXyXtXsX+ % o.&.%.&.rX[ ]  .: h I }.x ' +.x.c.I.} [ _ ] < # z L I V V V Z I Y e.y.y.y.e.E E T I L L L L L Z x 0 > % ",
"I I T I I C t !.+X+X+X XoX X|.E.A.n.8 K.c.c.K.rX} ] 2 % X o.%.$.=.~ ~ ~ > z T @.9 q H H.c.H.` [ ] ] m h v I z FXwXrXH x I y.y.T I I I T I T U I L C V V N V V c ",
"I T U Z 6 <XOXOX%XoX|.C.OXD.|.|.A.B.q H 1.<.$./ ] ~ + 8 0 8 1 ' o.~ ~ # t I L V A A x # o.<.[ ] ! @ 0 V I x nXyXtX[.).3.x L T C l SXI.x L I z E.V.B.V.M.m.Z.w z ",
"Z I j &X+XOX+X+X+X+XOXoXoXoXE.E.D.B.n.z % ~ ~ ~ 2 : q z V Z N x z z x Z L J 5 W.$Xx I L z % @ * q x T T I ; gXyXtXqX(.{ * V A > mXsXsXwX0 V C e p.p.m.m.m.d.j.h.",
"A x 1X#XOX+X+X&X&X&X+X+X*X$X+X|.E.V.g.x V x z x x x u +X&X=X;X=X@Xp.P q.g.S.E.E.E.T.x L I I A Y T y.p.E Y = /.pXtXhX( ^ $ z j - hXL.qXI.[.o x V q t.m.m.m.h.h.D ",
"V 2X X XOX+XOX$XOX+X+XOX+XOXOXOX|.A.V.y I I I x !.+X+X+X X+XOXOX X+X+X+X+XOX XD.A.m.A.5 I T u.u.u.u.y.T A 8 ,.:.0X^ ~ ! : q g (.fXpXtXtXqX0X9Xz x 8.m.m.m.b.b.z ",
"w |. X|. XOXOXOXOX@X<X@X XoXoX|.E.A.A.B.x Y V &X+X;X+X+X+XOXOXOXOX+X+X+X+XoX|.E.E.E.V.A.@XV I 9.9.9.9.y.T x o =.] ~ ! + q H gXdXdXpXtXqXqXqX(.| h j h.M.B.m.7 L ",
"z d .XE.T.E.|. XOX XOXOXOX|.|.E.D.A.V.A.d.A q.#X$X&XC.6X6XG.n.+X+X+X+X6X2Xw.|.E.E.E.E.D.S.T.e J T T E I e.I x % l % 8 x l FXdXaXpXyXtXqXqX).H.^ * h v z x V I I ",
"h x t d.h.h.E.#X#XOXOX|.oX|.E.A.8.g.B.V.D N =X+X.X.X4XZ.@.%X%X&X+X+X2X1X1X<X@XA.E.E.E.E.D.m.V.@XZ I E E E E e.E I L x 8XVXaXdXaXpXtXtXqXc.x.7X) + h Z V L C A x ",
"% 0 c V Z A V y *XOX|.E.E.E.h.<X$Xn.B.m.9 z +X+X X7.i.i.+X+X&X&X-X1X1X1X<X<X2XN.E.E.E.E.D.D.A.A.j I E T T T T T I C K.sXMXpXyXaXpXyXqXqXqXrX) ! # h V R x x O gX",
"1.).8 W P.I I I 0. XE.E.E.S.A.Z.N.b.B.m.j 6  X X+X+X+X+X+X&X+X+X-X-X;X;X<X2XR E.E.E.D.A.D.C.V.P C I T A V r L U I z K...c.dXcX{.L.yXtXwXwX{ ! $ g z L x ; nXzXzX",
"wX]./.1 q x A I V 0.D.D.V.V.B.C.V.b.f a A p.#X X X X X+X+X+X|.+X$X*X+XE.g.k D.D.E.E.A.E.A.V.V.9 L I y 2X|.E.p.S C 0 H.' -.=.+.1.H.hXhX(.] ~ 3 > h L c iXxXzXgXgX",
"qXqX[.).0X9Xh Z I y V.V.B.d k y y x C I T c t.#X X X X X XOXOX+XOXOX+XoXQ.E.E.E.D.D.p.V.V.V.y A V ;X|.E.@Xw.C.q.A x %.m &.=.=.=.&.%.$.[ ] ! : h K L : nXgXdXdXdX",
"qX0X[.].).7X* x I I C A A L V 0 j Z I I T 9.C s.$XE.E.E.|.OX X X|.E.E.E.V.E.E.E.D.w.i.u.V.V.V A 5 OXE.E.E.E.D.C.s V x 0 l ` ..' ' } } } n % h L I t qXgXgXaXaXdX",
"].qX[.).).^ + h T T T T I I h fX_.(.8 x A T E I a.s.OXE.E.Q.Q.|.E.E.E.OXE.E.E.D.A.A.V.V.M.d N 2XE.E.+XE.E.E.V.C.V.5 C A V x x 0 > % : > q A T T I & K.AXgXK.aXaX",
"I.[.).).) ! % q U I I I I Z /.nXwX).8X(.0 x A Y T A x x c V V x f 7.E.E.E.D.R.A.A.A.C.V.f i s OX XE.E.E.E.E.E.E.A.C.oXk J I L Z Z V V N N C I T I t ;.<.dXpXyXyX",
"[.[.0X0X! X 8 x V i L x V 0 VXdX(.0X0X).(.(.> x C T T I L x x V W R r x x d 6.V.E.V.OXB x t E.E.E.E.E.E.E.E.E.E.Y.A.Y.G.|.e aX>.6 ,XS.Y.V.D.E.L Y C q H gXpXaXtX",
"mX' ] ~ < > z PXgXiX[.: q : c.<.c.K.~.qX8X0X(.^.> V U L LXdXwX0X0 V Z L I T I C N s 9 C L s.E.E.E.E.E.E.E.E.OXHX@XBXD.G.NXA.BXbXY.G.G.Y.HXG.BXVXl.@.Z : >.x.FXtX",
"` _ n 2 % 0 H P.K.;.rXeX> & =.-.>.-.x.3.nX(.(.^.^.; Z z HXaXyX{.{.8X8X; z Z U I I I I I L p 8.s.E.E.E.E.E.E.E.R.E.R.E.R.R.E.Y.R.Y.Y.R.Y.Y.j.0.x Y T Y V -.o.+.O."
};
