/* XPM */
static char *_0a1a40f649b4bec9880931a9dcfe6c6[] = {
/* columns rows colors chars-per-pixel */
"80 80 252 2 ",
"   c #331F1A",
".  c #341D17",
"X  c #2D1C18",
"o  c #36221C",
"O  c #3C231B",
"+  c #392318",
"@  c #2F201B",
"#  c #342524",
"$  c #3A2928",
"%  c #3B2E33",
"&  c #3D3239",
"*  c #342928",
"=  c #42261C",
"-  c #45291D",
";  c #4C2B1E",
":  c #532E1E",
">  c #592F1F",
",  c #54311F",
"<  c #5C341F",
"1  c #4A361D",
"2  c #442A22",
"3  c #4C2D21",
"4  c #452F2C",
"5  c #512F21",
"6  c #5A2F21",
"7  c #4B3329",
"8  c #543222",
"9  c #5B3423",
"0  c #5E3925",
"q  c #553A2C",
"w  c #5A3929",
"e  c #433333",
"r  c #483838",
"t  c #543D35",
"y  c #402F35",
"u  c #623623",
"i  c #643A25",
"p  c #6B3C26",
"a  c #653C29",
"s  c #6A3E29",
"d  c #6B3622",
"f  c #733B25",
"g  c #783D25",
"h  c #602F20",
"j  c #65321F",
"k  c #325118",
"l  c #0A740C",
"z  c #0F780F",
"x  c #11780F",
"c  c #0F7811",
"v  c #117911",
"b  c #167712",
"n  c #1D6A1C",
"m  c #2E6626",
"M  c #455C1D",
"N  c #574528",
"B  c #5A4438",
"V  c #47543A",
"C  c #6D412A",
"Z  c #684328",
"A  c #73442C",
"S  c #7A462C",
"D  c #76492D",
"F  c #7B4A2E",
"G  c #784227",
"H  c #664837",
"J  c #7D4B30",
"K  c #754832",
"L  c #705533",
"P  c #4B702F",
"I  c #6C722E",
"U  c #453943",
"Y  c #4B3D45",
"T  c #493D47",
"R  c #503F45",
"E  c #4E4249",
"W  c #53444B",
"Q  c #5C4B4B",
"!  c #584746",
"~  c #554A52",
"^  c #5C5255",
"/  c #5E544D",
"(  c #634D47",
")  c #6C5443",
"_  c #65534C",
"`  c #6A574B",
"'  c #735847",
"]  c #655353",
"[  c #6C5A53",
"{  c #685857",
"}  c #735C55",
"|  c #725F59",
" . c #567347",
".. c #746254",
"X. c #7B645A",
"o. c #7D6A5C",
"O. c #786658",
"+. c #726257",
"@. c #7A6B65",
"#. c #7D746C",
"$. c #824C2E",
"%. c #87472A",
"&. c #824E31",
"*. c #8D4D31",
"=. c #855131",
"-. c #8B5334",
";. c #8A5937",
":. c #935333",
">. c #9C5C3A",
",. c #985A38",
"<. c #914C2D",
"1. c #A25C38",
"2. c #A4562F",
"3. c #9A633D",
"4. c #96663B",
"5. c #A4633E",
"6. c #AB643C",
"7. c #AA693E",
"8. c #B3683C",
"9. c #885D45",
"0. c #836B5D",
"q. c #836A59",
"w. c #936D4F",
"e. c #AD6B42",
"r. c #A76A43",
"t. c #B46D43",
"y. c #BA6F42",
"u. c #AB7446",
"i. c #B47246",
"p. c #BA7446",
"a. c #B47449",
"s. c #BC7549",
"d. c #BD7A4A",
"f. c #B67C4A",
"g. c #B97D53",
"h. c #AD7951",
"j. c #846E62",
"k. c #8A7565",
"l. c #8D7B6B",
"z. c #867567",
"x. c #917D6B",
"c. c #917966",
"v. c #897C73",
"b. c #917F71",
"n. c #A27F6B",
"m. c #C27C4C",
"M. c #C27948",
"N. c #C47F51",
"B. c #158616",
"V. c #218E1F",
"C. c #1EA71F",
"Z. c #288526",
"A. c #348A33",
"S. c #3A8733",
"D. c #379637",
"F. c #378D2C",
"G. c #2EAF2D",
"H. c #508C32",
"J. c #519D32",
"K. c #27CE26",
"L. c #28CE26",
"P. c #29C828",
"I. c #2ED62E",
"U. c #30D72F",
"Y. c #30D82D",
"T. c #34D733",
"R. c #38C730",
"E. c #638B4D",
"W. c #6C9352",
"Q. c #4CB54B",
"!. c #639D56",
"~. c #3FDA40",
"^. c #49D64A",
"/. c #46DA46",
"(. c #5DD75E",
"). c #59DA5A",
"_. c #56D057",
"`. c #62D75F",
"'. c #57E757",
"]. c #5FD860",
"[. c #62DC63",
"{. c #64D563",
"}. c #7BDE70",
"|. c #65E265",
" X c #66EE66",
".X c #66ED68",
"XX c #6AED6B",
"oX c #69E767",
"OX c #6DF36E",
"+X c #6DF370",
"@X c #86833A",
"#X c #B9854B",
"$X c #BA8456",
"%X c #B28A4E",
"&X c #96826C",
"*X c #8D8277",
"=X c #948474",
"-X c #9D8C7C",
";X c #988876",
":X c #9B927C",
">X c #898A6A",
",X c #A28D79",
"<X c #A4927E",
"1X c #A9957E",
"2X c #B39379",
"3X c #919D5C",
"4X c #C5824E",
"5X c #C9834E",
"6X c #C78A4F",
"7X c #C58351",
"8X c #CA8551",
"9X c #CC8B53",
"0X c #C68858",
"qX c #D08E55",
"wX c #D08F59",
"eX c #CA9456",
"rX c #D29156",
"tX c #D39459",
"yX c #D69A5C",
"uX c #D29C79",
"iX c #CF976D",
"pX c #DAA469",
"aX c #E0AE73",
"sX c #88D165",
"dX c #9D9182",
"fX c #9C8C81",
"gX c #A49382",
"hX c #AA9581",
"jX c #AD9A83",
"kX c #AA9C88",
"lX c #B29D84",
"zX c #B19F89",
"xX c #A48F81",
"cX c #ACA48A",
"vX c #B6A286",
"bX c #BAA286",
"nX c #B5A38A",
"mX c #BAA58A",
"MX c #BDA98C",
"NX c #B5A98E",
"BX c #BDAC92",
"VX c #B4A791",
"CX c #B9B294",
"ZX c #C1AB8D",
"AX c #C8A98D",
"SX c #C2AE92",
"DX c #C4B394",
"FX c #C5B69A",
"GX c #D5A281",
"HX c #C6BCA3",
"JX c #CDC2A5",
"KX c #A3C885",
/* pixels */
"+ = 5 i p 9 H ..+.W U r . + ( [ } l.x.{ W W W W E * O q l.FXZXvXlXlXlXjXvXlXlXjXjXhX^ O 0 A S A C p d f <.p.p.m.4X8X8Xm.m.m.8X4X4Xm.m.M.m.d.-.8 A S F s 9 3 - = ",
"a A S A C 9 ; t ! % # o - 9 ; 2 t [ j.Q ! ! T T %   - O ..FXMXjXjXjX1X1XlXlXlXjXhX{ ~ # 3 a J J J J F C 9 %.M.M.m.4Xm.m.m.m.m.m.M.m.M.e.$.h > s F F F S S S A C ",
"=.&.A a 0.k.q ; ; ; 9 s S S C i : = t r e % $ O - 5 8 ; B jXSXzXjXjXjXlXlXlXjXjX@.W T # 2 9 C 9 0 0 i C C u 6.p.m.s.m.m.m.d.d.m.M.p.$.6 8 i A F $.S S S S S s F ",
"-.F s H JXlXhX..8 0 C A J =.F A A u 3 O _ =X;XB 9 s C i 5 0.nXSXmXnXvXnXjX<X=Xv.W W &   3 0 w cXCXVXkX;Xq 9 G m.d.d.M.d.s.s.s.s.5.u 9 s A A a C F F C C p u u S ",
"$.A 9 l.DXlXjXhX;XB 0 C A D $.S i ) ;XDXZXMXzXgX[ 3 0 a : ' 0.b.@.@.| ] _ Q Q ] W T o = 5 8 kXmXlXlXhXgX[ ; 9 t.m.m.M.p.s.p.s.-.8 i K s S 3.d.7X8X4Xm.m.M.d.&.A ",
"S a q :XBXBXjXhXhXv.= a C S S 0 o.JXDXSXMXmXjX=X=XQ ; 0 i q X.| ] ] Q Q Q Q  .!.E % + 2 8 =XmXvXlXlXhX<X*X+ 5 %.M.M.s.s.s.p.-.8 H lXk.4.9X5X5X8X7X4X4Xm.M.p.$.p ",
"A 9 j.,X&X=X-X-X=Xv.# 5 A $.A 8 l.k.nXDXZX,XjXjXgX| + 8 i : B _ Q Q Q Q ! J.U.'.[.V = , O.MXbXbXlXjXjXgXdX% 2 , 6.m.s.s.p.5.9 s s ) 4.8X7XtXd.5X7X4Xm.m.M.a.*.u ",
"s 8 &X0.;XBXMXlX<X=Xe - s F S q k.+.0.&XjXMXnXnXdX~ o 5 a a 8 2 4 e e P R.U.U.'. X X!.N nXbXMXMXmX1X,XhXgX/ = 8 p y.p.d.s.$.i S p ;.9Xa.$Xg.a.a.4Xm.m.M.s.i.:.6 ",
"u ` X.X.j.-XnXNXkX*XE = a A S : ( ` o.+.x.lXBXgX~ T @ 3 a A a a 0 N F.U.U.U.U.'. X X XoXKXDXZXjX,XhXjX1XgX#.. 3 0 %.7.:.p 0 s 9 4.9X9X9X4X9X8X5Xm.m.s.s.p.t.*.- ",
"0 ) _ k.0.X.q.j.z.W U + a A A a ; 2 _ _ o.X.X.R T U   8 s J A C P R.U.U.U.U.I.'. X X X X X}.cXnXnXlXjXhX-X*Xo 2 i s p 0 i a A g.9X9X9X9X8X8X8X4Xm.s.p.s.e.$.u i ",
"i 3 B X.X.[ X...[ E % = C p S C 9 8 = r _ | [ Y T * = w C S L J.U.I.U.Y.U.U.U.'. X X X X X XXXsXjXnXlXjX-X@.$ 2 9 s C S J A 4X9X8X8X9X8X5X4Xm.s.s.s.>.d u s A A ",
", 9 8 7 t ! [ } ] T # 8 A F qX7Xf.C u , = e r $ o - 8 C D H.R.U.U.U.U.U.U.U.U.'. X X.X X X X X X}.cX-Xz.! T & = 8 0 C S S d %.2.p.8X5X4X4X4Xd.M.m.a.g 9 A A i a ",
";X( 8 9 8 - 2 r r $ ; C A ;.5X4Xm.i.u K a : 5 5 8 0 C I G.U.U.U.U.Y.U.U.Y.U.U.'. X X X X X X X X X X!./ { r & O 5 w s A S A a d d %.1.t.M.m.M.M.5.d 9 s i 0 k.NX",
"<XgXo.3 9 i i u 9 0 S F A 4.8X4Xm.d.>.9.AXH 0 s A D H.U.U.U.U.U.U.U.U.U.U.I.U.'. X X X X X X X X X X X{. .Q # = 3 9 i u A ;.4.C a p u u j g *.:.G i s 8 o.NXvXlX",
"<X<X-Xv.B 5 i s C A $.$.p u.8X4Xm.m.s.A ..H 9 S I G.U.U.U.I.U.U.U.U.U.U.U.U.U.'. X X X X X X X X X X X X.X!.$ - 5 0 r.4X9X5X7X4X7.F i s C C s s C s B jXNXbXlXlX",
"<X<X-X-X;X] - 0 s S =.&.i 6X8Xp.d.m.d.-.; a L J.U.U.U.I.U.U.I.U.I.U.U.U.I.T.^.[.|. X X X X X.X X X X X X X.X{.P Z #X9X8X8Xf.$X,.m.m.i.;.s C A D A 8 nXZXmX,X=XlX",
"hXhXgX-X{ E $ 9 A J =.J C rX8Xm.m.m.s.$.i I R.U.U.U.U.U.U.Y.U.U.U.U.U.U.T.).[.[.[.|. X X X X X X X X X X X X X XsXeX7X4X8Xm.p.d.m.d.d.m.d.p A A i o.DXDXMXvXlXbX",
"jXhXgX{ T y o 8 A S =.F G M.4X4X4Xm.t.Z J.I.U.U.U.U.U.U.I.U.U.U.U.U.Y./.[.[.[.[.[.[.[. X X X X X X X X X X.X X X XXXW.7X8X8X5X4Xm.M.d.d.s.&.C S 9 l.0.hXDXZXmXMX",
"-X;X@.U &   - a A D &.&.S p g g f d d k G.U.U.U.Y.U.U.U.U.U.U.U.U.T.^.[.[.[.|.oX[.[.[.[.|. X X X X X X X X X X X X X/.eXqXrXrX9X9X8Xm.d.s.r.i S 0 ( X.` o.1X1X1X",
"! W U *   3 a C p s S $.-.=.S S S D S M l C.I.U.I.I.U.U.U.U.U.U.T.).[.[.[.oXOX+XOX|.[.[.[.|. X X X X X X X X X X'.T.K.eXtXtXrX9X9X8Xm.m.s.p.A A A 8 2 r ! _ ] ( ",
"e % o = 9 i i ;.u.i.A A &.=.J =.&.J J M l l B.I.U.U.U.U.U.U.U./.[.[.[.[.XXOXOXOXOXOXoX[.[.[.[. X X X X X.X X X'.L.K.K.eXtXtXrXrX9X8X4Xm.s.a.,.a S S a : O $ r r ",
"8 8 , i F r.7X4X4X4X4X3.A A J J &.&.J M l l l B.P.U.Y.I.U.T.).[.[.[.|.OXOX+XOXOXOXOXOX.X[.[.[.[.|. X X X X X/.K.K.K.K.6XtXtXrXqX9XqX9X7XM.s.t.i S J A p i , ; ; ",
"3.r.f.4Xm.4X4X4X5X4X7X4X5X5.=.p a C S M l l l l z G.I.U.T.(.[.[.[.oXOXOXOXOXOXOXOX+XOXOXOX|.[.[.[.|. X X X~.K.K.K.K.L.eXrXqXqX9X8X8X7X7Xm.a.t.p F A S 4.7.i.i.f.",
"m.4X9X4X4X7X8X9X8X4X4X5X8X8X9X8Xf.r.3.M l l l l l l C./.[.[.[.[.XXOXOXOXOXOXOXOX+XOXOXOXOXOXoX[.[.[.[.'.T.K.L.K.K.K.L.6X9X9X9XyX4X4Xm.d.s.i.>.s S F rX5X5Xm.m.m.",
"f.8X9X9X9X9XwXrXwX9X5X5X7X7X8X8X5Xf.m.I l l l l l l l (.[.[.|.OXOXOXOXOXOXOXOXOXOXOXOXOXOXOXOX.X[.[.[.^.K.K.K.K.K.K.L.6X8X5X8Xm.4X7Xd.s.i.a.,.A S 4.9X9X9X8X5Xm.",
"4X8X5X8X8X9XrXyXyXyXyXtX4Xm.4X4X5X5X4XI l l l l l l l (.[.oX+XOXOXOXOXOXOXOXOXOXOXOXOXOXOXOXOXOXOX|.[.^.K.K.K.K.K.K.L.#X8Xf.wXpXpX0Xu.r.e.t.:.A A u.qX9X9XqX9X8X",
"4X4X5XqX9X9XrXyXyXyXyXtXwX9X4X4X4XN.m.I l l l l l l l (.|.OXOXOXOXOXOXOXOXOXOXOXOXOXOXOXOXOXOXOXOXXX[.^.K.K.K.K.K.K.L.#X4Xi.7.r.i.r.3.r.s.t.:.C p u.9XwX8X9X9X9X",
"8X4X9X0XiXw.7XtXtXtXtXtXwXwX7Xm.d.d.d.I l l l l l l l (.|.OXOXOXOXOXOXOXOXOXOXOXOXOXOXOXOXOXOXOXOXXX[.^.K.K.K.K.K.K.K.6X9X9X8X8X7X7X4Xm.a.s.>.i p u.9Xp.d.8X9X8X",
"m.8X8Xa.r.g.wXtXrX9XqX9XwX9X8Xm.t.e.d.I l l l l l l l (.|.OXOXOXOXOXOXOXOXOXOXOXOXOXOXOXOXOXOXOXOXOX[.^.K.K.K.K.K.K.K.4.4X8Xd.4X4X4Xm.d.s.s.r.9 p r.8X9X8X8X8X4X",
"m.8X8X9X9X9X9X9X8X9X9X9X9X7Xm.d.d.m.s.I l l l l l l l (.|.OXOXOXOXOXOXOXOXOXOXOXOXOXOXOXOXOXOXOXOXOX[.^.K.K.K.K.K.K.K.Z G p.m.s.m.m.d.d.d.s.t.8 p 5.8X8X8X4X4Xm.",
"m.m.4X7X7Xm.4X5X7X8X8X7Xm.m.d.m.m.M.m.M l l l l l l l (.|.OXOXOXOXOXOXOXOXOXOXOXOXOXOXOXOXOXOXOXOXOX[.^.K.K.K.K.K.K.K.Z a %.:.d s.s.s.s.p.s.i.9 p ,.4Xm.m.m.m.M.",
",.6.d.4X4Xm.m.M.m.4X4Xm.m.d.d.m.m.a.f k l l l l l l l (.|.OXOXOXOXOXOXOXOXOXOXOXOXOXOXOXOXOXOXOX+XOX[.^.K.K.K.K.K.K.L.Z A s A p *.1.t.p.p.t.i.u C $.m.N.s.6.>.1.",
"8 9 u d f 1.M.4Xm.m.m.d.d.d.i.d.t.d s M l l l l l l l (.|.OXOXOXOXOXOXOXOXOXOXOXOXOXOXOXOXOXOXOXOXOX[.^.K.K.K.K.K.K.K.Z a A S C 9 8 u f *.5.r.p S f :.G d i 9 > ",
"a i a C a u %.6.M.m.m.p.5.i.p.s.G a D M l l l l l l l (.|.OXOXOXOXOXOXOXOXOXOXOXOXOXOXOXOXOXOXOXOXOX[.^.K.K.K.K.K.K.K.0 s i H l.o.L 8 9 8 8 u p S A A S A p 9 H ",
"q ) ; 9 C S p d <.8.M.m.m.d.d.a.d A S M l l l l l l l (.|.OXOXOXOXOXOXOXOXOXOXOXOXOXOXOXOXOXOXOXOXOX[.^.K.K.K.K.K.L.K.Z Z ;XDXMXnXlXjXz.( ; 0 A $.&.F S 9 ) <XDX",
"NXcX=X7 ; a F A u g 6.m.d.p.M.7.u A s k l l l l l l l (.|.OXOXOXOXOXOXOXOXOXOXOXOXOXOXOXOXOXOXOXOXOX[.^.K.K.K.K.K.K.K.N HXZXMXmXvX,X;X*XdXo.- a A S S Z kXFXMXMX",
"lXjXjXdX` - 0 A S a f 2.p.d.5.d i 0 k.E.l l l l l l l (.|.OXOXOXOXOXOXOXOXOXOXOXOXOXOXOXOXOXOXOXOXOX[.^.K.K.K.K.L.K.K.N k.x.&XjXhXzXjX;Xx.*Xr - a C a &XFXZXMXbX",
"lXjXhXhXdX#.4 9 C K A p %.p , 0 ) cXDXE.l l l l l l l (.|.OXOXOXOXOXOXOXOXOXOXOXOXOXOXOXOXOXOXOXOXOX[.^.K.K.K.K.L.K.K.N j.X.DXMXnXlXjXhXb.^ E @ 8 s 8 hX;XbXMXMX",
"jXjX;X=X-XdXv.4 9 C S S s i 0 q cXDXZXE.l l l l l l l (.|.OXOXOXOXOXOXOXOXOXOXOXOXOXOXOXOXOXOXOXOXOX[.^.K.K.K.K.K.K.L.1 O.} =XDXBXNXxX@.E T U + 9 a ) x.c.x.SXvX",
"lXlX<XgXgXv.@.e 2 0 C A a 0 k.CXZXMXMXE.l l l l l l l (.|.OXOXOXOXOXOXOXOXOXOXOXOXOXOXOXOXOXOXOXOXOX[.^.K.K.K.K.K.K.K.N 7 _ [ X.-X| W W T r   3 S < ) k.0.0.nXDX",
"lXlXzXdX{ U T   2 0 C A , jXBXMXMXlX,XE.l l l l l l l (.|.OXOXOXOXOXOXOXOXOXOXOXOXOXOXOXOXOXOXOXOXOX[.^.K.K.K.K.K.K.K.L 9 7 [ ( j.! Y T &   ; D D 9 t 0.} 0.l.jX",
"lXkX@.W Y & $ + 8 C w.s ; ;XFXZXMX1X1XE.l l l l l l l (.|.OXOXOXOXOXOXOXOXOXOXOXOXOXOXOXOXOXOXOXOXOX[.^.K.K.K.K.K.K.K.Z s 9 2 $ [ E U % + 3 s J J a ; B ` O.k.o.",
"=XQ W T & @ 4 ) ) H s s 3 k.1XSXMXmXMXE.l l l l l l l (.|.OXOXOXOXOXOXOXOXOXOXOXOXOXOXOXOXOXOXOXOXOX[.^.K.K.K.K.K.K.L.4.&.i > ; - # O - 9 s F S H 0 9 - $ _ j.j.",
"] W E %   - NXBXnX:Xq C 3 0.0.nXFXhX+.m l l l l l l l (.|.OXOXOXOXOXOXOXOXOXOXOXOXOXOXOXOXOXOXOXOXOX[.^.K.K.K.K.L.K.L.#X4X4Xi.,.D < 0 C A S A &XnX=XB 9 < 4 ..O.",
"Q T $ + = :XDXnXkX*X7 i ; ` X.l.l.] W m l l l l l l l (.|.OXOXOXOXOXOXOXOXOXOXOXOXOXOXOXOXOXOXOXOXOX[.^.K.K.K.K.K.K.K.#Xm.m.d.s.d.f.;.u C S a nXNXkX@.O 9 0 3 B ",
"E * O ; O.FXMXmXgXv.e ; 8 - _ X.o.W E k l l l l l l l (.|.OXOXOXOXOXOXOXOXOXOXOXOXOXOXOXOXOXOXOXOXOX[.^.K.K.K.K.K.K.K.#X7Xm.d.d.m.d.d.i.p C H @.j.z.^ # 5 a s p ",
"o - , H DXMXmXMXnX~ % = 9 , = B ] r # k l l l l l l l (.|.OXOXOXOXOXOXOXOXOXOXOXOXOXOXOXOXOXOXOXOXXX[.^.K.K.K.K.K.K.K.#X7Xa.eXf.a.m.M.s.p i t [ ` { W o 3 a A D ",
"0 i 8 BXMXMXMXnX{ T # B q.q.' q = = - k l l l l l l l (.|.OXOXOXOXOXOXOXOXOXOXOXOXOXOXOXOXOXOXOXOXOX[.^.K.K.L.K.K.K.K.#Xs.r.r.h.>.d.s.5.u C w 3 7 e $ - 0 A J J ",
"C C ; hXFXDXVX{ E y Q DXMXnXlX@.3 8 ..!.l l l l l l l (.|.OXOXOXOXOXOXOXOXOXOXOXOXOXOXOXOXOXOXOXOXXX[.^.K.K.K.K.K.K.K.$Xa.d.d.a.5.p.>.9 C C s a 0 0 i A D S A C ",
"s s 8 ( b.kX{ E U # k.MXbXjXhXQ = ; ;XW.l l l l l l l (.|.OXOXOXOXOXOXOXOXOXOXOXOXOXOXOXOXOXOXOXOXOX[.^.K.K.K.K.K.K.K.h.r.u.d.s.a.&.9 C S J J F S D A p 0 w 8 8 ",
"a a i ; ( [ Q U * X j.NXmXjXgXe O 7 x. .l l l l l l l (.|.OXOXOXOXOXOXOXOXOXOXOXOXOXOXOXOXOXOXOXOXOX[.^.K.K.L.K.K.K.K.#Xd.d.p.s.$.0 A S S S A a 8 w L o.&XkXv.7 ",
"5 9 0 9 3 t Y # O O +.X.l.z.{ o O 7 ;XW.l l l l l l l (.|.OXOXOX+XOXOXOXOXOXOXOXOXOXOXOXOXOXOXOXOXXX[.^.K.K.K.K.K.K.L.#Xd.s.i.5.9 A S &.a ' k.;XNXDXNX1XgXgXv.^ ",
"gXO.w 8 8 8 8 8 9 ; ! [ | [ E X O t 1XE.l l l l l l l (.[.oXOXOXOXOXOXOXOXOXOXOXOXOXOXOXOXOX+XOXOX|.[.^.K.K.K.K.K.K.L.#Xs.s.i.f i A J A q.FXBXzXjX<X-XhXhX<X^ % ",
"gXgXgXz.B , u Z C i - r ] ] e . = ( =XE.l l l l l l l (.[.[.|.OXOXOXOXOXOXOXOXOXOXOXOXOXOXOXOXXX|.[.[.^.K.K.K.K.K.K.L.#Xs.p.e.i A A J 8 VXMXbXlXjXhXhXgX,X{ % O.",
"1XgX<X<X-X` ; 0 s C i 8 3 7 2 8 8 H k.P l l l l l l l D.].[.[.|.XXOXOXOXOXOXOXOXOXOXOXOX+XOXoX[.[.[._.D.G.K.K.K.K.K.L.#Xs.p.5.u D S C ( JXmXvXlXjXhXhX;XW $ ;XmX",
"jXhXgXgX-X;X#.2 8 i C S A C s A i 7 o.P l l l l l l z z V._.[.[.[.oXOXOX+XOXOXOX+XOXOXOXOX|.[.[.[.Q.A.A.A.G.K.K.K.K.L.f.s.t.>.i &.J 9 x.nXSXlXlXlXjX=XU # :XmXbX",
"=X=X=Xb.=Xv.v.] - i A S A p F i s ; B P l l l l z v z z z v Q.[.[.[.|.OXOXOXOXOXOXOXOXXX|.[.[.[.Q.A.A.A.A.A.G.L.L.K.L.f.t.t.6.< S A q k.k.&XnXmXlXz.U # r MXbXlX",
"1X,X-X-X-X-X*X{ $ 8 C C u u.m.,.9 a 8 k l l l l x z z z z x v D.(.[.[.|.OXOXOXOXOXOXoX[.[.[._.D.A.A.A.A.A.A.A.D.P.L.K.u.t.t.6.f C A 5 X.O..._ l.{ T # . l.bXlXlX",
"<XgX-Xb.@.{ W U % 3 a s 4.4Xs.p.3.0 a k l l l z z z x z z z z z Z._.[.[.[.oXOXOXOX|.[.[.[.Q.D.A.A.A.A.A.A.A.A.A.A.G.L.u.5.*.S u A S 9 7 [ } } X.E % . 7 NXlXlXjX",
"@.] W Y T U & * O 8 u ;.5Xm.M.a.a.-.9 P z l z z z z z z z z z z x B.Q.[.[.[.oXXX|.[.[.].Q.A.A.A.A.A.A.A.A.A.A.A.A.A.G.i u i i C S J D i 2 t _ [ %   O ..lXlXlXjX",
"U r e % $ o O 3 9 9 4.7X8X8Xm.f.a.$.; :XW.b z z v z z l z l z z z l v G.[.[.[.[.[.[.(.D.A.A.A.A.A.A.A.A.A.A.A.A.A.S.L J F J J &.=.J S A C 9 - 2 = 3 8 7 ) j.[ Q ",
"= = ; 8 9 0 a a a f.9X8X8X7X4Xd.a.S - k.BX1XS.x z l x v z z z z z z z z V._.[.[.[.Q.A.A.A.A.A.A.A.A.A.A.A.A.A.A.M 0 a A D &.=.=.=.J J J S S C s C C C i 8 - O + ",
"C A S A C i A 3.6X9X8X8X8X7X7Xm.s.:.- k.j.k.=XP b z l z z v z z x z z z z B.Q.].Q.A.A.A.A.A.A.A.A.A.A.A.A.A.H.>X;Xl.` 9 A J &.J A C A S D S A C p a i i u i u 9 ",
"C S S C ;.f.qX9X8X4X4Xm.8Xm.4Xm.f.i.8 t o.X.{ ! V n z z l c z z z z z z z z v A.A.A.A.A.A.A.A.A.A.A.A.A.A.P NXnXjXhX-X_ 8 C S a ..&Xq.Z p C i 5.7.e.e.e.>.;.A 9 ",
"p A C wX8X8X9X9X9X4X8X7X8X4Xf.s.d.p.:.: 7 r e e 4 2 k b z z z z x x x x z z z Z.A.A.A.A.A.A.A.A.A.A.A.P L H BXvXlXhX-X{ $ 0 a q FXNXjX-Xq i i g ,.,.t.t.t.5.6.:.",
"p i #XqX5X9XwXqXrXrXqX8X8X9X8X4Xd.s.5.9 i 9 8 9 9 0 ;.%XP x z z x x x z z z z Z.A.A.A.A.A.A.A.A.A.S.I J A H ;XmXlX-X^ T % 8 : O.jXvXjX;X;XH 9 0 : *.t.t.t.8.6.G ",
"u u.5X5X8X9X9X9X7X9X7X5X8X9X8X7Xm.s.a.p A A C C 3.9X9X9X8X@Xb z x x x z z z c Z.A.A.A.A.A.A.A.A.P L =.F p 8 o.l.=XW Y U $ - B :XNXvXlXlXhXhX@.8 9 %.t.t.t.e.:.8 ",
"S 5X4X4X5X8X8X8X8Xa.$Xr.7X8X7X4Xm.s.s.7.p A s tXqXrX9X5X7X6X%XP x x x z z z c Z.A.A.A.A.A.A.A.I =.=.&.&.A 8 7 } Q Y U $ - ` DXMXbXnXlXlXjXhX;XQ 3 u :.,.>.,.9 s ",
"5 $.M.M.m.4X4X4X8X8X4X8X7X4X4Xm.d.s.p.a.-.i 4.qXqXqX9XaXaXh.r.9X@Xb x z x x z Z.A.A.A.A.A.H.L C S J J J J A 0 7 e $ - , _ cXmXbXvXlXlXlXhX=Xl.~ o 3 0 9 9 u p C ",
"3 8 d ,.1.1.6.p.9X8X8X4X4X4Xm.s.d.a.e.p.$.< 7XqX9X5XpX$X=.a.9XqXqX%XH.v l x x Z.A.A.A.S.w.i.s.,.i J J F &.F J S s a 9 o.CXmXmXbXvXlXjXjX&Xl.z.T # 3 i s C p p 9 ",
"7 - 0 0 i i i f M.8X4Xm.m.m.e.g.$X,.5.t.u C qX9X9X7.9.;.6X9XrXrXtXpXpX3Xb z z Z.A.A.E.h.d.s.p.1.9 S S J F S F J A i o.=XBXvXlXlXlXlXjXjX1X=XE U # 3 i C 9 9 q.mX",
"l.[ 3 H K C S C %.4Xm.m.m.s.i.5.3.r.i.r.9 ;.8X8X9X9X6X9X9XwX8X8XtXyXyXyXeXP c Z.S.@Xd.s.d.p.s.$.i A S s p =.C A A w k.` =X<XmXjX-XlXlXjX-X^ T * = 8 s 9 ' nXZXMX",
"1X,Xz.` q 8 p A p 6.d.d.p.p.s.t.5.,.%.d i <.M.4X8X5X4X8X9XqXi.5XqX9X7Xu.r.=.I E.f.d.d.M.p.p.6.< s p D u.4Xm.:.p s H o._ q.} } k.=X-X<Xv.W T % + 3 i 9 k.DXZXMXZX",
"hXhX<X-X-X[ ; s A g 1.1.>.$.d u 9 9 i s S p %.m.4X5X5X5X5X8X9X8X8X8X8X4Xm.m.m.m.d.f.g.i.p.p.p a i u.5Xd.i.t.d.-.i 9 B Q [ [ } } [ ] ] Q W y o 3 a s B FXMXMXbXbX",
"hXhX<XgX-X#.  9 A S p i s p a O.H i s A S F p <.M.4Xm.m.m.4X8X4X4Xm.m.m.p.M.m.M.s.g.r.5.p.t.9 i -.8Xm.d.m.m.m.p.$.i 8 3 7 t ! ( Q Q ! W e + 8 C A 8 ;XSXlXlXbXbX",
",X<XxX-X=XE # 3 S J F D S C ..CX-XO.q 9 s S S C %.8.t.e.7.6.6.y.m.m.m.M.M.M.M.s.s.a.i.p.p.S 8 r.4Xm.m.m.m.M.m.s.p.S a p i 8 5 2 2 2 2 = - u S S A B k.jXvX,XbXbX",
"=X<X-X-X{ & . 8 S A S A S u =XFXgXxXfX+.q 8 s S S p p d i u u u g ,.y.i.i.M.M.s.s.s.p.p.*.6 ;.5Xm.m.m.m.M.M.M.M.s.s.7.S p C s i i i u 9 u i C S S 8 _ O.<XbXlXlX",
"<X<XgXz.U @ - H a a K 0 i - -X<XlXjXgX-X-Xo.t 9 p S S S s H 0 i C 9 d d p g :.6.t.s.t.G 8 S 4Xm.m.m.m.m.m.m.7X0X0X0X0X0Xa.w.' k.;.u.7X7XN.g.,.K 9.K 3 B NXBXmXlX",
"=X@.Q T $ O B FXBX1Xk.B ; 2 l.o.j.=XhXgXdX-X*X@.B i S p kXNXhXq.H 9 i s A S C p p f j i s :.M.M.m.m.m.m.m.m.wXuXGXGXuXuXuXGXiXiXuXuXiXuXiXiX2X0.n.w.9.j.fXVXBXnX",
"! Y r # . - ' x.&X=X;Xv.O + ..} X.X.q...jX-X;X*Xv.2 i w NXbXlX<XhX=XO.) a i S A A S A S A u g 6.M.m.m.m.m.m.m.N.7Xm.m.m.m.m.m.m.m.m.m.m.s.t.&.w K J J a ( ` ` } "
};
