/* XPM */
static char *_39be5e316a24de78240c9537e189dd2[] = {
/* columns rows colors chars-per-pixel */
"80 80 256 2 ",
"   c #000000",
".  c #0A0905",
"X  c #140D09",
"o  c #071908",
"O  c #18120D",
"+  c #1A1714",
"@  c #26160D",
"#  c #2B1B13",
"$  c #261B16",
"%  c #321D16",
"&  c #341F19",
"*  c #381F18",
"=  c #0C370C",
"-  c #0E2F10",
";  c #35221C",
":  c #3C241A",
">  c #3A2618",
",  c #282617",
"<  c #121C27",
"1  c #372827",
"2  c #3B2E33",
"3  c #3C3339",
"4  c #342C28",
"5  c #122825",
"6  c #42261C",
"7  c #432A1D",
"8  c #4B2B1D",
"9  c #462815",
"0  c #532E1C",
"q  c #5B331B",
"w  c #54311D",
"e  c #4B341E",
"r  c #65391E",
"t  c #703F1F",
"y  c #442B22",
"u  c #4B2B21",
"i  c #452E2B",
"p  c #532F21",
"a  c #493428",
"s  c #543222",
"d  c #5B3422",
"f  c #5E3925",
"g  c #573929",
"h  c #463637",
"j  c #503A35",
"k  c #623623",
"l  c #643A25",
"z  c #6B3C26",
"x  c #653C29",
"c  c #6A3E29",
"v  c #6A3622",
"b  c #753D25",
"n  c #602F20",
"m  c #0D420C",
"M  c #0D490E",
"N  c #12450D",
"B  c #0D4915",
"V  c #0E5618",
"C  c #185815",
"Z  c #164814",
"A  c #2A4E18",
"S  c #12651D",
"D  c #29761B",
"F  c #236918",
"G  c #0E6220",
"H  c #126E22",
"J  c #0F7B29",
"K  c #0F7124",
"L  c #107B29",
"P  c #137727",
"I  c #286029",
"U  c #73411E",
"Y  c #7A521B",
"T  c #5A4639",
"R  c #514D27",
"E  c #6C4225",
"W  c #6D412A",
"Q  c #64452A",
"!  c #734120",
"~  c #73442C",
"^  c #7A462C",
"/  c #7B4A2E",
"(  c #78482A",
")  c #664735",
"_  c #7C4B31",
"`  c #754933",
"'  c #725339",
"]  c #60661D",
"[  c #273E57",
"{  c #453942",
"}  c #4B3D45",
"|  c #4A3D48",
" . c #503F45",
".. c #29516F",
"X. c #4E4149",
"o. c #53434B",
"O. c #5C4B4B",
"+. c #574646",
"@. c #574F52",
"#. c #634D47",
"$. c #685549",
"%. c #735847",
"&. c #695855",
"*. c #735C56",
"=. c #7B645A",
"-. c #786658",
";. c #776856",
":. c #796A65",
">. c #7D7468",
",. c #45627F",
"<. c #834C2E",
"1. c #87472A",
"2. c #824E31",
"3. c #8D4D31",
"4. c #855232",
"5. c #8A5635",
"6. c #975937",
"7. c #8B522B",
"8. c #A25C38",
"9. c #98663B",
"0. c #817730",
"q. c #A8653D",
"w. c #A77C3C",
"e. c #B1653C",
"r. c #8E661E",
"t. c #9B6844",
"y. c #836B5C",
"u. c #8E7358",
"i. c #A86B43",
"p. c #B46D43",
"a. c #B96F43",
"s. c #A47C41",
"d. c #AA7546",
"f. c #B47246",
"g. c #BA7446",
"h. c #B57549",
"j. c #BC7549",
"k. c #BE7A4A",
"l. c #B87B49",
"z. c #AF7A51",
"x. c #846D62",
"c. c #8C7C6A",
"v. c #877567",
"b. c #927C69",
"n. c #897C73",
"m. c #917F71",
"M. c #8E6853",
"N. c #C37C4C",
"B. c #C17849",
"V. c #C37E51",
"C. c #1D8529",
"Z. c #278829",
"A. c #358822",
"S. c #399927",
"D. c #2D9328",
"F. c #3EA129",
"G. c #38821C",
"H. c #419B27",
"J. c #4C8F26",
"K. c #41A326",
"L. c #41A328",
"P. c #5CAD22",
"I. c #68B722",
"U. c #628952",
"Y. c #9D9F16",
"T. c #C8AE2B",
"R. c #D0BB1F",
"E. c #E5DA10",
"W. c #C7E40D",
"Q. c #FFFF01",
"!. c #F9F30D",
"~. c #F6E817",
"^. c #F0EF0C",
"/. c #EDD629",
"(. c #E9C837",
"). c #E7D025",
"_. c #D8C426",
"`. c #8C895C",
"'. c #B68648",
"]. c #B78857",
"[. c #AE8552",
"{. c #95826D",
"}. c #948474",
"|. c #9D8C7C",
" X c #988877",
".X c #938879",
"XX c #A28D78",
"oX c #A4927D",
"OX c #AA957C",
"+X c #B69268",
"@X c #BAAA4A",
"#X c #C5824E",
"$X c #C9834E",
"%X c #C58C49",
"&X c #C58351",
"*X c #CA8551",
"=X c #CD8B53",
"-X c #C78858",
";X c #D08E55",
":X c #CD9158",
">X c #D39357",
",X c #C99649",
"<X c #DEAC53",
"1X c #D3A951",
"2X c #D5AD4C",
"3X c #E3B947",
"4X c #CD9A70",
"5X c #D9A264",
"6X c #CCAA7C",
"7X c #9ACD17",
"8X c #34549C",
"9X c #2F539D",
"0X c #3FA2B5",
"qX c #6BB4B4",
"wX c #00BAFE",
"eX c #4FC9EA",
"rX c #9E9184",
"tX c #9B948E",
"yX c #A49382",
"uX c #AA9581",
"iX c #AD9A83",
"pX c #AA9C88",
"aX c #B29D84",
"sX c #B09F8A",
"dX c #A29289",
"fX c #B6A186",
"gX c #BAA386",
"hX c #B5A48A",
"jX c #BAA58A",
"kX c #BDA98C",
"lX c #B4A88E",
"zX c #B9AA92",
"xX c #B2AC8D",
"cX c #8599AA",
"vX c #C8AC89",
"bX c #D5B48B",
"nX c #D0B087",
"mX c #C1AE92",
"MX c #C4B294",
"NX c #C6B79B",
"BX c #DAB993",
"VX c #D4A281",
"CX c #C9BEA3",
"ZX c #A6C7AD",
"AX c #E3C79B",
"SX c #D2C4A5",
"DX c #EDD3AB",
"FX c #FFE6BD",
"GX c #FCE7BC",
"HX c #F6E28E",
"JX c #BEC9DF",
"KX c #FEF1DE",
"LX c #FEEDCE",
"PX c #FFFFFF",
"IX c #E9F3EB",
"UX c #CCCCCB",
/* pixels */
": 6 p l z d ) -.-.o.{ h % : #.&.*.c.b.&.o.o.o.o.X.1 : j c.NXmXfXaXaXaXiXfXaXaXiXiXuX@.: f ~ ^ ~ E z l b 3.g.g.N.#X&X&XN.N.N.&X#X#XN.N.B.N.j.3.s ~ ^ ` c d u 7 6 ",
"x ~ ( ~ E d 8 j +.2 1 ; 8 d 8 y j &.x.O.+.+. .} 2 & 6 : ;.NXkXiXOXiXiXOXaXaXOXiXuX&.o.1 u x _ / 2._ / W d 1.B.B.N.#XN.N.N.N.N.N.B.N.N.i.1.n w c / / / ^ ^ ~ ~ W ",
"4.2.~ z y.x.g 8 8 8 d c ^ ^ W l 0 6 j j h 2 1 : 7 p s 8 T uXmXaXiXiXaXaXaXaXiXiX:.o.| 1 y d W d f f l W W k q.g.N.j.N.N.N.B.k.N.N.g.<.d s x ~ / <./ ^ ^ ^ ^ c / ",
"4./ c ) SXaXuX;.s f W ~ _ 4./ ~ ~ k u : $.}. XT d c W l a y.hXmXjXhXhXfXpXoX}.n.o.o.3 & y f g lXzXlXsX.Xg d ^ N.k.j.B.k.B.j.j.j.q.k d c ~ ~ x E / / E E z k k ^ ",
"<.~ d c.MXaXiXuX.XT f W ~ ` <.^ l '  XMXmXkXsXyX&.u f x w %.y.m.x.:.*.&.#.O.O.&.o.} & 6 p s pXjXaXaXuXyX&.8 d p.N.N.B.B.j.g.j.5.s l ` z ^ 9.k.&X*X#XN.N.B.k.2.~ ",
"^ x g |.zXzXiXuXuXn.6 x W ^ ^ f -.SXMXmXkXjXiX}..XO.8 f l j =.*.#.#.O.O.O.O.O.O.X.2 ; y w }.jXfXaXaXuXoX}.: p 1.B.B.B.j.j.g.4.s ) aXu.9.=X$X$X*X*X#X#XN.B.g.<.z ",
"~ d x.XX{.}.|.|.}.n.1 p ~ <.~ s c.v.hXMXmXXXuXpXyX*.> s x 0 T $.O.O.O.O.O.+.+.X.{ ; 7 w ;.lXgXfXaXiXiXyXrX2 y w q.N.j.j.g.q.d c c %.9.*X&X:Xk.#X*X#XN.N.N.g.3.k ",
"c s {.y. XzXkXaXoX.Xh 7 c / ( g v.-.y.{.uXkXhXhXrXo.; p x x s y i i i i i 1 1 1 6 u s p hXjXkXkXjXOXXXuXyXO.6 s z a.g.k.j.<.l ~ z 5.=Xh.].z.h.h.#XN.N.N.j.f.6.d ",
"k $.=.=.x.|.hXlXiX.XX.: x ~ ^ p O.&.=.-.m.aXkXyXo.| ; a R Q Q Q R R R R R R R R Q g g $.pXxXOXOXb.XXOXOXXX>.* u f 1.e.6.b k c d 9.=X=X=X#X=X*X$XN.N.j.j.g.p.3.8 ",
"f $.$.v.y.=.y.x.v.o.{ : x ~ ~ x 8 y $.$.=.=.=. . .{ & P L L D.L.L.L.K.L.K.L.L.L.M m m H L L R ! ! <.s.s.s..X; u f c z d l x ~ l.=X=X=X=X=X*X*X#XN.j.g.j.i.1.k l ",
"l p T =.=.&.=.-.&. .2 6 W z ^ W d s 6 j $.*.&.} } 1 6 P J L D.L.L.L.L.L.L.K.L.L.M m m H L L R ! ! 7.s.s.s.:.2 y g c W ^ ' ~ #X=X*X*X=X*X$X#XN.j.j.j.6.v k c ~ ~ ",
"w d s u j +.&.*.&.} 1 p ~ / ;X&Xj.E f e > h h 4 > 7 g P L L D.L.L.L.L.L.K.S.S.S.M N N H C.C.] ! ! 7.s.s.s.X.h 6 s f c ^ ^ l 1.8.g.*X#X#X#X#Xk.B.N.f.^ d ~ ~ l x ",
" X#.s d s 8 y j j 1 8 W ~ 5.$XN.N.] N N V L L L L.L.L.F.L.L.L.L.K.L.L.L.A.m m m S.K.L.W.Q.Q./.<X<X<X<X<X<Xs.s.w.f g c ~ ^ ~ x l v 1.8.p.B.N.B.B.q.l d c l f v.lX",
"oXyX=.u d l l k d f ^ / ~ 9.*X#XN.R m N V L J L K.L.L.L.L.L.L.L.K.K.L.L.A.m m m S.K.L.W.Q.Q./.<X<X<X<X<X<Xs.s.s.f d x k ~ 5.9.W x z k k r b 3.6.^ l c s -.lXgXaX",
"oXoX|.n.T p l c W ~ <.<.z d.*X#XN.] m m V L L L L.L.L.L.L.L.L.L.L.L.L.L.A.m m m S.L.F.W.Q.Q./.<X<X<X<X<X<Xs.w.s.x f i.#X=X$X&X#Xq./ l c W W c c W c T pXlXgXsXaX",
"oXoX|.|..X&.7 f c ~ 4.2.l *XR A A G H H P S.S.S.L.L.L.L.L.L.L.L.L.G.C C C S.S.S.@X1X1X3X3X3X/.!.!.!.!.!.!.1X1X1Xs.s.s.#X=Xk.].6.N.N.h.5.c W ~ ^ ~ s lXmXjXXX{.aX",
"uXuXyX|.&.X.2 d ~ / 4./ ~ ;XA m m S L L C.L.L.L.L.L.K.L.L.K.L.K.K.D m m C L.L.L.1X<X<X<X<X<X/.Q.Q.Q.Q.Q.Q.<X<X<X'.s.s.'.*XN.j.k.N.k.k.N.k.z ~ ~ l -.MXMXkXfXaXgX",
"iXuXyX&.| h ; s ~ ^ 2./ ^ B.A m m S L L C.L.L.L.L.L.L.L.K.L.L.L.L.D m m C L.L.L.1X<X<X<X<X<X/.Q.Q.Q.Q.Q.Q.<X<X<X'.s.s.'.=X*X&X#XN.B.k.k.j.2.W ^ d c.y.uXMXmXjXkX",
"|. X:.{ 3 & 8 x ^ ` 2.2.^ z A m m S L L C.L.L.L.K.L.L.L.K.L.L.L.L.D m m C L.L.K.E.~.~.~.~.~./.(.(.(.(.(.(.~.~.~.E.E.E.T.'.d.'.=X=X*XN.k.j.i.l ^ f #.=.$.=.OXOXOX",
"O.o.{ 4 & u x W z z ^ <.4.4.A m m S L L C.L.L.L.L.L.L.L.L.L.L.L.L.D m m C L.L.K.^.Q.Q.Q.Q.Q./.<X<X<X<X<X<XQ.Q.Q.Q.Q.Q.T.s.s.'.;X=X*XN.N.j.g.~ ~ ~ s y h +.$.#.#.",
"h 2 ; 6 d l l 5.d.f.~ ~ 2.4.A m m S L L C.L.L.L.L.L.L.L.L.L.L.K.L.D m m C L.L.K.^.Q.Q.Q.Q.Q./.<X<X<X<X<X<XQ.Q.Q.Q.Q.Q.T.s.s.'.>X=X*X#XN.j.g.6.x ^ ^ x 0 : 1 h h ",
"s s w l / i.&X#X#X#X&XA A A C G G K L L C.L.L.S.F F F F F F A.L.L.D m m C L.L.K._.(.(.!.Q.Q._.'.'.'.9.9.w.(.(.(.!.Q.Q.T.s.s.'.>X=X;X=X&XB.j.p.l ^ _ ~ z l w 8 8 ",
"9.i.l.#XN.#X#X#X#X&X#XN m m H J L L L L Z.L.L.S.m m m m m m D L.L.D m m C L.L.L.1X<X<X~.Q.Q.R.s.s.9.! U ! <X<X<X!.Q.Q.T.s.s.'.=X*X*X&X&XN.g.p.z / ~ ^ 9.q.f.h.l.",
"N.#X=X#X#X&X*X=X*X#X#XN m m H L L L L L C.K.L.S.m m m m m m D L.L.D m m C L.L.L.1X<X<X~.Q.Q.R.s.s.9.! ! ! <X<X<X!.Q.Q.T.s.s.'.>X#X#XN.k.j.f.6.c ^ / >X$X$XN.N.N.",
"g.*X=X=X=X*X>X'.` Q Q N m m H L L L L L C.D.D.D.D D D D D D D D D D D D G.7X7X7X2X<X<XR.R.R.2X+X+X+Xd.z.z.w.w.w.)././.,Xs.s.l.N.#X&Xk.j.f.f.6.~ ^ 9.=X=X=X=X$XN.",
"#X*X$X*X*X*X>Xt.      m m m H L L L L J L L L L L.L.L.L.L.L.F m m F L.L.I.Q.Q.Q.3X<X<X'.s.s.+XbXbXbXbXbXnX! ! ! ,X<X<X'.s.s.'.5X5X-Xd.q.i.p.3.~ ~ d.;X=X=X;X=X*X",
"#X#X$X;X=X=X>Xt.      = m m H L L L L L L L L L L.L.L.L.K.L.F m m F L.L.I.Q.Q.Q.3X<X<X'.s.s.+XbXbXbXbXbXnX! ! ! ,X<X<X'.s.s.d.i.f.i.t.i.j.f.3.W z d.=X:X*X=X;X=X",
"=X#X=X-X:Xt.&Xt.      m m m K J L L L L L L L L S.S.S.A.A.A.C m m F S.S.P.Q.Q.Q.3X<X<X].[.[.6XAXAXBXbXbXnX0 0 0 w.%X%X'.d.'.'.*X&X&X&XN.f.j.6.l z d.=Xj.k.*X=X*X",
"N.*X*Xh.i.l.:Xt.      m m m H L L L L L L L L L J J L M m m m m m V L L H.Q.Q.Q.3X<X<X6XbXbXDXFXFXDXbXbXnX      q U U 6.#X#Xk.#X#X#XN.k.j.j.i.d z i.*X=X*X*X*X#X",
"N.*X*X=X=X=X=Xt.      m m m H L L L L L L L L L J J J M m m m m m V L L H.Q.Q.Q.3X<X<X6XbXbXDXFXFXDXbXbXnX      r U U z ^ j.N.j.N.N.k.k.k.l.p.s z q.*X*X&X#X#XN.",
"N.N.#X&X&XN.&X9.      m m m H L L L L L J L L L K H H B M M M m m C Z.Z.J.^.^.^.3X3X3X6XBXBXAXSXSXBX6X6X6X      l ( t ~ x 1.6.l j.j.j.j.g.j.f.d z 6.N.N.N.N.N.B.",
"6.q.k.N.#XN.N.5.      m m m H L L L L L L L L K m m m P L L V m m ] <X<X1Xs.s.w.!.Q.Q.HXFXFX>.    @ ! b b       t.j.6.l W c ~ z 1.8.p.g.g.p.f.k W 1.N.V.j.q.6.8.",
"s k k v z 8.B.6.      m m m K L L L L L J J J P m m m J L L V m m ] <X<X1Xs.s.s.!.Q.Q.HXFXFX>.    @ ! ! t       t.g.f.z x ~ ^ W d s k b 1.q.i.z ^ b 6.^ z l d w ",
"x x x W x k 1.^       m m m H L J L J L L L L P N N N P P P C N N ] <X<X1Xs.s.s.!.Q.Q.HXFXFX>.. . @ ~ ~ E       t.f.b d c k ' c.=.' s d s s k z ^ ~ ~ ^ ~ z d ) ",
"g %.8 d W ^ c v 3.p.V.      G L L V m m m M m A FXFXFXGXGXGXAXbXbX[.U U 7.<X<X<Xw.w.w.AXFXFXKXPXPXJX8X8X8XbXbXbX$     6 Q  XNXkXhXaXiXv.#.8 f ~ <.2./ ^ d $.oXMX",
"lXaX}.a 8 x ^ ~ l b e.      V L L V m m m m m A FXFXFXFXFXFXAXbXbX].! ! 7.<X<X<X'.s.s.AXFXFXKXPXPXJX9X9X8XbXbXbX$     : CXmXkXjXfXoX|.}.rX-.7 x ~ ^ ^ Q pXNXkXgX",
"aXiXiXrX$.u f ~ ^ z z       G L L V m m m m m A FXFXFXFXFXFXAXbXbX].! ! 7.<X<X<X'.s.s.AXFXFXKXPXPXJX9X9X8XbXbXbX$     1 v.b.{.uXuXsXiX Xm..Xh 7 x W x {.NXmXkXgX",
"aXiXuXyXrX>.y d W ^ ~       G L L V m m = . . O ].].].GXFXFXGXGXGX6X! ! r.!.!.!.7./ / BXFXFXKXPXPXJX9X9X8XbXbXbX$     ; x.=.mXkXsXaXiXuXm.@.X.; s c s uX XgXkXkX",
"iXiX X{.|.rXn.i d W `       G L L V m m =     X s.s.s.DXFXFXFXFXFX6X! ! r.Q.Q.Q.Y ! ! BXFXFXKXPXPXJX8X9X8XbXbXbX$     # -.*.}.MXzXlXyX:.X.} { ; d x $.m.b.b.mXfX",
"aXpXoXyXyXn.:.i u f W       G L L V m m -     X s.s.s.DXFXFXFXFXFX6X! ! r.Q.Q.Q.Y U ! BXFXFXKXPXPXJX9X9X8XbXbXbX$     > a $.&.=.|.*.o.o.| h & u ^ q %.v.y.y.hXMX",
"aXaXsXrX&.{ } & y f W       m V V - o o .       > > > +X4X4XqXeXeXqX'.'.T.Q.Q.Q.1.U U BXFXFXLXLXLXDXtXtXtXa a a a s s x d a &.#.x.O.} } 3 & 8 ` ` d j y.*.y.c.pX",
"aXsX:.o.} 3 1 : s W u.      = m m o                   9.s.s.0XwXwXqX<X<X3XQ.Q.Q.Y U ! BXFXFXFXFXFXDXbXbXnX      f k z W x s 7 1 &.X.{ 2 : u c _ _ x 8 T $.-.v.=.",
"}.O.o.} 3 & i %.$.) W       = m m o                   9.s.s.0XwXwXqX<X<X3XQ.Q.Q.Y ! ! BXFXFXFXFXFXDXbXbXnX      i.#Xf.9.<.x w 8 7 1 ; 7 d c / ^ ) f d 8 1 $.x.x.",
"&.+.X.2 & 7 lXzXhX|.s : # h - o o 4 4 4 R Y.Y.Y.;.;.;.a e e [ ....U././.).Y.Y.Y.[.[.[.bXAXAXAXAXAXgXT T T       6.N.#X#X#X#Xf.6.` q f W ~ ^ ~ {.lX}.T d q i -.-.",
"O.} 1 ; 6 |.MXhXpX}.a l 8 $.+     2 +.X.0.Q.Q.!.bXbXbX+           ] Q.Q.E.U U U nXbXbXbXbXbXbXbXbXb.            d.:X:X*X#XN.k.j.k.l.5.k ~ ^ x hXlXsX:.: d f u T ",
"X.4 : 8 ;.MXkXjXyXn.i 8 s : X     4 X.h ] Q.Q.!.bXbXbX+           ] Q.Q.E.U U U nXbXbXbXbXbXbXbXbXb.            z.=X=X*X&XN.k.k.N.k.k.f.z W ) :.x.v.@.1 p x c z ",
"; 7 w ) MXkXjXkXhX@.2 6 d w @ O $ 4 1 : r Y.Y.Y.u.u.u.+ o o .     ] ~.~.R.9 9 9 `.`.`.`.`.`.u.u.u.$.< < < @ @ @ ' 5.4.d.N.h.:Xl.h.B.B.j.z x j *.&.&.o.; u x ~ ` ",
"f l s zXkXkXkXhX&.| 1 T y.y.%.g 6 6 7 $.>.            = m m o     R <X<X'.      = m m m m m o     < ......! ! ! X     _ j.t.i.z.6.k.j.q.k W f u a h 1 7 f ^ _ _ ",
"W W 8 uXMXMXlX&.X.h O.MXkXhXfX:.p d ;.CXc.            = m m o     R <X<X'.      = m m m m m o     < ......! ! b X     ' h.k.k.h.q.g.6.d W W c x f f x ~ ` ^ ~ c ",
"c c s #.m.sX&.X.{ 1 v.kXfXiXuXO.6 8  XzX{., , $       , A A o     R @X@X[.      B V B B B B = o o 5 [ [ [ 0 q q > % % ' i.d.k.j.g.<.d W ^ _ _ / ^ ` ~ W f g s s ",
"x x l 8 #.&.O.{ 4 # x.lXkXiXuXi 6 a b.oXOXaXaX|.      r ! ! #     Z K.L.A.      P L L L J J L J L V             d.*X*X#Xk.k.j.j.<.f ~ ^ ^ ^ ~ x s g ' -.{.pXn.a ",
"a d f d u j } 1 : : -.=.c.v.&.; : a }.kXhXfXfXXX      r ! ! #     Z L.L.A.      P L L L J L J J L V             d.*XN.k.k.j.g.q.d ~ ~ 2.x %.x. XhXMXlXOXyXyXn.@.",
"yX-.g s s s s s d 8 T &.*.&.X.# : a  XoXoXoXoX}.. .   q r r > + + A S.S.A.. . . P L L L J J C.Z.Z.F o o o       d.*XN.N.k.j.a.b x ~ _ ~ y.NXkXaXuXoX|.iXuXoX@.3 ",
"yXyXyXv.T w k E W l 8 j #.#.2 & : O             m m m       tXPXPXZXJ L D U U ! P L L L L L 7XQ.Q.W.L.L.H.      d.&X#XN.g.g.i.l ~ ~ _ s xXkXgXfXiXOXuXyXoX&.2 -.",
"OXyXoXoX|.&.8 f c W l s u a y s s O             m m m .     tXPXPXZXL L D ! ! ! P L L L L L 7XQ.Q.W.L.L.H.      i.#XN.k.j.g.q.k ` ` W #.SXgXfXaXOXuXuX Xo.2 .XjX",
"uXuXyXyX|.|.>.y s x W ^ ~ W W W l O             m m m .     tXPXPXZXL L D ! ! ! P L L L L L 7XQ.Q.W.L.L.H.      i.N.N.k.j.p.6.l 2._ s c.hXmXaXaXaXiX}.{ 1 |.jXgX",
"}.}.}.m.}.n.n.&.7 l ~ ^ ~ z @ . . 9 r r 9             q r r @.,.,.cXIXIXUX. . . Q E E E E E ] Z.Z.D.L.L.H.      . X X X X X X . . . . . X c.hXkXaX>.{ 1 j kXgXaX",
"OXXX|.|.|.|..X&.1 s W W k d.#     9 ! ! 0             r U ! @.....cXPXPXUX      r ! ! ! ! ! R L L C.L.K.H.                                $.$.c.&.{ 1 % c.gXaXaX",
"oXyX|.m.:.&.o.{ 2 u x c 9.#X#     9 U ! 0             r ! ! @.....cXPXPXUX      r ! ! U U U I L L Z.L.L.H.                                &.*.=.X.2 % a lXaXaXaX",
":.#.o.} } { 3 4 1 s l X % # 0 q q r ! ! 0     O MXMXMX/ ! ! W ) ) T 3 3 3 G G G J.J.J.J.J.J.H.S.S.D.C.C.P       9 q q q q q q q q 8       j $.&.2 & : ;.aXaXaXiX",
"{ h h 2 1 ; : u d f 9.      q ! U U ! ! 0     + FXFXFX4.! U ! ! ! 9     o L L L F.L.L.L.L.L.L.L.L.S.L L P       r ! ! ! ! ! ! ! ! r       s u y 6 u s a $.x.&.O.",
"6 6 8 s d f x x x z.=X      q U U ! ! ! 0     + FXFXFX4.! U ! ! ! 9     o L L L F.L.L.L.L.L.L.L.L.D.L L P       r ! ! ! ! ! ! ! ! r       W W c W W W l s 7 6 : ",
"W ~ ^ ~ W l ~ 9.*X=X*X      q ! ! l s s :     . T +.+.6XnXnX' @ @ , V V S D.D.D.L.L.L.D.Z.Z.C - = - - - - % % # p s s z ! ! ! ! ! r       ~ ~ W z x l l k l k d ",
"W ^ ^ W 5.l.;X=X*X#X#X      q ! ! s 8 8 &             DXFXFX$.    - L L C.K.K.L.L.L.L.C.J L =             u u 8 8 u 8 l ! ! ! ! ! r       c l q.q.i.p.i.6.5.~ d ",
"z ~ W :X*X*X=X=X=X$X=X      q U U s u u &             DXFXFX$.    - L L C.L.L.L.L.L.L.C.L J =             u u u u u u l ! ! b U ! r       d l b 6.6.p.p.p.q.q.3.",
"z l '.;X$X=X:X;X>X;X:X      8 k k 0 u u &       # # g v.c.c.4     o B B B A A A A A A Z B B , > > #       u u u u u 8 s k k w > > 6 T T T T d l 0 3.p.p.p.e.q.^ ",
"k d.$X$X*X=X=X=X&X=X&X      : u 8 u u u &     . 9.=X=XO                                     7 4.5.f       u u u u u u u u u %     + aXiXuXuX=.s d 1.p.p.p.i.6.s ",
"^ $X#X#X#X*X*X*X*Xh.].      : u u 8 8 u *     X =X>X=XO                                     : <.4.d       u u u u u u u u 8 %     + aXaXuXuX.XO.u k 6.6.6.6.d c ",
"p 1.B.B.N.#X#X#X*X*X&Xy 7 7 ; % % % % % # @ > s ;X;X:XT a # 7 7 7 7 7 a a y : 7 7 > : : : : d z ^ x # # # % % % % % % % % % ; 2 2 T aXaXuX}.c.@.; u f d d k c W ",
"u s l 6.8.8.q.g.$X*X*X#X#XN.#           X q *X;X=X$X5X].5.h.:X;X:X:X5X5X5X5X].i.N.#XN.N.l.f.l.6.l _ _ _ /                   i gXfXaXaXiX}.b.>.| 1 u f c W c z f ",
"a 7 f f l l l b B.*X&XN.N.N.#           X E =X=X=Xi.6.5.*X=X;X>X>X5X5X5X5X5X].6.N.N.N.k.k.j.j.q.d ^ ^ _ ^                   2 aXaXaXiXiXuX}.X.{ 1 u l W d d y.jX",
"c.*.u ) ` ~ ^ W 1.#XN.N.k.j.y @ @ @ @ @ # 5.*X*X=X=X*X=X=X;X*X*X>X>X>X>X5X:X` f.N.N.k.l.k.j.g.<.l ~ ^ c z # X X X O + O + + +.iX|.aXaXiX|.@.| 4 6 s c d %.hXvXvX",
"OXXXc.$.g s z ~ z q.k.j.j.g.j.p.q.6.1.v l 3.B.#X*X$X#X*X=X;Xh.$X;X=X&Xd.i.5.i.N.N.N.k.B.g.g.q.q c z ( d.&XN.6.W z ) =.$.y.*.*.v.}.|.oXn.o.| 2 : u x d v.MXvXkXvX",
"uXuXoX|.|.&.8 c ~ b 8.8.6.1.v k d d l c ^ b 1.N.#X$X$X$X$X*X=X*X*X*X&X#XN.N.N.N.k.j.l.f.g.g.b l l d.$Xk.j.f.k.5.l d T O.&.&.*.*.&.&.#.O.o.h ; u x c T MXkXgXgXgX",
"uXuXoXyX|.>.& d ~ ^ z l c x x -.) k z ~ ^ / z 3.B.#XN.N.N.#X*X#X#XN.N.N.j.B.N.B.k.k.t.9.g.p.d l 4.*XN.k.N.N.N.j.<.l s u a j +.#.O.O.+.+.h ; s W ~ s  XmXaXOXgXgX",
"XXoXyX|.}.X.1 u ^ _ / ` ^ E ;.zX|.-.g d c ( / c 1.e.p.i.e.q.q.a.N.N.N.B.B.B.B.j.j.g.f.g.g.^ s i.#XN.N.N.N.B.N.k.j.^ x z l d p u y y y 6 8 k ^ ^ ~ T v.uXfXXXgXgX",
"}.oX|.|.&.3 & s ^ ~ ^ ~ ^ k }.NXuXyXrX-.j s c ^ ^ z z l l k k k b 6.a.p.g.B.B.j.j.j.g.j.1.d 5.$XN.N.N.B.B.B.B.B.j.j.q.^ x W c x l l k d k l W ^ ^ s $.-.oXgXaXaX",
"oXoXyXv.{ & 8 ) x x ` f l 8 |.oXaXiXyX|..X-.j d z ^ ^ ^ c ) f l W d v v z b 3.8.p.j.p.^ s ` #XN.N.N.N.N.B.N.&X-X-X-X-X-Xh.t.%.u.5.i.&X&XV.k.6.` 5.` u T lXzXkXaX",
"}.:.O.} 1 : T NXzXOXv.T 8 y c.=.x.}.uXuXyX|..X:.T l ^ z pXlXuXy.) d l c ~ ^ W z z b r l c 6.B.B.N.N.N.N.N.N.:X4XVXVX4X6X4XVX4X4X4X4X4X4X4X4X+Xy.b.u.M.x.rXlXzXhX",
"+.} h 1 * 8 %.b.{.}. Xn.: > -.*.-.=.y.-.uX|..X.Xn.y l f lXjXaXoXuX}.-.$.Q z ^ ~ ~ ~ ~ ~ W k b e.B.N.N.N.N.N.N.V.&XN.N.N.V.V.N.N.N.V.N.N.j.p.2.g ` _ _ c #.$.&.*."
};
