/* XPM */
static char *b9dc4e70cb9a4e03d8844a2661d9c47cw17Ip3iUkugQ5UiE[] = {
/* columns rows colors chars-per-pixel */
"80 80 255 2 ",
"   c #0C0A0A",
".  c #130D0C",
"X  c #1A0E0D",
"o  c #16110E",
"O  c #1C120E",
"+  c #120E12",
"@  c #151213",
"#  c #1B1414",
"$  c #1D141A",
"%  c #1C191B",
"&  c #2B170C",
"*  c #221412",
"=  c #2B1B14",
"-  c #231B1B",
";  c #271818",
":  c #331D15",
">  c #391F15",
",  c #2C231B",
"<  c #3C2216",
"1  c #362419",
"2  c #3C241A",
"3  c #1D1927",
"4  c #171F39",
"5  c #231B23",
"6  c #291B24",
"7  c #241C2B",
"8  c #2B1D2C",
"9  c #331E26",
"0  c #271E32",
"q  c #341F35",
"w  c #1C2123",
"e  c #2A2428",
"r  c #372628",
"t  c #39322B",
"y  c #2C2233",
"u  c #292536",
"i  c #332433",
"p  c #372837",
"a  c #3B2C33",
"s  c #3C2B3B",
"d  c #2E3235",
"f  c #393538",
"g  c #451E19",
"h  c #4A2617",
"j  c #43261B",
"k  c #452A1C",
"l  c #4C2B1D",
"z  c #522D1D",
"x  c #582A18",
"c  c #4C3015",
"v  c #57321E",
"b  c #6E341C",
"n  c #4C2D21",
"m  c #452A29",
"M  c #532F21",
"N  c #552D28",
"B  c #473628",
"V  c #543222",
"C  c #5C3523",
"Z  c #5D3925",
"A  c #57392A",
"S  c #442B34",
"D  c #4A2A36",
"F  c #44273C",
"G  c #432A3C",
"H  c #522D36",
"J  c #473638",
"K  c #593737",
"L  c #53333B",
"P  c #643525",
"I  c #633A26",
"U  c #6A3D25",
"Y  c #653C29",
"T  c #6A3E29",
"R  c #743A24",
"E  c #643A37",
"W  c #3B423D",
"Q  c #5A4C1D",
"!  c #6C4D1B",
"~  c #4E4C2D",
"^  c #554828",
"/  c #4B4538",
"(  c #564638",
")  c #674528",
"_  c #6C412A",
"`  c #77462A",
"'  c #73442C",
"]  c #75492D",
"[  c #7B492E",
"{  c #705727",
"}  c #674437",
"|  c #7C4C31",
" . c #774938",
".. c #695737",
"X. c #785637",
"o. c #766C31",
"O. c #786738",
"+. c #303246",
"@. c #373946",
"#. c #373956",
"$. c #353B65",
"%. c #442A41",
"&. c #443A44",
"*. c #4B3D45",
"=. c #473A48",
"-. c #583943",
";. c #623B42",
":. c #413A6A",
">. c #324552",
",. c #3A495A",
"<. c #354F6E",
"1. c #37617E",
"2. c #4A4448",
"3. c #574648",
"4. c #585449",
"5. c #4A4A53",
"6. c #564B54",
"7. c #4D5659",
"8. c #575658",
"9. c #664948",
"0. c #744B45",
"q. c #68564B",
"w. c #7B5646",
"e. c #684D51",
"r. c #695855",
"t. c #645F5C",
"y. c #745C56",
"u. c #706645",
"i. c #6C6356",
"p. c #796459",
"a. c #4F546A",
"s. c #576774",
"d. c #696869",
"f. c #786A63",
"g. c #747275",
"h. c #883F26",
"j. c #925D1E",
"k. c #87492A",
"l. c #944A29",
"z. c #865927",
"x. c #94552C",
"c. c #824E31",
"v. c #8B4D31",
"b. c #845132",
"n. c #885738",
"m. c #965937",
"M. c #A55630",
"N. c #976A29",
"B. c #8F712F",
"V. c #876A38",
"C. c #966539",
"Z. c #897235",
"A. c #A9663D",
"S. c #B16C3A",
"D. c #865746",
"F. c #8A5A4B",
"G. c #916B4E",
"H. c #836A5D",
"J. c #AB6A43",
"K. c #B46D44",
"L. c #B76F47",
"P. c #A97245",
"I. c #B57245",
"U. c #BB7346",
"Y. c #B77749",
"T. c #BC7549",
"R. c #BE7A4B",
"E. c #A77857",
"W. c #B07654",
"Q. c #855F62",
"!. c #877167",
"~. c #897667",
"^. c #967A68",
"/. c #A67967",
"(. c #C27747",
"). c #C37D4C",
"_. c #C47E51",
"`. c #948835",
"'. c #A39D30",
"]. c #948949",
"[. c #BB8656",
"{. c #B28953",
"}. c #8F8373",
"|. c #978877",
" X c #9D8C7C",
".X c #B68D69",
"XX c #A28E7B",
"oX c #A3917E",
"OX c #AA957E",
"+X c #C5824E",
"@X c #C9834E",
"#X c #CD8A4F",
"$X c #C68351",
"%X c #CA8551",
"&X c #CD8B53",
"*X c #C58A59",
"=X c #D18D54",
"-X c #D08E59",
";X c #CA9158",
":X c #D29256",
">X c #D4945A",
",X c #D99A5C",
"<X c #C7936B",
"1X c #D99D64",
"2X c #E19F62",
"3X c #DAA466",
"4X c #DEAD73",
"5X c #E4AF73",
"6X c #385C87",
"7X c #38638C",
"8X c #3A63A3",
"9X c #4D6A8D",
"0X c #737888",
"qX c #4D6DAD",
"wX c #5066A3",
"eX c #5577CA",
"rX c #5C7BE4",
"tX c #817D86",
"yX c #758794",
"uX c #7590AE",
"iX c #7296DB",
"pX c #6492F0",
"aX c #908E8E",
"sX c #9D9184",
"dX c #A49382",
"fX c #AA9681",
"gX c #AD9A83",
"hX c #A99A89",
"jX c #B29D84",
"kX c #B79D86",
"lX c #A99D91",
"zX c #B6A288",
"xX c #BBA58A",
"cX c #BEA98C",
"vX c #B3AA92",
"bX c #BAAB94",
"nX c #8D99AC",
"mX c #94A5B0",
"MX c #ABADB0",
"NX c #C1AC8D",
"BX c #CEAF8F",
"VX c #C5B497",
"CX c #E7B690",
"ZX c #CBB9A3",
"AX c #E8BBA2",
"SX c #D6CAAF",
"DX c #DFCEAA",
"FX c #94ABCB",
"GX c #ACBBC7",
"HX c #C1BCCB",
"JX c #B6C8CF",
"KX c #AFC7E8",
"LX c #D2D3D0",
"PX c #E3DFCB",
"IX c #EFEFF0",
/* pixels */
"2 j n T U C q.y.p.*.&.&.: 2 9.r.y. X^.6.3.3.2.2.2.* 2 : p.VXNXjXjXjXjXjXzXjXjXgXfXfX6.2 C ' ` ' T I v b h.>X).).).@X%X%X).).%X@X+X).).).R.).R.C ' | [ T C M j 2 ",
"_ [ [ ' ' C l 3.4.J ; : l V M & 3.9.p.3.3.3.2.*.J : k < p.ZXcXgXOXOXOXXXjXjXgXgXgX3.2.* n Z b.b.c.c.[ ] v l.).).).).@X).).).).).R.).T.$Xb P h T [ c.| [ [ ` ` ' ",
"b.b.` Y ( hXh z V l V ' c.] ` I z < 3.*.J a e O : n M l p.zXNXgXfXgXjXjXgXjXgXgX6.3.=.O = , j < < k Y ` _ C S.T.).I.).).).).T.).R.).b z M T ' c.| [ [ [ [ [ C ` ",
"b.` _ k SXgXfXf.z C _ ' ` c.b.] ' I V < & g.8.e O V ' I < H.SXcXzXzXjXjXzXzXvXlX3.*.i O r 1 1 B k t 4.f.j I v.1X&XS.).).T.T.T.T._.h P T ' ` U _ I v z V C C C [ ",
"b.' C |.bXjXfXdXdX: I _ ' ' c.[ I k PXVXNXq.6.lXe O C T v ~.H.}.e.e.e.e.3.3.3.r.J e . * } ) { o.z.c : e / j V S.).).).(.U.U.U.v.M I C _ Z *X@X@X&X+X).).R.T.R ` ",
"` T < 4.xXbXgXfXdXsXj Y _ ` c.P hXVXVXBXcXi.r aXf   = C Y : q.q.e.e.3.3.3.e.3.r # < c ! | ) { N.N.j.! < : o 2 x.&X).T.T.T.U.v.V C SX^.;X%X%X%X%X%X@X).).T.T.m.U ",
"' C bX^.^.|.y.q.~.sX= V ' b.' h ~.~.SXNXNX~.e a f 7   2 I z y.9.3.e.3.3.3.3.r   j z.N.{.Z.[ ' N.N.N.{.F.) < . k M.T.T.T.U.T.C _ Y w.G.%X+XCX).@X%X+X).).T.U.m.I ",
"T h ~.!.PXVXxXjXdX X. l _ [ c.> ~.9.H.( ZX}.- a HXaXe * Y _ v : r J J J S r . 6 Y N.N.{.SX.Xw.X.N.A.ZX{.{ ) , * x %XU.U.R.k.U U U x &XI.1X[.k.Y.+X).).T.T.K.l.C ",
"I q.H.H.!.jXVXbXvXlX8.j I ' | z y.3.p.J H.p.r 2.6.@.e O I | Y _ Z C C C C j X H T N.N.N..XSX.XX.G.BX.XC.N.{ ) . k l.R.k.x C _ C C.&X&X-X&X&X&X$X).).T.T.U.K.k.j ",
"I H.3.!.H.p.p.p.!.2.2.2 T ' ' I z = p.e.p.4.# @ e g.&.@ l | ' _ ` b.b.[ [ < r E Y ' z.N.N.N.N.z.X.C.N.z.x.z.w.r * Y C C I T V ,X&X&X&X&X&X%X%X).).T.U.U.$XR h T ",
"U l B p.p.q.p.p.f.2.*.j ' I v C P V > ( f.y.e.5 e MX7.$ 2 ` ` b.b.b.b.b.U = 9 E P ] ) z.N.j.j.z.E ' C.+X<X) { ( O j _ [ G.x -X@X%X%X&X%X%X+X).).R.T.I.R l ' ` ' ",
"z C C 2 3.3.y.y.y.*.= V ' z %X).).z I C : / 3.-   5.mXd = ' c.b.| [ C < X X /.BXCXn.{ ! ! z.j.{ B H I [.1XX.n S - 1 T ` ' P k.M.-X@X@X+X@X$XI.).).).R C ] ' I z ",
"dX: V C C j : J 3.; n ' ' h @X).).).v I C V M V . @.nXd % = n I > B = t ..S | F.m.CX.XX.) Y V m r r A U N.N.( 9 . M _ ' ` ` _ I x h.l.%X+X).R.R.k.x C _ U C dXzX",
"oXoXp.n C Y T P C I ` c._ C.%X+X+XT.I.v BXV I _ O e *.r J m , X.^ 1 X.V.N.4.f 0.m.' n..X0.H E L K H m E z.N.{ n O V Y I C x >Xz _ T I z x b b l.R I _ C 1 zXzXjX",
"oXoX X|.: V I T T ` c.b._ 2X@X@XU.).).g y.H.Z ` * 7 ;.m 0.K n n.^ A V.! ) S 5.r  . .'  .C ] | L K w.H B ! B.{ m O A 3X&X%X+X).).%Xx T _ _ ' _ _ ` _ l SXcXzXjXjX",
"oXoXXX X X}.k I Y _ b.b.U ,X@Xx.).).R.m.M I | ` O 5 w.S S = ) P.Z 1 Y ) ^ r 5 S m m } N ! z.X.*.+.-.L r ) B.) 2 # 4X&X%X&XT.<X| ).).).[ C _ ' | ' V VXcXxX}.H.jX",
"fXoX XsX2.*.*.M ' | b.| v =X%X).).).K.` Y b.b.V . r 0.6 6 r n.[...9 H r r 1 * 6 A } m N ` C.^.aX0X#.L E ) z.Y = ) ).U.@X@X+X).).).*X).).T.h ' ' I hXDXNXxXxXzXzX",
"gXfXdXJ *.&.< V ` | b.[ x S.-X).).%X).C [ c.` O ; 0.H o   - C P.V @ # . * A A 1 - B J Z C.C..XZXbX^.^.F.A } E O n.Y.D.&X&X%X+X).).).T.T.T.v.' ` C ^.H.PXBXNXxXzX",
"zXhX~.&.&.= n C ' ` b.c.` C k.R P x z Y [ ' l k ; 0.S o . 5 O k = * ; $ - 6 2 , . p m ] {.W.<XCXCXCXCX.Xm } K , W.n.&X:X@X1X1X,X1X+X+XR.T.I.C ` Y r.p.3.r.cXVXcX",
"3.3.=.f : l _ ' T T ` c.v.b.[ [ [ ` [ [ [ C 3XV ; ;.S - # $ # # r H H S e i - 5 r L H _ N.E..X4X1X1X<XF., r r n U :X>X,X:X>X>X-X>X$X).).T.U.v ` ' V = 2.q.f.e.3.",
"&.J = j Z Y C c &X+XC | c.b.| b.c.| | | ` z ,XX.# ;.S e = @ 6 q S -.9.K m r J r N E H _ z.n.[.;XR.W.X.= ) A A P.>X>X>X>X>X>X>X:X&XS.S.%XT.U.K.T [ ` U V j * 3.2.",
"V C C v g >X+X+X%X+X+X*XC ' ' [ c.b.[ | | P &XI.= r L 6 1 = $ u #.5.e.} E K A ..A 0.r } b.E G.<X<XF.N X A.Y.Y.-X>X:X3X>X:X>X:X-X&X&X&X$XT.T.K.h ` [ ' T I V z z ",
"*X%X).).@X+X+X$X+X+X$X+X$X[.h C T ' ' ` [ I ,X@X2 - K 6 n ) % $.qXiXnXd.w.n._ E ..K a L K S L 0.D.0.H @ R ,X-X:X-X&X:X:X:X-X-X&X&X%X%X+X).U.K.I [ ' x C.>X%X).).",
").+X&X+X+X+X%X&X%X+X%X%X%X&X&X&X&X&X[.C ` I =X-Xk 5 K 8 2 B 4 8XpXpXiX0X9.D.E.E.S K L H J y i 6 9 S 8 * I M.,X%X&X-X&X&X&X&X@X3X+X$X).R.U.I.K.' [ x =X%X@X@X).).",
"_.&X&X&X&X&X&X:X1XR.).$X$X%X%X%X@Xx.+XS.I T M.&Xk 5 -.7 . % <.eXpXpXqX9X#.K F.F.r d.~ ( S i i -   $ # k ' _ l.%X%X@X&X&X%X@X@X+X&X&X$XT.I.I.J.' [ k.=X&X&X&X$X).",
"@X%X&X+X$X%X:X>X,X,X,X-XA.$XR.+X+X+X+XR.l ` C (.k 5 D f $.eXpXpXpXrXqX6X+.e y u @.aXf / } K H S # . V ;Xx ' R M.-X%X%X%X%X).5X3X3XR.J.I.I.K.J.` ' 1X-X&X&X&X&X%X",
"+X@X%X:X:X-X:X>X,X,X,X>X-X&X+X).+X+X).U.x ` ' l.1 @.a.iXpXpXpXpXpXeX8X6X+.u K S W 2.g.J { V.D.} r n P.%XR.h ' I x %X%X%X%X+XR.Y.x.R J.R.T.I.m.' _ 2X&X5X&X&X&X&X",
">X+X&XR.4XG.>X>X>X,X,X>X>X&X%X+XR.R.T.R.J._ ' = % HXKXKXiXpXpXeXeX8X6X>.@.u J J f >.d./ ^ O.u.9.a # n.P.| V = : : z x.Y.+X%X%X@X$X$X_.).R.Y.U.T U ,X&XI.$X%X&X%X",
"_.%X&XJ.W.&X>X&X:X&X-X&X-X&X%X).T.J.T.R.J.z V # d.=.@.9XKXFXeXeX8X7X1.>.@.u *.-.f 5.7.d./ B 4.r.f @ k 2 # 6 r r 9 * * j | P.$X%X$X+X).R.).R.U.P T ,X%X%X%X%X&X%X",
").&X%X&X&X&X&X&X&X&X&X&X&X$X).R.).).T.R.R C k - J ( t >.6XuXuXwX7X1.>.@.#.+.%.;.G tXd.2.8.W 8.2.3 + # a L K L K E E H S ; n n.Y.S.).).R.T.T.K.V U &X@X%X%X%X+X).",
").).+X$X).$X%X+X%X$X$X+X_.R.R.).).R.&Xb n ` 2 , F.G.../ @.<.s.9X<.$.+.#.a.+.p L %.d.t.5.f >.>.d e 7 S L D %.%.D K 0.0.w.9.r : : I.T.T.U.U.T.K.M _ P.+XR.).).).).",
"l.I.+X+X$X_.+XU.).$X+X).).R.).).R.R.x V P  .& X.{.B.V.~ f +.a.9X<.#.@.,.<.@.u -.9.f d.g.2.t.2.e 0 s G F F F F G G F D E D. .m = x K.U.U.I.K.K.V ' b ).).)._.l.A.",
"C v h P P M.(.).+X).).).R.U.U.T.R.z T ` j 2 ..{.B.Z.../ f u #.<.#.+.,.<.#.p p 0.0.S f t.t.5.d e p %.G %.p i i q i s F H F.E.n.N * < l R R J.J.x ' x l.R v I C V ",
"_ I T ' T z k.M.(.).).R.m.R R.T.b _ [ ] < 1 w.] V.G.^ J s u +.@.u p +.+.p D -.L S L J f *.i y y p G p i y 7 7 7 7 q p G -.G.E.n.M O < C I C n.I ` ' ` [ ' U P z ",
"l : n C ' ` Y h l.).).).).R.R.U.V ] ' _ = H G.E.] _ ( J p 7 3 0 u u s J L %.s e 7 J L S D S y 7 7 y y y q p p p i 8 8 i p -.!.E.n.N t }.2 l I [ b.c.[ ` P < SXbX",
"bXjXdX: l _ [ ` C h.S.).).R.R.U.M ' _ V * S w.G.E.E.} S y 5   7 #.#.+.%.s p d d d p G G G p 0 7 8 8 7 u p F G G F s q 7 0 s -.^.G. .* i.sXsXk Y ' | ` v SXVXxXzX",
"zXgXgXsXi.j Z _ [ _ x M.+X).T.v _ C p.}.O r E n. .F.^.m i 8 @ 5 #.:.$.<.>.>.@.#.f f u u u y 7 7 i F p p p F s G F F p f p i F -.D.D.n - f.|.6.l T _ ' lXSXNXzXzX",
"gXgXfXdXsXsX2 C ' ] ' I k.P V Y < lXNX}.r m  .n.T E K J u 7 @ @ +.$.<.1.6X<.<.a.,.#.d d d y 7 8 i a J H D S p F F p &.t.5.0 i G 9.n. .* q.2.2.: V _ C vX|.zXcXcX",
"gXgX^.}.dX X|.= C C V Z _ T I < LXNXcX^.r H w. .E H D i y y u r 9.9.=.a.<.<.<.<.,.#.J K 3.p 0 p s f J D H H K 9.y u @.t.*.e y %.H 0.D.m % *.&.2 V _ < ^.^.|.SXcX",
"jXjXfXoXhXsXsX; =   @   < z i.bXNXxXcX~.r H _ E E S p 5.s s u G E  ./.kX!.y.LXDX}.w.D.w.} S e s J / / J J ;.F.H r.H S p s q q +.D 0.F.m # =.= k [ C  X~.H.}.ZXNX",
"jXjXhXVX3.=.*.*   aXIX5.. ~.NXcXxXxXXXH.r H D.} E S u d.8.0 s D L E T T I Y p.c k P Y Y K / @.%.J ~ ~ / J F.H a <X.XK @.s 8 3 y S E E 9 @ ; n | | C : H.y.|.^.SX",
"jXbX4.3.*.2.f = @ aXd.J t r oXzXxX|.jX~.r H Y P H 7 @.u u y s f f D L E Y Z ].].m Z K E L +.>.@.d a t t S D.S 7 N D.X.<X.X3.7 i D K E 9 . n Y c.[ T l p.r.!.!.!.",
"hX3.3.*.s = 1 j . d 5.s J # e i.XXzXzXf.r }  .Y S u t.t.8.%.@.a.9Xs.=.L K K O.B D A L S p +.<.<.+.8 e i F L u 0 m n.v.F.} e 3 i G K E 9 X T | [ Z Y C l & p.H.!.",
"3.3.2.&.: > SXbXi.e $ 8 a L 9 6 t f.t % J /..XX.r u a *.=.s ,.0XmXFX9X=.f @...O.u.a +.u >.6XqX7X<.@.u y q q 0 u r ' [.E.w.i 3 y G K E 6 * ' ` SXgXdXk C C & p.p.",
"3.2.a < j PXNXxXgXi.X $ 5 S -.L r @ + 8 D H K ^.A -./ 8.6.&.8.4.W 0XnX9X,.>.f t >.>.,.<.9XqXwX6X6X<.@.S S S u e H A  .} S y 0 p G H D * 2 ] V VXzXgXd.< C I k e.",
"3.a j l 1 cXNXxXvX|.r 1 O $ i S J i p K K G F S L ;.s 7.d &.4.^ ^ 7.GXyX1.<.@.@.,.,.<.wXqX9X<.9XqX9X<.4.t G 0 e D } ^.F.G u u p D H ; ; h ` k p.r.y.r.= M I _ U ",
"= k C j bXcXxXcXxXf *.j l = # 5 8 p -. .E D %.D L 0 s.MXd e B { o.i.nXmX9X6X>.@.+.+.#.a.a.>.7XwXuXmXs.u.o...r e f f i r p p +.%.-.H * ) x T B r.r.r.6.= n T _ | ",
"I Y V bXcXcXcXbX3.2.X k A A < = # 5 G F.D.K D E S 2.g.aX% $ B { B.o.4.JXuX7X<.,.<.<.wXuXnXwXwX7XuXmXd.O.`.`.o.{ / 2.p p D G F F G 6 = J.C I C : J J = k Z _ b.| ",
"_ n.l bXVXNXVX3.2.J & NXxXzXzXg.2 ; 5 -././.0.K 5.2.d e   e B o.'.`.u.mXKX9X9X6X6X7XGXwXnXuXuXyXmXs.u.Z.B.B.`.Z.o./ a G G F G G i - _ h _ T I z C C I [ | ' ` _ ",
"T _ C p.p.ZX3.*.&.e jXcXNXzXfX6.j : r 8 e.0.2.4.5.p d e   t ^ `.'.'.o.s.LXJX9X1.6X7XnXmXyXJXmXmX0X4.O.Z.B.B.B.Z.`.O.t s F G G i - > n ' ` c.[ [ [ [ [ T I C C C ",
"Y T I k r.r.3.&.f = p.VXxXgXfX6 j : / e S J 5.2.s J 2.2.f J { `.'.'.o.8.JXJXnXyXuXuXnXJXyXLXGXyXt.O.Z.Z.B.Z.B.B.Z.Z...s G s 8 ; > V ' ` [ [ ' Y C z 2 B VXbX X= ",
"l C I C n 3.3.= < > p.y.p.i.6.& 2 & B J 5 2.2.s s 6.8.8.4.4...o.`.'.`.u.yXGXGXGXGXGXFXuXa.s.s.5.4.u.Z.Z.o.O.o.`.B.Z.q.f p 8 ; Z k ' ' b.T j ~.SXVXxXzXzXq.gX}.J ",
"dX^.l C C V C C P n 4.r.p.y.3.: 2 B gX/ d &.s s G G 6.r.8.4.4.....`.'.Q ,.,.,.,.,.,.,.>.#.+.+.s J ( ....O.`.`.`.Z.`.O.t $ = ' x _ ' ` ' k VXBXcX~.( ZXfXoXXX6.a ",
"dXdXdXbXj C I _ _ Y h 3.e.e.*.2 j p./ d 2.d p G G G %.2.d.d.8.i.d.4.u.{ / t o o . .   % @ . 5 s s J q.u.Z.B.{ ! ].Z.o.t r n.A. ._ ' b.C PXcXzXjXgXfXdXdXoX2.J / ",
"dXdXoXoXsXf.l C T Y Y C l = 2 l V B d 5.f +   $ 8 s s G G *.0XaXd.d.f.~ ~ t # h z PXVXZXhX~.t   e / ^ Q c c ^ ].! Z.V.~ 2 m.T.C ' | ] : SXxXzXjXfXfXdXgXa e PXzX",
"fXdXdXXX X X~.2 V C _ [ ' _ _ ' C X 3 i $ - t e     3 s F G s 8.aX0Xd.d.2.f @ l PXVXH.jXgXdXoXi.. e a B ~ o.o.Q Z.Z.V.~ j m.J.C c.[ z gXVXxXOXjXjXgXhX&.$ SXzXzX",
"( bXdXhX( |.}.g.k Y ' ` ` T x I T < # + - r J J $   f p s G G s 2.g.nXyXg.d.e # / vXVXcXzXgXdXdX}.  - / u.! Q Z.Z.o.Q B 1 b.A.V ' ` 2 ~.~.~.VXzXjX!.*.e o xXzXjX",
"OX X X X X X|.g.= V _ T U ,XR.W.I Y k : : : : O @ a ~ / t a F G G G 6.aXMXyXg.d e e y.zXzXzXgXzXoX~.- e ^ O.Z.V.O.^ ~ B r 2 c.h _ ' : ~.q.p.( H.3.*.; > SXzXjXgX",
"XXXXdXhXf.3.*.J *.n _ _ P.U.K.U.Y.C I C j 1 / = J f ~ ) Z.u.S a S G %.6.tXnXyXg.g.>.% J }.OXgXdXoXdXf # B O.O.Q ^ ^ ^ ..} 1 > x ` ` C : r.y.y.p.*.&.: = zXjXjXgX",
"r.3.*.*.*.&.&.f : z Y x +X).).I.I.J.Z SXgX/ ; w.} B ^ { Z.].O.~ J p F G G 8.0XMXmXmX7.f t q.^. X~.3.*.% r E V.V.X.w.C.{.G.r : Y ` | [ Y < 3.r.p.J : 2 ~.zXzXjXgX",
"J *.G a * = j n C Z C.+X%X%X).R.T.c.z vXi.e m <X| B ^ Z.V.o.Z.O./ e i p F F G 0XnXMXLXMXg.>.f t J 2.=.5 B  .E.E.[.[.E.E 9.r 2 [ b.[ ` ` _ P l : j n V 2 9. X3.L ",
"2 j n V V Y I T v 3X&X@X%X$X$XR.I.R h H./ r K G.E.m / ..{ ^ ^ B e 5 - 5 8 F F %.6.0XLXLXJXaX7.d % e 5 . m P | | D.D.0.S H r 2 [ b.c.| | [ ` _ _ _ _ _ Y C k 2 : ",
"' ` | ' ' U z [.&X&X&X@X$X@X$XR.T.J.j ( - r E E Q.H B J ~ ^ B , t a a e # - p %.f J d.d.0XMXJXMXd.e # . ; E D.F.F.D.K 9 H 6 k ] ` ' ' ] ` [ ` ' _ U I I P I P C ",
"' [ ` Y x 1X%X%X-X$X+XR.%XR.+X+XT.I.j - 6 r L H i r K K } ( m - 3.*.*.= j : $ 5 f d f f 6.MXIXIXLXaX2.d @ S -.-.-.-.p * ; = Z U B SX^.C _ ' C ).U.Y.U.K.K.Y.h M ",
"Y ' M :X&X@X&X&X&X&X%X%X%X$X).).R.K._ ; r 8 e e 3 3 L E.G.K = j V V C Y _ I & n % 3 f f f 8.g.MXLXLXMXmXg.&.7 7 8 8 e @ O l Y 2 VXzXzXhXk I U x m.m.K.K.K.M.S.A.",
"_ C 3X=X@X&X&X:X:X:X&X&X>X-X&X+X).J.n r D i 7 0 7 3 D 0.A n G.:X*Xm.` k.A.Y.).J.| k @ % d f f 5.aXMXLXIXIXMXy u 0 0 5 $ ; V M 1 vX~.gX^.oX& C I l x.K.K.K.S.A.R ",
"I 3X@X@X%X&X%X&X%X&X&X%X&X%X%X%X+XC.n m S y u 0 0 5 6 # 2 C.+X&X@X&X&X&X&X%X@XR.I.C.b.O @ e d d 2.6.r.lXIXIXMXu 0 8 5 % 1 l B  XxXzXjXjXfXdXsXV C v.K.K.K.J.J.V ",
"x +X@X+X@X@X%X%X%X*X1X*X@X$X$X+XP.V ; m a y u u 3   2 n.Y.+X%X%X@X&X&X&X&X$X+X).).).Y.J.n.# + w d f &.*.g.aXIXu 7 8 6 X l ( cXxXzXjXjXgXfXfX|.6.n M A.K.I.K.h _ ",
"V b #X).(.).+X@X%X@X%X%X%X+X+X). .; D H p 0 3 3   n.I.5X5XW.P.&X&X&X&X5X3Xx.+X).).).).R.Y.S.> O   3 7 7 8 y d u y s r < B SXxXzXzXjXjXjXfX X!.=.: n Z C V I ' ' ",
"n C z M.A.A.).=X=X%X%X+X$X+X).I.h 6 H G y u 7 . X.#X4XI.0.&X:X-X:X&X3X3X3X1X*XT.).).).).R.K.U.W.2 O .   3 +.G S S S r t sXkXzXzXzXjXjXgXH.H.sX2.* n Y I _ U T C ",
": k Z I Y T I x >X%X+X).).).A.*XA ; F i 0 3 + n.+Xh.m.n.&X&X:X:X,X3X3X3X1X1X3XP.).).).).R.R.T.T.M ' ` 2 6 F E K K K H ; - t q.|.jXjXgXfXfXhX2.&.= n I  .C C & cX",
"p. Xj X.^.' ` ' l.@X).R.R.R.I.| - 8 F D S r * ] +X&X&X&X&X&X{.Y.[.[.[.[.[.*X_ J.P.P.J.J.J.A.A.U P _ [ : r -.;.D D H E K m m ; J r. X|.|. X6.&.- m V _ C < VXNXNX",
"gXXX|.r l C T ` I l.J.m.n.m.n.2 5 p D  .G.G.} ; ] @X@X&X&XP.1 ; = = = = ; # = = = = = ; = = = X = C z X.= H r S F D E E  .F.D.9 # - - e e a p 2 n _ Z lXNXNXNXNX",
"fXfXoX XsXsXn Y ` x n - # X : - f i D E G./.D.N = +X@X@X@XC.= - - - - e r 9 : : e e # # # # # # # G.+X) r H J i 0 8 H E D.E.G.E r e i J @ @ % = ) _ < BXNXxXxXxX",
"fXfXoXXX XsX: C ] j - / 5 # < O @ e y a L K L L # ).).).+XY.n.) Y Y Z ) ) ) ) ) ) z k k Z Z : < & Y.).C.j ; - i 7 e a m H K E K *   $ 3 i e / , Z z fXcXxXxXzXxX",
"XXfXoX X X*.* n [ = / t . . # t @ 5 8 r J K S a * M.%X).)._._.+X).).).%X).).R.R.T.T.I.I.K.b P 3X).).&X(.C.] Z , , - r S J K K L $   + 7 i r / t C > !.SXcX!.zXzX",
"^.oX X X2.&.: l ` k t - r @ # @ - t t e # * * ; k T C C Z I I C R l.).).).R.(.T.T.T.T.U.R v b #X@X).).).).).T.m.| Y n $ - - - $ # # 5 t 5 e t l T z i.p.xXzXjXjX",
"oXoXdXdX&.* j C I z V 2 A r ~.p.q.~.~.i.i.r.= k I [ [ ` _ C C I X. .x C C b h.U.).U.%XP C z ).).).).).).).).).).T.I.C.n.n.> H.J > F.X.n.] b.C.) ` Y l ( cXzXzXjX",
"bX3.3.*.e 2 V PXcXhXoX1 l < H.p.H.!.}.fXsXdX|.}.< I ` _ PXxXgXdXl I Y _ ' [ ' U I b h U _ M.+X).).).).).).).%XDX*XAXR.W.BXR.AXBX(.W.W.(.DXW.AXZXD.w.Y < p.H.SXjX",
"3.3.G a : h } ^.~.i.lXdX2 < y.p.p.y.H.f.VX X|.|.}.< Y V PXzXjXOXOXsXsX< V Y ` ' ' ' ' ' ' v k.M.).).).).).).).).).).).).).).(.(.(.(.(.(.(.S.l.C ` [ [ I y.q.q.q."
};
