/* XPM */
static char *_1f52f7434ea4dc79c4b1f29e17c2501[] = {
/* columns rows colors chars-per-pixel */
"80 80 256 2 ",
"   c #000000",
".  c #0A0806",
"X  c #140D09",
"o  c #071908",
"O  c #1D120C",
"+  c #15100B",
"@  c #1B1714",
"#  c #091117",
"$  c #26160E",
"%  c #2C1B14",
"&  c #251813",
"*  c #331E18",
"=  c #092508",
"-  c #0B360B",
";  c #092C12",
":  c #103214",
">  c #35231B",
",  c #3C231A",
"<  c #392618",
"1  c #2A2C12",
"2  c #372827",
"3  c #3A3329",
"4  c #3B2D32",
"5  c #3C3239",
"6  c #2D2425",
"7  c #122433",
"8  c #42261C",
"9  c #44291D",
"0  c #4B2B1E",
"q  c #432814",
"w  c #542E1E",
"e  c #54311E",
"r  c #5C341D",
"t  c #46371E",
"y  c #65381E",
"u  c #442C22",
"i  c #4B2A20",
"p  c #442B24",
"a  c #522F20",
"s  c #5A2F21",
"d  c #4A3326",
"f  c #543322",
"g  c #5B3422",
"h  c #5E3925",
"j  c #573929",
"k  c #463738",
"l  c #553D34",
"z  c #402F35",
"x  c #623623",
"c  c #643A25",
"v  c #6B3C26",
"b  c #653C29",
"n  c #6B3E29",
"m  c #6B3622",
"M  c #743C25",
"N  c #602F20",
"B  c #0D420C",
"V  c #0E490F",
"C  c #194612",
"Z  c #0E5417",
"A  c #195913",
"S  c #0E4713",
"D  c #0F641D",
"F  c #1B6416",
"G  c #27711A",
"H  c #315528",
"J  c #0F6A22",
"K  c #116C22",
"L  c #0F7B29",
"P  c #0F7725",
"I  c #107B29",
"U  c #117A27",
"Y  c #2E6B28",
"T  c #23551D",
"R  c #4B500F",
"E  c #72401F",
"W  c #735B1D",
"Q  c #5A4538",
"!  c #4E5127",
"~  c #6C4324",
"^  c #6D412A",
"/  c #654429",
"(  c #734120",
")  c #73442C",
"_  c #7A462C",
"`  c #7B4A2E",
"'  c #77482D",
"]  c #674836",
"[  c #7C4B31",
"{  c #754932",
"}  c #7A5435",
"|  c #6A5629",
" . c #4B742F",
".. c #6A6F1C",
"X. c #21354D",
"o. c #4B3D45",
"O. c #453A44",
"+. c #513F4B",
"@. c #315273",
"#. c #4D4149",
"$. c #53434B",
"%. c #5C4B4C",
"&. c #574646",
"*. c #5A5051",
"=. c #624D47",
"-. c #685549",
";. c #695855",
":. c #725C55",
">. c #735948",
",. c #5E7040",
"<. c #7B6459",
"1. c #786658",
"2. c #726656",
"3. c #796B65",
"4. c #7B7469",
"5. c #83591D",
"6. c #824C2E",
"7. c #864829",
"8. c #834E31",
"9. c #895635",
"0. c #985937",
"q. c #8D532D",
"w. c #A25C38",
"e. c #A4562F",
"r. c #99653C",
"t. c #896939",
"y. c #A8653D",
"u. c #A8743D",
"i. c #946E1C",
"p. c #836B5C",
"a. c #9B7355",
"s. c #936C4D",
"d. c #A96B43",
"f. c #B46D43",
"g. c #B96E43",
"h. c #A47C41",
"j. c #AB7545",
"k. c #B47246",
"l. c #BA7446",
"z. c #BC7549",
"x. c #BE7A4A",
"c. c #B67749",
"v. c #B07B53",
"b. c #836E62",
"n. c #897767",
"m. c #917C6A",
"M. c #897C73",
"N. c #917F71",
"B. c #8E6853",
"V. c #C37C4C",
"C. c #C17849",
"Z. c #C47E51",
"A. c #2E801E",
"S. c #31861F",
"D. c #1B8428",
"F. c #228A2A",
"G. c #248826",
"H. c #368C23",
"J. c #3A9926",
"K. c #368D2D",
"L. c #47942A",
"P. c #41A326",
"I. c #41A328",
"U. c #729F29",
"Y. c #6E8963",
"T. c #7DC01B",
"R. c #B09416",
"E. c #B39136",
"W. c #8EA537",
"Q. c #87823E",
"!. c #D3BE20",
"~. c #C6AE29",
"^. c #C9B01B",
"/. c #AED712",
"(. c #9AC221",
"). c #D4CB14",
"_. c #EDE80B",
"`. c #FFFF00",
"'. c #FAF40B",
"]. c #F2EC12",
"[. c #EED62A",
"{. c #F8EE32",
"}. c #E7DD12",
"|. c #AB8447",
" X c #B78646",
".X c #B68A51",
"XX c #95826D",
"oX c #948474",
"OX c #9D8C7C",
"+X c #988777",
"@X c #908C76",
"#X c #A18D7A",
"$X c #A4927E",
"%X c #A9957C",
"&X c #BB9C78",
"*X c #AD8C6B",
"=X c #B3AB7C",
"-X c #A39B5C",
";X c #C5824E",
":X c #C9844E",
">X c #CB884F",
",X c #C58351",
"<X c #CA8551",
"1X c #CC8A53",
"2X c #C88858",
"3X c #D18E55",
"4X c #CE9158",
"5X c #D39559",
"6X c #C99849",
"7X c #DEAC53",
"8X c #D6A651",
"9X c #D1AB4D",
"0X c #C59868",
"qX c #D19A73",
"wX c #C7A67B",
"eX c #D7A465",
"rX c #E1B24F",
"tX c #31539D",
"yX c #375191",
"uX c #58699A",
"iX c #02B9FC",
"pX c #7CAA85",
"aX c #9A8E81",
"sX c #A49382",
"dX c #AA9681",
"fX c #AD9A83",
"gX c #A89A88",
"hX c #B29D84",
"jX c #B09F8A",
"kX c #A48F81",
"lX c #92B097",
"zX c #B5A48B",
"xX c #BBA58B",
"cX c #BDA98C",
"vX c #B8A386",
"bX c #BAAB92",
"nX c #B4A88D",
"mX c #A9A9A9",
"MX c #C5AB89",
"NX c #D5B48B",
"BX c #C2AE91",
"VX c #C4B294",
"CX c #C8B79A",
"ZX c #DCBC94",
"AX c #D0A885",
"SX c #CABFA1",
"DX c #E8D3A9",
"FX c #E7CEA8",
"GX c #FFE6BD",
"HX c #D4C5A4",
"JX c #CDD6D0",
"KX c #FDEAC9",
"LX c #FFFFFF",
"PX c #F3F4F8",
"IX c #F0F0E7",
"UX c #9FC8A8",
/* pixels */
", 8 a c v g ] 1.1.$.O.k * , =.;.:.m.m.;.$.$.$.$.#.2 , l m.CXMXvXhXhXhXfXvXhXhXfXfXdX*., h ) _ ) ~ v x M q.l.l.V.:X,X,XV.V.V.,X:X;XV.V.C.V.x.q.f ) _ { n g i 9 8 ",
"b ) _ ) ~ g 0 l &.4 2 > 0 g 0 u l ;.b.%.&.&.o.o.4 * 8 , 2.CXxXfX%XfXfX%XhXhXfXfXdX;.$.2 i c [ [ 8.[ ` ^ g 7.C.C.V.V.V.V.V.;XV.V.C.V.V.d.7.N w n ` ` ` _ _ ) ) ^ ",
"8.8.) v p.b.j 0 0 0 g n _ _ ^ c w 9 l l k 4 4 , 9 a f 0 Q dXBXhXfXfXhXhXhXhXfXfX3.$.o.2 u j ^ g h h c ^ ^ x y.l.C.z.V.V.V.C.x.V.C.l.6.s f b ) ` 8.` _ _ _ _ n ` ",
"9.` n ] SXhXdX2.f h ^ ) [ 8.` ) ) x i , -.oX+XQ g n ^ c d p.zXbXxXzXzXzXfX$XoXM.$.$.5 > i h j nXbXnXjX+Xj h _ V.x.l.C.x.z.z.z.z.y.x g n ) ) b ~ ` ` ~ ~ v x x _ ",
"6.) g n.VXhXfXdX+XQ h ^ ) ' 6._ c ] +XVXBXcXhXsX;.i h b e >.p.oX3.3.:.;.=.%.%.;.$.o.> 8 i f gXxXhXhXdXsX;.0 g f.V.V.C.C.z.l.z.9.f x { v _ r.x.,X<X;XV.V.C.x.8.) ",
"_ b j OXbXbXfXdXdXM.8 c ^ _ _ h <.HXVXBXMXxXfXoXoX%.0 h c l <.:.=.;.%.%.%.%.%.%.#.4 > u e oXxXvXhXhXdX$XoX, a 7.C.C.z.z.z.l.9.f ] hXa.r.1X:X:X<X<X:X;XV.C.l.6.v ",
") g b.#XXXoXOXOXoXM.2 a ) 6.) f n.n.zXVXMX*X|.*XB.{ r H Y T H H H H L. . .L. . . .Y  .H Y Y.hXhXhXfXfXsXaX3 u e y.V.z.z.l.y.g n n >.r.<X,X0Xx.;X<X;XV.V.C.l.q.x ",
"n f XXp.+XbXcXhX$XoXk 9 n ` _ j n.1.p.XX%Xh.h.h.( ( ( G I I Z B B G I.I.I.I.I.I.P.P.I.I I L hXcXxX%X#XdXsX%.8 f v g.l.z.z.6.c ) v 9.1Xc..Xv.c.c.:XV.V.C.z.k.q.s ",
"x -.<.<.b.OXzXxXgXoX#.8 c ) _ a &.;.<.1.m.h.h.h.( ( E G I I Z B B G I.I.I.P.I.I.I.I.I.I I I vXfX#XdXfXdXsX4.* i c 7.y.0.M x n g r.1X1X1X;X1X<X:XV.V.C.z.l.k.7.0 ",
"h -.-.n.p.<.<.b.b.$.O., b ) ) b 0 d >.>.B. X X Xi.i.i.L.L.L.G A A G H.H.J.I.I.P.I.P.P.D.D.D.@X$X%X@X@X@XY.4.1 u h n v g c b ) v.1X1X1X1X<X<X<X;XV.z.l.z.d.6.x c ",
"c i Q <.<.;.<.1.;.#.4 8 ^ v _ ^ g ^ h.h.|.7X7X7X'.`.`.`.`.`.T.I.I.G B B F P.I.I.I.I.I.P.I.I.I.I.I.D.I I Z B B 1 g n ^ _ } ( ;X1X<X<X1X<X:X;XV.z.z.z.0.m x n ) ^ ",
"e g f d l &.;.:.;.o.2 f ) ` 3X,Xx.} h.h.|.7X7X7X'.`.`.`.`.`.T.I.I.G B B F I.I.I.P.I.I.I.I.I.P.P.P.D.I L Z B B 1 f h ^ _ _ c 7.e.l.<X:X:X:X;Xx.C.V.k._ g ) ) c b ",
"+X=.f g f 0 p l l 2 i ^ ) 9.:XV.V.c.h.h.|.7X7X7X'.`.`.`.`.`.T.P.I.G B B F P.P.I.I.P.I.I.I.I.I.I.P.D.L L Z B B 1 f j n ) _ ) b x m 7.w.f.C.V.C.C.y.x g n c h n.zX",
"$XsX1.i g c c x g c ) ` ) r. Xh.h.E._.'._.'.'.'.E.E.E.9XrXrX9X9X9XW.J.J.G V V F I.I.I.I.I.I.I.I.P.P.P.J.D.P P Z B C 1 x ) 9.r.^ b v x x y M q.0._ c n f <.xXvXhX",
"$X$XOXM.Q a c n ^ _ 6.6.v j. Xh.h.E.`.`.`.`.`.`.E.h.h.8X7X7X7X7X7XW.I.I.A.B B A I.I.I.I.I.I.I.I.I.P.P.I.F.I L D B B ! ;X1X;X,X;Xy.` c n ^ ^ n n ^ n Q fXcXvXhXhX",
"$X$XOXOX+X;.9 h n ) 8.` c >X Xh.h.E.`.`.`.`.`.`.E.h.h.8X7X7X7X7X7XW.I.I.A.B B A I.I.P.I.I.I.I.I.I.I.P.I.F.I I D B B ! <X<Xx..X0.V.V.c.9.n ^ ) _ ) f zXMXxX#XoXhX",
"dXdXsXOX;.#.4 g ) [ 8.9.t. XE.).).).~.~.~.[.[.[.|.h.h.[.[.[.[.[.[.(.I.I.A.B B A I.I.I.I.I.I.P.I.I.I.I.I.F.I I D B B ! ;X<XV.l.x.V.x.x.V.x.v ) ) c <.VXVXcXvXhXvX",
"fXdXsX;.o.k > f ) _ 8.r.h.h.~.`.`.}.h.h.|.7X7X7Xh.h.h._.`.`.`.`.`./.I.I.A.B B A I.I.I.I.I.I.I.I.I.I.I.I.F.I L D B B C ;X<X<X,X;XV.C.x.x.z.8.^ _ g m.p.sXVXBXxXxX",
"OX+X3.O.5 * 0 b ) ' 8.r.h.h.~.`.`.}.h.h.|.7X7X7Xh.h.u._.`.`.`.`.`./.I.I.A.B B A I.I.I.I.P.I.I.I.I.I.I.I.F.I I D B B ! 3X3X3X4X1X1X<XC.x.z.d.c _ h =.<.-.1.$X$X$X",
"&.$.O.2 * i b ^ v v _ t.r.r.~.`.`.}. X X X6X6X6Xh.h.h._.`.`._._._.(.I.I.A.B B A I.P.I.H.H.H.H.H.H.J.I.P.F.I I J Z Z ! |.|.|.3X1X4X<XV.x.z.l.) ) ) f p k &.-.=.=.",
"k 4 > 8 g c c 9.j.k.) ( E ( R.`.`.].7X7X6XM ( M h.h.h._.`.`.~.h.h.U.I.I.A.B B A I.I.I.B B B B B B H.I.I.F.L I I I I J B B H 3X3X1X<X;XV.z.l.0.b _ _ b w , 2 k k ",
"f f e c ` d.,X;X;X;X;Xq.( ( R.`.`.].7X7X6X( ( ( h.h.h._.`.`.~.h.h.U.I.I.A.B B A I.I.P.B B B B B B H.I.I.F.L I I I I J B B H 3X3X1X1X1X,XC.z.f.c _ [ ) v c e 0 0 ",
"r.d.c.;XV.;X;X;X;X;X,X0.( ( R.`.`.].7X7X6X( E M h.h.h._.`.`.~.u.u.U.I.P.A.B B A P.I.I.B B B B B B H.I.I.F.I L I I I J B B H 3X1X<X<X,X,XV.l.d.v ` ) _ t.y.k.c.c.",
"V.:X1X;X;X,X<X1X<X;X;XV.x.x.u.5.5.5.6.6.9.wXwXwXAXAXAX XE.E.|.h.h.~._._./.J.J.S.V V V J.J.J.J.J.J.D.D.D.I I L I I I J B B - O O O ,XV.x.z.l.0.n _ ` 3X:X:XV.V.V.",
"c.<X1X1X1X1X4X3X4X1X<X;X,X<Xy.( E ( ( ( 6.NXNXNXNXNXNX|.h.h.h.h.h.!.`.`./.P.I.H.B B V I.I.I.I.I.I.D.I I I I L I I I J B B -       .Xx.z.k.k.0.) _ r.1X1X1X1X:XV.",
";X<X:X<X<X1X3X5X5X5X5X5X;X;Xy.( ( ( ( ( 8.NXNXNXNXNXNX|.h.h.h.h.h.!.`.`./.I.I.H.B B V I.I.I.I.I.I.D.I L L I I I I I J B B -       2Xj.d.d.f.0.) ) j.3X1X3X1X<X<X",
";X:X:X3X1X1X3X5X5X5X5X5X4X1Xy.( ( y % % u NXNXNXDXDXDXwX0X0X!.).).!.~.~.W.F.F.D.D D D G G G G.F.F.I L I I I I I I I J B B -       d.r.d.z.f.0.n v j.1X4X<X1X1X1X",
"<X;X1X2X0Xs.,X5X5X5X5X5X4X4Xd.( E e     @ NXNXNXGXGXGXZXNXNX{.`.`.!.h.h.,.I I I I I I B B B P I I I I I I I I I I I J B B -       ,X;XV.l.z.0.c v j.1Xl.x.<X1X<X",
"V.<X<Xc.d.v.4X5X5X1X3X3X4X1Xd.( ( e     @ NXNXNXGXGXGXZXNXNX{.`.`.).h.h.,.I I I I I U B B B P I I I I I I I L I I I J B B -       ,XV.x.z.x.d.g v d.<X1X<X<X<X;X",
"V.<X<X1X1X1X1X1X1X1X1X1X1X,Xd.6.6.x     @ &X&X&XBXVXVXZXZXZX{.`.`.).h.h.Q.K.L.K.J K J Z V Z J K K U I I I L I I I I J B B -       V.x.x.x.z.f.f v y.<X<X<X:X;XV.",
"V.V.;X,X,XV.;X:X<X<X<X,XV.x.x.V.V.9.    . ( ( ( .     CXGXGX{.`.`.!.h.h. X7X7X XB B V I I I V B B K I I L I I I I I J B B -       z.z.z.z.z.k.g v 0.V.V.V.V.V.C.",
"0.y.x.;X;XV.V.C.V.,X,XV.V.x.V.V.C.9.    X ( ( ( .     CXGXGX{.`.`.!.h.h. X7X7X XB B V I I L V B B K I I I I I I I I J B B -       w.f.l.l.f.k.x ^ 6.V.Z.z.y.0.w.",
"f g x m M w.C.;XV.V.V.x.x.x.k.z.f.0     X ( E M .     CXGXGX{.`.`.!.h.h. X7X7X XB B B I I L V B B K L I I I L I I I J B B -       s x M 7.y.d.v _ M q._ m c g w ",
"b b b ^ b x 7.y.C.C.V.l.y.k.{ X X 2 &X&X%XyXyXyXJXIXJXKXGXGXeXE.E.6X8X8X X6.6.t.&X&X=XDXDXDXFXFXDXY V V D I I I I I J B B -       ] g g f g x v _ ) ) _ ) v g ] ",
"j >.0 g ^ _ v m q.g.V.V.V.x.{     3 NXNXcXtXtXtXPXLXLXKXGXGX0Xu.h..X7X7X XE ( 9.NXNXNXGXGXGXGXGXGX .B B D I I I I I J B B -       hXfXn.=.0 h ) 6.8.` ) g -.$XVX",
"zXzXoXd 0 b { ) x M y.V.x.l.'     3 NXNXcXtXtXtXPXLXLXKXGXGX0Xh.h..X7X7XE.( E 9.NXNXNXGXGXGXGXGXGX .B B J I I I I I J B B -       $XOXoXsX1.9 b ) _ _ / gXCXMXxX",
"hXfXfXaX-.9 h ) _ b m e.l.x.^     3 NXNXcXtXtXtXPXLXLXKXGXGX.X9.9.E.[.[.~.( E t.DXDXDXGXGXGXwXwXwX3 o o S Z Z J I I D o o @ Q ;.2.zXfX+XN.oXk 9 b ^ b XXCXMXxXvX",
"hXfXdXsXaX4.p g ^ _ ) c 7.v *     3 NXNXcXtXtXtXPXLXLXKXGXGXa.E E R.`.`.^.E ( s.GXGXGXGXGXGX|.h.h.&     = B B Z L I Z     & VXxXvXhXfXdXM.*.#.> f n f sX+XvXcXcX",
"fXfX+XoXOXaXM.d g ^ _ ) n c <     2 NXNXcXtXtXtXPXLXLXKXGXGXa.E E R.`.`.^.E ( s.GXGXGXGXGXGX|.h.h.&     = B B Z I I Z     @ oXVXbXzXkX3.#.o.O.> h b -.N.n.m.BXvX",
"hXfX$XsXsXM.4.z i h ) _ b h =.6 6 Q *X*X+XuXuXuXIXPXPXKXGXGXa.( E R.`.`.).q.q.a.JXJXJXFXFXFXt.} } O     = - - Z I I Z     @ ;.<.OX:.$.$.o.O.* i _ r >.n.p.p.zXVX",
"hXhXjXaX;.O.o.* u h ^ ) e dXbXcXxXn.    @ NXNXNXGXGXGXGXGXGXa.( E R.`.`.[.7X7X=XiXiXiXh.h.h..                 : I I Z     + ;.=.b.&.o.o.5 * 0 ' ' g l p.:.p.n.fX",
"hXjX3.$.o.5 2 , f ^ a.n 0 +XVXMXxX<.    @ NXNXNXGXGXGXGXGXGXa.( E R.`.`.[.7X7X=XiXiXiXh.h.h..                 : L I Z     X u 2 ;.#.O.4 , i n [ [ b 0 Q -.1.n.<.",
"oX%.$.o.4 * d >.-.] n n a n.%XBXcXn.    @ NXNXNXGXGXGXGXGXGXa.( ( R.`.`.[.7X7X=XiXiXiXh.h.h.X                 : I I Z     X e 0 9 2 > 9 g n ` _ ] h g 0 2 -.b.b.",
";.&.#.4 * 9 nXbXzXOXj ^ a p.p.zXVX$X%.o.k @ @ @ NXZXZXZXZXZXAXwXwX|.5.5.R.'.'.^.# # # + + + *X&X&X).}.}.R     = V V -     & k.0.' r h ^ ) _ ) XXzXoXQ g g d 2.1.",
"%.o.2 > 8 OXVXzXgXoXd c 0 -.<.n.N.;.&.#.k       MXNXNXNXNXNXNXNXNXv.( E R.`.`.).            wXNXNX].`.`.R     o B B =     & x.z.x.c.9.x ^ _ b zXzXjX3., g h i Q ",
"#.2 , 0 1.VXcXxXsXM.z 0 f < -.<.1.&.#.k 6       MXNXNXNXNXNXNXNXNXv.( ( R.`.`.).            wXNXNX].`.`.R     o B B =     & x.x.V.x.x.k.v ^ ] 3.b.n.*.2 i b n v ",
"> 9 e ] VXcXxXxXzX*.4 8 g e 9 Q ;.k 2 , 8 2.3.2.Q Q Q  .,.,.,.,.,.! % % W [.[.E.      = = = Q Q Q ......1     . o o 1 { { [ 2Xv.c.C.C.z.v b l :.;.;.$.> i b ) ' ",
"h c f bXcXcXcXzX;.o.6 Q p.p.>.j 8 8 9 -.bXCXMXxX.     - B B B B B =     j 7X7X|.      B B B                         9 V.z.d.d.v.0.x.z.d.x ^ h i d k 2 9 h ) [ [ ",
"^ ^ 0 dXVXVXnX;.o.k &.VXxXzXzX3.a f 1.SXBXcXxXvX.     - B B B B B =     j 7X7X|.      B B B                         u 0Xc.x.x.c.y.l.0.g ^ ^ n b h h c ) _ _ _ n ",
"n n f =.N.jX;.o.O.6 n.cXvXfXdX%.8 0 +XBXzXXXn.n.R 1 1 V Z Z V B B =     t -X-XQ.o o o Z Z Z O O O       # # # .     < c.d.j.x.z.l.8.g ^ _ [ [ ` _ ' ) ^ h j f f ",
"c b c 0 =.;.%.O.2 & b.zXxXfXsXz , d m.$XN.      _.`.`.J.I I Z B B =     ; L I I I I I I I I ~ E ( X     X.@.@.X.    9 ;Xx.x.l.z.6.h ) _ _ _ ) b g j ] <.XXjXM.d ",
"d g h g i l o.2 , , 1.<.n.n.;.> , d oXcXOX      _.`.`.J.I L Z B B =     ; I I I I I I L L I ~ ( ( X     X.@.@.X.    , C.x.z.k.y.g ) _ 8.b >.b.+XzXVXzX%XsXsXM.*.",
"sX1.j f f f f f g 0 &.;.:.;.#.% , l dXxX+X      '.`.`.J.L L Z B B =     ; I I I L I I I I I ~ E E X     X.@.@.X.    < V.x.z.k.M b ) [ ) p.CXbXjXfX$XOXfXdX$X*.5 ",
"sXsXsXn.Q e x ~ ^ c 0 & . . .   . . + @ 1 J.H.H.1 $ $ o o o lXIXIXpXJ J H ~ ~ ! I L I I I I ~ E E Y J J ; . . 2.FXFX+X+ + > d.c ) ) [ f nXcXvXhXfXdXdXsX$X;.4 2.",
"$XsX$X$XOX;.0 h v ^ c $                 o I.I.I..           mXLXLXlXI I Y ( E ! I I I I I L ~ E E Y I L ;     2.GXGXdX    & y.x ' _ ^ =.SXxXhXhXfXdXdX+X$.4 @XxX",
"dXdXsXsXOXOX4.u f b ) %                 o I.I.I..           mXLXLXlXI I Y ( ( ! I I L L I I ~ E E Y I L ;     2.GXGXdX    $ 0.x 8.[ g m.zXBXhXhXhXfXoXO.6 OXxXvX",
"oXoXoXN.oXM.M.;.$ & % , q q , % % * q q q C C C q q q * % % 1.oXoXlXUXUXY.% % < ! ! ! ! ! !  . . .K.G.K.K S S H -.-.Q     $ y.r _ ) l n.b.XXzXxXhXb.O.6 k cXvXhX",
"%X#XOXOXOXOXoX;.@     q ( ( x i i a E ( y       y ( ( a i i i 0 i sXLXLXmX    O ( ( E E E E L.I.I.I.I.I.F.I I S           $ y.n ^ ) d <.1.2.-.n.;.O.2 * m.vXhXhX",
"$XsXOXM.3.;.$.O.+     q ( E x i i f ( ( y       y ( ( a i i i i i sXLXLXmX    X E ( ( ( E E L.P.P.I.I.I.F.L L S           O _ x ) _ g d ;.:.:.<.#.4 * d zXhXhXhX",
"3.;.$.o.o.O.5 2 .     , m v g i i i r r e 3 3 3 ( E ( f w w i i i n.JXJXaXo o 1 | | | | | | I.P.I.J.J.J.K D D : X X .     X 0 f g [ ' c u l -.;.z * , 2.hXhXhXfX",
"O.k z 4 2 > , i X     % i 0 0 i 0 *     6 GXGXGX` ( ( ( ( ( e 0 i $     ; I L D.I.I.I.I.I.P.I.I.I.D.I I ;     $ i i *             [ _ _ ^ g 0 p 8 i f d -.b.;.%.",
"8 8 0 f g h c b O     % i 0 i 0 0 *     6 GXGXGX` ( ( ( ( ( e i i $     ; I L D.I.I.I.I.I.I.I.I.I.D.I I ;     $ i i *             [ [ [ _ _ ^ n ^ ^ ^ c f 9 8 , ",
"^ ) _ ) ^ c ) r.<     % i i i i i *     6 GXGXGX` ( ( ( ( ( f 0 i $     ; L L D.I.I.I.I.I.I.I.P.I.D.I I ;     $ i i *             ^ ) _ ' _ ) ^ v b c c x c x h ",
"n _ _ ^ 9.c.1X1Xx.d.j.0 . . $ i i 0 8 8 , & & @ HXDXDX2 . X . . . : J J U J.J.J.I.I.I.I.I.I.= o o < u u 9 8 8 9 i i a y y w       XXp.b v ^ c y.y.d.d.d.0.9.) g ",
"v ) ^ 4X<X<X1X1X1X;X<Xf     O i i i 0 i 8       DXGXGX2           : L L F.I.I.I.I.I.I.I.I.I..     , i i 0 i i i i i f ( E r       nXfXOXj h c M 0.0.f.f.f.y.y.q.",
"v c  X3X:X1X4X3X3X3X3Xj     O i i 0 i i 8       DXGXGX2           : L L F.I.I.I.I.I.I.I.I.I..     , i i i i i i i i f ( ( r       jXdX+X+X] g h w q.f.f.f.y.y._ ",
"x j.:X:X<X1X1X1X,X1X,Xr.} } j O $ O O O $ 9 8 0 -.-.-.} } } &     o : : : C C C C C C C C C t e e & O O O O O * i i f ( ( r       zXhXhXdXdX<.f g 7.f.f.f.d.0.f ",
"_ :X;X:X:X<X<X<X:Xc..Xd..X<X}           . ) ~ 5X.     d.<X<X<                               ^ 6.8.O           $ i i f ( ( r       hXhXhXfXdXoX%.i x 0.0.0.0.g n ",
"a 6.C.C.V.:X:X:X<X<X;X,X,X;X}           . c r.3X.     *XeXv.*                               ^ n _ O           $ i i f ( ( r       hXhXfXdX+Xm.*.> i h g g x v ^ ",
"i f x 0.w.w.y.l.>X:X<X;X;X;X9.% > % $ % & g ,X1X< % > s.9.c./ > * > > > > > > & % % % % % % d.0.c > O O .     $ 0 i w m m e       hXhXfX+Xm.4.#.2 i c n ^ v v g ",
"d 9 g h c c c M C.<X;XV.V.V.d.v.v.0.y.g.m ^ 1X1X1Xy.0.9.2X3X3X5X5XeXeXeXeXeX.X0.V.V.V.x.x.z.z.w.g _ _ _ &     $ 0 i i 0 i ,       hXfXdXdXoX#.O.2 i c ^ g g p.zX",
"m.>.i ] ] ^ _ ^ 7.:XV.V.x.z.k.y.0.d.k.d.g 9.<X<X<X1X<X1X3X1X<X<X5X5X5XeXeX4X{ k.V.V.x.z.x.z.l.6.c ) _ n $     $ i i i i i ,       hXhXfXOX*.O.2 8 f n g >.zXMXcX",
"%X#Xn.-.j f v ) v y.x.x.l.l.z.f.y.0.7.m c 7.C.:X<X:X;X<X1X3Xc.:X3X1X,Xj.d.9.d.V.C.V.x.C.l.l.y.y n v ' d.9     $ i i i i i ,       OX$XM.$.o.4 , i b g n.VXMXcXMX",
"dXdX$XOXOX;.0 n ) M w.w.w.7.m x g x c n _ v 7.V.:X:X>X:X>X<X<X<X<X<X,X;XV.V.V.V.x.z.x.k.l.l.M b c j.:Xx.d.r.d.f . . . . . @ =.=.=.;.;.%.$.z > i b v Q VXMXxXxXxX",
"dXdX$XsXOX4.* g ) _ v c n b b <.] c n ) _ ` v q.V.;X;X;XV.:X:X;X;XV.V.V.l.C.V.C.x.x.s.r.l.f.g c 9.<XV.x.V.V.V./           + &.=.%.%.&.&.k > a ^ ) f +XBXvXhXxXxX",
"#X$XkXOXoX#.2 i _ [ ` ' _ ^ 1.bXOX1.j g n _ _ n 7.y.f.f.y.y.y.f.V.V.V.C.C.C.C.z.z.l.k.l.l._ f d.:XV.V.V.V.C.C.^           X a i u p u 8 0 x _ _ ) Q n.dXvX#XvXvX",
"oX$XOXOX;.5 * f _ ) _ _ _ x oXCXsXkXaX1.l f n _ _ v v x c x x x M 0.g.f.l.C.C.z.z.z.l.l.7.s 9.:XV.V.V.C.C.C.C.r.) ) ) e , i ^ b c x x g x c ~ _ _ f -.1.$XvXhXhX",
"$X$XsXn.O.% 0 ] b b { h c 0 +X$XhXdXsXOXOX1.l g v _ _ _ n ] h c ^ g m m v M q.y.g.z.f.( g ' :XV.V.V.V.V.V.V.,X2X2X2X,X2Xk.s.>.B.9.d.,X,XZ..X0.{ 9.{ i Q zXbXxXhX",
"oX3.%.o.2 , Q CXbX$Xn.Q 0 u m.<.b.oXdXsXaXOX@X3.Q c _ v jXxXdXp.] g c n ) _ ) v v M y c n q.C.C.V.V.V.V.V.V.2XqXAXAXqXqXqXAXqXqXqXqXqXqXqXqX*Xp.m.a.B.b.aXzXbXzX",
"&.o.k 2 * 0 >.m.XXoX+XM., < 2.:.<.<.p.2.dXOX+X@XM.u c h nXvXhX$XdXoX1.-.b c _ ) ) ) ) ) ^ x M y.C.V.V.V.V.V.V.Z.,XV.V.V.V.Z.V.V.x.x.C.x.z.f.8.h { [ [ b =.-.;.:."
};
