/* XPM */
static char *_11ded3007034f19b754f3f4e8d37c82[] = {
/* columns rows colors chars-per-pixel */
"80 80 245 2 ",
"   c #000000",
".  c #080A05",
"X  c #140B08",
"o  c #041305",
"O  c #061B09",
"+  c #1B130B",
"@  c #1B1814",
"#  c #27170D",
"$  c #291A16",
"%  c #331E18",
"&  c #09270A",
"*  c #0C350B",
"=  c #0D3B0C",
"-  c #0A3714",
";  c #142F0F",
":  c #3C231A",
">  c #392318",
",  c #30340D",
"<  c #032E3F",
"1  c #382827",
"2  c #3B2D33",
"3  c #3D3239",
"4  c #312927",
"5  c #42261C",
"6  c #45291D",
"7  c #4C2B1E",
"8  c #452816",
"9  c #532E1E",
"0  c #58321E",
"q  c #493D10",
"w  c #63321E",
"e  c #442B22",
"r  c #4C2D21",
"t  c #432C28",
"y  c #542F21",
"u  c #4A3228",
"i  c #543222",
"p  c #5B3423",
"a  c #5E3925",
"s  c #573A2A",
"d  c #463637",
"f  c #543D35",
"g  c #402F35",
"h  c #623623",
"j  c #643A25",
"k  c #6B3C26",
"l  c #653C29",
"z  c #6A3E29",
"x  c #6B3622",
"c  c #753C25",
"v  c #602F20",
"b  c #0D420C",
"n  c #0D490F",
"m  c #0C4815",
"M  c #0E5C19",
"N  c #0D5517",
"B  c #1B5B13",
"V  c #155916",
"C  c #194713",
"Z  c #225119",
"A  c #0F611C",
"S  c #146C1E",
"D  c #2C7C1D",
"F  c #25681A",
"G  c #0F6B24",
"H  c #116D26",
"J  c #126A25",
"K  c #0F7B29",
"L  c #0F7625",
"P  c #117B27",
"I  c #107B29",
"U  c #137326",
"Y  c #2E6925",
"T  c #316C27",
"R  c #1D542A",
"E  c #554815",
"W  c #73411E",
"Q  c #63411C",
"!  c #606104",
"~  c #5A4438",
"^  c #51492D",
"/  c #6D412A",
"(  c #684329",
")  c #734121",
"_  c #73442C",
"`  c #7A462C",
"'  c #76492E",
"]  c #7B4A2E",
"[  c #7C4B27",
"{  c #6A5321",
"}  c #664837",
"|  c #7D4B31",
" . c #754832",
".. c #765438",
"X. c #5A6925",
"o. c #646022",
"O. c #2C394A",
"+. c #042F40",
"@. c #453942",
"#. c #4B3D45",
"$. c #493D48",
"%. c #503F45",
"&. c #345C70",
"*. c #4E4149",
"=. c #53444B",
"-. c #594948",
";. c #554A52",
":. c #5D5254",
">. c #5F564F",
",. c #644D47",
"<. c #695549",
"1. c #745947",
"2. c #6D5A53",
"3. c #675755",
"4. c #735C55",
"5. c #7B645A",
"6. c #786658",
"7. c #706D4C",
"8. c #7A6B64",
"9. c #7C776F",
"0. c #834C2E",
"q. c #87472A",
"w. c #824E31",
"e. c #8D4D31",
"r. c #845132",
"t. c #895836",
"y. c #975937",
"u. c #8C502E",
"i. c #A35B37",
"p. c #9A643C",
"a. c #9D763E",
"s. c #8D6D39",
"d. c #A4633E",
"f. c #AA663D",
"g. c #AA723E",
"h. c #885D45",
"j. c #836B5B",
"k. c #997758",
"l. c #926C4C",
"z. c #AC6B42",
"x. c #A56942",
"c. c #B46D43",
"v. c #B96F43",
"b. c #A47C41",
"n. c #AB7345",
"m. c #B47246",
"M. c #BA7346",
"N. c #B57449",
"B. c #BC7549",
"V. c #BD7A4A",
"C. c #B77B4B",
"Z. c #B67C53",
"A. c #846E62",
"S. c #8D7B6B",
"D. c #887566",
"F. c #927C69",
"G. c #8A7C73",
"H. c #917F71",
"J. c #A27F6B",
"K. c #C37C4C",
"L. c #C27849",
"P. c #C37F52",
"I. c #1B8329",
"U. c #338921",
"Y. c #2E9329",
"T. c #3B9727",
"R. c #228829",
"E. c #3FA229",
"W. c #2F831E",
"Q. c #778E34",
"!. c #719636",
"~. c #41A326",
"^. c #41A328",
"/. c #629219",
"(. c #7D8F5F",
"). c #639A72",
"_. c #A5B908",
"`. c #9F9B2B",
"'. c #CEB824",
"]. c #CBD405",
"[. c #FFFF00",
"{. c #CFE70B",
"}. c #B78756",
"|. c #B0874E",
" X c #96826C",
".X c #948474",
"XX c #9D8C7C",
"oX c #998877",
"OX c #948978",
"+X c #A18C78",
"@X c #A4927E",
"#X c #A9957E",
"$X c #B6946C",
"%X c #AB995E",
"&X c #C5824E",
"*X c #C9834E",
"=X c #CA894F",
"-X c #C58451",
";X c #CA8551",
":X c #CC8B53",
">X c #C68759",
",X c #D18E55",
"<X c #CD9157",
"1X c #D39459",
"2X c #D19E4B",
"3X c #DEAC53",
"4X c #CF9970",
"5X c #D9A264",
"6X c #D1AA7B",
"7X c #E1AD73",
"8X c #A6CF13",
"9X c #27869E",
"0X c #71B081",
"qX c #05A2CF",
"wX c #00BAFF",
"eX c #9B8F83",
"rX c #A49382",
"tX c #AA9581",
"yX c #AC9A83",
"uX c #AA9C88",
"iX c #B29D84",
"pX c #B19F89",
"aX c #A28F80",
"sX c #B6A186",
"dX c #BAA386",
"fX c #B5A38B",
"gX c #BAA58A",
"hX c #BDA98C",
"jX c #B6A88E",
"kX c #BDAC92",
"lX c #B3A891",
"zX c #B1A68F",
"xX c gray64",
"cX c #C1AB8C",
"vX c #D5B48B",
"bX c #C2AE91",
"nX c #C4B294",
"mX c #C7B79B",
"MX c #D4AE8C",
"NX c #D2C7A4",
"BX c #FEE5BC",
"VX c #DEC69D",
"CX c #B5C1CA",
"ZX c #FFFFFE",
"AX c #DFDFDF",
/* pixels */
"> 5 y j k p } 6.6.=.@.d % > ,.2.2.S.F.3.=.=.=.=.*.4 : f S.mXbXsXiXiXiXyXsXsXiXyXyXrX:.: a _ ` _ / k x c e.M.L.K.&X;X;XK.K.K.;X&X&XK.K.L.K.B.e.p _ ` ' z p r 6 5 ",
"l _ ` _ / p 7 f -.2 1 > 6 p 7 e f 3.A.:.=.=.#.$.2 > 6 : 6.mXhXyX#XyXyX#XiXiXyXyXtX3.;.1 r l | | r.w.` / p q.L.L.K.K.K.K.K.K.K.K.L.K.L.z.0.v 9 z ] ] ] ` ` ` _ / ",
"r.w._ k j.D.s 7 7 7 p z ` ` / j 9 5 f f d 2 1 : 6 i i 7 ~ tXbXiXyX X^ ^ ^ |.}.%Xk.h.1.....t.t./ k ) k / ( p f.M.K.B.K.K.K.V.V.K.L.M.0.p p j _ ] ] ` ` ` ` ` z ] ",
"e.] z } NXiXrX6.i a ( _ | r.] _ _ h r : <..XoX~ p z / j u j.fXkXgXD.      a.b.b.b.b.b.b.a.b.b.) ) ) oXOXs a ` K.V.B.L.V.B.B.B.B.d.h p z _ _ l / ] ] / / k h h ` ",
"0._ p S.nXiXyXrXOX~ a / _ ' 0.` j <.oXnXbXhXiXrX2.r a l 9 1.j.H.8.-.      a.b.b.a.b.b.b.b.b.b.) ) )  XrX2.7 p c.K.K.L.B.B.M.N.e.p h  .z ` p.V.-X;X&XK.K.L.V.w._ ",
"` l s XXkXkXyXtXrXG.5 j / ` ` a 6.NXnXbXhXgXyX.XOX-.7 a j f -.2 1 4 Z Z Z Q.Q.Q.Q.Q.Q.Q.Q.Q.Q.X.X.X. X Xk.p 9 q.L.L.B.B.B.M.e.p } iXk.p.:X=X*X;X-X&X&XK.L.M.0.k ",
"_ p A.+X X.XXXXX.XG.1 y _ 0._ i S.D.fXnXbX+XtXuXrX3.> i j 9 @     ; ^.^.^.^.^.E.^.^.^.^.^.^.^.^.^.^.`.b.b.' e 0 f.K.B.B.M.d.p z z 1.p.;X-X1XV.&X-X&XK.K.L.M.e.h ",
"z i  Xj.oXkXhXiX@XOXd 6 z ] ` s D.6.j. XtXhXfXsXeX;.> i j z #     ; ^.^.^.^.E.^.^.^.^.^.^.^.^.^.^.^.`.b.b.} 5 y c v.B.B.N.0.j ` k t.:XN.}.Z.N.N.&XK.K.L.B.m.u.p ",
"h <.5.5.A.XXfXjXuX.X*.: j _ ` 9 -.2.5.6.H.iXkXrX;.$.> % > 5 , C C Z D D D D D D D D D D D D W.^.^.^.`.'.'.`.(  .' q.f.y.c h z p s.:X:X:X&X:X;X=XK.K.B.B.M.c.e.6 ",
"a <.<.D.j.5.5.A.A.=.@.> l _ _ l 7 e <.<.5.6.5.%.*.@.% .     F ^.^.U.b b b b b b b b b b b b n ^.^.^.{.[.[.'.b.b.a.z k p j l _ Z.:X:X:X:X:X;X;X&XK.B.M.B.z.0.h j ",
"j r ~ 5.5.2.5.6.2.*.2 5 / k ` / p i 5 d <.4.3.#.$.1 5 .     F ^.^.U.b b b b b b b b b b b b n ^.^.^.{.[.[.].b.b.a.z / ` .._ &X:X;X;X:X;X=X&XK.B.B.N.y.x h z _ _ ",
"9 p i r f -.2.4.3.$.1 i _ ] ,X-XC./ h 0 5 d d 1 $ $ : ; ; ; F U.U.D B B B B B B B B B B B B B U.U.U.8X{.{.'.|.|.|.l / _ _ h q.i.B.;X&X&X&X&XV.L.K.N.` p _ _ j l ",
"oX,.i p i 6 e f f 1 7 / _ t.=X&XK.m.h  .l 9 r 5       T.^.^.F b b B ^.^.^.^.^.^.^.^.^.^.^.^.T.b b b U.^.~.`.3X3X2X) ) ) ` _ l x x q.i.c.L.K.L.L.d.x p z j a D.jX",
"@XrX5.r p j j h p a ` ] _ p.;X&XK.V.y.h.cX} a i       T.^.^.F b b B ^.^.^.^.^.^.^.^.^.^.^.^.T.b b b U.^.~.`.3X3X2X) ) ) _ t.p./ l k h h w c e.y.` j z i 5.jXsXiX",
"@X@XXXG.~ y j z / _ 0.0.k n.;X&XK.K.B._ 1.~ 5 r O O O U.U.U.F B B F ^.^.^.^.~.^.^.^.^.^.^.^.E.B B B W.U.U.!.%X%X|.) W W V.&X&X&Xf.] j z / / z z / z ~ uXjXdXiXiX",
"@X@XXXXXOX3.6 a z ` r.w.j =X;XM.V.K.V.e.#     O P I I b b b D ^.^.^.^.^.^.^.^.^.^.^.^.^.^.^.^.^.^.^.B b b M I I U ) W W V.B.}.y.K.K.N.t.z ( _ ` _ i jXcXgX+X.XiX",
"tXtXrXXX3.*.2 p _ | r.] _ ,X;XK.K.K.B.0.$     O P I I n b b D ^.^.^.^.^.^.^.^.^.^.^.^.^.^.^.^.^.~.^.B b b M I I U ) ) ) V.K.N.V.K.}.V.K.V.z _ ` j 6.nXnXhXsXiXdX",
"yXtXrX3.$.g > i _ ` w.] ` L.&X&X&XK.c.h >     o U U U V V V W.^.^.^.^.^.^.^.^.^.^.^.^.^.^.^.^.^.~.^.B b b M I K U [ [ [ }.;X;X&XK.L.V.V.B.w./ ` p S.j.rXnXbXgXhX",
"XXoX8.@.3 % 6 l _ ' r.w.` k c c c x x z >     . b b b T.^.~.~.^.^.^.^.^.^.^.^.^.^.^.^.^.^.^.^.^.^.^.B b b M I I D b.b.b.:X1X,X,X:X;XK.V.B.z.j ` a ,.5.<.5.#X#X#X",
"-.=.@.4 % r l / k ( ` 0.e.r.` ` ` ' ` ] >     . b b b T.^.^.^.^.^.^.^.^.^.^.^.^.^.^.^.^.^.^.^.^.^.~.B b b M I I D b.b.a.<X1X1X,X:X;XK.K.N.M._ _ _ i e d -.,.,.,.",
"d 2 > 5 p j j t.m.m._ _ w.r.| r.w.| | | >     . n b b T.T.T.E.^.^.^.^.^.^.^.^.^.^.^.^.^.^.^.~.^.E.E.B n b M P I U a.a.a.;X:X:X:X:X;X&XK.B.M.y.l ` ` l 9 : 1 d d ",
"i i 0 j ] x.-X&X&X&X&Xp._ _ | | w.w.| | >     O K I I n b b D ^.^.^.^.^.^.^.^.^.^.^.^.~.^.^.E.P I I I I I M b b b b b b Q W ) f.:X,X:X;XL.B.c.j ` | _ k j 0 7 7 ",
"p.x.C.&XK.&X&X&X*X&X-X&X*Xd.r.k l / ` ' >     O I I K n b b D ^.^.^.^.^.^.^.^.^.^.^.^.^.^.^.E.I I I I I I A b b b b b b Q ) ) f.:X;X-X-XL.M.c.k ] _ ` p.f.m.m.C.",
"K.&X:X&X&X-X;X:X;X&X&X;X;X;X;X;XC.x.p./ >     O I I I n b b D ^.^.^.^.^.^.^.^.^.^.^.^.E.E.E.E.P I I I I I M b b b b b b Q ) ) n.&X&XV.V.N.m.y.z ` ] 1X=X*XK.K.K.",
"C.;X:X:X:X:X<X1X<X:X*X&X-X&Xb.b.b.6XvXvX7.b b *       H I I Y.^.^.^.^.^.~.^.^.^.^.~.^.Y.P I P I I I &     - I I U b b b $XvXvX$Xb.b.b.N.N.N.y._ ` p.:X:X:X:X=XK.",
"&X;X*X;X;X:X1X1X1X1X1X1X-XV.b.b.b.6XvXvX7.b b *       H I I Y.^.^.^.^.^.^.^.^.^.^.^.^.Y.I I I I I I O     - K I L b b b $XvXvX$Xb.b.a.d.z.c.y._ _ n.,X:X,X,X:X;X",
"&X&X*X,X:X:X1X1X1X1X1X1X1X:Xb.b.b.6XvXvX7.b b *       H I I Y.^.^.^.^.~.^.^.^.^.^.^.^.Y.I I I I I I O     - I I L b b b $XvXvX$Xb.b.b.z.N.N.y./ z m.:X<X;X:X:X:X",
";X&X:X>X4Xl.-X1X1X1Xn.) ) r.BXBXBXBXBXBX(.b b *       H I I Y.^.^.^.^.^.^.^.^.^.R.I I I I I P b b b o     - I I U b b b NXBXBXBXBXBXVX) ) ) y.j k n.:XM.V.;X:X;X",
"K.;X;XN.x.Z.<X1X1X:Xf.) ) w.BXBXBXBXBXBX(.b b *       H I I Y.^.^.^.^.^.^.^.^.^.I.I I K I I P b b b o     - I I L b b b NXBXBXBXBXBXVX) ) ) d.p k z.;X:X;X;X;X&X",
"K.;X;X:X:X:X:X:X;X:Xd.) ) w.BXBXBXBXBXBX(.b b *       H I I Y.^.~.^.^.^.^.^.^.^.R.I I I I I I b b b o     - I I L b b b NXBXBXBXBXBXVX) ) W f.p k d.;X;X;X&X&XK.",
"K.K.&X-X-XK.&X*X;X;X&XC.N.m.t.t.t.|.}.}.X.b b *       b n n S I.I.R.^.^.^.^.^.^.R.I I G n n n . . . & * * N I I L b b b |.}.}.x.t.t.y.c.z.z.c.p k y.&XK.K.K.K.L.",
"y.f.V.&X&XK.K.L.K.-X&XK.K.N.) ) ) a.b.b.X.b b *       = b b A I I I.^.^.^.^.^.^.I.I I J b b =       * b b M K I L b b b s.b.b.t.) W 0.M.M.c.m.h / 0.K.P.B.f.y.i.",
"p p h x k i.L.&XK.K.K.V.V.N.) ) ) a.b.b.X.b b *       = b b J I I I.^.^.^.^.^.^.R.I I J b b =       * b b M K I L b b b s.b.b.t.) ) ) k q.d.z.k ` c u.` x j p 0 ",
"l j l / l h q.f.L.K.K.M.d.m.z.z.) [ [ [ &.qXqX9X* * * o . . N P I I I.I.I.I.I.I.M n n = . . o * = * = b b b n n R qXqXqX..[ [ l.j...a p p p h k ` _ _ ` _ k p } ",
"s <.7 p / ` k x e.g.K.L.K.V.K.M.x ) ) ) 9XwXwXqXb b b       m I I I I K I I I K N b b &       b b b b b b b b b R wXwXwX,.) ) k.fXiXyXD.,.7 a _ 0.w.] _ p <.@XnX",
"jXpX.Xu 7 l | _ h c f.K.V.M.L.f.h ) ) ) 9XwXwXqXb b b       m I I I I I I I I I N b b &       b b b b b b b b b R wXwXwX,.W ) k.sX@XXX.XeX6.6 l _ ` ` ( yXmXhXgX",
"iXyXyXeX<.6 a _ ` l k i.M.L.d.h j a F.+XO.< < R ].].].+     * N N N I I I K I I - o o O * * * b b b E Q Q `.].]._.< < +.<.1.j.+XtXsXyXoXH..Xd 6 l / l  XmXcXhXdX",
"iXyXtXrXeX9.t p / ` _ k q.k p a <.uXnXgX~     , [.[.[.+     & b b N K I I I K I &     o b b b b b b Q ) ) `.[.[.{.      2.5.nXhXsXiXyXtXG.:.*.> i z i rXoXdXhXhX",
"yXyXoX.XXXaXG.t p / ` ` z j p s pXnXcXdX-.    , [.[.[.+     & b b N I I I I I K &     o b b b b b b Q ) W `.[.[.{.      2.6..XnXkXjXaX8.*.$.O.% a l <.H.F.F.bXsX",
"iXiX@XrXrXG.8.g 6 a _ ` l a D.nXcXhXhXsX X>.$ : ! ! ! .     . O O & N N N N N N O     , _._._._._._.q # # q ! ! ! 9 7 5 u ,.3.6.XX4.=.=.$.d % r ` 0 <.D.j.j.fXnX",
"iXiXpXXX3.@.#.% e a ( _ 0 tXkXhXhXiX+XyXiXuX:.%                   o b b b b b b o     E [.[.[.[.[.[.,           . ' ` _ p u 3.,.A.-.#.$.3 % 7 ' ' p f j.4.j.S.uX",
"iXuX8.=.#.3 1 % i / k.z 7 oXnXcXhX#X#XfXpX8.;.4                   o b b b b b b o     E [.[.[.[.[.[.,           . h j / z p 6 1 2.*.@.2 > r z | | l 7 ~ <.6.D.5.",
".X:.=.$.3 % t <.<.} z z r D.#XbXhXgXhXXX3.=.=.2       & & & .     o b b b b b b o     , /./././././.q 8 8 #     + &Xm.p.r.l 0 9 6 1 > 6 p z ] ` } a p 6 1 <.A.A.",
"3.-.*.2 % 6 jXkXfXXXs ( r j.j.fXmXrX8.-.=.=.@.$       = b b O     . b b b b b b o     o b b b b b b Q ) ) >     + K.&X&X&X&Xm.y.' 0 a / _ ` _  XjX.X~ p 0 u 6.6.",
"-.$.1 > 5 XXnXfXyX.Xu j 7 <.5.S.S.3.=.=.#.3 : :       = b b O     o b b b b b b o     o b b b b b b Q W ) >     + 1X:X;X&XK.V.N.V.C.t.h / ` l fXjXuX8.: p a r ~ ",
"*.1 : 7 6.nXhXgXrXG.g 7 i 5 <.5.8.-.*.d $ + + ^ m m m M M M = & & & O O O O O O - m m m A A M b b b Y X.T Z m m C ( ( ( N.K.V.V.K.V.V.m.z / } 8.A.D.:.1 y l z k ",
"> 8 0 } nXhXgXhXsX;.2 5 p 9 5 ~ 3.d 4 : +     O P I I I I I N b b *             N K K I I I P b b b H I K K K K G       x.N.>XZ.N.L.L.N.k j f 2.2.3.=.> r l _ ' ",
"a j i kXhXhXhXsX3.$.4 ~ j.j.1.s 5 5 6 <.*.    O I I I K I I N b b *             N K K I I I U b b b H I K K K K G       p.x.x.Z.y.V.B.x.h / a r u d 1 6 a ` | | ",
"( / 7 rXnXnXjX3.*.d -.nXhXfXsX8.i : t 9.d + + 4 0X0X0XT T T B N N m - - - - - - J I I I K I I N N N m m m T 0X0X).      p.V.V.N.d.M.y.p / / z l a a j _ ' ` _ z ",
"z z i ,.H.uX3.*.@.4 D.hXsXyXtX:.5 X     $ r 6 ,.ZXZXZXr.) W T I I I I P I I I K I I I I I I I I K K O     9.ZXZXAX      t.m.V.N.M.w.p / ` | | ] ` ' _ z a s i i ",
"j l j 7 ,.3.-.@.4 $ A.jXgXyXrXg : .     $ 6 6 ,.ZXZXZXr.) ) T K I I P I I I I I I K I I I I I I I I O     9.ZXZXAX      x.V.N.N.0.a _ ` ` ` _ l p p } 6. XuXG.u ",
"u p a p e f #.1 : : 6.5.S.D.d $ $ # # # 8 p 0 } CXCXCXs 8 8 Y I I I I I I I P I I I I K I K I I I I , # # 3.xXxXeX      x.B.m.i.p _ ` w.l 1.D.oXjXnXjX#XrXrXG.:.",
"rX6.s i p i i i p 7 -.2.4.,.      0 ) ) ) ) ) ( &.&.&..     m I K K I I I I I I P I I I I K I I I I E ) ) >             x.N.v.c j _ | _ j.mXkXpXyX@XXXyXtX@X:.2 ",
"rXrXrXD.~ 0 h ( / j 7 f ,.-.      0 ) ) ) ) ) ( &.&.&..     m I I I K I I I I I I I I I I I I I P I { ) ) >             x.M.z.h / _ | p lXhXdXiXyXtXrXrX@X3.2 6.",
"#XrX@X@XXX2.7 a ( ( j p r t       0 W ) t.k.k.l.O.O.O.O o o C Y Y Y Y Y Y Y Y Y Y Y Y Y Y Y Y Y Y Y X.o.o.,     . : : > x.M.f.h ' ` / ,.NXgXiXiXyXtXtXoX=.2 OXgX",
"tXrXrXrXXXXX9.e i l / ` _ j       0 ) ) $XBXBXNX      = b b E c ) ) ) ) ) ) ) ) ) ) ) ) ) ) ) ) ) ) T.^.^.Z     + K.K.V.B.c.y.j w.| p F.sXbXiXiXiXyX.X@.4 XXgXdX",
".X.X.XH..XG.G.3.6 j _ ` _ h       0 ) ) $XBXBXNX      = b b E ) ) ) ) ) ) ) ) ) ) ) ) ) ) ) ) ) ) ) T.^.^.Z     + L.B.N.c.c.f.0 ` _ s D.A. XfXgXiXA.@.4 d hXdXiX",
"#X+XXXXXXXXX.X3.1 i / / j x.# # X 9 0 w k.mXmXyXo . o n n n E { { { { { { { { { { { { { { { { { { { T.T.T.Z     + N.m.m.c.c.f.c / _ u 5.6.6.<.S.3.#.4 % S.dXiXiX",
"@XrXXXG.8.3.=.@.2 r l z p.&XB.M.p.X           . b b b L I I Y.^.^.^.^.^.^.^.^.^.^.^.^.^.^.^.^.^.^.^.I.I I m     X c.c.c.d.e.` j _ ` p u 2.4.4.5.*.2 % u jXiXiXiX",
"8.3.=.#.$.@.3 4 : i j t.-X&XL.M.M.#           . b b b U I I Y.^.^.^.^.^.^.^.^.^.^.^.^.^.^.^.^.^.^.^.I.I I m     X 0._ x h j j / ` ] ' j e f <.2.2 % : 6.iXiXiXyX",
"#.d d 2 1 > : r p p p.;X-X;XK.V.M.$ . + @ @ @ @ = = * L I I Y.^.^.^.^.^.^.^.^.^.^.^.^.^.^.^.^.T.T.T.U H H - X X + _ ` | ] | | w.r.| ` _ / p 6 e 5 r i u ,.A.3.-.",
"5 5 7 i p a j l l C.:X;X-X-X&XV.M.] 8 D.kXbXgX.X      H I I Y.~.^.^.^.^.^.^.^.^.^.^.^.^.^.^.E.P I I O     > _ j a a l _ ' w.r.r.r.w.| | ` ` / z ( ( / j i 8 5 > ",
"/ _ ` _ / j _ p.:X:X;X=X;X-X-XK.N.y.6 A.A.D.oX8.      H I I Y.^.^.^.^.^.^.^.^.^.^.^.^.^.~.^.^.I I I O     > s D.oXS.<.p / w.r.| _ / _ ` ' ` _ / z l j j h j h a ",
"z ` _ / t.C.,X:X;X&X&XK.-XK.&XK.B.m.0 f 5.5.3.#.. .   J G G R.T.T.T.T.T.T.T.T.T.T.T.T.T.T.T.T.U H U O     $ jXfXyXtXXX<.i / ' l 6. Xj.( k / j d.f.z.z.z.y.t._ p ",
"k _ / <X;X;X:X:X:X&X;X-X;X&XC.N.V.M.t.9 u d d g g e 6 .                                                   4 kXiXiXyXXX3.1 a l s mXjXyXXXs j j c y.y.c.c.c.d.f.e.",
"k j |.,X=X:X<X,X1X1X,X;X;X:X;X&XV.B.d.p a p i p p a t.X                                                   1 XXfXiXaX:.$.2 i 9 6.yXsXtXoXoX} p a 9 u.c.c.c.f.f.` ",
"h n.=X=X;X:X:X:X-X:X-X*X;X:X;X-XK.B.N.z _ _ / / p.:X:X+                                                   $ 6.S.H.=.#.@.1 6 ~ XXgXsXiXiXtXrX8.i p q.c.c.c.z.y.p ",
"` =X&X&X&X;X;X;X;XN.}.x.-X;X-X&XK.B.N.f.z _ / 1X:X,X:X&X-X-XC.&X&X-X;X-X&X&XV.V.:     + 6 6 r b.b.a.a.a.a.s     X #.@.1 7 2.mXgXdXfXiXiXyXtXOX-.r h y.y.y.y.p z ",
"y 0.L.L.K.&X&X&X;X;X&X;X-X&X&XK.V.B.M.M.e.j p.,X,X,X:X7X7XZ.x.:X:X:X;X<X1XC.V.K.:     + r r r b.b.b.b.b.b.^     . 1 6 i <.uXgXdXsXiXiXiXtX.XS.;.> r a p p h z / ",
"r i x y.i.i.f.M.=X;X;X&X&X&XK.B.V.N.z.M.0.0 -X,X:X*X5XZ.t.N.<X,X:X1X5X5X5X5X}.z.:     + r r r b.a.b.b.b.b.^     . l p 5.kXgXgXdXsXiXiXyXoXS.A.$.1 r a z / k k a ",
"t 6 a a j j j k L.;X&XK.K.K.z.Z.}.y.d.c.x / :X:X:Xf.h.t.;X:X,X1X1X5X5X5X5X5X}.y.N.N.N.|     . ) ) ) W ) ) >     . j 6..XkXsXiXiXiXiXyXyX#X.X*.@.1 r j / p p j.gX",
"S.2.r }  ._ ` / q.&XK.K.K.N.m.d.p.x.m.z.p t.;X;X:X:X;X:X:X:X;X;X1X1X1X5X5X<X .m.K.K.V.|     . ) ) ) W ) W >     . a D.<..X#XgXyXXXiXiXyXXX:.$.4 5 i z p 1.fXcXcX",
"#X+XD.<.s i k _ z f.V.B.B.M.B.c.d.y.q.x j u.L.&X;X=X&X;X:X,XN.*X,X:X-Xm.x.t.x.K.L.V.B.|     . ) ) ) ) ) ) >     . } 5.<.j.4.4.D..XXX@XG.=.$.2 > r j p D.nXcXhXcX",
"tXtX@XXXXX2.7 z _ c i.i.y.0.x h p p j z ` z q.K.&X=X=X=X=X;X:X;X;X;X-X&XK.K.K.K.V.N.Z.z.x.d.0 . X X X . X i x.w.p p ~ -.2.2.4.4.2.3.3.-.=.g > r l z ~ nXhXdXdXdX",
"tXtX@XrXXX9.% p _ ` k j z l l 6.} j z _ ` ] k e.K.&XK.K.K.&X;X&X&XK.K.K.M.L.K.L.V.Z.x.y.M.c.0             a K.B.0.j p r u f -.,.-.-.-.-.d > i ( _ i oXbXiX#XdXdX",
"+X@XaXXX.X*.1 r ` | ] ' ` / 6.kXXX6.s p z ` ` z q.f.c.z.f.f.f.c.K.K.K.L.L.L.L.B.B.N.M.M.M.` i             a L.B.M.` l k j p 9 r e e e 5 6 h ` ` _ ~ D.tXsX+XdXdX",
".X@XXXXX3.3 % i ` _ ` _ ` h .XmXrXaXeX6.f i z ` ` z k x j h h h c y.v.c.M.L.L.B.B.B.B.B.q.p t.p.y.y.y.y.y.z.L.V.B.B.f.` k / z j j h h p h j / ` ` i <.6.@XdXiXiX",
"@X@XrXD.@.$ 6 } l l  .a j 6 XX@XiXyXrXXXXX6.f p z ` ` ` z } a j / p x x k c e.f.c.B.c.c p ` &XK.K.K.K.K.K.K.-X>X>X>X>X>XN.l.1.k.t.x.-X-XP.Z.y. .h. .r ~ jXkXgXiX",
".X8.:.$.1 : s mXkX#XD.~ 7 e S.5.A..XtXrXeXXXOX8.~ j ` k uXjXtXj.} p j z _ ` / k k c w j z u.L.L.K.K.K.K.K.K.>X4XMXMX4X6X4XMX4X4X4X4X4X4X4X4X$Xj. Xk.h.A.eXzXkXfX",
"-.#.d 4 % 6 1.F. X.XoXG.: > 6.4.5.5.j.6.tXXXOXOXG.e j a jXdXiX@XrX.X6.<.( k ` _ _ _ _ ` _ h c f.L.K.K.K.K.K.K.-X-XK.K.K.K.K.K.L.K.K.L.K.B.c.w.s ' | | l ,.3.2.4."
};
