/* XPM */
static char *_60dca831c70412fb4065a09fdd70278[] = {
/* columns rows colors chars-per-pixel */
"80 80 252 2 ",
"   c #000000",
".  c #0A0A06",
"X  c #120C08",
"o  c #1A120C",
"O  c #0B160D",
"+  c #22140C",
"@  c #291A14",
"#  c #331D14",
"$  c #341F19",
"%  c #351E0E",
"&  c #0B3A14",
"*  c #0D2A10",
"=  c #35221C",
"-  c #3C231A",
";  c #3A2416",
":  c #292816",
">  c #372827",
",  c #3A2E33",
"<  c #3B3339",
"1  c #2E2828",
"2  c #1B2C3C",
"3  c #41261C",
"4  c #44291D",
"5  c #4B2B1D",
"6  c #462815",
"7  c #532E1E",
"8  c #56321E",
"9  c #4E311F",
"0  c #6A381F",
"q  c #4B2C21",
"w  c #442B22",
"e  c #532E21",
"r  c #4B3428",
"t  c #543222",
"y  c #5B3523",
"u  c #5E3925",
"i  c #57392A",
"p  c #463737",
"a  c #533D35",
"s  c #402F35",
"d  c #623623",
"f  c #643A25",
"g  c #6B3C25",
"h  c #653C29",
"j  c #6A3E29",
"k  c #6B3622",
"l  c #753C25",
"z  c #602F20",
"x  c #0D420D",
"c  c #1E4D17",
"v  c #234A15",
"b  c #28501E",
"n  c #0E5D20",
"m  c #324C25",
"M  c #0F7B29",
"N  c #107B29",
"B  c #15752A",
"V  c #126C23",
"C  c #2E7127",
"Z  c #0E601E",
"A  c #5B441C",
"S  c #72401F",
"D  c #794A1E",
"F  c #4B5923",
"G  c #5A4438",
"H  c #594D25",
"J  c #6D412A",
"K  c #6A4429",
"L  c #734120",
"P  c #73442C",
"I  c #7A462C",
"U  c #7B4A2E",
"Y  c #784829",
"T  c #664837",
"R  c #7D4C31",
"E  c #744932",
"W  c #7A5536",
"Q  c #6E542E",
"!  c #667017",
"~  c #063548",
"^  c #2D394D",
"/  c #4B3D45",
"(  c #463B45",
")  c #503F45",
"_  c #2E546B",
"`  c #4E4149",
"'  c #53434B",
"]  c #5C4B4B",
"[  c #574646",
"{  c #575052",
"}  c #624D48",
"|  c #685449",
" . c #695855",
".. c #725C55",
"X. c #735847",
"o. c #7B645A",
"O. c #786558",
"+. c #6F6451",
"@. c #7A6B64",
"#. c #7C766D",
"$. c #4E4D68",
"%. c #85492B",
"&. c #85532B",
"*. c #824E31",
"=. c #8D4D31",
"-. c #885735",
";. c #985937",
":. c #924C2D",
">. c #A25B36",
",. c #98663C",
"<. c #936B3A",
"1. c #A8653D",
"2. c #A8773E",
"3. c #846E18",
"4. c #875D43",
"5. c #976A47",
"6. c #826B5C",
"7. c #8E6E53",
"8. c #AA6A42",
"9. c #B46D43",
"0. c #B96E44",
"q. c #A47C41",
"w. c #AC7445",
"e. c #B37246",
"r. c #BA7446",
"t. c #BC7549",
"y. c #BD7A4A",
"u. c #B57749",
"i. c #B47B52",
"p. c #836D62",
"a. c #897768",
"s. c #917C6A",
"d. c #897C73",
"f. c #917F71",
"g. c #A27F6B",
"h. c #C27C4C",
"j. c #C17848",
"k. c #C47E51",
"l. c #1E862A",
"z. c #13812A",
"x. c #248A2A",
"c. c #2D922A",
"v. c #389C28",
"b. c #369B27",
"n. c #53A01E",
"m. c #70BA1D",
"M. c #6FBA1D",
"N. c #599A2E",
"B. c #5B9A31",
"V. c #41A328",
"C. c #41A326",
"Z. c #6AA62D",
"A. c #659032",
"S. c #539463",
"D. c #B19516",
"F. c #BA9A32",
"G. c #AC8638",
"H. c #A1A41F",
"J. c #C9B31A",
"K. c #C4AA2B",
"L. c #CCB624",
"P. c #D1BC21",
"I. c #CAA939",
"U. c #A1CB13",
"Y. c #D8C81C",
"T. c #DACC0C",
"R. c #E8DD0E",
"E. c #ECE70C",
"W. c #FFFF00",
"Q. c #F5E915",
"!. c #D9C424",
"~. c #EBD429",
"^. c #E7C539",
"/. c #B68848",
"(. c #B88659",
"). c #AE8757",
"_. c #95826D",
"`. c #948473",
"'. c #9D8C7C",
"]. c #988777",
"[. c #948A79",
"{. c #BC9668",
"}. c #A18D7A",
"|. c #A4927E",
" X c #A9967E",
".X c #B49270",
"XX c #A9A776",
"oX c #C5824E",
"OX c #C9834E",
"+X c #CB894F",
"@X c #C59649",
"#X c #C58451",
"$X c #CA8551",
"%X c #CD8B53",
"&X c #C68659",
"*X c #D18E55",
"=X c #CD9456",
"-X c #D39458",
";X c #DEAC53",
":X c #CFA34A",
">X c #E3BB46",
",X c #C7996B",
"<X c #CE9B74",
"1X c #C8A57A",
"2X c #D6A467",
"3X c #E0AE73",
"4X c #34549C",
"5X c #365190",
"6X c #3859A0",
"7X c #6378A9",
"8X c #495E95",
"9X c #368195",
"0X c #44A1B2",
"qX c #00BAFE",
"wX c #0BB0EA",
"eX c #64CBE4",
"rX c #988D82",
"tX c #A49382",
"yX c #AA9581",
"uX c #AC9A83",
"iX c #AA9C88",
"pX c #B29D84",
"aX c #B29F89",
"sX c #A58F81",
"dX c #BAA286",
"fX c #B5A38A",
"gX c #BAA58A",
"hX c #BDA98C",
"jX c #B6A287",
"kX c #BAAB91",
"lX c #B6AB92",
"zX c #909DBA",
"xX c #C5AB8A",
"cX c #D5B48B",
"vX c #D7B88A",
"bX c #C2AE91",
"nX c #C5B597",
"mX c #D9B08B",
"MX c #C1B7AE",
"NX c #DFC297",
"BX c #E2C29B",
"VX c #EFD3AB",
"CX c #FEE6BC",
"ZX c #FBE3B8",
"AX c #CDC2A5",
"SX c #97A7CA",
"DX c #BCC6CF",
"FX c #DBD7D3",
"GX c #FFFFFE",
"HX c #FAFAF7",
"JX c #EEEDEB",
"KX c #F5E6CD",
/* pixels */
"; 3 e f g y T O.O.' ( p # ; }  ...s.s. .' ' ' ' ` > - a s.nXxXdXpXpXpXuXjXpXpXuXuXyX{ - u P I P J g k k :.r.y.h.oX#X#Xh.h.h.#XoXoXh.h.j.h.t.=.t P I I j y q 4 3 ",
"h P Y P J y 5 a [ , > = 5 y 5 w a  .p.] [ [ ) / , $ 4 ; +.nXhXuX XuXuX XpXpXuXuXyX .' > q f R R R R I J y %.j.j.h.oXh.h.h.h.h.h.j.h.h.8.%.y 7 j U U U I I P P J ",
"*.*.P h 6.p.i 5 5 5 y j I I J f 7 4 a a p , > - 4 t t 5 G yXbXaXuXuXpXpXpXpXuXuX@.' / > w y J y u u f J J d 1.r.h.t.h.h.h.j.y.h.j.r.%.y t h P U *.U I I I I j U ",
"=.U j T AXpXyX+.t u J P R *.U P P d q - | `.].G y j J f r 6.fXkXgXfXfXjXpXtX`.d.' ' < $ q u i fXkXlXiX[.i u I h.y.y.j.y.j.t.t.t.1.d y j P P h J U U J J g d d I ",
"*.P y a.nXpXuXyX[.G u J P E *.I f T ].nXbXhXaXtX .q u h 8 X.6.f.@.@... .} ] ]  .' / = 3 e t iXgXpXpXyXtX .5 y 9.h.h.j.t.t.r.t.-.y d E g I ,.y.#X$XoXh.h.j.y.*.P ",
"I h i '.kXkXuXyXyXd.3 f J I I u o.AXnXbXhXgXuX`.[.] 5 u f a o...} } ] ] ] ] ] ] ' , ; q t `.hXjXpXpXyX|.`.; e %.j.j.t.t.t.r.=.t E pX7.,.%X+XOX$X#XoXoXh.j.r.%.g ",
"P y p.}._.`.'.'.`.d.> e P *.P t a.a.fXnXbX}.yXiXtX .; t f e G | ] ] ] ] [ [ ' ) p = 4 e O.hXdXdXpXpXuXyXrXw q t 1.h.t.t.r.1.y j j X.,.$X#X,Xy.oX#XoXh.h.j.r.=.d ",
"j t _.6.].kXhXpX|.[.p 4 j U Y i a.O.6._.yXhXfXjXrX' = e f ; . . . B B B B B B B B B B B B B & o o > }.yXtX] 3 t g 0.t.y.t.%.f P g -.%Xu.(.i.u.u.oXh.h.j.t.e.;.y ",
"d | o.o.p.'.fXhXiX`.` - f P I 7 ]  .o.O.f.pXkXtX' / = q h ;       N N N N N N N N N M N M N &     1 uXyXtX#.# q u %.1.;.l d j y <.%X%X%XoX%X$X+Xh.h.j.t.r.e.%.5 ",
"u | | a.6.o.o.p.p.' ( ; h P P h 5 w | | o.o.o.) ` ( # q f - . . . N N N N N N N N N z.N N z.& . . 1 '.'.`.[.= q u j g y f h P i.%X%X%X%X%X$X$XoXh.t.r.t.8.%.d f ",
"f q G o.o. .o.O. .` , 3 J g I J y t 3 p | .. ./ / > .     v V.V.V.V.V.V.V.C.V.V.V.V.V.V.V.V.V.V.V.C       { , w y J J I W P oX%X$X$X%X$X+XoXh.t.t.t.;.k d j P J ",
"8 y t r a [  ... ./ > t P U *X#Xu.J u 8 3 p p > = 4 X     c V.V.V.V.V.V.V.V.V.V.V.C.V.V.V.V.V.C.V.C       < < - t u J P I k %.>.t.$XoXoXoXoXy.j.h.r.I y P P f h ",
"].} t y t 5 w a a > 5 J P -.+XoXh.e.d E h 8 5 3 3 q o O O c v.v.v.v.v.b.v.v.v.v.v.v.v.v.v.v.v.v.v.C O O O 1 1 @ q y j P I P h k k %.>.9.j.h.j.j.1.k y j f u a.fX",
"|.tXo.q y f f d y u I U P ,.$XoXh.y.;.4.xXT 5       n M N N N N N N N N N N N N M N N N N N N M N N N N M O     @ y h d P -.,.J h g d d z l =.;.I f j t o.hXjXpX",
"|.|.'.d.G e f j J P *.*.g w.$XoXh.h.t.E O.T 4       n N N N N N N N N N N N N N N N N N N N N N M N N M M O     @ u 5.oX%XOXoXoX1.U f j J J j j J j G iXhXdXpXpX",
"|.|.'.'.[. .4 u j I *.*.f +X$Xr.y.h.y.U # 3 4 * * * V l.l.l.l.l.l.x.l.l.l.l.l.l.l.l.l.l.x.l.x.l.l.l.x.l.l.& * * : W <.,.%Xy.(.;.h.h.u.-.j J P I P t fXxXgX}.`.pX",
"yXyXtX'. .` , y P R *.R P *X$Xh.h.h.t.t     O N N N b.V.V.V.V.V.V.V.V.V.V.V.V.V.V.V.V.C.V.V.V.V.V.C.C.V.V.l.N M &     X $XoXt.y.h.y.y.h.y.g P P f o.bXnXhXjXpXdX",
"uXyXtX ./ s = t P I *.U Y j.oXoXoXk.9.%     O N N M b.V.V.V.V.V.V.V.V.V.V.V.V.V.V.V.V.V.C.V.V.C.V.C.V.V.V.l.N N &     X %X$XoXoXh.j.y.y.t.*.J I y s.6.yXnXbXgXhX",
"'.].@.( < $ 5 h P E *.*.I g l l l k k #     O C C C Z.m.m.Z.N.N.N.m.m.m.B.N.N.Z.m.m.m.m.m.m.Z.N.N.N.N.N.B.x.l.l.&     X *X-X*X%X%X$Xh.y.t.8.f I u } o.| o. X X X",
"[ ' ( > $ q h J g j I *.=.*.I I I I I 3     o q.q.q.R.W.W.!.q.q.G.W.W.W.F.q.q.K.W.W.W.W.W.W.L.q.q.q.q.q.q.N.V.V.v     X -X-X-X%X%X$Xh.h.t.r.P P P t w p [ | } } ",
"p , = 3 y f f -.w.e.P P *.*.R *.*.R R 3     o q.q.q.R.W.W.Y.q.2.G.W.W.W.F.q.q.K.W.W.W.W.W.W.L.q.q.q.q.q.q.N.V.V.v     X -X-X-X*X%X$XoXh.t.r.;.h I I h 7 ; > p p ",
"t t 8 f U 8.#XoXoXoXoX,.P P R R y t e 5 - ; A K.K.K.Y.Y.Y.P.K.K.K.W.W.W.F.q.q.K.W.W.W.W.W.W.L.q.q.G.K.K.K.H.Z.Z.C * * * -.-.-.#X%X*X%X$Xj.t.9.f I R P g f 8 5 5 ",
",.8.u.oXh.oXoXoXOXoX#XoXOX1.*.g .     r q.q.F.W.W.W.F.q.q.P.W.W.W.W.W.W.F.q.q.K.W.W.W.W.W.W.L.q.q.F.W.W.W.>X;X;XA.N N B       w.$X$X$X#Xj.r.9.g U P I <.1.e.u.u.",
"h.oX%XoXoX#X$X%X$XoXoXOX$X$X%X$XX     r q.q.F.W.W.W.F.q.q.P.W.W.W.W.W.W.F.q.q.K.W.W.W.W.W.W.L.q.q.F.W.W.W.>X;X;XA.M N B       i.oX#Xh.y.t.r.;.J I U -X+XOXh.h.h.",
"u.$X%X%X%X%X=X-X=X/.u././.<X<X<X9 ; ; 3.Y.Y.!.L.L.L.@X@X@X!.W.W.W.L.L.L.P.Y.Y.!.~.~.~.L.L.L.F.q.q.G.P.P.L.~.~.~.H.F F F ; 6 ; ).<X<X,Xw.w.w.;.P I ,.%X%X%X$X+Xh.",
"oX$XOX$X$X%X-X-X-X/.q.q./.cXcXcXU L L D.W.W.E.q.q.q.:X;X;X~.W.W.W.2.q.q.R.W.W.Q.;X;X;Xq.q.q.q.q.q.q.q.q.q.E.W.W.D.L L L L L L 1XcXcX,Xq.q.q.;.P P w.*X%X%X*X%X$X",
"oXoXOX*X%X%X-X-X-X/.q.q./.cXcXcXU L L D.W.W.E.q.q.q.:X;X;X~.W.W.W.2.q.q.R.W.W.Q.;X;X;Xq.q.q.q.q.q.q.q.q.q.E.W.W.D.L L L L L L 1XcXcX1Xq.2.q.=.J g w.%X=X$X%X*X%X",
"$XoX%X&X,X5.#X-X-Xw.-.-.5.VXVXVX<.-.-.J.W.W.E.@X@X@X@X@X@XI.P.P.P.P.P.P.~.~.~.^.@X@X@X{.{.{.{.{.{.(.q.q.q.E.W.W.J.-.-.<..X.X.XBXVXVX1X-.-.-.;.f g w.%Xt.y.$X%X$X",
"h.$X$Xu.8.i.=X-X*X;.L L -.CXCXCX/.q.q.P.W.W.Q.;X;X;X/.q.q.q.q.q.G.W.W.W.^.;X;X=Xq.q.q.cXcXcXcXcXcX1Xq.q.q.E.W.W.P.q.q.).CXCXCXCXCXCXxXL L Y 8.y g 8.$X%X$X$X$XoX",
"h.$X$X%X%X%X%X%X%X;.L S -.CXCXCX/.q.q.P.W.W.Q.;X;X;X/.q.q.q.q.q.G.W.W.W.^.;X;X@Xq.q.q.cXcXcXcXcXcX1Xq.q.q.E.W.W.P.q.q./.CXCXCXCXCXCXxXL L Y 9.t g 1.$X$X$XoXoXh.",
"h.h.oX#X#Xh.oXOX$Xe.1.1.8.).).).0X0X0XS.D.D.D./././.P.Y.Y.Y.Y.Y.Y.^.^.^.@X/./.(.,X,X,XVXVXVXVXVXVXVXvXvXvXI.K.K.I.@X@X{.eXeXeX'.).).w.>.,.1.e.y g ;.oXh.h.h.h.j.",
";.1.y.oXoXh.h.j.h.#XoXh.e.L L L wXqXqX9XL L Y q.q.q.R.W.W.W.W.W.W.;X;X;X/.q.q.(.cXcXcXCXCXCXCXCXCXCXCXCXCX(.q.q.@X;X;X2XqXqXqX{ S l &.r.r.0.e.f J %.h.k.t.1.;.>.",
"t y d k l >.j.oXh.h.h.y.9.S L L wXqXqX9XS L Y q.q.q.R.W.W.W.W.W.W.;X;X;X/.q.2.).cXcXcXCXCXCXCXCXCXCXCXCXCX(.q.q.@X;X;X2XqXqXqX{ L S 0 l %.1.8.g I l ;.I k f y 8 ",
"h h h J h d %.1.j.h.h.t.1.;.1.1.~ ~ ~ ! T.T.J.&.&.&.I.^.^.^.^.^.^.;X;X;X<.&.&.5.cXcXcXCXCXCXCXCXCXZXNXBXNX<.&.&.F.Q.Q.~.~ ~ ~ #.6.W u t t y d g I P P I P g y T ",
"i X.5 y J I g k :.9.h.h.h.y.h.t..     ! W.W.R.S L L @X;X;X;X;X;X;X;X;X;X-.L L 5.cXcXcXCXCXCXCXCXCXVXcXcXcX-.L L D.W.W.E.      _.fXiXuXa.} 5 u P *.*.U P y | |.nX",
"fXfX`.r 5 h I P d l 1.j.y.t.j.8..     ! W.W.R.L l L @X;X;X;X;X;X;X;X;X;X-.L L 5.cXcXcXCXCXCXCXCXCXVXcXcXcX-.L L D.W.W.E.      _.jX|.'.`.rXO.4 h P I I K iXnXxXhX",
"pXuXuXrX| 4 u P P h k >.t.y.1.k .     ! W.W.E.<.<.<.t ; ; Q /./././././.{.{.{.xXVXVXVXNXNXNX.X5.5.W > > > -.<.<.P.W.W.E.      a.yXjXuX].f.`.p 4 h J h _.nXxXhXdX",
"pXuXyXtXrX#.w y J E P g %.g t u .     ! W.W.E.q.q.q.@     r q.q.q.2.q.q.1XcXcXBXCXCXCXcXcXcX5.L L 8       -.q.q.P.W.W.E.      _.jXpXuXyXf.{ ` = t j t yX].dXhXhX",
"uXuX].`.'.rXd.r y J Y I j f u i X     ! W.W.E.2.q.q.@     r q.q.q.q.q.q.1XcXcXBXCXCXCXcXcXcX5.L S 8       -.q.q.!.W.W.E.      '.hXkX}.@.` / < = y h | f.a.s.bXjX",
"pXiX|.tXtXd.@.s q u J I h u a.kXX     Q >X>X:XY Y Y MXFXFXzX8X8X8XY Y Y {.cXcXBXCXCXCX-.&.&.$.5X5X7XFXFXFX7.Y Y G.>X>X:X      | '...' ' / p $ q I 8 X.a.6.6.fXbX",
"pXpXaXrX .( / $ w u J P 8 yXbXhXX     Q ;X;X@XL S S FXGXGXSX4X4X4XL L S {.cXcXBXCXCXCXY L S $.4X4X7XGXGXGX7.L L 2.;X;X@X      a p.[ / / < $ 5 E E y a 6...6.a.iX",
"pXiX@.' / < > ; t J 7.j q ].nXxXo     Q ;X;X@XL S S FXGXGXSX4X4X4XL L L {.cXcXBXCXCXCXY L L $.4X4X7XGXGXGX7.L S 2.;X;X=X      =  .' ( , = 5 j R R h 5 G | O.a.o.",
"`.] ' / < $ r X.| T J j e a. XbXdXpXgX] . . @ q.q.q.FXGXGXSX4X4X4XHXHXHXKXZXCXCXCXCXCXHXHXHXzX4X4X7XCXCXCX>     . . . X U f 7 5 4 > = 4 y j U Y T u y 5 > | p.p.",
" .' ` , $ 4 lXkXjX'.i J e 6.6.fXnXyXO.1     o q.q.q.FXGXGXSX4X4X4XGXGXGXKXCXCXCXCXCXCXGXGXGXzX4X4X7XCXCXCX>           . oXoXe.;.E t u J P I P _.fX`.G y y r +.O.",
"] / > = 3 '.bXfXiX`.r f 5 | o.a.f.} [ 1 .   + <.<.<.FXHXHXSX4X4X8XHXGXGXKXCXCXCXCXCXCXHXGXGXzX4X4X7XZXZXZX1     . o o @ u.u.w.t.y.t.-.f J I h fXfXiX@.- y u q G ",
"' > ; 5 O.nXhXgXtXd.s 5 t 4 | o.@.[ ` p > 3 G       W q.q.{.cXcXcXCXCXCXCXCXCXCXCXCXCXCXCXCXBXcXcX1Xq.q.q.+     rXGXGXJX      ,.h.y.y.e.g J T @.p.a.{ > e h j g ",
"= 4 8 T nXhXgXgXjX{ , 3 y 8 4 G  .p > ; 4 a.iX      W q.q.{.cXcXcXCXCXCXCXCXCXCXCXCXCXCXCXCXBXcXcX1Xq.q.q.+     rXGXGXJX      -.u.j.j.u.g h a  . . .' = q h P E ",
"u f t kXhXhXhXjX ./ 1 G 6.6.X.i 3 3 5 | lXnX].      W 2.2.(.1X1XxXZXZXZXZXZXZXZXZXZXZXZXZXZXvX1X1X,X2.2.2.: . . #.JXJXFX. . . 4.-.8.9.1.d J f q r p > 4 u I R R ",
"J J 5 yXnXbXlX .) p ] nXhXfXpX@.t t O.nXbXhX`.      8 L L L L L L cXcXcXcXcXcXcXcXcXcXcXcXcX5.L L S S S L C N N m q q q L L S X     # d J J j h u u f P I I P j ",
"j j t } f.iX ./ ( 1 a.hXpXuXyX] 4 5 ].kXhXdX_.      8 L L L L L L cXcXcXcXcXcXcXcXcXcXcXcXcX5.L L S S L L C N N m q q q L S L X     + J I R R U I E P J u i t t ",
"f h f 5 }  .] ( 1 @ p.fXgXuXtXs ; r s.`.p.a.@.< < < H H H K L L L }..X}.XXXXXXXXXXXXXXXXXXXX+.H H A A A A b Z Z m e e t 5.5.5.+     @ I I I P h y i T o._.iXd.r ",
"r y u y q a / > - ; O.o.a.a. .= ; r `. .    , GXGXGXS.M N m L L L       n M M N N N N N N N N N N V x x x .     ; L L U CXCXCX>     @ U g X.p.].fXbXfX XtXtXd.{ ",
"tXO.i t t t t t y 5 [  ... .' @ ; a yX|     , GXGXGXS.N N m L L l       n M N N N N N N M N N N N V x x x .     ; L L U CXCXCX>     # P 6.nXhXpXyX|.'.uXyX|.{ < ",
"tXtXtXa.G 8 d K J f 5 a }  .p $ 3 } `.}     1 DXDXDXS.B B m 5 5 6 O O O Z N N M N N N N N N N N N V v v v .     @ 7 5 t yXyX X> @ @ 5 t lXhXgXpXuX XyXtX|. ., O.",
" XtX|.|.'. .5 u j J f t q r w t t T a.p     O _ _ _ _ _ _ 2       x x x V N N N N N N N N N N N N C L L L X                   5 E E J } AXdXjXpXuXyXyX].' , [.gX",
"yXyXtXtX'.[.#.w t h J I P J J P f r o.<     O _ _ _ _ _ _ ^       x x x V N N N N N N N N N N M N C L L L X                   5 *.R y s.jXbXpXpXpXuX`.( 1 '.gXdX",
"`.`.`.f.`.d.d. .4 f P I P j U f 5 # p > + + @ $.$.$.^ ^ ^ 1 + + + v v v n.n.n.n.n.n.n.C C C C C C C H H H X     o ; ; ; # # # 7 I P i a.p._.fXgXpXp.( 1 p hXdXpX",
" X}.'.'.'.'.[. .> t J J d w.h.;..     # L L L S L S o     # S L S S L S T.W.W.W.W.W.W.D L L L L L H M N N O     f r.e.e.9.9.1.l J P r o.O.O.| s. .( 1 # f.dXpXpX",
"|.tX'.d.@. .' ( , q h j ,.oXt.r.X     # L S S S L L o     % S S S S L S T.W.W.W.W.W.W.D L L L S L H N N M O     u 9.9.9.1.=.I k P I y r  .....o.` , # r fXpXpXpX",
"@. .' / / ( < > - t d -.OXh.j.r.X     r 5.5.5.).).).@     : F F F F F F H.U.U.U.U.U.U.F F F F ! ! ! x.x.x.O     5 %.P k d d h J I U E f w a |  .s $ ; +.pXpXpXuX",
"( p p , > = - q y y <.#X$X$Xh.u.X     | cXcXvXCXCXCXp     & N N N N N N N N N N N N N N M N c.V.V.V.V.C.V.*     - P I R U R U *.*.R I P J y 5 w 3 q t r | p. .] ",
"3 3 5 e y u f h h i.%X$X$X#XoXy.X     | cXcXvXCXCXCXp     & M N N N N N N N N N N M N N M N c.V.V.V.V.V.V.*     # f h J E *.*.*.*.*.R R E P J j J J J f t 4 3 ; ",
"J P I P J f P ,.$X%X+X$X$X#X#Xh.X     : G G } +.+.+.o     & N N N c.c.c.c.c.c.c.c.c.c.c.c.c.c.x.x.C c c c ; = +.p.s.X.y J R *.R P J P I E I P J g h f f d f d u ",
"j I P J -.u.*X%X$XoXoXh.$Xh.oXh.X                         & N N N V.V.V.V.V.V.V.V.V.V.V.V.V.x.N M Z       5 fXfXuXyX'.| t J I h O._.6.K g J f 1.1.9.e.9.;.-.P y ",
"g P J =X$X$X%X%X%XoX$X#X$XoXy.t.X                         & N N N V.C.V.V.V.V.V.V.V.V.V.V.V.x.N M n       a kXpXpXyX'. .> u h i nXlXuX'.i f f l ;.;.9.9.9.1.1.=.",
"g f /.*X+X%X=X*X-X-X*X$X$X%X$XoXP h y # ; # # # # ; K K K m & & & v v v v v c v v v v v v v b m m m @ @ @ = G [ a.sX{ / , t 7 O.iXfXyX].].T y u 7 =.9.9.9.1.1.I ",
"d w.+X+X$X%X%X%X#X%X#XOX$X%X$X#XoXt.r.J P P J P ,.%X%X%X$XK                                 @ q q q q q q .     p ' / ( > 5 G '.gXjXpXpXyXyX@.t y %.9.9.9.8.;.t ",
"I +XoXoXoX$X$X$X$Xu.(.8.#X$X#XoXoXt.t.8.l P J -X%X-X%XOX#XK                                 @ q q q 5 q q .     1 / p > 5  .nXhXdXfXpXuXyXyX[.] q d ;.;.;.;.y j ",
"e %.j.j.h.oXoXoX$X$XoX$X#XoXoXh.y.t.r.r.=.h ,.*X*X*X%X3X3X4.E -.-.-.W 4.5.W R W W W W .     @ q 5 e k k k ; # @ @ o X + | iXhXdXjXpXpXpXyX`.f.{ = q u y y d g J ",
"q t k ;.>.>.1.r.+X$X$XoXoXh.h.t.y.e.9.r.%.y #X*X%XOX2X(.-.u.=X*X%X-X2X2X2X2X(.8.h.h.h..     @ q q 7 S S L e q q +     . kXgXdXdXjXpXpXuX].s.p./ > q f j J g g y ",
"r 4 u u f f f l j.$XoXh.h.h.8.i.(.;.1.9.k J %X%X%X1.4.-.$X%X-X-X-X2X2X2X2X2X(.;.h.h.h..     @ q q 7 L L L e q 5 +       kXjXpXpXpXpXuXyX X`.` ( > q f J y y 6.fX",
"f.+.q T E P I J :.oXh.h.y.t.e.1.;.8.e.8.y -.$X$X%X%X#X%X%X-X$X%X-X-X-X-X2X=XE e.h.h.y..     ; k g g L L L g k k #       `. XfXuX'.pXpXuX'.{ ( 1 3 t j y X.fXxXhX",
" X}.a.| i t g P g 1.y.y.t.t.t.9.1.;.%.k f :.j.oX$X+XoX$X%X*Xu.OX*X*X#Xw.8.-.8.h.y.y.y..     6 L L L L L L L L L ;     . 6...O.a.`.'.|.d.' / , ; q h y a.nXxXhXxX",
"yXyX|.'.'. .5 j P l >.>.;.%.k d y y f j I g :.h.oX+X+X+X+X$X$X$X$X$X#XoXh.h.h.h.y.t.i..     6 L L L L L L L L L #     .  . ..... . . .] ' s = q h g G nXxXdXdXdX",
"yXyX|.tX'.#.$ y P I g f j h h O.T f j P I U g :.j.oXh.h.h.oX$XoXoXh.h.h.t.j.h.j.j.y.5.-.,.;.@ . X X X X X X X X ; 8 q 3 r a [ } ] ] [ ' p = t J P t ].bXdXpXdXdX",
"}.|.sX'.`.` > q I R U E I J O.kX'.O.i y j Y I j %.1.9.9.1.1.1.9.h.h.h.j.j.j.j.t.t.r.e.r.r.I +                   f I h g f t e q w w w 3 5 d I I P G a.yXdX}.dXdX",
"`.|.'.'. .< $ t I P I P I d `.nXtXsXrXO.a t j I I g g k f d d d l ;.9.9.r.j.j.t.t.t.t.t.%.y @                   h t.1.I g l j h f d d y d f J I I t | O.|.dXpXpX",
"|.|.tXa.( $ 5 T h h E u f 5 ].|.pXuXtX'.'.O.a y g I I I j T u f J y k k g l =.1.9.t.9.l y I y.w.e.e.e.w.w.w.w.i.(.&X&X&Xe.5.X.7.-.w.&X&Xk.y.;.E 4.E q G fXkXgXpX",
"`.@.] / > - G nXkX Xa.G 5 w s.o.p.`.yXtXrX'.[.@.G f I g iXhXyX6.T y f j P I J g g l d f j ;.j.j.j.h.h.h.h.h.&X<XmXmX<X<X<XmX<X,X<X<X<X<X<X<X.X6.g.7.4.p.rXfXkXfX",
"[ / p 1 # 5 X.s._.`.].d.- ; O...o.o.6.+.yX'.[.[.d.w f u lXdXpX|.yX`.O.| K g I P P P P I P d l 1.j.h.h.h.h.h.j.k.#Xh.h.h.h.k.h.h.h.h.h.h.t.9.*.y E R R h }  . ..."
};
