/* XPM */
static char *_bd689636c064aa9e5771bcc96014f61TqebipnfUmlYjs9R[] = {
/* columns rows colors chars-per-pixel */
"80 80 239 2 ",
"   c #040202",
".  c #0C0401",
"X  c #0D0905",
"o  c #040609",
"O  c #040A0B",
"+  c #0C0B0A",
"@  c #040807",
"#  c #110601",
"$  c #140B04",
"%  c #1B0D04",
"&  c #130D0A",
"*  c #1A0E09",
"=  c #1D1106",
"-  c #15110C",
";  c #1C130B",
":  c #19150B",
">  c #0B1214",
",  c #151413",
"<  c #1B1512",
"1  c #1D1914",
"2  c #151A1A",
"3  c #1C1C1B",
"4  c #15161B",
"5  c #0D0E12",
"6  c #210E03",
"7  c #290F00",
"8  c #231305",
"9  c #23150B",
"0  c #29160A",
"q  c #24190D",
"w  c #2B1B0D",
"e  c #291405",
"r  c #321C0D",
"t  c #381D0C",
"y  c #211611",
"u  c #241B13",
"i  c #2B1D12",
"p  c #231D1A",
"a  c #2A1F1A",
"s  c #321F12",
"d  c #1D211E",
"f  c #37240C",
"g  c #252015",
"h  c #2C2215",
"j  c #25221C",
"k  c #2C231B",
"l  c #2E281C",
"z  c #332314",
"x  c #3B2414",
"c  c #3C2A14",
"v  c #33251B",
"b  c #3A2719",
"n  c #352A1D",
"m  c #3B2B1C",
"M  c #352915",
"N  c #3C311E",
"B  c #181D21",
"V  c #231F22",
"C  c #1D2324",
"Z  c #1C252A",
"A  c #232424",
"S  c #2B2522",
"D  c #2D2924",
"F  c #232529",
"G  c #252A2C",
"H  c #2B2C2C",
"J  c #262726",
"K  c #342B23",
"L  c #3A2D22",
"P  c #332D2A",
"I  c #362A25",
"U  c #3D3223",
"Y  c #33312D",
"T  c #3B332C",
"R  c #393527",
"E  c #2B2D31",
"W  c #2D3234",
"Q  c #2E353A",
"!  c #333434",
"~  c #3B3532",
"^  c #3B3934",
"/  c #33363B",
"(  c #34393B",
")  c #3C3C3B",
"_  c #373832",
"`  c #2F322E",
"'  c #422C16",
"]  c #432D1C",
"[  c #4A2D19",
"{  c #45321D",
"}  c #4B331C",
"|  c #4A361B",
" . c #55381D",
".. c #442B0D",
"X. c #432E20",
"o. c #433423",
"O. c #4B3523",
"+. c #453925",
"@. c #4C3B24",
"#. c #42352B",
"$. c #453A2A",
"%. c #4B3D2B",
"&. c #493729",
"*. c #543C23",
"=. c #573B26",
"-. c #433B34",
";. c #433D3A",
":. c #493C33",
">. c #543F32",
",. c #3C413F",
"<. c #4D412D",
"1. c #4F4127",
"2. c #524125",
"3. c #5B4225",
"4. c #53432C",
"5. c #5C442C",
"6. c #5C492E",
"7. c #4D4233",
"8. c #45423E",
"9. c #4C423B",
"0. c #464335",
"q. c #534432",
"w. c #554935",
"e. c #5C4B33",
"r. c #544A3B",
"t. c #5B4C3B",
"y. c #564537",
"u. c #5B523A",
"i. c #65462C",
"p. c #624C34",
"a. c #654C39",
"s. c #675339",
"d. c #75563C",
"f. c #704E35",
"g. c #3B3D42",
"h. c #363D41",
"j. c #403E41",
"k. c #3D4244",
"l. c #3F454A",
"z. c #434344",
"x. c #4C4642",
"c. c #454A4B",
"v. c #4B4C4C",
"b. c #464747",
"n. c #534B44",
"m. c #574E49",
"M. c #4C514C",
"N. c #54514C",
"B. c #5B524C",
"V. c #5C5446",
"C. c #4B4E51",
"Z. c #474F52",
"A. c #4D5254",
"S. c #4D5558",
"D. c #525454",
"F. c #5C5552",
"G. c #54565A",
"H. c #55595B",
"J. c #5B5C5C",
"K. c #5A5A55",
"L. c #504F55",
"P. c #665849",
"I. c #765D43",
"U. c #635C54",
"Y. c #635D5A",
"T. c #655B57",
"R. c #5E615E",
"E. c #776146",
"W. c #64615E",
"Q. c #6B635A",
"!. c #746859",
"~. c #716652",
"^. c #5B5E61",
"/. c #555B60",
"(. c #625F60",
"). c #5D6163",
"_. c #5E646B",
"`. c #636464",
"'. c #6B6563",
"]. c #656966",
"[. c #6B6A65",
"{. c #636669",
"}. c #65696B",
"|. c #6B6C6C",
" X c #68676C",
".X c #746C66",
"XX c #6C716D",
"oX c #73726D",
"OX c #7B736A",
"+X c #6B6E71",
"@X c #676D73",
"#X c #6D7174",
"$X c #6C7478",
"%X c #727474",
"&X c #727579",
"*X c #747A7B",
"=X c #7A7C7C",
"-X c #797875",
";X c #846D53",
":X c #847769",
">X c #847D78",
",X c #7D827A",
"<X c #84827D",
"1X c #8B827B",
"2X c #8D857C",
"3X c #948779",
"4X c #93826E",
"5X c #AF997C",
"6X c #7B7E81",
"7X c #767C82",
"8X c #7C8284",
"9X c #7C8589",
"0X c #838484",
"qX c #8B8C8C",
"wX c #888887",
"eX c #948D87",
"rX c #97928C",
"tX c #888E91",
"yX c #9B9692",
"uX c #959797",
"iX c #8D9391",
"pX c #A39C97",
"aX c #A6998A",
"sX c #AEA499",
"dX c #9CA3A5",
"fX c #A8A8A7",
"gX c #B3ACA6",
"hX c #B9B8B6",
"jX c #B0B2B0",
"kX c #A49EA0",
"lX c #C1B8B0",
"zX c #B5C0BA",
"xX c #C2C1BD",
"cX c #BBC4C4",
"vX c #D6DBDC",
"bX c #CACDCB",
"nX c #D6E0DE",
"mX c #EDF0EE",
"MX c #DAE2E2",
/* pixels */
"j.{.`.C.^.G.> C C G W 3 > 2 C > ! ,.c.A.2   @ o @ O 5 A H ^ P H 1     @   +   @     X + +         3 3 3 J , A       + + @ o 4 A G G G d X     @ o o B Q h.C.C.3 ",
"|.%X#X&X@X*XB J.H.].%XA.z.&XtXW ].|.}.fXF k.@X@X=X#XA A.D.W.J.<XJ 8.c.v.).{.! v.|.=X{.].) H H.v.W ( G.D.|.|.wXH D.|.H.v.H.) C.tX8X8XiX#XA v.K.H.J.E Q }.#X{.uX^.",
"|.|.+X6X*X7XG {.`.|.D.D.v.0XtXG H.{.%X6X/ @X$X@X{.7XF ^. X{.`.%XE ^.+X+X#X|.( *X#X%X*X*XC.k.$X&Xc.c.).^.H.`.%XW +X#X*X8X&Xg.H.7XwX8X&X{.! A.`.R.|.G.h.#X+X&X&X{.",
"D.&X&X#X#X_.C #XJ.|.'.) N.|.0XG |.}.+X*XG &X7X7X$X#XF 6X+XG.`.|.A +X*X{.].#XQ `.&X|.#X}.H.( }.8XH.c.).+X{.|.J.F +X$X#X*X*Xh./.9X9XtX8XJ.c.].=XH.|.h.c.+X*X6X|.b.",
"`.wX*X|.=X6XJ iXoXW.Y.-.F.-X>XJ 0X|.%X].C uX8X6X#X}.G 0X(.'.`.Y.) =X=X`.|.|.G J.].%X%X&X{.Q #X8X`.C.XX].R.W.J.3 D.*X=X*X8XA.`.*X9XwX0Xc.D.oXN.J.G.! c.8X6XJ.`.D.",
"A ! k.k.( ! + j j i i k a I a y _ _ H J 1 - , 3 3 3 & Y.m.n.;.m.u D P P P S # ;.n.N.J.W._ , J A 1 S M.8._ _ Y 1 U.oX'.%XrX) j v.z.k.c.H H W.m.) ! 4 ( =X`.|.`.) ",
"4 +X{.H.J.J   : n L &.X.>.:.#.#.R n R R 0.0.-.T R -.-.#.L m o.m &.L o.m m o.m z v i L L a l l n U $.R U v n v o.L U n k I l K p p A < p 1 : - < +   + B B F A o ",
"E +X`.+X`.^ X l 7.%.a.s.a.a.P.y.w.<.u.u.u.w.r.w.t.w.t.P.w.e.e.6.=.=.5.=.s.a.a.a.a.e.%.@.y.@.%.w.P.<.t.4.1.4.P.a.q.4.q.&.o.X.o.L K I K u v k l k < @ 4 qX=X|.J.@ ",
"G `.H.J.W.8.q U 4.e.5.} =.5.} *.| 2.4.e.e.2.1.@.2.2.6.e.3.=.=.=. . . . .=.5.=.O.O. .} } } { } @.4.2.2.@.| @.4.@.@.O.{ { ] ] x z m z z r r v z g < - 3 #X#X|.^.O ",
"4 / g.v.8.P n U 2.6.3. .[ 3. .*...2.| | 3.2.| | ' *.5.=.*.i.i.i. .=. .[ } =.=. .*.} [ [ ' ' { @.@.%.@.| @.@.@.@.{ O.O.{ b x M m c m ] b b x s h u   3 *X{.#X&XO ",
"o c.G.D.v.T h %.6.3.3.i. .i.3.3.*.| [ *.*.*.=.O.@.O.=.=.=.=.i.i.[ O.O.} [ } [ ' O.} ] ] m c m o.+.<.+.N o.m c N o.+.o.o.m m m m ] } *.O.O.[ s z u $ 3 |.+X&X&X> ",
"5 uX].qX0X.Xn <.e.5.i.i.i.3.3.3.*.' c { { { @.O.O.] ' O.=.=.i.i.=.*.} ' b ' ] { O.] m m m M z z h n U n M z z U o.o.m L M n n m ' ] } O.=.O.x v u # + ( z.l.h.@ ",
"5 7X6X|.=XoXn <.e.s.p.*.| ' { { c 4.] r ] ] m X.X.b x x ] =.=.O.o.c z z r w z b m z q q q u u q : ; g g ; ; h z M n n L h l v m m ] } } =.%.m n u . 8.%XD.) h.C ",
"o &X=X=X].-XK V.u.s.2.c f c m M M O.x 0 s w q z w q w w 0 r r 0 0 8 8 0 0 8 % 8 q 8 % % = ; : % $ $ $ = $ % ; = 9 9 9 q 9 q q i 6 e w r m o.m L u * v.W.D.|.+X3 ",
"O S.*X*X=X<Xl u.u.w.{ c z z n h o.M M m w e i i q 8 q z w w r z w e 8 8 e e e 0 8 = % = ; q = $ $ $ = = = q i q q q 9 i i h i i z z M i z L n g u - b.|.{.`.|.A ",
"o Q l.A.D.8.K r.u.o.+.$.n % l v M z w h w q q 9 9 q i 0 e 0 s w 0 w w 0 0 w q e i i q q u a a i : u q = 9 9 8 9 e q w z w q q i q q q 8 h #.U k - - ) J.`.|.0X3 ",
"c.8X_.G.z.J g R t.~.OXo.L $ : u w e e q w q 8 8 q 0 q i 8 q i 0 z e 0 z w z 8 q z q = i i z k u u u = % q 9 q q 9 i w i v q 9 ; - # # q :.&.v q ; - . p G ! 4 @ ",
"|.&X#X&X&X! g $.<.1.7.v L i * $ q 0 0 8 = % = q % % % q q % z 0 z z 0 w i i % i 0 z 8 i z i i = q q u ; q q u = q = 9 n q ; : = # . # u #.U.i u y & j |.&XtXJ.@ ",
"D.=X&X+X&Xx.u $.4.o.c z h a % $ % 8 q 9 % % % = 8 u 8 % 8 z 8 % e = = = % i % q 9 = 9 9 % 9 u = k % ; = ; q q = % q % = q = $   . . $ a :.:.a u < & V +X*X&XD.@ ",
"b.*X#X&X=Xx.; <.1.1.@.%.U v = = # % 8 9 * % % % % # % q % 9 8 = = = h 8 % = % % % % # $ = % $ * 9.$ * ; q q ; ; q ; q = % % $ $ . $ ; h 9.i i h p & J 0X#X#X).o ",
"` v.C.H.(.P l +.@.| c x z z h g = $ # $ * % $ * P $ $ $ = 8 q = = q = # u * K $ : : $ y ; . - S x.* * : $ $ % $ $ # $ $ u i . # $ * u k L z a K P X , wX}.H.g.o ",
"  z.) / ) k g c @.| c c m U v h u % . # $ * $ $ U.n.$ $ * % % $ = = # $ * # Y.;.u # $ $ . . & oXp . $ . . . $ . # # # h eX# # # : u u n i q i k u 1 J Q Q h.c.4 ",
"+ -X|.%X%XN.q 1.@.2.f f z M h h q % # # # # # . # pXm.. # # # # . # $ * # . Y..X: # . . * $ . gX. . * . X . # X & . p hXS X . & ; q i n z i n i p , |.&X8X9XuXl.",
"+ |.+X{.-XK.q { | @.f c m m w h ; : # . . . # X X P hXn.. . . $ # % $ $ m.U.B.rXh $ - n.l . ~ yX. X X . # . . .   p jX'.X   X * ; $ n z v P.-.l j , ).$X@X#X$XC.",
"O k.g.L.z.P g +.@.4.O.] z M M q = * $ . . . . X . X K.hXS # . $ . $ # n.D . ;.gXT V.r.2XgXj -XF.. X   X P X X . . -XoX& . X & * u % v q m $.k n p - }.@X$X$X$Xl.",
"d ! / / ) Y u N 2.@.O.b w i z i ; $ $ . # . X . &   j >X0XX & - $ $ T I -.* p >XrXg Q.2XpXW.kX< . X X x.^ .   X Y '.V . . & X & ; u 9 q i #.u h 1 , |.+X$X$X_.h.",
"c.c.l.( z.P q o.%.f ' X.b z 0 9 = $ # -.S . . X . + X - W.x.- - : * B.u -.< k 9.gX2X-.Q.Q.D K.. X - : wXX # . 1 x.1   + . +   u a m.v h m #.g i , 5 ( k.Q h.g.Q ",
"8XH.Z F g.H h o.4.@.' ] m m 0 9 = . . $ 9.'., & & X & , . x.P & $ : h Q.u u - - 1Xu K : - ~ u $ - * Y.F.& * , 8., + .   X & X F.rXk q L z n k h 1 A F l.G W G.$X",
"iX@X( g.H.Y.-.o.4.E.4.O.b ] 0 9 $ % * $   T yXm.+ & & 1   - < & ; l $ >XT u #   n.T T g X m.  p < k gX: < & & X X . X X   ^ gXwXq 8 9 h M q g j , H k.A.( ( +XdX",
"bX&X( ( k.v.i w.4.P.@.O.X.m 0 q u $ $ . # . P rXjXS < + < < # 1 ; < p ~ <Xp , & : T $ $ - 1   $ * F.U.: - 1 & - & < . & >XhXY.* # u a v n n i p , ! &XA.c.c.7XhX",
"zX8XS.c.J.0X0.%.s.3.c ' ] M 0 h # q $ . $ $   p F.xX<XS - < N.Y.D u < y eXx.X - . $ * 1 - X < & X rX; : 1 p u p a & ;.fXoX-.& . q q % n g l n : - ) qXH./.H.uXbX",
"nXuXH.H.R.[.0.w.e.*.4.{ ] M 0 8 = $ $ : . . $ X k T pXhX8.< - j oX-XT u m.yXP - ; : < < - 1 1 . ~ U.l eX!.I S T P '.pXx.~ . . # * % h i i K q p 1 M.*XD.C.C.fXvX",
"cXiXD.K.H.=Xm.V.p.3.f c M i q 8 % $ $ $ . $ . $ $ u - B.>X8.1 A . . p & 1 fX~ - ; = h i < 1 . . Q.q OXsXaXL R R F.F., u . $ # $ 8 8 l h n n.:.L h x.qX[.-X|.fXvX",
"MXjX[.[.[.0XN.7.s.s.} c q q 0 6 # % % . # # . $ $ $ :   & !   , p - & - & 8.-.  < i -.R : u * h I % 0.:X!.#.= K - #     . . * $ = q u U n n I I i 8.wX>X<X>XjXMX",
"vXfX%XoXoXwXF.7.6.*.c ' M h q % % . # . . # $ # % ; p .     V p S 1 u & X p n.u $ 9.9.h i p , -.- = ; 0.r.L y $ +   & . X # $ # = q h l I r.L L p Q.<X'..X.XjXMX",
"nXfX[.[.'.-XB.<.e. .f { U n z i % : * . $ . . :.U.9.i $ p D (.W.;.D p . . * a l S .Xl u i D & # : X - $ h u - < &   + +   & . $ $ i q l K v n v g 0.fXyXyXyXbXmX",
"mXjX0XeXeXrXU.U @.*.[ { m v v i = # - * . . : >X2X.XI u < 1 , ;..XwX.XT . # p -.9.P.; * i u p 1 - p - 1 u p S & + + @ +   X . $ * 8 : h #.n n k - Y <X-XOX>XhXmX",
"mXfX[.Y.Y..XU.%.}  .| @.n u q 8 * : : .   . ; sXpXQ.u : * - p S k ; $ # # & a -.-.; l n.l 1 p 1 X   , ;.-XoXP , o + o + . . . # % $ i u K L i a 1 oX=X-X<X>XxXmX",
"mXhXyXeXwXeXOX7.s.6.' { n q 8 8 * X 1 -.B..XQ.rXsX1X:XW.m.9.~ . < $ y $ * y ; y i = U.lX< g < & X & '.eXx.- P ) z.v.|.qXiXyXyXrX1XP.h h z I v a - K.<XrXeXrXxXmX",
"mXxXyXeXeXyX>X7.4.3.' { n k a 8 $ $ # X # S ;.Q.OXeX1X1X.Xx.;.~ $ u y ; * . . $ i i ; -.. k p j 8.N.v.< & ^ ;.) ^ v.=XuX>X.Xn.P : % ; u i V.L u 1 oXrXwXrXrXbXMX",
"MXhXyXeXwXrXOX%.s.3.| { n u q 9 : $ $ X . . . $ $ a a v :   . # $ q u ; < p k B.k u i $ : k p D 8.S 1 k - # . . , , A ,   . $ $ = q u : n v i a j ,XrXeXeXyXhXmX",
"mXbXeXeXyX1XQ.q.p.f.} { M = a % % $ $ . # # . # $ u % : X . , - $ q # u < '.gX-.< u : u k * u - 1 - N.8.x.P # X . ,   . * # $ $ $ = u g U n 8 ; 1 oXrXqXeXrXxXmX",
"mXhX<X>XOX>X.Xw.p.5.| c h q i q % : $ . # # . $ u ; ; : * j < * ; ; y < 0XfXk < < p - - . X & < - < p I T h < # X X . X .   $ # % = u l #.I i g : K.XXJ.J.[.fXMX",
"mXhX<XOX>X1X9.q.I.f.3.| M h q q % ; : . . . . - . : $ ; & . X & : = . F.F.- 1 & -   - 1   P D < , - $ P B.T . 1 - & .   . $ # # = = q K r.9.z q - R.rXrXrXqXhXMX",
"mXxXyXrXpXpXm.q.I.d.| | m 0 i 9 = q = # # . # k P y - $ k N.P . : $ - < X   , < < X - <   F.<X1 1 - $ Y.T -.* a D . . . . # # % $ 9 h h v m v K : M.oXW.'.'.fXvX",
"mXhXOX.XQ.1XQ.q.p.i...' z w i q % = = $ # . $ I P k : ^ x.p   X u - $ .     p < - . j D 1 1 xXY & p   # ;.U.* . S N.a   X . $ # 6 q h h U q.#.K j K.wX&X-X-XjXvX",
"MXhXoX>X0XwXn.q.s.i. .[ w M 0 w % % $ # . . # p 9.B..XU.1     . ; u p ~ Y & 1 3 , X _ j - < ;.<X- ;.;.8.- P -.. . b.=X;.. & # = % e q q h &.#.R g M.,X].|.|.jXnX",
"vXfX.X-X[.wXB.q.p.I.=.@.f i z e = % % # . . . # F.bXrX1 . & & 1 S -.OXF.D 1 1 p p - .X< & X & P & - k x.-XwXF.k & & ! kX>XX * & % 0 w h M &.U K d b.,XR.D.D.iXcX",
"bXfXD.v.D.=XP.6.f.I.} { m w q % = ; : $ # . # wXgXn.k - 1 u < ;.pXrX-.- 1 P P h u ^ yX: < . S & * ; ; $ * i '.yXOXS 1 ^ %XeX1 * % 6 8 w m o.U K : _ XXH.J.J.uXvX",
"cXdXH.S.).0X%.p.d.I.} m r 8 0 9 y : $ . X ; wXF.p ~ x.u & * P -.u p 1 - y k K u u -.<X- X # x.& * u m.y # #.$ $ B.B.~ . < ;..XS % 9 0 M m t.U K j ) =XH.A.A.wXhX",
"cX8Xk.c.S.-Xq.6.d.;XO.b r r i % $ # $ . I '.* $ # - S k & . D rXu u p j . p p < - ~ x.* . - F.& ,   < B.I ; 9.k g 2XeX#.u y -.R % 0 0 w y.o.R -.p - v.c.( W =XbX",
"dX#XQ ( Z.z.o.3.I.f.x ] b r 8 = * ; $ $ h X . . & # u < * & >XY.k k P # $ . k * - l < P < & Y.H . p & p Q.9.B.a v P.P.P.2X:X= % 8 8 8 m m ~.$.R 1 Y `.D.( ( $XuX",
"&XD.W W k.j m 5.d.f.x b x w 6 8 $ $ $ $ # . $ . . . X . < Q.U.P < P P . 9.p * & * * # -.S . J.D.+ & x.1 W.R n.9.P.3X:X3XP.lX.X!.= % q M t.+.<.R j j G ( F C H.8X",
"F 2 4 C F , v 5.i.f.O.x t r 0 % % . ; $ . # . . . . & . x.fXS . .   - -Xu X . # . # . y ~ - ) '.+   S qX< # q 1XOXt.sX:X3XlXL % n 9 q o.M P.w.R 1 , 2 c.k.Q ,.,.",
"G ).J.D.^.3 0 5.i.i.[ b x 6 % = = % . * * $ . $ # .   F.lXP # . X p yXU.# # . . . * X   P ~ p J.+ +   [.yX$ q 1XP.i &.L 3X!.% % q = q z $.o.$.R g + 2 Q / ( W 5 ",
"! =X|.).&X, b O.i.i.[ s x 7 9 w % $ * # # $ $ . . X l fX-.. # . . 0X'.& . . . . &   & # X x.& 8.& & X u >XOX; !.r.V.y.. # # # 8 = 9 z $.q.u.$.R p X ) v.A.H.k.@ ",
"Q ].H.H.`.3 M =.f.i.x ' ] x s % % % # # $ ; - $ $ . eX-.$ * $ . P.9.* $ . $ $ # * . * X . u T P m.n.n.B.-.Y.!.Q.m.u eXu $ . . < % w z &.y.P.%.K i + D.`.`.`.6X  ",
"Q ).G.+X}.3 m =.i.I.=.O.O.b % i % $ $ % % $ # $ # -.P * q $ u ; q q # * % * # $ - - < : k K ~ T T P * # . $ $ B.U.$ * B.. . X * 9 i v &.P.t.U K u - (.J.+X|.|.  ",
"4 C B C 4 + M i.i.d.*.>.O.e w 8 % % % 8 8 % % * * q q q % u 8 8 u 9 q = % * % : $ * - $ i ; u K y * * = ; = . L q a $ * * . . & y w m %.a.&.o.n u < -XG. XJ.D.  ",
"c.qX%X6XtX.X+.5.i.I.t >.r s 6 % % 8 9 6 % * * * * # = q = 8 9 q q % q % % $ $ $ * : $ $ : $ % a v % q = % u 9 = = : : < . , X * * q b &.&.o.$.n u & `.J.D.J.z.  ",
"^.8X0X8X8XqXm 5.d.i.=.' 7 x w % w w w 8 % % * % % q % % q q z q i 8 h q q q q = u ; % q q q = q a i y u i 8 9 = = i i = u ; - . # i z m +.o.U K l < -X{.|.C.b.@ ",
"J.tX0X8X8X-Xm 5.i.i.[ x x z % v z w 0 0 9 6 6 8 % % q i 8 m M M i q z 9 8 = q q q ; q h i i q = 8 q % = q 8 q i 8 i i z q 8 $ $ # 8 v m +.m U K ; - H ) G ! G o ",
"G k.H.D.A.v.m =.i.=.' b ' e v b w 0 0 0 9 % % 8 q i 8 q 0 s w o.e w z w w 9 q q q i n v v i z q q u q h s i w 0 w z b M i z 0 % % # i o.o.+.%.R p - z.G.{.|.`.3 ",
"k.D.H.^.{.A 0 *.i.i.O.O.e b m I s M z w w q 0 8 i 9 i q e v 0 w 0 M q q i 0 q q i h L i U v L v k k z I m z 8 M z r m o.w 8 M 8 = # # M 7.P.7.T j - -X$X8X#XiX/ ",
"H.8X&X=XuX~ z w.6.i.*.*.@.{ K n o.@.+.o.m z n k k i i q k i i i = i h a k u q i i k a K g v L L v n v U #.v h w h z M z v q q = = . = n $.P.$.l 1 , |.0X0X@X7XQ ",
"@X9X7X8X-XS a %.3.i.i.E.;X4.#.V.~.E.s.&.+.q.V.7.:.K &.9.v k L I i L L n n #.n i 9 v 9 n = v L q.y.z h m U 7.y.$.w.7.U L 7.L i v M $.z %.V.$.#.D 1 X wX8X&X@X7XQ ",
"$X}.8X+X|.S z %.p.3.;X5X5X4XaX3X!.sX4X:X3X4X+.y.o.o.V.P.#.r.P.:.m q.t.P.V.~.y.m m ~.P.V.%.!.OX!.q.q.:X:XP.P.E.P.!.3X~.~.P.r.P.~.:XOX~.~.!.0.n u : - qXtX7X&X@XZ ",
"@X9X&X^.&Xp n %.*.d.;Xd.;XE.I.e.p.p.e.c { { m +.+.m U o.z M L m m m o.y.m w w m w m o.<.<.+.$.w.<.o.o.o.+.<.1.+.w.+.z h n r.9.$.y.o.:X:X7.n k 1 -   Y ,.! Q ( > ",
"O G G G A   k :.t.s.E.E.d.E.I.p.I.s.s.e.{ @.o.@.+.m m m o.m o.@.{ c x M M O.%.{ o.+.%.@.q.%.&.@.o.4.%.@.q.2.4.w.t.1.m U m o.7.%.<.<.<.$.R g u p - & Y D.D.c.c.O ",
"C tX&X&X+X. p U %.w.s.I.E.I.s.I.I.s.s.@.4.@.q.<.&.+.7.&.$.o.$.m @.c O.@.o.m o.o.y.4.%.<.q.<.@.%.+.4.1.w.q.4.t.q.7.o.$.M N 7.n <.U $.U $.n h h : $ X D.oX#X#X].@ ",
"2 *X=X|.%X@ j ^ K +.q.e.s.s.6.s.e.P.t.w.w.y.%.%.%.U U $.m z m o.o.N o.+.N +.+.N N m M o.M U z N q.+.o.+.%.<.7.+.7.7.#.n U R U K U +.$.n g g ; < &   N.].`.XX`.@ ",
"3 #X|.%X%X@ 1 j K i R o.%.%.1.+.o.%.$.%.R U R R v U n v g n l n M N m o.z m M z i w h n q h h L v z L m n K l U R g l l k g k g l l l i u p p < - + z.XXXX].D.@ ",
"3 |.[.].%X@ , 3 1 j i n g l v v K g k k g g K i g p l i u g j g g K g i g u g q u ; q u ; g : u : q ; : ; h < < 1 1 1 : 1 < 1 - 1 : < 1 - < & , , @ b.|.{.`.%X@ ",
"+ Y Y c.(     + + - 1 + - - : - X - & : $ X - $ X < & X X 1 A S P j P : 1 < - - X - & X - X 1 X <   - X & . X X   X +   + + @ + X . X . & X + o   o E H.H.`.%Xo ",
"P j ` ,.z.4 E ( ) g.A A ,.D.A.H.D.N.3 H.J.8.. , 3 , 1 , z.iX8X=X-XW.J.& X , , - p z.) z.D.b., , , , z.`.J.{.{.D.! , A A 3 C d , P 8.b.! A o 5 4 , o 2 B G G J + ",
"N.W.J.|.0XC qX8X&X8X{.G dX$X7X*X0X#XG =X%XD.) =X%XJ.%Xk.c.uX&X&X=X|.|.G {.|.{.) v.0X-X%X%X-XA #XJ.G 6X=X6X8X0X0X( ^.8X#X&X&XH.) qX%X|.*XC.^.iX6X&XF `.`.^.H.J.E ",
"`.{.].{.*Xd 8X&X=X*X{.E $X&X9X8XtX{.G #X+XG.z.`.].^.{.v./ &X#X&X{.{.+XH }.{.`.v.b.%X].|.%X%XG H.^.H ).6X#X&XtXuXk.H.{.).#X*X].) |.%X#X=XD.C.&X#X@XF ).{.`.{.=XH ",
"=XJ.].J.].H &X+X}.*X6XF 0XtX8XtX*X&XE |.|.^.! {.`.{.{.C.W 8X}.).}.+X0XF `.|.J.z./ #X%X#X|.0XF H.#X( {.8XwX{.8XqX( G.+X+X|.].R.) %X#X%X&XH.c.&X#X7XQ ^.).{.J.`.! ",
"+X+XJ.`.].2 |.`.#X|.+XF 0X0X7X6X8X8XQ ].|.).! %XJ.-XwXH.! %X).|.|.+XuXA J.D.].C.( |.#X#X=XuXH C.].2 H.&X8X8X&XjXz.c.#X#XR.-X%X` ).%X6X&X/.h.).8XiXG ^.`.`.`.oX^ ",
"&X+XG.J.J.2 + , + 5 o 4 {.&X&X*X6Xc.+ 4 3 5 1 ) ^ ) ! 4 A ) k.c.c.g.! + , 4 4 @ C z.c.c.C.,.O @   + ( c.)._.].A.A 3 H H ^ Y d J J.H.{.+X( > B B C O H.).&X%XiXA "
};
