/* XPM */
static char *_645aca2c05b4690be50661b9f9a71d4[] = {
/* columns rows colors chars-per-pixel */
"80 80 251 2 ",
"   c #331E19",
".  c #291D1B",
"X  c #3C231B",
"o  c #36221B",
"O  c #2F201B",
"+  c #0E172B",
"@  c #141625",
"#  c #151925",
"$  c #1B1B25",
"%  c #12162B",
"&  c #141A2C",
"*  c #1A1C2B",
"=  c #181624",
"-  c #0E1A32",
";  c #141C32",
":  c #171E35",
">  c #231E28",
",  c #201E33",
"<  c #1C212D",
"1  c #1C2334",
"2  c #1B243B",
"3  c #16243A",
"4  c #23232C",
"5  c #2B2429",
"6  c #382928",
"7  c #232533",
"8  c #2B2B34",
"9  c #2C2D3A",
"0  c #242939",
"q  c #362D34",
"w  c #393339",
"e  c #2D313A",
"r  c #45291D",
"t  c #4C2B1E",
"y  c #42261C",
"u  c #532E1E",
"i  c #55321F",
"p  c #4C2D22",
"a  c #442B24",
"s  c #532F21",
"d  c #49322A",
"f  c #543222",
"g  c #5B3523",
"h  c #5E3825",
"j  c #58392B",
"k  c #463738",
"l  c #553D35",
"z  c #422F33",
"x  c #623623",
"c  c #643A25",
"v  c #6B3C26",
"b  c #653C29",
"n  c #6B3E29",
"m  c #6B3622",
"M  c #753C26",
"N  c #633728",
"B  c #64321F",
"V  c #5A4439",
"C  c #4A413F",
"Z  c #6D412A",
"A  c #6A4028",
"S  c #73442C",
"D  c #7A452C",
"F  c #77482D",
"G  c #7B4A2E",
"H  c #784227",
"J  c #674737",
"K  c #7C4B31",
"L  c #744933",
"P  c #75523C",
"I  c #1B2A44",
"U  c #192946",
"Y  c #1D3351",
"T  c #242D43",
"R  c #263349",
"E  c #383844",
"W  c #283B59",
"Q  c #363B52",
"!  c #2B3F61",
"~  c #443B43",
"^  c #4B3D45",
"/  c #463B46",
"(  c #503F45",
")  c #354154",
"_  c #354A69",
"`  c #3A5374",
"'  c #385679",
"]  c #354E71",
"[  c #4A434A",
"{  c #534444",
"}  c #53444B",
"|  c #5C4B4C",
" . c #5A4946",
".. c #494C56",
"X. c #564B53",
"o. c #585457",
"O. c #57514F",
"+. c #644D45",
"@. c #69544A",
"#. c #745748",
"$. c #685856",
"%. c #735D55",
"&. c #764F40",
"*. c #7A645A",
"=. c #796558",
"-. c #6C615A",
";. c #565867",
":. c #445A78",
">. c #495669",
",. c #556579",
"<. c #666467",
"1. c #796B65",
"2. c #757174",
"3. c #675D60",
"4. c #86492C",
"5. c #824E31",
"6. c #874A31",
"7. c #8A5433",
"8. c #875534",
"9. c #975937",
"0. c #8E4E2C",
"q. c #A35C37",
"w. c #97643C",
"e. c #8E6138",
"r. c #A8653C",
"t. c #B1653C",
"y. c #885D47",
"u. c #8A654C",
"i. c #9B6846",
"p. c #856A5A",
"a. c #997359",
"s. c #926D56",
"d. c #AA6C44",
"f. c #B46D43",
"g. c #B96E42",
"h. c #AA7348",
"j. c #BB7346",
"k. c #B5744A",
"l. c #BC7549",
"z. c #BD7A4B",
"x. c #B57447",
"c. c #A97957",
"v. c #BA7C52",
"b. c #846E62",
"n. c #897767",
"m. c #937B68",
"M. c #897D74",
"N. c #917F72",
"B. c #A67D63",
"V. c #C37C4C",
"C. c #C27949",
"Z. c #C37E51",
"A. c #B88359",
"S. c #B58253",
"D. c #8D8379",
"F. c #948474",
"G. c #9C8C7C",
"H. c #978877",
"J. c #978872",
"K. c #A18D79",
"L. c #A4927D",
"P. c #A9957E",
"I. c #B38868",
"U. c #C5824D",
"Y. c #C9844E",
"T. c #CD884F",
"R. c #C58451",
"E. c #CA8651",
"W. c #CD8B53",
"Q. c #C78A58",
"!. c #D08E55",
"~. c #D18E59",
"^. c #CC915A",
"/. c #D29156",
"(. c #D29459",
"). c #D79B5C",
"_. c #C99665",
"`. c #CF9871",
"'. c #D8A469",
"]. c #DBA465",
"[. c #3B5D84",
"{. c #3C6087",
"}. c #466589",
"|. c #466B96",
" X c #4C739C",
".X c #557598",
"XX c #596F8A",
"oX c #6E7989",
"OX c #4C77A5",
"+X c #547BA8",
"@X c #4E688E",
"#X c #758494",
"$X c #5C86AB",
"%X c #5988B8",
"&X c #5E91BB",
"*X c #658BB7",
"=X c #6D91B4",
"-X c #658CA8",
";X c #5C8DC2",
":X c #5D92C7",
">X c #6494C3",
",X c #6B9CCB",
"<X c #689AC7",
"1X c #739CC5",
"2X c #679DD2",
"3X c #618EC1",
"4X c #77A4CA",
"5X c #6DA4D2",
"6X c #77A9D4",
"7X c #79ACD6",
"8X c #9D9183",
"9X c #8C898C",
"0X c #A49382",
"qX c #AA9681",
"wX c #AC9A83",
"eX c #AA9B88",
"rX c #B29D85",
"tX c #B19E89",
"yX c #AB978A",
"uX c #B4A38B",
"iX c #BAA58A",
"pX c #BDA98C",
"aX c #B8A286",
"sX c #BBAB92",
"dX c #B6AC92",
"fX c #8F98A7",
"gX c #8DA3B7",
"hX c #AAACB5",
"jX c #A09EA9",
"kX c #C1AB8D",
"lX c #C1AE92",
"zX c #C5B497",
"xX c #D5A281",
"cX c #CDC3A6",
"vX c #88B5D9",
"bX c #96B9D6",
"nX c #8FAECA",
"mX c #A6BED5",
"MX c #B3BAC7",
"NX c #8ABAE1",
"BX c #819FC1",
"VX c #A7C3D9",
"CX c #B8C9DA",
"ZX c #BDC2CB",
"AX c #B8CFE3",
"SX c #CDD1D8",
"DX c #C7D7E6",
"FX c #D1DCE9",
"GX c #DAE5EF",
"HX c #F4F8FB",
"JX c #E7EDF5",
/* pixels */
"X y s c v g J =.=.} k k   X +.$.%.n.m.$.} } } } [ 6 X l m.zXkXaXrXrXrXwXaXrXrXwXwXqXo.X h S D S S v x m 0.j.C.V.Y.E.E.V.V.V.E.Y.U.V.V.C.V.l.7.f S D F n g p r y ",
"b S D S A g t l  .q 6 o r g t a l $.b.+. . .( / q   r X =.zXpXwXP.wXwXP.rXrXP.wXqX$.X.6 p b K K K K G Z g 4.C.C.V.U.V.V.V.V.V.V.C.V.C.f.4.B u n G G G F D D S Z ",
"5.5.S b p.b.j t t t g n F F Z c u y l k k q 6 X r s f t V qXlXrXwXwXrXrXrXrXwXwX1.} ^ 6 r g A g h b Z Z A g r.j.V.l.V.V.V.z.z.V.C.l.5.g f b S G 5.G F D D D n G ",
"7.G n J cXrXqX=.f h A S A 5.5.S S x p X @.F.H.V g n Z c p p.uXlXiXuXuXuXwXL.F.M.} } w   p h j uXsXD.<.H.j g H V.z.l.C.z.l.l.l.l.r.x g n S S b A G G A A v x x D ",
"5.S g n.zXrXwXqXH.V c l 5 L 5.D c P J.zXlXpXrX0X$.p h b i #.p.N.b.1.%.$.+.| | @.} /   y s f wXiXP.[ 8 8X$.p g t.V.V.C.j.l.j.l.7.f c L v F w.z.R.E.U.V.V.C.z.6.S ",
"D b j G.sXsXwXqXqXM.X 5 $ J K h =.cXzXlXpXiXwXF.D. .t h c l *.%.+.+.| | | | | | [ w o r f F.iXaXF.7 < M.D.o s 4.C.C.l.l.l.j.7.f J rXa.w.W.Y.U.E.E.Y.U.V.C.j.5.v ",
"S g b.K.J.F.G.G.F.M.q = # 5 J f n.n.uXzXlXK.qXwXqX3.o f c u V @.| | | |  . .{ { ~ 6 r u =.pXaXaX} & = X.8Xd a i r.V.l.l.j.r.g n n &.w.E.R._.z.U.E.Y.V.V.C.k.0.x ",
"n f J.p.H.sXpXrXL.D.~ 7 Q * d j n.=.p.F.qXpXuXuX8XX.O s b n f a d z z z z 6 6 6 y p f p uXpXpXuX8 E E 4 M.| y f v g.j.z.l.6.c S v 8.W.x.A.v.k.x.Y.V.V.C.l.x.9.f ",
"x @.*.*.b.G.uXpXwXM.9 o.hX* ^ f  .@.*.=.N.rXsX8XX.^ O p b S b b h h x g g g g b b b h %.zXzXlXM.8 oXfX$ n.1.  p h 4.t.9.M x n g e.W.W.W.U.W.E.Y.V.V.l.l.j.g.6.r ",
"h @.@.n.p.*.p.b.n./ 7 hXHX..e @.t a @.@.*.*.*.( [ ~ O f n K L L D 5.5.G F D D F D A j L.L.zXuXO.E SXJXE X.D.o p c n m g c b S z.W.W.W.W.E.E.E.U.V.l.j.l.f.6.x c ",
"c p V *.*.$.*.=.%.E 4 FXHX9X<  .g f y k @.%.$.^ / 6 a h S F J #.7.5.7.5.5.K F F D c #.m.b.pXtXw ..JXHX;.7 2.q a g b Z D P Z U.E.W.E.W.E.T.U.V.l.l.l.9.m x n S Z ",
"f g f p l  .$.%.$.$ ) JXFXDX) k l.A x i y k k 6 o r f Z F K k k K F S S Z v v S Z i @.*.p.K.D.& fXJXGXfX= / w X f h Z D D c 4.q.j.E.Y.Y.Y.U.z.V.V.x.D g S S c b ",
"H.+.f g f r a k  .= ,.DXVXDX>.5 R.x.x L b u p s f h Z F K #.4 # #.i.h.S.S.W.E.Y.V.c r  .%.m.3.* CXAXCXfX& 8 w X s h b S D S b x m 4.q.f.C.V.C.C.r.x g n c j n.uX",
"L.0X*.p g c c x J # ,.VXVXnX>.8 A.z.9.u.kXJ h n S D K G 5.k @ @ @.).).).)./.T.U.V.9.u y V b.$.1 CXVXmXfX2 8 6 X p g b x S 7.w.Z b m x x B M 0.9.H c n f =.pXaXrX",
"L.L.G.M.V f c n @.# :.bXbX-X_ 7 I.V.l.L =.J g D K K K 7.P 4 9 7 w _.).).).(.^.W.E.V.A u r @.o.* bXbXbX#XT 8 6 r f h i.U.E.U.U.U.r.G c n Z Z n n Z n V wXpXiXrXrX",
"L.L.G.G.H.$.r h +.@ :.bXvX$X) 7 B.V.z.7.t c D G D c F 7.V $ 2.2.8 a.(.).E.R.(.(.W.U.z.S u y [ & gXvXvX.X2 4 d u A S.W.W.W.v.A.9.V.V.x.7.n A S F S f uXkXiXK.F.rX",
"qXqX0XG.$.^ q g @.# ` vXvX$XW 1 B.V.l.4.b K 5.D e.R.7.F k e MXZX$ { R.).).).).(./.W.U.l.A h X.< gXvXvX.XI 8 J i.^.^.V.U.E.u.a.z.V.z.z.V.z.v S S c =.lXzXpXaXrXaX",
"wXqXqX$.^ k o f #.& >.vXvX$XW 1 m.V.f.x F 5.S 8.)./.W.s.8 <.GXJX7 4 ^.).).).).(./.W.V.z.x.L ;.3 gXvXvX.XI w _.W.^.Q.7.R.A.V #.U.V.C.z.z.l.5.Z D g n.p.qXzXlXiXpX",
"G.H.1.~ w   r b @.1 :.6X6X%XW 1 +.m x n F S Z (.)./.R.%.$ hXJXJX#X@ a.^.(.).)./.W.W.W.R.R.J.>.3 =X7X4X.XI ~ Q.W.A.8.x.!.a.> w A.W.E.V.z.l.d.c D h +.*.@.*.P.P.P.",
" .} ~ 6   p b Z +.% :.6X6X$XW 1 +.F F F F b R.!.!.W.E. .= SXDXCXMX* V /.!.(.(.!.E.U.U.R.c.} R 3 =X6X6X.XI ~ Q.z.i.S.(.).#.$ > u.^.E.V.z.l.j.S S S f a k { @.+.+.",
"k q o y g c c 8.p.& :.4X7X$XW ;  .K K K D v U.W.E.V.V.q # mXVXnXMX1 z E.!.!.!.W.^.A.x.R.#.$ % 3 =X5X5X XY w A./.(.(.(.I.8 & * $.^.E.U.V.l.k.9.b F F b u X 6 k k ",
"f f i c G d.R.U.a.& :.,X5X%XW ;  .5.K K K c j.T.W./.W.q % nXbXnX#X0 q R.!.!.W.R.r.h.~.^.O.@ % U =X,X,X XU w A././.W.).u.& 2.;.w S.W.W.R.C.l.f.c D K S v c i t r ",
"w.d.z.U.V.U.U.R.p.; :.,X2X%X_ ; k L S F F x V.T.!././.5 % gXvXnX}.3 5 6.t.U.!.W.!.(.(.J.1 # % 3 =X,X,X XU 0 a.!.W.W.Q.V E SXjX$ u.E.E.R.V.k.f.m G S F e.r.x.x.l.",
"V.Y.W.U.U.R.E.c.Q - ' ,X2XOX_ 2 [ a.w.v S m j.!./.(./.5 ; BXvX7X}.I 7 L c 0./.W./.(.(.@.@ e % I *X,X,XOXU ; %.Q.W.W.A.k 2.HXSX8 d R.V.z.l.k.9.n D G /.Y.U.V.V.V.",
"l.E.W.W.E.W.^.#.: 3 :.>X:XOXW 1 9 b.U.r.x v 0.!.~./.Q.4 - 1XvX6X}.I q L S 7./.!././._.w E fXe 2 $X>X:X XU % 9 B.E.E.=.< jXHXJX<.5 A.z.l.x.k.9.S D w.W.W.W.W.U.V.",
"U.E.U.E.E.W.Q.{ & ; :.>X;XOXW % * =.U.x.g S v j././.R.5 3 =X7X4X}.R w P S 7./.!.W.!.I.8 9XJX2.- .X>X;X XY % < =.V.R. .R ZXDXFX9X4 B.h.r.d.f.9.S S d.!.W.!.W.E.E.",
"U.Y.U.!.W.W.^. .% : ` %X&X XR + & %.V.z.v S Z 0./.!.~.5 : =X6X,X` ; q J Z 7.W.W.W.Q.$.0 hXHXjX% _ &X&X XY % < +.H l.~ ..AXVXmXfX9 =.i.d.l.x.9.Z v h.W.^.E.W.W.W.",
"E.U.W.Q._.i.R.u.4 ; R }.OX[.I % * *.z.z.9.c D v U.W.W.5 I =X6X=XU & > d Z 9.z.Y.U.v.w ..SXJXSXE U |.OX}.I % k &.n H w ..VXbXnXXXT p.R.V.x.l.9.c v h.W.l.z.E.W.E.",
"z.E.E.x.d.z.^.^.s.q 1 R ) I 1 ) # [ v.l.x.c F v q.W.W.5 U *X1X.X- E 4 q A 9.W.E.V.h.4 oXFXCXDX,.: W W T 7 k y.v D b 9 ) vXvX4X[.2 =.A.z.l.l.r.g v d.E.W.E.E.E.U.",
"V.Y.E.W.W.W.W.W.W.A.$.w 7 @ ..MXe 5 I.l.5.c K F H Y.Q.4 U *X*X) 0 jX<.@ V H j.Y.U.h.# #XAXVXmXoX% 7 q { s.A.z.r.v b 9 ) 4XvX4X[.2 #.v.z.z.l.f.f m r.E.E.E.Y.U.V.",
"V.V.U.R.R.U.U.U.E.E.R.v.u.* oXHX9X* V 6.f Z F D x t.c.# T *X.X3 Q GXSX4 { L v 4.q.i.# oXmXbXBX:.w c.R.R.E.U.V.z.x.F 0 W 4XvX4X[.2 @.v.l.l.l.x.g v 9.U.V.V.V.V.C.",
"9.r.z.V.U.V.V.V.V.R.R.Z.V = jXHXhX0 q J Z 9.7.5.b b { @ 0 -X[.% ;.HXFX) q u.K F Z +.# XXbXbX=X_ w I.R.E.E.Z.V.z.l.h.0 ) 4X7X4X[.2  .h.j.j.f.x.x Z 4.V.Z.l.r.9.q.",
"f g x m M q.C.U.V.V.V.v.k 9 MXGXSX..e #.F W.U.U.9.j 0 % 0 +X_ # MXGXGX<.< #.7.8.5.#.# XXvXvX=X_ 9 c.E.E.^.c.v.V.l.h.0 W 1X6X4X[.2 w b M 6.r.d.v D M 9.H m N g i ",
"b b b Z b x 4.t.C.V.V.c.w ) MXCXCXoX0 +.Z r.U.d.5.j 0 & 0 .XW # GXCXAXoX* C K S h  .# @XvXvX*X] 9 B.E.E.c.C i.Z.z.d.0 W 4X6X,X[.2 w V g f g x v D S S F S v g J ",
"j #.t g Z D m m 0.g.V.c.w ,.mXmXbX#X1 V F M M x Z L [ % : ` Y 0 DXVXmX,.% q b J wXD.% |.6X6X>X] 0 m.E.U.@.= %.z.f.n : W 4X5X<X[.3 [ 8Xn.+.t h S 5.5.G S g @.L.zX",
"uXuXF.d t b F S g M t.c.q ,.nXbXnXXX& k n D D Z Z L J 4 # 3 ; R VXbXbX,.3 q b.sXiXD.% |.6X6X3X] 0 %.z.v.q #  .i.x h ; W ,X,X>X[.3 E D.F.8X*.r b S D D A wXzXpXiX",
"rXwXwX8X@.r h S F b M y.e _ BXvX4X` ; 3.j x F K S F F J C 0 & 2 nXvXnX:.3 w G.K.H.2.% |.6X5X&X' 0 3.L #.# % 7 { n V ; ! ,X,X;X[.I 9 D.H.M.D.k r b Z b F.zXkXpXaX",
"rXwXqX0X8X2.a g Z D S +.0 _ 4XvX1X] ; 1.n.y J a.b F Z j cXtX[ 2 vXvXnX' 3 O.M.aXrXM.% |.5X,X%X' 0 2.p.[ 0 ;.% q &.w % ! >X:X;X{.3 $ ) qXM.X.[ O f n f qXJ.iXpXpX",
"wXwXH.F.G.8XM.d g Z F @.0 _ 1XvX<X' : 1.wXk s b Z F c =.cXsXO.T vX7X4X[.2 O.wXrXrX2.@ |.2X,X%X` 7 oXhX7 o.MX) > %.8 ; ) ;X:X%X[.U & 0 1.[ / ~ o g b @.m.m.m.lXaX",
"rXwXL.0X0XM.1.z p h S @.0 _ 1X6X>X[.1 1.uXM.X h Z D h b.K.zXX.2 4XvX4X}.3 X.tXrXtX9 = |.2X2X%X] * ) ,.= jXHX#X7 E 7 % W &X:X$X}.I % $ X.^ ~ O p D i #.n.p.p.uXlX",
"rXrXtXG.$.~ /   a j Z @.0 ` 1X6X<X[.% 1.uXtXo.y c Z V 1.m.G.X.I 4X7X4X{.3 ..wXrX2.1 @ }.<X:X%X] & 1 0 9 SXHXhXE E : % R  XOX.X:.I % 9 / w   p F F g l p.%.p.n.wX",
"rXtX1.} ^ w 6 X f Z a.$.1 ` 1X6X>X[.% 1.tX1.X.6 u J k [ N.N.[ I 4X6X,X XI ..yXwX;.+ % }.:X:X%X] & @ = ;.GXDXDX,.e k * ; W ] _ W ; 0 [ 6 o t n K K b r V @.=.n.*.",
"F.| } / w O d #.@.J Z +.3 ` <X5X&X' % <.$.X.} w r @.8 < <.M.) R 1X,X,X|.R [ yXeX;.& % }.*X>XOX] ; @ % 2.FXVXAXoX8 h.s.k < ; ; : w w 6 r g v G D J h g r 6 @.b.b.",
"$.} [ q   r dXsXuX8Xj | 2 ' >X,X&X[.% ..X.} ~ o u w # = [ 2.R R 1X,X>X|.I ) 9XM.2.+ % _ .X+X|._ * & & oXCXbXbXoX* d.U.S.u.P &.u.P f h Z S D S J.uXF.V g i d -.=.",
"| / 6 o y G.lXuXwXF.l E T ' &X,X&X[.; 9 o.z X p j > 7 * 7 ..1 R 1X<X>X|.I < 2.%.$.~ * : W _ _ I * 9 : XXbXbX=X:.% c.W.E.U.V.l.l.z.l.8.x S D b uXuXtX1.X g h p V ",
"{ 6 X t =.zXpXiX0XM.| 9 - ` $X&X%X[.; * o.d @.sX9X* <.;.* # & R >X>X%X|.U # ) 2.@.$.[ E 1 - 1 w ( <.0 :.bXvX=X' + h.E.R.U.V.z.z.V.z.z.x.v Z J *.b.n.o.6 s b n m ",
"o r i J zXpXiXiXuXO.[ = % _ }.$X+X[.; # E H.cXuXo.E hXhX9 # % R *X;X%X|.Y @ 1 <.k k z z l V +.J S.m.0 }.vXNX&X' + c.R.R.Z.x.^.v.x.C.z.l.v b l %.@.$.} o p b S F ",
"h c f sXpXpXpXuX$.^ / @ % Q W |.+X[.+ # o.zXkXG.9 ;.GXGX;.@ % R $X;X%X|.U % 0 1.J u f h n F S 7./.a.9 :.vX7X&X' % c.U.V.l.i.h.c.9.z.l.r.x Z b p d d 6 r h S K K ",
"A A t qXzXlXdX$.[ k | 8 % : - Y [.] % < 8XpXiX1.$ oXJXJX#X& % 3 ' |.}.[.I % o.p. .K F G K K v z./.m.0 }.6X7X&X' + s.h._.k.z.z.k.r.j.9.g Z Z n b h h c S F D D A ",
"n n f +.N.wX$.{ ~ 5 n.2.1 % % 2 R 2 & o.iXiXuX<.= MXFXDXfX& % % 2 W _ I % 9 u.@.4 y.K G K 5.S q./.n.0 }.6X6X%X{.+ m.Q.x.h.h.z.l.k.6.g Z D K K G F F S n h f f f ",
"b b c t +.@. .~ 6 . b.uX$.& * % 1 e o.qXP.rXwXX.= DXVXbXgX0 k +.C w E [ @.y.Z  .# z K 5.7.7.5.H Z.b.2 }.5X6X&X{.+ a.E.U.s.y.l.l.5.h S D F F S b f j P =.F.eXM.d ",
"p g h g p l ^ 6 X X =.1.k 4 ;.9 E  .H.pXiXaXwX[ % mXbXnXgXT +.v._._._.'._.F &.q @ 8 &.F G 5.5.D 6.*.0 :.,X,X%X{.+ p.V.A.{ +.k.r.g S D 5.b #.b.J.uXlXuXP.0XqXM.O.",
"0X=.f f f f f f g r  .-.e E hX;.9 $.qXiXuXiXuX[ ; gXvX4X$X2 +.d.i.h.h.i.L F #.$ 0 *  .Z g g c S L | 1 :.,X2X%X[.% +.Z.a.* 9 a.M b S K S p.zXsXtXqXL.G.wXqXL.o.q ",
"0X0XqXn.V i x A Z c p { < 9XHXfX= O.F.qXG.n.F.E ; 1XNX6X+X3 k D 0.q.d.d.k.k.l E jX# w n.uX0XV f J 8 ; {.,X2X%X{.- e B.+.@ * @.x S S K f dXpXiXrXwXqXP.0XL.$.w =.",
"P.0XL.L.G.$.t j n A c w @ ZXHXSX= e n.%.@.+.$.e - 4X7X5X+X3 k L c g M q.z.i.4 ;.JX9 < 0XqXwX0XV ^ 0 3 ' <X:X%X[.- : o.E * 0 8 b F D Z +.cXiXrXrXwXqXqXH.| 6 H.iX",
"qXqX0X0XG.H.2.a f c n 4 0 GXFXFX..4 n.%.+.+. .e - 4X5X5XOX3 k P j g c c D +.* fXHXhX* M.wXqXqX0Xw & 2 }.*X;XOX[.+ % * 1 9X2.& d 5.K g m.uXlXrXrXrXwXF.~ 5 G.iXaX",
"F.F.F.N.F.M.M.$.r c L $ ;.AXmXVXoX$ $.+. .{ k 8 - 1X6X5X+X3 o.tXwX=.f c J / T MXJXSXR <.tXwXqXG.$.& % :.*X*X X' % = 1 R MXhX* k F S l n.b.J.uXiXrXn.~ 5 k pXaXrX",
"P.K.G.G.G.G.D.$.6 f P # oXmXbXgX#X* l a 6 o O 4 - 4X6X,X%X3 O.0XqXwXn.r J e ;.FXCXDX>.E tXaXP.L.D.w & Y }.}.}._ @ > 0 ;.HXSX..q J S p *.=.=.@.n.$./ 6   m.aXrXrX",
"L.0XG.M.1.$.} ~ q p J & ,.bXbX4X:.* l f J =.n.< - 1X5X<X%XI X.wXqXK.1.d V < ,.DXmXgX,.e wXaXrX0X0XM./ ; U Y Y 2 [ [ = 9XJXGX#X$ J F g d $.%.%.*.{ q   d uXrXrXwX",
"1.$.} ^ ^ ~ w q X f J $ _ vXvX<X] & z J.zXsXP.$ - ,X5X>X+XI X.yXrXqXG.k k * ,.VXNX=XXX0 0XaXrXqX0X$.o.E q k k l y.q * jXAXDXnX= +.G F c a l @.%.z   X =.rXrXrXwX",
"^ k z q 6 o X p g g u.$ ` vXvX<X] & 5 L.lXpXG.= + ,X2X>XOXU E 9XrXwXG.[ k = >.bXNX$X' 0 n.L.H.n.1.| / w p J K S L > 0 gXVXbXnX@ V K D S Z g r a y p f d @.b.$.| ",
"y y t s g h b b b k.A.$ ` 7X7X>X] % . n.sXlX3.@ - <X:X;XOXY ; / F.-.} ~ k + >.vXNX$X_ 1 1.n.| } } | k o s Z S c A 5 0 fXbXBX=X# w K K K K D Z n A Z Z c f r y X ",
"Z S D S Z c S w.W.W.A.$ ` 6X6X>X' % . b.b.n.8 % ; 3X:X;XOXY % * $.{ ^ ~ k % ` vXvX%X] 2 %.b. . .( { 6 r h S V m.G.8 2 #XbX4X.X& 5 Z S D F D S Z v b c c x c x g ",
"Z D S Z 8.x.!.W.E.R.A.$ ' 6X6X>X' * > V *.1.4 @ ; *X:X;X XY % = $.^ w X { - ` 7X7X%X` 2 | =.} ( k 6 r c S b uXuXtXw 2 -XvX6X X; 4 F.p.A v Z c r.r.d.d.d.9.7.S g ",
"v S Z ^.E.E.W.W.W.U.A.# ' 5X6X;X' ; 6 s d k 8 @ : }.OX X}.I % q p p f c  .- ` 6X6X%X` 1 d d a X r c F G S J sXaXtXe I -XvX6X|.1 9 uXwXG.j h c M 9.9.f.f.f.r.r.0.",
"m c S.!.Y.W.^.!././.I.= ' <X,X3X' : q b c g l 4 + Y _ _ ) ; k a.w.9.9.e.#.- ` 6X6X%X` 1 V Z Z S G 5.7.5.S J H.iXuXe I -X6X5X|.2 8 uXqXH.G.J g c u 0.f.f.f.t.r.H ",
"x h.Y.Y.E.W.W.W.E.^.a.@ ' ,X,X;X' : k J S S S L @.E T 0 E  .h.E.Y.E.E.E.s.- ` 4X5X%X` 1 l K 5.7.7.7.5.K n f *.m.G.T I $X6X,X XI 8 uXrXwXqXqX*.f g 4.f.f.f.d.9.f ",
"D Y.U.Y.Y.E.E.Y.E.h.{ % ' 2X<X;X] : 8 y.n S A (.W.A.I.c.A.Q.S.R.E.E.E.W.p.- ] ,X,X%X] 1 J A D 5.5.5.5.5.D f l %.$.T R $X6X<X X0 8 tXwXrXqXP.D.| p h 9.9.9.9.g n ",
"s 4.C.C.V.Y.Y.Y.E.i.7 % ' :X:X%X' : ; @.7.c w.!.!.W.^.'.'.c.d.W.W.W.E.^.$.% ` ,X,X%X] : V h.G v K K G K K S h d { 7 U $X5X<X XT 9 tXrXrXqXJ.m.X.o p h g g x v Z ",
"p f x 9.q.q.r.j.W.u.* - ' 3X:XOX] 3 % l D g R.!.W.U.'.v.8.k.^.!.!./.].S.8 - ` ,X:X%X' 2 8 s.l.9.c K K K K G K F &.7 U +X5X>X XY 9 tXrXwXJ.m.1.[ 6 p c n Z v m g ",
"a r g h c c c M C.i.> - _ $X%X+X] : & &.x A !.W.W.r.9.7.R.W.!./.(.].'.=.* - ` ;X:X%X' 2 * =.x.q.g D F K G F G K #.0 U .X,X<X XY 0 yXwXqXqXF.[ ~ 6 p c Z g g p.uX",
"m.#.p J L Z D Z 0.v.@.% 3 :.[.' W ; w y.g 7.T.E.W.W.R.W.W.!.E.E.(.).).#.* % ` %X:XOX' 2 * %.l.6.c S D n v 5.Z F ~ % U .X:X:X XW ; o.0XwXG.O./ 6 y f n g #.uXkXkX",
"P.K.n.@.j f v S v r.k.z * : I 3 ; 7 J m c 0.C.Y.E.Y.U.E.W.!.x.U.!.W.R.J $ % _  X%X X` 1 $ s.f.g n v F d.U.V.9.b 4 % U  X:X;X|.W 3 e M.M.} ^ q X p b g n.zXkXpXkX",
"qXqXL.G.G.$.t n S M q.9.y.J l l V h m n D v 4.V.Y.E.Y.Y.T.E.E.E.E.E.R.z.#.* 2 Y _ ! I * #.k.M c c d.U.z.k.x.z.8.* % I .X3X+X|.W 2 E | | } w o t b n V zXkXpXiXiX",
"qXqXL.0XG.1.  g S D m b m b A p.A c n S F G v 0.V.U.U.U.V.Y.Y.U.U.V.V.V.h.&.6 0 3 2 4 @.d.f.g c 8.E.V.z.V.V.z.k.w & 3 :.OXOX}.R & w | } z o f A S f H.lXaXrXaXiX",
"K.L.0XG.F.[ 6 p D K F F F Z =.sXG.=.j g v S F A 4.t.f.f.t.r.r.f.V.V.C.C.C.C.v.c.a.c.k.x.j.H f r.U.V.V.V.V.C.C.z.a.4 ; R ] ` ) ; $ l a y r x D F S V n.qXaXK.aXaX",
"F.L.G.G.$.w   f D S D D D x F.zXqX0X8X=.j f n D D v m x c x x x M 9.g.x.j.C.l.l.l.l.l.l.6.f 9.Y.V.V.V.C.C.C.V.C.z.u.8 7 3 2 1 5 j b g x x c A D D f @.=.L.aXrXrX",
"L.L.0Xn.~ O r J b b L h c r G.L.rXwX0X8XH.*.l g v F F D n J j c Z g m m v M 0.r.f.l.f.H f F Y.V.V.V.V.V.V.V.R.Q.Q.R.Q.B.u.*.%.n.8.h.R.R.Z.v.w.L y.L p V uXsXiXrX",
"F.1.| / 6 X V zXsXP.n.V t a n.*.p.F.qXqX0XG.D.1.V c D v eXpXqXp.J g b A S D Z m v M B c n 9.C.C.V.V.U.U.V.V.^.`.xXxX`.`.`.xX`.`.`.`.`.`.`.`.I.p.B.s.y.b.8XuXsXuX",
" .^ k 6   r #.m.J.F.H.M.X o =.%.=.*.p.-.qXG.H.D.M.a c j uXaXrXL.0XF.=.@.A c D S D S S S S x M t.C.V.V.V.V.V.V.Z.R.V.V.V.V.Z.V.V.V.v.V.z.l.f.5.g F K K b +.@.@.%."
};
