/* XPM */
static char *_70954759a5b4fb7dda0ed40a71ed6ffrhnHCI8YNjLwr1yj[] = {
/* columns rows colors chars-per-pixel */
"80 80 255 2 ",
"   c #061613",
".  c #081715",
"X  c #0A1913",
"o  c #0C1D1B",
"O  c #181413",
"+  c #27150D",
"@  c #321B0D",
"#  c #271615",
"$  c #2C1A14",
"%  c #331C14",
"&  c #381F16",
"*  c #0D221E",
"=  c #09291F",
"-  c #10231F",
";  c #39200F",
":  c #3C2316",
">  c #362318",
",  c #3C231A",
"<  c #071A26",
"1  c #2C1D20",
"2  c #072627",
"3  c #0C2422",
"4  c #0B2A26",
"5  c #0C2B2B",
"6  c #122826",
"7  c #0B332B",
"8  c #08342A",
"9  c #102C32",
"0  c #093835",
"q  c #07333E",
"w  c #0C323E",
"e  c #17373A",
"r  c #16393C",
"t  c #2B2326",
"y  c #36292B",
"u  c #312F32",
"i  c #3C3338",
"p  c #481F10",
"a  c #57290D",
"s  c #492517",
"d  c #4E2911",
"f  c #43261B",
"g  c #45291C",
"h  c #4C2B1D",
"j  c #532D1D",
"k  c #582B18",
"l  c #57321E",
"z  c #632C1A",
"x  c #68331B",
"c  c #75351C",
"v  c #432B25",
"b  c #4C2D21",
"n  c #522E21",
"m  c #5B2E21",
"M  c #483528",
"N  c #543122",
"B  c #5C3523",
"V  c #5E3825",
"C  c #5C392A",
"Z  c #46383B",
"A  c #533539",
"S  c #623523",
"D  c #6B3423",
"F  c #633A26",
"G  c #6A3D26",
"H  c #653C29",
"J  c #6A3E29",
"K  c #743A23",
"L  c #10413B",
"P  c #384B3D",
"I  c #73421F",
"U  c #524638",
"Y  c #58453A",
"T  c #6C4026",
"R  c #6D412A",
"E  c #754126",
"W  c #73442C",
"Q  c #79472D",
"!  c #76482E",
"~  c #7B4A2E",
"^  c #764B35",
"/  c #7C4B31",
"(  c #705039",
")  c #0E2E41",
"_  c #112D43",
"`  c #043546",
"'  c #093544",
"]  c #103144",
"[  c #193B44",
"{  c #0D3F5B",
"}  c #173D57",
"|  c #223562",
" . c #453944",
".. c #4B3D45",
"X. c #493D48",
"o. c #553D45",
"O. c #643742",
"+. c #124448",
"@. c #10454A",
"#. c #1B464D",
"$. c #1D484F",
"%. c #0D4957",
"&. c #0D405B",
"*. c #164757",
"=. c #1E4B5F",
"-. c #2D4449",
";. c #1F4B61",
":. c #174669",
">. c #184F70",
",. c #284975",
"<. c #244C79",
"1. c #304D70",
"2. c #4D4145",
"3. c #4D414B",
"4. c #574645",
"5. c #54444B",
"6. c #5C4A4B",
"7. c #574A52",
"8. c #544F52",
"9. c #644B4A",
"0. c #764E47",
"q. c #68544C",
"w. c #685554",
"e. c #6C5954",
"r. c #725C54",
"t. c #765D58",
"y. c #58685B",
"u. c #6D6154",
"i. c #786459",
"p. c #7B645A",
"a. c #4D5672",
"s. c #70556C",
"d. c #786863",
"f. c #72716B",
"g. c #853E1F",
"h. c #873E26",
"j. c #87492A",
"k. c #964A2A",
"l. c #93542E",
"z. c #824E31",
"x. c #8B4D31",
"c. c #845132",
"v. c #885535",
"b. c #975835",
"n. c #A7562C",
"m. c #A35634",
"M. c #92643B",
"N. c #AB653B",
"B. c #B5693C",
"V. c #B7733E",
"C. c #8A5646",
"Z. c #876959",
"A. c #826A5D",
"S. c #946E50",
"D. c #AB6943",
"F. c #B46D43",
"G. c #B66E48",
"H. c #AC7248",
"J. c #B67145",
"K. c #BA7346",
"L. c #B87648",
"P. c #BC7549",
"I. c #BE7A4B",
"U. c #A57B58",
"Y. c #B77955",
"T. c #846D62",
"R. c #8B7464",
"E. c #897768",
"W. c #947B69",
"Q. c #8F6D76",
"!. c #837D77",
"~. c #B47364",
"^. c #C27746",
"/. c #C27D4C",
"(. c #C37E51",
"). c #A8835E",
"_. c #B98457",
"`. c #928475",
"'. c #978877",
"]. c #9C8C7C",
"[. c #B18C6A",
"{. c #A38E7B",
"}. c #A3917E",
"|. c #AB967E",
" X c #C5824E",
".X c #C9834E",
"XX c #CA884E",
"oX c #C68351",
"OX c #CA8551",
"+X c #CD8B53",
"@X c #CC8F57",
"#X c #C88959",
"$X c #D18D54",
"%X c #D18F5A",
"&X c #D29156",
"*X c #D39359",
"=X c #D99A5C",
"-X c #E19E5F",
";X c #C78E67",
":X c #D99C64",
">X c #DBA56A",
",X c #E3AE70",
"<X c #383E93",
"1X c #52348B",
"2X c #31528E",
"3X c #3E4498",
"4X c #3D4798",
"5X c #3B56A2",
"6X c #484F90",
"7X c #4F50AC",
"8X c #5D63A0",
"9X c #7944C7",
"0X c #7846C8",
"qX c #6257CA",
"wX c #6E56CE",
"eX c #9A6D99",
"rX c #C37A80",
"tX c #8D6DD0",
"yX c #A16BE4",
"uX c #988C82",
"iX c #9D9284",
"pX c #979A94",
"aX c #A49482",
"sX c #AA9681",
"dX c #AD9A84",
"fX c #A99A89",
"gX c #B29D85",
"hX c #B49F89",
"jX c #AE9396",
"kX c #B6A186",
"lX c #BAA386",
"zX c #B4A28A",
"xX c #BBA58A",
"cX c #B6A98E",
"vX c #BDA98C",
"bX c #B2A991",
"nX c #BCAB92",
"mX c #B9AB98",
"MX c #B59FAB",
"NX c #CB9796",
"BX c #C0A78B",
"VX c #C2AC8D",
"CX c #C2AE92",
"ZX c #C3B293",
"AX c #C6B69B",
"SX c #D1B092",
"DX c #E5B790",
"FX c #C7B8A3",
"GX c #D5C7AA",
"HX c #D2CAB0",
"JX c #DAD4B9",
"KX c #E3CDB1",
"LX c #AE8BCD",
"PX c #E0DAC2",
"IX c #E7E4CB",
/* pixels */
", f b J G B q.r.i... . .% , 9.e.r.{.W.6.5.5.5.5.3.# , $ i.ZXVXgXgXgXgXgXkXgXgXsXsXsX8., V W W W J H l x h.*X/././..XOXOX/. XOX.X X/././.I./.Y.V W / ~ J B n g , ",
"R ~ ~ W W B h 4.6.Z $ % g N n $ 4.9.i.6.6.4.2.X.Z % f , i.GXvXsX|.|.sX{.gXgXdXLXLXs.3.+ b V c.c.z.z.~ ! B k././././..X/././././.I./.P.oXc D s J ~ z./ ~ ~ Q W W ",
"c.c.W H Y hXh j N h N W z.! W H j & 6...Z Z y $ , b n h i.zXVXsXsXsXgXgXjXeXtXtX7X1.;.e v N R B B B R Q R B B.P./.J././././.P./././.x j n J W z.z.~ ~ ~ ~ ~ V Q ",
"v.Q R g HXdXsXd.j B R W W z.c.! W H n : + JXfX, B R W H : A.GXvXkXkXjXMXtXwX7X5X2X>.*.[ e U f HXnXnXzXfXg F x.:X+XB././.P.P.P.P.(.s S J W Q G T H l k N B B B ~ ",
"c.W B '.nXgXsXaXaX% F R W W z.~ H g PXZXVXvXdXaXuXh F J N E.T.W.s.s.eXtXqX5X:.%.%.*.@.0 0 L f.f.].|.sXaX`.j N N./././.^.K.K.K.l.n F B E V #X.X.X+X X/./.I.P.K W ",
"W J : 6.xXnXdXsXaXiXf H R W z.S hXAXZXZXBXlXkX6.aXw.h V H y d.s.tXwX7X2X>.:.%.q 0 0 0 8 8 0 0 8 y.E.'.].iX: n l.+X/.P.P.P.K.x.N B GXW.@XOXOXOXOXOX.X/./.P.P.b.G ",
"W B mXW.W.'.r.q.E.iX$ N W v.W h R.E.GXZXVX}.nXdXaX8., N H s.yXyXqX2X>.>.%.@.0 0 0 7 8 7 7 7 4 7 4 5 -.d.].+ g N n.P.P.P.K.P.B R H 0.S.OX XDX/..XOX X/./.P.K.b.H ",
"J s R.R.JXZXxXgXaX].O g R ~ z.& R.9.T.Y FXvXzXzXmXX.$ N eXtX7X2X>.>.%.L L L 0 8 8 0 7 8 7 7 8 4 3 3 [ a.`.w., b k OXK.K.I.j.G G G x +XJ.:X_.j.L. X/./.P.P.F.k.B ",
"F q.A.A.R.gXAXnXcXfX8.f F W ~ j r.9.i.M A.AXvXFX . .$ n a.4X2X5X=.@.0 0 0 7 7 0 7 8 8 4 4 6 3 = 5 0 *.6X'.uX& b F k.I.j.k V R B M.+X+X%X+X+X+XoX/./.P.P.K.F.j.g ",
"F T.6.R.T.i.i.i.T.5.3., R W W F j $ i.q.i.i.i...3. .% N 4.1.2X<.@.0 0 0 0 7 8 8 7 7 4 4 3 3 6 4 0 @.:.a.].].$ b F J B N F J N =X+X+X+X+X+XOXOX/./.P.K.K.OXK d G ",
"G g M i.i.q.i.i.d.3.X.f W H l B S N & 2.d.t.r...X.Z g C 0.6X5X2X{ q 0 7 7 8 4 4 4 4 3 * * * 6 4 0 +.*.a.uX!.O v N R R ~ S.a %X.XOXOX+XOXOX X/./.I.P.J.K h W W W ",
"n B B , Y 6.r.r.e.X.$ N W j OX/./.j F B % U 4.t $ v N ! Q.8X4X5X>.:.' 8 4 4 4 3 * * o o o * 3 4 0 L @.1.y X.3., N V J W W F j.n.%X.X.X X.XoXJ./././.K B ! W H j ",
"aX% N B B f % Z 6.$ b W W d .X/././.l F B N n N N V R ~ Q.6X{ <.>.2X} 0 0 5 3 * o X X X o * o 3 7 L ' [ w.y 3., n C R W Q Q T S k h.k.OX X/.I.I.j.k V R G N iXzX",
"}.}.i.h B H J S V F Q z.E M.OX X XP.J.l SXN F R W ~ / ~ 7.,.2X6X2 q 8 @.*.r 3 4 X X o - o   3 e 4 o 2 L 6.6.y f b B H H B k *Xj R J F j k c c k.K F R B > zXkXgX",
"}.}.].'.% N F J J W z.v.R -X.X XK././.p r.A.V W / / z.c.^ t 3 2 < | 9 8 0 w #.0 6 .   X 3 6 X o . e -.2.5.3.# g N C :X+XOXoX/./.OXk J R R W R R W R h HXvXkXkXgX",
"}.}.{.].].`.g F H T c.c.H =X.Xb././.I.b.n F / ~ z.F W v.z.d S.( < _ <X6X1.9 2 2 .   X X X o X . u i t + $ , b j n ,X+XOX+XP.;X/ /././.Q V E W / W N AXvXxX'.T.gX",
"sX}.].iX2.X...n W / c./ l $XOX/././.F.E H c.c.Q a XXa ~ / k.*X_.1X| qXqX4X5 3 2 .     X X X o ] Z N N B H J B _.+X/.K..X.X X/././.#X/./.P.s W W H hXKXVXvXxXxXlX",
"dXsXaXZ X. .% N W / v.~ k B.%X/./.OX/.m ~ z.W d +X&X&X XG B V.;X0X7X7X7X,.[ 5 2 .   X X X X - ;.Y W ! W B ~ &X+XV.L.C.+X+XOX.X/././.P.P.P.x.W W B W.A.PXZXVXvXlX",
"zXhX!. . .$ b V W Q c.z.Q B j.c D k j H ~ W h *X=X*X X/.M.T d ~.0X4X<.:.,.1.6 < X 3 6 o   X * ;.Y W W l *X&X&X+X_.v.+X&X.X:X:X=X:X.X XI.P.J.B W H e.i.4.e.cXCXnX",
"6.5.X.i % g R W J J Q z.v.v.~ ~ ~ Q ~ ~ ~ V -X%X&X+X+X X/.l W C.0X7X2X{ ' ] 5 o - -.e 3 X   * =.M R R ,X$X%X&X%XG &X*X*X*X*X*X%X*XoX/./.P.K.z W W N $ 2.q.d.9.6.",
" .Z $ f V H B a +X XB / z.c./ c.z./ / / W j =X$X+XI.oX XI.V R 0.0X6X<.{ ` ' ) w 4 #.r * X   * =.S.H R p =X+X&X*X*X*X*X*X*X*X*X&X+XN.N.OXI.P.G.J ~ W G N f + 4.2.",
"N B B l p *X X XOX X X#XV W W ~ z.c.~ / / S +XXX+X&X&X+X/.^.S 0.0X6X<.{ ` ' w _ 4 #.r * X   * =.S.S W K XX&X%X&X*X&X>X*X&X*X&X%X+X+X+XoXP.P.F.s W ~ W J F N j j ",
"#XOX/./..X X XoX X XoX XoX_.d B J W W Q ~ F =XOX$X&X%X XoX X XA 9X6X<.{ ` ' w _ 4 #.r * X   * =.S.k W G k.-X%X&X%X+X&X&X&X&X%X+X+XOXOX X/.K.F.F ~ W k M.*XOX/./.",
"/. X+X X X XOX+XOX XOXOXOX+X+X+X+X+X_.B W H $X%X&X*X*X*X*X:X#X~.9X4X<.{ ` q w _ 5 #.r * X   * ;.S.P.V ! G m.=XOX+X%X+X+X+X+X.X>X XoX/.I.K.J.F.W ~ k $XOX.X.X/./.",
"(.+X+X+X+X+X+X&X:XI./.oXOXOXOXOX.Xl. XB.F J n.+X%X*XL.U.*X%X@X~.9X4X<.{ ` q ) _ 4 $.r * X   3 ;.S.P. XF W R k.OXOX.X+X+XOX.X.X X+X+XoXP.J.J.D.W Q j.$X+X+X+XoX/.",
".XOX+X XoXOX*X*X=X=X=X%XN.oXI. X X X XI.h W B ^.&X*X=X*X%X%X@X~.9X4X<.{ ` ' ) ) 5 $.r * X   * ;.S.K.K.:Xa E K n.%XOXOXOXOX/.,X:X>XI.D.J.J.G.D.W W :X%X+X+X+X+XOX",
" X.XOX&X&X%X&X*X=X=X*X*X@X+X X/. X X/.K.k W W k.&X&X*X+X+X+X+X~.9X4X<.{ ` ' ) ] 5 $.r * X   * =.[.:X+XOXI.d W H z $XOXOXOX XI.L.l.K D.I.P.J.m.W R -X+X,X+X+X+X+X",
"*X X+XI.,XC.*X*X*X=X=X*X*X+XOX XI.I.P.I.D.R ! k :X+X+X+X+XOXoX~.0X4X<.{ ` ' ) _ 5 $.r * X   * =.U.+X+X X/.K.N W R k.N.XXOX+XOX.XoXoX(./.I.I.J.J G =X+XJ.oXOX+XOX",
"(.OX+XD.Y.+X*X+X&X+X%X+X@X+XOX/.P.D.P.I.D.j / W n.+X+XOXoXOXOX;X9X4X<.{ ` ' ) ) 3 #.r * X   * =.U.+X+X.X/.b.#XH Q H j k..X.X+XOXoX X/.I./.I.K.S J =XOXOXOXOX+XOX",
"/.+XOX+X+X+X+X+X+X+X+X+X+XoX/.I././.P.I.c V / ~ k $XOXOX X/./.~.9X4X<.{ ` ' w ) 3 #.r * X   o =.U.+X+X+X+X X/.oXH H W J K .X XI.V././.I.P.P.F.N G +X.XOXOXOX X/.",
"/./. XoX/.oXOX XOXoXoX X(.I.I././.I.+Xc b W ~ Q F n. X/./.b.K.~.9X4X<.&.` q w ) 3 #.r * X   o =.U.+X+X+XOX X/.I.P.j G R T j.N.n /.P.P.K.K.P.G.n R H. XI././././.",
"k.J. X XoX(. XK./.oX X/./.I././.I.I.z N F H.k j N j k..Xm.I.XX~.9X4X<.&.` q w ) 4 #.r * X   * ;.U.OXoX+XOX/./.I.P.K.Y.F W R ~ H j.P.K.K.J.F.G.N W x /././.(.k.N.",
"V N s S D n././. X/././.I.K.K.P.I.j J W m oX/./.D.F G x N.J.c O.9X4X<.&.` q w ] 4 $.r * X   3 ;.S.OX.XOXXX:X/.I.P.P.K.K H W ~ J S B j D c D.D.k W k j.D l H B N ",
"R H J W J j j.n.^././.I.b.E I.P.z R ~ ~ G /././.b.s J S B H W 0.9X4X<.{ ` q w ] 4 $.r * X   3 ;.U./..XOX.X/.I.@XL.P.D V J F j JXi.f N V F B v.H ~ W W ~ W J S j ",
"h % b B W Q H d k././././.I.I.K.N ! W ! ~ J s G W W ^ [.J G W 0.9X4X<.&.` q w ] 4 $.r * X   3 ;.^ N..X.X/./././.^.D H R j IXVXvXzXgXsXiX, h F ~ c.z.~ W S f HXmX",
"mXgXaX% h R ~ W V h.B././.I.I.K.n W R F J ! ! W W l H R W z.F O.9X4X<.&.` q w ) 4 #.r * X   3 =.Y z .X/./././.P.k J W B AXVXvXxXlXkX].mXiXuXg H W ~ W l JXAXvXkX",
"zXdXsXiXu.f V R ~ R a n././.P.l R B i.cX, F R H W ~ ! J j Y IXMX9X4X<.&.` q w ) 4 #.r * X   o =.Y W k oX/.P.oXk R c./ g i.A.i.q.AXgXsXR.T.'.8.g J W W fXGXVXlXkX",
"dXdXsXaXiXuX, N W ! W F j.z N H : fXVXxXfXf h ).j / W h HXZXVXjX9X4X<.&.` q w ) 4 #.r * X   o =.A W W k g.g.D J ~ v./ h T.t.vXxXzXgXsXsX].3.3.% N R B zX{.kXvXvX",
"dXsXW.`.aX].uX$ B R / W R J F : JXVXBXlXkX+ j R W W F ].JXVXVXjX9X4X<.&.` q w ) 4 $.r * X   * =.i F ! ! W J ~ ~ ~ v./ h i.q.A.AXxXxXzX6.3.X. ., N R > W.W.'.GXvX",
"gXgXsX}.fXiXuX# b C R W G k u.ZXVXvXvXkXkX`.% H R W B E.'.HXVXjX9X4X<.&.` q w ] 4 $.r * X   3 ;.u N W ~ ~ v.v./ ! c.~ B + A d.q.`.5.5.3.X.X.$ g ~ B '.R.T.`.FXVX",
"gXgXhXFX5.X.X.+ v B H W N HXVXvXvXvX{.|.kXhXu.f F R l T.W.Z.VXjX9X4X<.&.` q w ] 4 $.r * X   3 ;.u b R / v.c.~ ~ W / / W B + e.4.T.o.2.X. .$ b / / V @ A.r.'.W.GX",
"gXmX6.5.X.5.i , N V S.R h W.VXvXvX'.gXlXcXe.7.+ j F B e.R.W.GXjX9X4X<.&.` q w ] 4 $.r * X   3 ;.u b R c.~ W B N B j G R J B & v i... .i & b H / ~ J g i.w.T.R.T.",
"fX5.5...i # > b b j J R f R.'.VXvXxXnXFX6.5.7.3.g SXS.% A.R.W.jX9X4X<.&.` q w ) 4 #.r * X   * =.u N R W S oXH.D.+X.XOXoXd j B N f $ > g N R / ~ V H B h + i.T.T.",
"6.5.3.Z % > JXVXzXaXN W g A.A.GXAXAX6.6.5.5. .% n b [.h 6.A.R.Q.9X4X<.&.` q w ) 4 #.r * X   o =.i V W j L.v.v.B H./. X X X/. X_.d B H R W W W JXdXaXg B B $ i.i.",
"5.2.u > f IXVXxXdX!.> R h i.i.i.T.w.5.5...Z > N B H F F f r.A.Q.9X4X<.&.` q w ) 4 #.r * X   o =.Z G k &XD.c.J c.@X@X+X+X/./.P.I././.I H W ! N FXzXsXf.: V H g 9.",
"5.u f h ; vXvXvXbX'.y h B % r.i.i.5.2. .# g : IXmX$ h F B % i.Q.9X4X<.{ ` q w ) 4 #.r * X   o =.U a &X&X X=X&X+X*X*X@XOX/./.I.I./.I.I./.k W v i.w.r.w.$ n F R G ",
"$ g V f nXvXxXxXxXi X.f B l , 9.d.2.# , f i.GXxXxXsXd.f H B : s.9X4X<.{ ` q w ) 4 #.r * X   * =.[.$X%X.X=X=X*X*X*X+X+XoX/.Y.>X_.P.^./.I.k J v e.e.e.7.$ b J R / ",
"F J N nXcXvXvXmX5.3.O g C Y h l g f g : JXAXVXvXkXdX7.$ b W W O.9X4X<.{ ` q w ] 4 $.r * X   3 ;.U.^./.=X*X*X*X+X+X XoX/.I.k b.:Xj./.P.P.V H B % Z Z $ g V R c./ ",
"R v.h nXZXVXAX5.3.Z + VXvXlXcX!.N B Y AXVXvXxXlXgXdX3.O v F ~ O.9X4X<.&.` q w ] 4 $.r * X   3 ;.U.&X&X%X%X+X+XOXOXoXl.DXJ.I.P.J.H.J.J.h R J H k B B F ~ / W W R ",
"J R B i.u.AX5... .t gXvXVXzXsX7.g g '.AXVXvXgXgXdXaX3.t v N J O.9X4X<.&.` q w ] 4 $.r * X   3 ;.U.$X+X$X+X+X+XOXOX@X&X;X#XI.I.P.K.c N W W z.~ ~ ~ ~ ~ J F N B B ",
"H J F g w.e.4. .i $ u.AXxXdXsX1 f % `.JX'.kXgX|.sXaX3. .f n =X~.9X4X<.&.` q w ) 4 $.r * X   * =.).I.&X+X%X&X+XOXI.+X.X XI./.P.K.c V W W ~ ~ W H B j , M AXmX].$ ",
"g V F B g 4.6.$ : & i.r.i.u.6.+ , + M xXgXkXgXzXw.2.X.t , b /.~.9X4X<.&.` q w ) 4 #.r * X   o =.R V.+X$X%X+X+X+X+XOX/.I.I.P.J.J.n W W v.J f R.JXAXxXzXzXq.sX`.Z ",
"aXW.g B N B B V S b 6.r.i.e.5.% , M nXxXzXvXvXvXzX7.5.# f B I.~.9X4X<.&.` q w ) 4 #.r * X   o =.Y k n.+X+X^.OX+XOXoXoX/.I.P.K.z R W W W g ZXZXvXE.Y FXsX}.{.7.i ",
"aXaXaXmXf B F R R H s 4.9.q. ., f A.sXmXmX4.].`.w.5.X.+ g F j A 9X4X<.&.` q w ) 4 #.r * X   * =.Y ! n n..X.X+X.XOXoX X/.I.J.F.^ R W c.B PXvXkXgXsXsXaXaX}.2.Z U ",
"aXaX}.}.uXd.g B J H H B h $ , h B r.}.e.9.v i.e.5.X. .$ W W W 0.9X4X<.&.` q w ] 4 $.r * X   3 ;.Z J W k  X X.XOX.X X/.I.K.K.P.B W / ! % GXxXkXgXsXsXaXsXi y IXkX",
"sXsXaX}.].].!., N B R ~ W R R W H @ ].e.9.M Z w... .# C W v.B A 9X4X<.&.` q w ] 4 $.r * X   3 ;.t n H W k. X X X/./.I.I.I.F.D.B z.~ j dXAXxX|.gXgXsXfX .O JXlXkX",
"Y mXaXfXY '.`.f.g H W W W J k F J j 6.6.6.M Z 5.Z $ N R H u.HXjX9X4X<.&.` q w ] 4 $.r * X   3 ;.pXO h H S n./././.I.P.P.K.J.D.N W W f R.R.R.AXxXgXE.X.t O xXkXgX",
"|.].].].].].].f.$ N R J G =XI.Y.F H B f % % > , g N R H JXAXzXiX9X4X<.{ ` q w ) 4 $.r * X   * =.!.].e.g S k.^.K.K.K.J.J.F.F.N.d R W % R.q.i.Y A.5.X.# & HXkXgXsX",
"}.}.aXfXd.5.X.Z X.b R R H.K.F.K.I.B F B f : FXHXmXC G h FXZXgXjX9X4X<.{ ` q w ) 4 #.r * X   * =.!.aXw.$ b H k P.F.F.F.F.D.x.x l W W B % e.r.t.i.X. .% $ zXgXgXsX",
"e.5..... . .X.i % j H a  X/./.J.J.D.V HXZXnXlXgXgXiXh % E.ZXhXjX9X4X<.{ ` q w ) 4 #.r * X   o =.f.5.5.7.g R W S b.c m k B V H R W z.~ H > 4.e.u.Z % , E.kXgXgXdX",
"Z ..Z y + $ f b B V M. XOXOXI.I.P.z.j cXvXvXlX`.kXdX% % W.e.CXjX9X4X<.&.` q w ) 4 #.r * X   o ;.8.4.X.2.g H / W W W ~ ~ ~ z.z.c.c.~ W W R S g % f b N , 4.].4.o.",
", g b N N H F R l >X+X.XoXoXoXI.J.K s W.HXvXxXhXgXzX# % q.e.w.s.9X4X<.{ ` ' w ] 4 $.r * X X 3 ;.3.5.t $ N R W H F F H W ! z.c.z.c.z./ / ~ W R R R R R H B g , % ",
"W W ~ W W G j _.+X+X+X.XoX.XoX/.P.D.f R.A.A.R.fX6.5.u % + q.w.s.9X6X<.{ ` ' w ] 4 $.r * X X 3 ;.3.5.Z b C W N HXdXfXU V W c.c.~ W W W ~ W ~ Q W R G H F S H S V ",
"W ~ Q H a :XOXOX@XoX XI.OXI. X XP.J.h Y i.i.w.o.5...# f g f y 7.0X4X<.&.` ' w ] 4 $.r * X   3 ;.-.# g F W V ZXhXgX}.].d.B R ~ G M GXW.B R W N /.K.L.K.G.F.L.d n ",
"H W n &X+XOX+X+X+X+XOXoXoXoX/./.I.J.D.N % ......y , h N F H S O.0X4X<.{ ` ' w _ 4 #.r * X X 3 ;.Z B ~ ~ W : vXgXgXsX].7.& F J , AXzXcXdXg H G k b.b.F.F.F.m.B.N.",
"J B -X$XOX+X+X&X&X&X+X+X*X%X+X X/.K.N.B V B N B B B l +X&X=X=X;XtX4X<.{ ` ' ' _ 4 #.r * X   5 2Xq.c.b./ Q ; `.kXgXmX2.X.$ N n > nXE.sXW.}.$ B F g l.F.F.F.B.N.K ",
"H >X.X.XOX+XOX+XOX+X+XOX+XOXOXOX XP.K.j W W W V _.+X+X+X.X.X#XjXyX7X2X{ ' ' ' r 4 [ 9 * X 3 ' 7Xt.c.c.~ J f i.u.aX.... ., h v ].cXkXgXgXsXaXiXN B x.F.F.F.D.D.N ",
"a  X.X X.XOXOXOXOX#X:X#X.XoXoX X/.P.P.J.B W V *X+X=X+X+XoXY.eXyXtXyX6X,.} @.0 L 5 2 4 = * 9 @.5X9.R ! ! ~ B $ r.5... .+ h U vXxXlXkXsXsXsXsX'.8.b n N.G.J.F.s R ",
"N c XX/.^./. X.XOX.XOXOXOX X X/.I.P.K.P.m.J c.$X%X&XI.,XeX0XwXwXyX<X6XqX7X5X>.*.w 8 8 4 4 7 0 >._ 3 2 u / W V % v % f B M JXxXkXzXgXgXgXsX].T.X.& b C N B F W W ",
"b B j m.N.N./.$X$XOXOX XoX X/.P.j.N.J.K.K S =X+XXXXX,XH.a.8XtXwXyXqX2X:.} [ } 6X;.9 = o X X 3 *.9 ] *.-.H / z./ W R B iXFXlXkXkXkXgXgXsXA.A.uX3.+ b F F R G J B ",
"% g V F H J F k *XOX X/././.N.:X%XD.J.F.d N +X+X.Xg.^ ( w.2X2X2X1XyXwX2X*.@.] [ e 6 3 * o     e 0 @.<.6XW ~ ~ ~ W G R.zXAXkXgXkXkXgXsXsXsXfX3. .$ b F ^ B B @ vX",
"i.].g ( W.W W W k. X/././.I.P.J.H.F.J.F.n 0.NXrX/.+XI.Z.8X8X2X<.,.6X1.6X8X1.' 8 7 4 6 - o X o 4 0 @.>.a.F k R Q W N R.9.A.xXCX|.E.gXgXdXsX5. .# v N R V : ZXBXBX",
"dX}.'.y g B J W F k.I.I.K.K.J.P.K.D.c z J Q.NXrXS.OX.XU.eX8X5X2X<.*.9 1.6X1.*.@.7 6 * o o * 6 = 0 ' %.y. X/.b.E G g T.6.t.r.q.i.T.mXnX'.5. .i , b R V fXVXBXBXBX",
"sXsX}.].aXiXb J W l L.K.J.c m k j S G W / V k._.Z. X.X.Xt.1.2X:.<.<.*.w 2 9 $.#.6 - X o * 3 6 * 7 8 [ 8.oXm.I.j.G B w.Z r.r.r.r.e.w.w.6.5. ., b R R > ZXBXxXxXxX",
"sXsX}.}.].uX% B W W G J J R F g n H W W / z.H k.U.H././.t.6X6X_ 0 $.;.*.r 5 3 < 3 * 6 7 6 X - * #.9 2 P H./.I.P.z H B g M 4.9.6.6.6.6.6.Z % b R W j sXvXvXlXkXxX",
"{.sX}.].].X.+ b ~ ~ ~ ~ W W b cX].'.g B J ~ A Z m.n.OX/.Q.T.S.0.9 2 7 0 0 w 0 4   3 * o X * 7   o 6 [ y././.K.P.K.d G J H B B g , % > , h J ~ ~ W & R.GXvXR.kXkX",
"W.}.].].3. .% h Q W W W W H `.ZXsX].uX'.v Z C R ~ J B V C C V N S c 8.9 4 9 5 -.3 o o o o X X o 9 ( H.H.I./././.P.P.oXm T W R H H H H S S G J ~ W j u.i.xXkXgXgX",
"}.}.aXaX .+ f V F l R B F g FXxX'.aXaX].].!.u  .M ~ ~ W R l N H ( ( N v v N F C.0.^ M.h g : v.v.C.H././././././.^.P.^.Y. Xk lXi.a *XI.K.K.I./.R ! G h U vXkXkXgX",
"mX6.5.X.y , N IXvXhX}.> h > A.i.A.R.`.sXiXaX`.!., F Q R IXxXsXaXg F H R W ~ W G V x s G R n././././././././.OXKX#XDXI.Y.SXI.DXSX^.Y.Y.^.KXY.DXFXC.0.H , i.A.JXgX",
"6.5.Z i % s Y W.R.u.fXaX, & r.t.i.t.A.d.ZX].'.`.`.: H N PXxXgX|.|.iXiX: N H Q W W W W W W l j.n././././././././././././././.^.^.^.^.^.^.^.B.k.B ! ~ Q F t.q.q.q."
};
