/* XPM */
static char *_79184edb9a94a869058b95d2fd98a48YK6A5zgKpv743tUo[] = {
/* columns rows colors chars-per-pixel */
"80 80 170 2 ",
"   c #020305",
".  c #030807",
"X  c #02050A",
"o  c #030A0D",
"O  c #090E0F",
"+  c #040D12",
"@  c #0A0E12",
"#  c #051114",
"$  c #0B1315",
"%  c #0E1817",
"&  c #051319",
"*  c #0C151A",
"=  c #0E1A1D",
"-  c #111417",
";  c #11161A",
":  c #131B1D",
">  c #191C1F",
",  c #3A301D",
"<  c #071A21",
"1  c #0E1C22",
"2  c #131D21",
"3  c #181F23",
"4  c #131E28",
"5  c #191F28",
"6  c #152225",
"7  c #1A2325",
"8  c #16252A",
"9  c #1A262A",
"0  c #17282C",
"q  c #1B2A2D",
"w  c #162B30",
"e  c #1D2D31",
"r  c #1E3134",
"t  c #1E3339",
"y  c #1E383C",
"u  c #202729",
"i  c #232B2E",
"p  c #352C20",
"a  c #35342A",
"s  c #222E33",
"d  c #202E39",
"f  c #223236",
"g  c #2B3335",
"h  c #23353B",
"j  c #2A363B",
"k  c #233A3D",
"l  c #2A3A3E",
"z  c #31383B",
"x  c #263D42",
"c  c #2B3D42",
"v  c #313E43",
"b  c #393D41",
"n  c #274145",
"m  c #2B4146",
"M  c #274249",
"N  c #2D454B",
"B  c #2C494E",
"V  c #324145",
"C  c #314046",
"Z  c #344046",
"A  c #384447",
"S  c #324148",
"D  c #344349",
"F  c #31454B",
"G  c #33454A",
"H  c #354448",
"J  c #37454B",
"K  c #36474C",
"L  c #3B454C",
"P  c #38474D",
"I  c #31494E",
"U  c #374B4E",
"Y  c #38494E",
"T  c #3C4A4E",
"R  c #3E4B4F",
"E  c #2B4750",
"W  c #2D4B51",
"Q  c #324C52",
"!  c #3C4B51",
"~  c #3B4C52",
"^  c #3D4D52",
"/  c #3F4F55",
"(  c #394F58",
")  c #325155",
"_  c #3F5053",
"`  c #3B5156",
"'  c #355259",
"]  c #3B5459",
"[  c #3D595D",
"{  c #3E5A61",
"}  c #424A4C",
"|  c #414E54",
" . c #404E55",
".. c #405157",
"X. c #425157",
"o. c #435256",
"O. c #475056",
"+. c #495356",
"@. c #40535A",
"#. c #40555A",
"$. c #43555A",
"%. c #47555C",
"&. c #4A565A",
"*. c #49575E",
"=. c #4D575D",
"-. c #445A5E",
";. c #49595F",
":. c #485A5F",
">. c #4D5A5D",
",. c #505A5E",
"<. c #445760",
"1. c #445C62",
"2. c #4B5A62",
"3. c #4B5D63",
"4. c #4D5C62",
"5. c #4C5B64",
"6. c #4F5E64",
"7. c #515A60",
"8. c #545D63",
"9. c #515F68",
"0. c #466166",
"q. c #4C6166",
"w. c #44626B",
"e. c #4C646A",
"r. c #4C696E",
"t. c #526265",
"y. c #526167",
"u. c #596467",
"i. c #5B6467",
"p. c #52656B",
"a. c #576469",
"s. c #586369",
"d. c #5A666B",
"f. c #5C666A",
"g. c #58676D",
"h. c #54696D",
"j. c #5A696F",
"k. c #5D6A6C",
"l. c #4D6A71",
"z. c #556C72",
"x. c #5B6D73",
"c. c #4F727D",
"v. c #567175",
"b. c #5B7176",
"n. c #52747A",
"m. c #5C747A",
"M. c #5E797D",
"N. c #616D73",
"B. c #647376",
"V. c #697574",
"C. c #62757B",
"Z. c #6B757C",
"A. c #63797D",
"S. c #6A797D",
"D. c #5E7680",
"F. c #5F7B81",
"G. c #6A7581",
"H. c #637C82",
"J. c #6A7D83",
"K. c #658186",
"L. c #6B8285",
"P. c #668289",
"I. c #6A848A",
"U. c #6C898D",
"Y. c #708283",
"T. c #70858B",
"R. c #678C92",
"E. c #6F8D93",
"W. c #718D90",
"Q. c #729196",
/* pixels */
"h h h f h h h f 9 9 9 h h h h h h h h h h h N = - $ $ $ $ 7 7 3 3 7 9 9 j f * $ $ $ $ @ $ O @ 7 s j :.:.:.f i > 7     X X o o o C h k k k k k k h h h h h h h h ",
"f h f f c c h h h f q h h h h h h h h h h h k 2 @ 9 u.7.O.=.=.s.d.s.l g.j.d.k.$ * * s q q s 8 j l c j h j c 7 > s c v v v v 9 q ~ k h h h h h h h h h h h h h h ",
"f f f f c c f h f q 6 h h h h h h h h h h h h : $ s v v Z c c %.L c L 5. .~ ! = R ! X.X.:.$.m S X.*.c h h v 3 ; X.$.$.@.@.U 9 7 e k h h h h h h h h h h h h h h ",
"f f f r s r r h h 2 ; 4 h h f f = = = h h h h = : R c c v c c v v c c c c c c * :.e.K K K Y L :.D C v h / c 3 l h h h f f f 6 2 = h r r h h h h h h h h h h h h ",
"f f f r r r r h h = - * f h h 1 h h h h h h h * = H c c c c l x c c c c c c c + X.X.H H y.L j.^ S C D @.X.^ 3 l k h k h h h w 2 = f r r h h h h h h h h f 6 6 6 ",
"f r f r r e r f h r 8 * $ f h h h h h h h h h * 9 6.5.2.2.5.5.2.2.c c c c c c $ l c Y X./ C C K D C f f C H * l x k x x x x m 8 = f f f h h h h h h h h f r r r ",
"f r r r r e e r f f f q $ $ $ h t t h h h h h * 9 9.2.5.6.6.5.4.6.c c c c c c + c S x x c h h D D S D f e q * x x x x x x x k 8 = g f r r h h h h h r r r r r r ",
"f r r f r r e e e e e h h = : 6 t h h h h h h * 6 c l j h h h h h h j j j j j $ s s e e e r f e s e e e 9 * l x x k k k k k k 6 = f r r r r r f r q q q 8 0 8 8 ",
"= = * 1 $ q e q 9 q q e e * = : f f h f f s s $ $ : ; ; ; ; ; ; ; : ; ; ; ; - $ $ : : : : ; > $ * * * * $ $ c c l j f j j j j 6 > 7 9 q 9 8 q q q 7 5 3 > 3 > > ",
"h & c     X X 9 q q q 9 9 L Y $ + + # 7 q o + >.,.>.&.j j j j B.f.L L L >.5.*.k.q o X X k.h.h.x.+ @ * * * $ 2 o o         o O O * * * *   o 7 : X   X O.O.O.O.l ",
"@.~ ~ p.y.8.X X X X X o o + U $.^ s g z ; $ C.z.b.v.M.M.x.a.p.m.m.C.C.C.m.q.q.3.q.p.q.h.m.m.m.b.S.h * G.A.C.x.+ o j.p.h.C 6 R U ~ Q ~ ~ S h X X # ` ` ` @.X.@.c ",
"~ ! ~ 6.6.L Z $.w w :.2.2.2.:.e.:.c x x.$.+ m.{ -.) ] ` ` ] ` ~ ~ Q 3.e.3.$.$.$.$.p.~ ~ ~ Q I F N h X L K x.b.x.x.x.x.x.z.z.z.z.z.z.z.z.x.z.x.  1.p.p.h.N $.$.$.",
"x c c c c j j z.x.x.q.Q Q Q 3.h.z.h.3.m.$.X b.Q Q Q Q Q Q Q Q Q Q Q Q I I I I I F C.F F F F F N n Q + S F b.F N N N N n l k q.] c n c c c x C   Q k k x k k k k ",
"x x x x c f f F F F F N F F N N N F F F k X e.Q Q Q Q Q Q Q Q Q Q Q Q I I I I I F Q F F F F F Q I ~ + K N m m N N m m n n n c c n c c c c x v   Q k k k k k k k ",
"x c x c c f s F N N N N F F N F F F N F h X 0.B Q Q Q Q Q Q Q W Q Q I I I I I I F I F F F B F ) ) ~ + S N N N N N n n n n n n n n n n c x x c X Q k k k k k k k ",
"x c x c c s f F F F N N N N N N N N N F f X 0.x Q Q Q Q Q Q Q Q Q Q I I I I I I I I F I F N N Q Q Q o S N N n n m n n n n n n n x x c c x x D X Q k k k k k k k ",
"x x x x c s f N N N N F F N N N N F N N f X 1.x Q Q Q Q Q Q W B W W I I I I I B I I I I N B N N Q I o m N N n n n n n n n n n n x x x c x x C X Q k e h k k x k ",
"x x x c x s f N N N F N N N N N F F F F h X 1.x x x k n W Q I W I I I I I I I I I I I I N F N F N f o m n M n n n n n n n n n n x x c l X X X k h h e h h k k k ",
"$ X X X X . O X X X X X X X X X X X X     X   X     X X X X X X 9 9 = o o t C X X X X X X   . @ @ X X 6 3 > 3 > : : ; ; = % - % % + + + d.x.x.h         X o * 6 ",
": : &.y.y.y.Z s u 9 7 9 > X X A.A.A.A.C.2.e.. o y.h.a.X X       X X X X             X X . X   X X  .d.    X     X                       e p.h.p.k.N.x.x.N.y.+   ",
"x.C.C.m.m.h.b.A.H.H.H.M.r   o H.H.P.P.P.e.& F.M.m.m.P.P.K.P.I.T.* C.M.M.>.X   o 2 O.m.m.m.m.! 3 m.P.P.J.J.Q H.F.F.X # ! h.A.A.C.x.x.b.b.` e.e.p.p.p.b.C.C.3.$.$.",
"z.N N I h.c c b.m.m.m.z.2 A.z.0.Q W W W I # F.m.Q Q W W W H.F.k M.M.m.C.A.C.x.z.h.` m.m.m.D.J.o U.P.P.J.J.C.e.W F.X N.b.q.Q Q I I q.N N N N N S F N $.:.1.$.c x ",
"N N B N x x x e.n n m n 2 l.' B I B B B F # w.Q W W W W W ) Q Q Q Q Q Q Q H.e.z.b.b.1.<.<.Q ] X h.Q F Q I Q B B Q X -.' Q Q W B I B N N N N N n c c S S c k x l ",
"N B B B x x x x c c c x 2 e.' B B B B I F # w.Q W W W W W ) ) ) Q Q Q Q Q Q B Q N N N B N B F X r.B F F F F B F F X <.) W W W W B B B B B N N m m m m c n m c x ",
"N N N N x x x e.e.e.e.x 2 e.) B B B B B N # r.W W W W W W ) ) ) Q Q Q Q W W B B N N B B B B N X B B F B B B B B F X :.W W W W W W B B B B N N N B I Q I Q Q n k ",
"N N N N N N M n n x x x 2 e.) B B B B B N # r.Q W W W B W ) ) Q Q Q Q W W W B B B B B B B B F X B B B B B B B B N X I W W W W W W B B B B N N N N N N N N M x x ",
"M N N N M M M n M n x n 2 e.) B B I B B F # r.Q W W W W W Q Q Q Q Q Q Q Q B B N B B B B B B N X N N N N N B B B N X B W W W W W E B B B B N N N N n k y k k k k ",
"M M M M M M n n M n n n 2 ( B N B B N N N + 0.W W W W B W Q Q Q Q Q Q Q Q B B N N B B B B B N   N N N S F F S N N X I Q W W B B E B B B N N N N N N x k x k k h ",
". o o o o o O o o o o o o $ $ $ $ X X X   X x h r w + o + + + + o o o + $ = = : : : : : : 3 7 X                                                               X ",
"X g g g g $     V.B.B.B.B.        y.j.y.a.o X     X l o                   X   X               y.v 8 :.+ X o X L.I.I.A.x.* $.6.y.q.$.X._ R X.@ @ @ l f s s l k r ",
"v.z.z.C.A.) I.I.I.I.U.I.P.C.>   V.W.R.E.Q.I.U.  X p.e.m.H.v.e.L.A.H.H.H.Q $.C g   H.F.$.e d I.I.I.I.A.C.X ,.A.H.[ [ P.M.M.F.H.J.J.J.F.I.P.P.Z.X H.H.H.J.H.H.H.H.",
"z.z.z.Q Q Q Q Q I B W B B -.j q F.Q W ' ) ' E.X b.b.m.m.m.m.p.e.b.H.H.H.A.M.M.Z.X I.H.M.H.H.H.H.W B B b.b.f Q Q Q Q Q Q m.m.[ Q z.H.Q I ` ] L.X w.W W Q Q B W B ",
"N N I I I I I I B B B B B B # r m.Q W Q Q W Q o z.v.l.) ) ) ) ] ] v.Q Q Q W Q H v { W W W W W W E B N N N e ` ) W Q Q W W W W Q B N N N N N U X ) B B B B B B N ",
"B N Q ] ] ' ) ` ] B B B B B # t n.W W W Q W Q + ] ) ) ) ) ) ) B B B B B B B B H Z l.W E E E W E E B N N N q Q 1.Q W W W W W W W N N N N N N K X ) B B B B B B N ",
"B B B B B W B W Q B B B B N # t n.W W W W W W + ] ) ) ) ) ) ) B B B B B B N B H v n.W W W W W { N N B N N q c 1.W W W W W W W W B W W W N N U X ' B B B B B B I ",
"B B B B B N B B B B N B B B & y c.W W W W W W + [ ) ) ) Q B B B B B N N N N B H v n.W W W W W { B N N M B q C Q W W W W W W W W B B B B N N K X ] B B B B B N N ",
"B B N B B B B B B B B N N N # y w.W W W W W B + Q W B E B B B B B B B B N N N Z v r.E W E E E N B N B N N q h W W W W W W B B B M n n n n n K   Q B B B B B M k ",
"B B N B N N N N B N M N N N # k W W W W B B B o Q E E B N N B N N N N N N N N C v W E W E E B B B B N N B n M E W W W B B B B B M n n n n n S   Q N N N B N n k ",
": : : : : 2 2 3 2 X   X         X X     X X X X v c c l j h h j j j j j j j l l c n M h h h h r t 1 o o o X h N F F c c c C C C C 7 7 6 8 j j X l l j j j h j g ",
"    $ O     o O X g j 9 C.A.b.B.X $ * * L a.J.S.X X X X X X X X X X X X         b             -     6 } L R X X o X           X X         i f i X         O + o ",
" . .m.m.e.e.e.h.C.C.A.H.A.M.M.p.X A.A.A.A.H.L.L.p.H.H.J.] ] h.H.H.H.3.Y :.A.J.J.A.6.C./ Z.x.v c J.A.J.H.H.T.T.3.4.1 v m.m.b.b.a.a.&.+.  h.A.H.m.C.m.~ <.2.m.m.b.",
"b.z.m.m.M.M.A.m.A.A.h.I z.M.M.h.$ A.A.A.A.A.A.C.b.b.b.v.b.m.m.m.m.A.H.2 e H.p.H.H.H.H.H.J.J.~ ~ ` b.H.H.H.h.h.p.p.q.M.h.p.p.e.m.m.m.p.. e.e.r.e.` Q <.<.1.Q e.z.",
"I B B I I F F I I I I I I I I F + 3.M N M n n N n [ z.Q U I F F F F F F C ` Q Q Q Q Q 1.1.1.1.<.h.1.q.Q Q ] ~ ` Q ~ Q n N N N n c n h.o ] ) ) W B W Q Q Q B B B ",
"F I F I F I I F I I I I I I I F o F F N n n n n N c m I 1.q.q.N S S S F X I B Q Q Q Q 1.N N N N h.N N N N N n N N N N n N N N N m n m o ] Q Q B B B B B B B B B ",
"F I I I F I I F I B n n x N I F O @.~ ~ n n n n n c n n n c F F F F F K X B B B W Q W I N N N N N N N N N N N N N N N N M n n m N n n o ` Q Q B B B B B B B B B ",
"I I I F F I F B I I n n n N I I = + h ` Q N F N c c n x c c I I I I I K X B W B W B B B N N N N N N N M N N N N N N N m n n n n n n n o N n n M N N N N N M n n ",
"x x x x x x x x n x n n N N N N N c h F S F N F c c n c c c F I F F N H X Q Q Q Q I c c x x x x x n N N N N N N N N m m m n n n M n n o m n x n M N N N x n x x ",
"n n n n n n x x x n n x n n n n n m 2 2 q N N N N N S S S C N N N m .     o w q w w e S N N N S S N n n S N m m m m m m m m n m n n n o m x k k k h h h x x x x ",
"9 9 q 9 9 9 9 9 7 6 6 6 6 6 6 6 6 2 Z + ; 7 o       X 4.v X         Z.C.B.R X X   q * + + o o o o + + = h 4 = = : 6 2 * $ # # > X X X X * * * * : 2 2 2 2 1 = = ",
"o + o o . o o o o . + o . f.u.u.f.x.C.B.s.X $ $ J.H.H.H.A.H.$.p.H.H.H.H.H.J.L.H.J.Y.L.L.s ; $ @ + J.S.J.A.A.B.B.C.C.Z.C.B.B.C.C.x.h.4.&.        b X             ",
"a.p.p.e 8 8 h B.B.m.< 2.h.h.m.m.m.C.m.m.h.+ S.A.b.C.C.C.C.A.H.J.J.H.H.A.H.J.H.` v.P.K.K.K.U.  J.p.m.m.m.m.b.b.b.b.b.m.b.b.b.b.b.z.z.%.U p.p.p.R q x.C.` ~ ~ q.3.",
"x.z.z.b.b.b.h.p.q.z.z.p.p.z.Q Q Q m.C.C.-.# x.C.C.3.q.1.1.1.z.z.] b.I I I I F F I Q B B B I.X H.Q Q ` h.e.e.6.q.3.q.q.q.3.3.3.3.h.h.h.h.p.2.2.C = $.] ` 1.-.1.1.",
"M N N N m N M N N n n n N ~ Q Q Q I F F F # v.B B B B B B N ] ] ] B B B B B B B N N N N N N   ] Q I m N N S N F F F S S N S N N N m m m m N m S + c c c c c x c ",
"n N M M N N m N N n n n m Q Q Q Q F F N N # z.B B B B B B B N N B N N N N N N B N B B B B N   ] Q I m m N N m F F F S S F F N N S m S m m N N S + c x x x x x x ",
"n n n n N N N N N n m n N N N N N N N N n # z.B B B B B B B 3.0.q.q.q.q.3.3.q.q.B B B B N N   ] Q N m m m m 3.K F F F F N N N N S N N N N N N S o c x x x x x x ",
"n n n n n N n n m n k t N m N N N m n n m # [ B B B B N N N x x n n n n n n n n M N N N N N   ] B F F c m N 2.F F F F F N N N N S N N c c c x x o c x x x x x x ",
"n k k n n m n n m k h h F N n n n n n n m o n N B B B N N N N M M M M N N M M M M M M N N N   ] B I I ` $.$.$.F N N N N N N N N N N m h h h s O X k x x x x x h ",
"x x x x x k k k k h h h k x n c c c c c m o 8 N N B N N N N N M M N N N N N N N M N N n N m   ] F F F F F N N N N N S S N S C S C c m h h 7 7 o o k k y y t k r ",
"+ # # # # + + # # + o o $ $ q q q i * q q @ 7 + s f       * e w 8 $ $ @ @ ; 5 4 : X X     X X Z : 2 3 o o o X X X X X X X X X       X   X X i g g + o . X . X X ",
"q q g 5.5.*.$.X. .O.X.X.=         X X     X j   X X     .   X X o X X X X X X X o ,.>.&.L q.p.f 3 o X $ @ * X N.$.$.$.O.X.$.X.>.O $ $ X X j.a.j.q.5.>.>.,.>.A l ",
"q.6.S ~ ~  .` ` p.h.h.h.1.X y.p.C.b.e I.J.H.m.m.X Y m.M.H.m.b.x.C.C.b.b.s.N.C.Z.S.Z.p.p.Z.x.x.$.l o A.A.H.A.] M.b.h.q.q.2.3.e.e.e.e. .6 4.z.z.z.3.p.p.p.p.p.q.6.",
"n n x F F $.q.] :.k c c m   C.x.q.q.x.h.h.j.h.2.X q.v.v.m.b.x.p.3.3.z.h.z.x.z.q.p.p.e.1.1.-.-.c h + q.M M n M n M n m n n n n c ` Q + q.x c c c c c c c c c c c ",
"x x x k k k k k h h h h h X K c c c Q H S C C N   q.F N F F F N N N N B N F N ` U U U Q n l h k 8 $.n N N N N N N n n n n n n x x k o 0.c c c c c c c c x c c c ",
"k k k k k k k k h h h h h X K c x c x k l k k x . = h N F F N m N F N N N m N N N N N N N N m k 4 -.N N N N N N N n n n n n n x x k o [ x c x k k x x x x x x x ",
"k k k k k k k k k k k k k X K x k ~ k k k k F N C : : c N N N N N N N N N N N N N N y h N N m h 1 -.N N N N N N N k k k k x k x k k o I r f k e e c x l x c c k ",
"k k k k k x x k k k k k k 6 I x x F k k r h F F F m k X m m N N N N N N m m c c n n h y m m N k 1 [ N N N N N N N k k k k k k x k k o Q h e e e x x x x h h h q ",
"k k k k k k k k k k k k k 1 k h h h h h r h F F F N c X C N N N M M N x x k k k k k k k m h 8 6 2 Q N N N N m m m k k k k k k k k k . I I l e e x x x x 9 q q q ",
"q q q 9 h x k k k k k k h 4 h h h h h h h h h h h h h X @ m m m N m m x x l x x x x k 9 X X X X f f h N m m n n 0 0 0 9 8 6 6 6 e e 6 q w e q q q q q q q q q q ",
"= * * * * $ $ $ $ $ $ * * * * * * * * * * $ * O # * 8 y.X     X X X X                   5.2.2.y.+         X X . 7 7 > = = * 6 > : 2 2 6 : 6 6 8 6 6 3 3 2 2 3 3 ",
"    . . . . . .     . + O 7 7 7 7 7 7 6 3 . v v c q.z.j.4.4.y.6 f f e d.B.y.X.X.X.y.o O.h.h.p.h.x.N.k.o X . o X X X o j K H o o + $ # * o X o X X ; @ o X o o X ",
"v C v C C m C C C C C ^ ^  .R ! ~ / ^ / ^ 9 c p.:.h.x.y.c z.h.h.h.z.h.r h.z.z.h.q.a.o 3.h h k c x / m q.q.3.x x k j h Y X.x $.5.4.>.:.Y C H H D C S C C C C C C ",
"^ ^ ^ ^ ^ ^ Y ~ ! ^ ^ ^  .$.C l k $.~ !  .= k c k k l l m :.q.e.e.e.p.q.= w t t f f + 1.c c x c c c m $.$.$.~ ~ ~ ~ f s @.$.x x x k l 2.F H Y H H v C S S C c c ",
"f f f f f f r r s r r r x x x c Y f f f f : j h h j h h h h h k x x x k e 8 9 9 q q 2 Q c c c c c c n h h h ~ Y Y ~ q * c ~ h h h h h h c x l j h f r s s s s e ",
"r f f r f f r r s r r s l c j e e r r f = = h h h h f f f h h h k k k h e e f h h h q U c c c h h r r f h f f f f f 9 & h h h h h h h j j a h h f f f f h f r e ",
"s f f r s r r r r r r r h e e e e r r f = = h h h h f r r f f r f f r q q Q 2.2.3.` 2 U c h r t r f f f f f f f f f 9 $ h h h h s f f s h l f h j h h f f f r e ",
"q 9 9 q q q q r r r r r r e e e e r r f = = j k k k r r r r r r r r r 6 j x x k k 9 # h r r t t r r r r r r r r r f 8 $ h h h k q q r q h h f h f f f f h f f e ",
"q q q q q e e e e r r r r e e 2 2 e e e q = r l j k r r r r r r r r r 3 l x k k k 9 # h r r t f r r r r r r r r r f 6 # q e q q q 9 9 9 9 8 , f f h f f f f f e ",
"q e e e e q e q 9 e e e e e e e e e e e e = e e e e e e e q e e e q & 2 l k k h k 8 1 8 r r r r e e 1 r r r r r r r 6 = 9 q e q s e q q q q p f e f f r r s e q ",
"9 9 9 9 8 9 q q q 9 e e e e e e e e e q 6 = q e e e e e e = * * * * * : = k h h h F F 8 2 2 3 : 2 2 X 6 r r r r r r 6 = 9 9 9 8 q 9 9 6 3 6 e q q q q q q 9 q 9 ",
"9 9 9 9 8 8 9 9 9 9 7 8 e e e e e e q 9 9 6 q e 8 1 : : : = 6 e e e e e : q 9 q 9 6 8 # @ @ + . o o $ 3 2 6 e e 7 : h 3 : : : : : : = = = = 6 6 6 9 9 8 9 9 6 6 "
};
